<svg xmlns:xlink="http://www.w3.org/1999/xlink" version="1.1" style="font-family:'lucida grande', 'lucida sans unicode', arial, helvetica, sans-serif;font-size:12px;" xmlns="http://www.w3.org/2000/svg" width="2280" height="800"><desc>Created with Highcharts 4.2.1 /Highstock 4.2.1</desc><defs><clipPath id="highcharts-34"><rect x="0" y="0" width="2195" height="599"></rect></clipPath></defs><rect x="0" y="0" width="2280" height="800" strokeWidth="0" fill="#FFFFFF" class=" highcharts-background"></rect><g class="highcharts-grid" ></g><g class="highcharts-grid" ><path fill="none" d="M 75 671.5 L 2270 671.5" stroke="#D8D8D8" stroke-width="1"  opacity="1"></path><path fill="none" d="M 75 617.5 L 2270 617.5" stroke="#D8D8D8" stroke-width="1"  opacity="1"></path><path fill="none" d="M 75 562.5 L 2270 562.5" stroke="#D8D8D8" stroke-width="1"  opacity="1"></path><path fill="none" d="M 75 508.5 L 2270 508.5" stroke="#D8D8D8" stroke-width="1"  opacity="1"></path><path fill="none" d="M 75 453.5 L 2270 453.5" stroke="#D8D8D8" stroke-width="1"  opacity="1"></path><path fill="none" d="M 75 399.5 L 2270 399.5" stroke="#D8D8D8" stroke-width="1"  opacity="1"></path><path fill="none" d="M 75 344.5 L 2270 344.5" stroke="#D8D8D8" stroke-width="1"  opacity="1"></path><path fill="none" d="M 75 290.5 L 2270 290.5" stroke="#D8D8D8" stroke-width="1"  opacity="1"></path><path fill="none" d="M 75 235.5 L 2270 235.5" stroke="#D8D8D8" stroke-width="1"  opacity="1"></path><path fill="none" d="M 75 181.5 L 2270 181.5" stroke="#D8D8D8" stroke-width="1"  opacity="1"></path><path fill="none" d="M 75 126.5 L 2270 126.5" stroke="#D8D8D8" stroke-width="1"  opacity="1"></path><path fill="none" d="M 75 71.5 L 2270 71.5" stroke="#D8D8D8" stroke-width="1"  opacity="1"></path></g><g class="highcharts-axis" ><path fill="none" d="M 138.5 671 L 138.5 681" stroke="#C0D0E0" stroke-width="1" opacity="1"></path><path fill="none" d="M 213.5 671 L 213.5 681" stroke="#C0D0E0" stroke-width="1" opacity="1"></path><path fill="none" d="M 288.5 671 L 288.5 681" stroke="#C0D0E0" stroke-width="1" opacity="1"></path><path fill="none" d="M 363.5 671 L 363.5 681" stroke="#C0D0E0" stroke-width="1" opacity="1"></path><path fill="none" d="M 438.5 671 L 438.5 681" stroke="#C0D0E0" stroke-width="1" opacity="1"></path><path fill="none" d="M 513.5 671 L 513.5 681" stroke="#C0D0E0" stroke-width="1" opacity="1"></path><path fill="none" d="M 588.5 671 L 588.5 681" stroke="#C0D0E0" stroke-width="1" opacity="1"></path><path fill="none" d="M 663.5 671 L 663.5 681" stroke="#C0D0E0" stroke-width="1" opacity="1"></path><path fill="none" d="M 738.5 671 L 738.5 681" stroke="#C0D0E0" stroke-width="1" opacity="1"></path><path fill="none" d="M 813.5 671 L 813.5 681" stroke="#C0D0E0" stroke-width="1" opacity="1"></path><path fill="none" d="M 888.5 671 L 888.5 681" stroke="#C0D0E0" stroke-width="1" opacity="1"></path><path fill="none" d="M 963.5 671 L 963.5 681" stroke="#C0D0E0" stroke-width="1" opacity="1"></path><path fill="none" d="M 1038.5 671 L 1038.5 681" stroke="#C0D0E0" stroke-width="1" opacity="1"></path><path fill="none" d="M 1113.5 671 L 1113.5 681" stroke="#C0D0E0" stroke-width="1" opacity="1"></path><path fill="none" d="M 1188.5 671 L 1188.5 681" stroke="#C0D0E0" stroke-width="1" opacity="1"></path><path fill="none" d="M 1263.5 671 L 1263.5 681" stroke="#C0D0E0" stroke-width="1" opacity="1"></path><path fill="none" d="M 1338.5 671 L 1338.5 681" stroke="#C0D0E0" stroke-width="1" opacity="1"></path><path fill="none" d="M 1413.5 671 L 1413.5 681" stroke="#C0D0E0" stroke-width="1" opacity="1"></path><path fill="none" d="M 1488.5 671 L 1488.5 681" stroke="#C0D0E0" stroke-width="1" opacity="1"></path><path fill="none" d="M 1563.5 671 L 1563.5 681" stroke="#C0D0E0" stroke-width="1" opacity="1"></path><path fill="none" d="M 1638.5 671 L 1638.5 681" stroke="#C0D0E0" stroke-width="1" opacity="1"></path><path fill="none" d="M 1713.5 671 L 1713.5 681" stroke="#C0D0E0" stroke-width="1" opacity="1"></path><path fill="none" d="M 1788.5 671 L 1788.5 681" stroke="#C0D0E0" stroke-width="1" opacity="1"></path><path fill="none" d="M 1863.5 671 L 1863.5 681" stroke="#C0D0E0" stroke-width="1" opacity="1"></path><path fill="none" d="M 1938.5 671 L 1938.5 681" stroke="#C0D0E0" stroke-width="1" opacity="1"></path><path fill="none" d="M 2013.5 671 L 2013.5 681" stroke="#C0D0E0" stroke-width="1" opacity="1"></path><path fill="none" d="M 2088.5 671 L 2088.5 681" stroke="#C0D0E0" stroke-width="1" opacity="1"></path><path fill="none" d="M 2163.5 671 L 2163.5 681" stroke="#C0D0E0" stroke-width="1" opacity="1"></path><path fill="none" d="M 2238.5 671 L 2238.5 681" stroke="#C0D0E0" stroke-width="1" opacity="1"></path><text x="1172.5"  text-anchor="middle" transform="translate(0,0)" class=" highcharts-xaxis-title" style="color:#707070;fill:#707070;" y="712.8125">Time</text><path fill="none" d="M 75 671.5 L 2270 671.5" stroke="#C0D0E0" stroke-width="1" ></path></g><g class="highcharts-axis" ><text x="28.875"  text-anchor="middle" transform="translate(0,0) rotate(270 28.875 371.5)" class=" highcharts-yaxis-title" style="color:#707070;fill:#707070;" y="371.5">Values</text></g><g class="highcharts-series-group" ><g class="highcharts-series highcharts-series-0"  transform="translate(75,72) scale(1 1)" clip-path="url(#highcharts-34)"><path fill="none" d="M 21.519607340520885 502.0709090909091 L 27.01682196376939 502.0709090909091 L 33.00151128075753 502.0709090909091 L 40.501121953675 502.0709090909091 L 45.518361493856794 502.0709090909091 L 52.50049903034296 502.0709090909091 L 58.515186790022774 502.0709090909091 L 64.54487377104842 502.0709090909091 L 70.47706581332613 502.0709090909091 L 76.50675279435178 503.15999999999997 L 82.49144211133994 503.15999999999997 L 88.53612831371142 503.15999999999997 L 94.6708098441579 503.15999999999997 L 100.4680088943231 503.15999999999997 L 106.5126950966946 503.15999999999997 L 113.97480771624748 503.15999999999997 L 119.98199586525438 503.15999999999997 L 125.98918401426127 503.15999999999997 L 131.97387333124942 503.15999999999997 L 137.9810614802563 503.15999999999997 L 143.96575079724445 503.15999999999997 L 150.00293738894302 503.15999999999997 L 156.0101255379499 503.15999999999997 L 161.9798156335922 503.15999999999997 L 167.95700533990745 503.15999999999997 L 173.97919271026018 503.15999999999997 L 179.97888124859415 503.15999999999997 L 186.00106861894687 503.15999999999997 L 191.99325754660794 503.15999999999997 L 199.4928682195254 503.15999999999997 L 205.5750524752615 503.15999999999997 L 211.5072445175392 503.15999999999997 L 217.48443422385444 503.15999999999997 L 223.50662159420716 503.15999999999997 L 229.50631013254113 503.15999999999997 L 235.4984990602022 503.15999999999997 L 241.49068798786325 503.15999999999997 L 253.49756467520413 503.15999999999997 L 259.47475438151935 503.15999999999997 L 265.52694019456374 503.15999999999997 L 272.95905437142494 503.15999999999997 L 279.01873979514227 503.15999999999997 L 285.39340886712216 503.15999999999997 L 291.0106172611373 503.15999999999997 L 296.99530657812545 503.15999999999997 L 303.0024947271324 503.15999999999997 L 309.4746587378601 503.15999999999997 L 315.1293651852399 503.15999999999997 L 320.98656112078845 503.15999999999997 L 326.94125199508494 503.15999999999997 L 333.39841678446686 503.15999999999997 L 338.96312790377164 503.15999999999997 L 345.00781410614314 503.15999999999997 L 350.98500381245833 503.15999999999997 L 357.43466899116737 503.15999999999997 L 364.47680341303686 503.15999999999997 L 370.47649195137086 503.15999999999997 L 376.4911797110507 503.15999999999997 L 382.4758690280388 503.15999999999997 L 388.4755575663728 503.15999999999997 L 394.4902453260526 503.15999999999997 L 400.4674350323678 503.15999999999997 L 406.48962240272056 503.15999999999997 L 413.05928135219625 503.15999999999997 L 418.4889994793885 503.15999999999997 L 424.48118840704956 503.15999999999997 L 430.46587772403774 503.15999999999997 L 437.95048917560933 503.15999999999997 L 444.0251738206725 503.15999999999997 L 449.9873643056419 503.15999999999997 L 455.97205362263 504.2490909090909 L 461.971742160964 503.15999999999997 L 467.98642992064384 504.2490909090909 L 479.9858069973118 503.15999999999997 L 485.962996703627 504.2490909090909 L 491.96268524196097 504.2490909090909 L 497.95487416962203 504.2490909090909 L 503.9770615399748 504.2490909090909 L 509.9992489103275 504.2490909090909 L 515.953939784624 504.2490909090909 L 523.491048510906 504.2490909090909 L 529.49073704924 504.2490909090909 L 535.5954201369948 504.2490909090909 L 541.5276121792725 504.2490909090909 L 547.4748034428961 504.2490909090909 L 553.4669923705571 504.2490909090909 L 559.4591812982183 504.2490909090909 L 565.481368668571 504.2490909090909 L 571.4810572069049 504.2490909090909 L 577.4582469132201 504.2490909090909 L 583.5254319476104 504.2490909090909 L 589.472623211234 504.2490909090909 L 597.3022167537598 504.2490909090909 L 602.9944212545041 504.2490909090909 L 608.9566117394736 504.2490909090909 L 614.918802224443 504.2490909090909 L 621.270972464404 504.2490909090909 L 626.9856757971671 504.2490909090909 L 632.9553658928095 504.2490909090909 L 638.9625540418164 504.2490909090909 L 645.3372231137962 504.2490909090909 L 650.9094338437739 504.2490909090909 L 656.9616196568182 504.2490909090909 L 662.9613081951522 504.2490909090909 L 669.2609811604029 504.2490909090909 L 674.9681848824931 504.2490909090909 L 682.4527963340648 504.2490909090909 L 688.4674840937446 504.2490909090909 L 693.3647298631597 504.2490909090909 L 706.4065528233632 504.2490909090909 L 712.4512390257347 504.2490909090909 L 718.4134295107041 504.2490909090909 L 724.4506161024026 504.2490909090909 L 730.4353054193907 504.2490909090909 L 736.412495125706 504.2490909090909 L 742.41218366404 504.2490909090909 L 748.4418706450656 504.2490909090909 L 754.5090556794559 504.2490909090909 L 761.9636686883358 504.2490909090909 L 767.9258591733052 504.2490909090909 L 779.9702339140107 504.2490909090909 L 785.9474236203259 504.2490909090909 L 791.9396125479869 504.2490909090909 L 797.9318014756481 504.2490909090909 L 803.9614884566737 504.2490909090909 L 809.9311785523159 504.2490909090909 L 815.9383667013228 504.2490909090909 L 821.9155564076381 504.2490909090909 L 827.922744556645 504.2490909090909 L 835.4523536722542 504.2490909090909 L 841.4445425999152 504.2490909090909 L 853.4739181192748 504.2490909090909 L 859.4661070469359 504.2490909090909 L 865.4657955852698 504.2490909090909 L 871.450484902258 504.2490909090909 L 877.4576730512649 504.2490909090909 L 883.4798604216177 504.2490909090909 L 889.5020477919703 504.2490909090909 L 895.4567386662668 504.2490909090909 L 901.6289182500778 504.2490909090909 L 907.4636153536077 504.2490909090909 L 913.4708035026146 504.2490909090909 L 920.970414175532 504.2490909090909 L 926.9401042711744 504.2490909090909 L 933.3222729538271 504.2490909090909 L 938.9469809585153 504.2490909090909 L 944.9391698861763 504.2490909090909 L 950.9463580351832 504.2490909090909 L 957.3435259391817 504.2490909090909 L 962.9382355011783 504.2490909090909 L 968.9379240395122 504.2490909090909 L 974.9901098525567 504.2490909090909 L 981.312281649826 504.2490909090909 L 986.9594884865329 504.2490909090909 L 994.4291007167587 504.2490909090909 L 1000.4362888657656 504.2490909090909 L 1005.393531520564 504.2490909090909 L 1012.4281663317606 504.2490909090909 L 1018.4578533127863 504.2490909090909 L 1024.487540293812 504.2490909090909 L 1030.4197323360897 504.2490909090909 L 1036.4269204850966 504.2490909090909 L 1042.464107076795 504.2490909090909 L 1048.5087932791666 504.2490909090909 L 1054.4259861000985 504.2490909090909 L 1060.478171913143 504.2490909090909 L 1066.4328627874393 504.2490909090909 L 1072.5300462645212 504.2490909090909 L 1079.9546608307096 504.2490909090909 L 1085.9543493690435 504.2490909090909 L 1091.901540632667 504.2490909090909 L 1097.9387272243657 504.2490909090909 L 1103.9234165413538 504.2490909090909 L 1109.915605469015 504.2490909090909 L 1115.9152940073488 504.2490909090909 L 1121.9449809883745 504.2490909090909 L 1127.9371699160356 504.2490909090909 L 1133.9368584543695 504.2490909090909 L 1139.9515462140494 504.2490909090909 L 1145.9587343630562 504.2490909090909 L 1151.9509232907174 504.2490909090909 L 1159.7505183905514 504.2490909090909 L 1165.4427228912957 504.2490909090909 L 1171.427412208284 504.2490909090909 L 1177.4420999679637 504.2490909090909 L 1183.4567877276436 504.2490909090909 L 1189.4339774339587 504.2490909090909 L 1195.4711640256573 504.2490909090909 L 1201.418355289281 504.2490909090909 L 1207.485540323671 504.2490909090909 L 1213.4327315872947 504.2490909090909 L 1219.4549189576474 504.2490909090909 L 1225.4246090532897 504.2490909090909 L 1231.4542960343153 504.2490909090909 L 1238.938907485887 504.2490909090909 L 1245.4185711072878 504.2490909090909 L 1250.9007865091903 504.2490909090909 L 1256.945472711562 504.2490909090909 L 1262.9151628072043 504.2490909090909 L 1269.282332268511 504.2490909090909 L 1274.9520379372368 504.2490909090909 L 1280.929227643552 504.2490909090909 L 1286.928916181886 504.2490909090909 L 1293.371081749922 504.2490909090909 L 1304.9579802395795 504.2490909090909 L 1310.912671113876 504.2490909090909 L 1317.1673464150892 504.2490909090909 L 1324.4194699358004 504.2490909090909 L 1330.441657306153 504.2490909090909 L 1336.4263466231412 504.2490909090909 L 1342.4710328255128 504.2490909090909 L 1348.4407229211552 504.2490909090909 L 1354.6728993903494 504.2490909090909 L 1360.4251007764772 504.2490909090909 L 1366.439788536157 504.2490909090909 L 1378.3566698954228 504.2490909090909 L 1384.4088557084672 504.2490909090909 L 1390.4385426894928 504.2490909090909 L 1397.9306537517375 504.2490909090909 L 1403.975339954109 504.2490909090909 L 1409.9300308284055 504.2490909090909 L 1415.9597178094311 504.2490909090909 L 1421.966905958438 504.2490909090909 L 1427.8840987793699 504.2490909090909 L 1433.943784203087 504.2490909090909 L 1439.9209739094024 504.2490909090909 L 1446.0931534932135 504.2490909090909 L 1451.9428498180891 504.2490909090909 L 1457.9050403030585 504.2490909090909 L 1463.9347272840841 504.2490909090909 L 1469.9269162117453 504.2490909090909 L 1477.4415261060085 504.2490909090909 L 1483.4262154229966 504.2490909090909 L 1489.4334035720035 504.2490909090909 L 1495.4255924996646 504.2490909090909 L 1501.477778312709 504.2490909090909 L 1507.4324691870054 504.2490909090909 L 1513.4171585039935 504.2490909090909 L 1519.4393458743464 504.2490909090909 L 1525.3940367486427 504.2490909090909 L 1531.4087245083226 504.2490909090909 L 1537.4084130466565 504.2490909090909 L 1543.4006019743176 504.2490909090909 L 1549.4077901233245 504.2490909090909 L 1556.9298996282607 504.2490909090909 L 1562.9445873879406 504.2490909090909 L 1568.899278262237 504.2490909090909 L 1574.898966800571 504.2490909090909 L 1581.16864132313 504.2490909090909 L 1586.9658403732954 504.2490909090909 L 1592.9580293009562 504.2490909090909 L 1598.9127201752528 504.2490909090909 L 1604.9499067669512 504.2490909090909 L 1610.882098809229 504.2490909090909 L 1616.9267850116005 504.2490909090909 L 1622.9264735499346 504.2490909090909 L 1629.143650797783 504.2490909090909 L 1636.4407719825317 504.2490909090909 L 1642.3954628568283 504.2490909090909 L 1648.432649448527 504.2490909090909 L 1653.4348897673628 504.2490909090909 L 1660.409527693176 504.2490909090909 L 1666.5817072769871 504.2490909090909 L 1672.8063841355086 504.2490909090909 L 1678.4235925295238 504.2490909090909 L 1684.3707837931474 504.2490909090909 L 1690.3779719421543 504.2490909090909 L 1696.3776604804882 504.2490909090909 L 1702.4148470721868 504.2490909090909 L 1708.407035999848 504.2490909090909 L 1714.5567167516401 504.2490909090909 L 1721.936333653791 504.2490909090909 L 1727.8760253067417 504.2490909090909 L 1733.9132118984403 504.2490909090909 L 1739.8829019940824 504.2490909090909 L 1745.8900901430893 504.2490909090909 L 1751.8972782920962 504.2490909090909 L 1757.8894672197573 504.2490909090909 L 1763.8816561474184 504.2490909090909 L 1769.8888442964253 504.2490909090909 L 1775.9035320561052 504.2490909090909 L 1781.910720205112 504.2490909090909 L 1787.8804103007544 504.2490909090909 L 1795.3950201950177 504.2490909090909 L 1801.4172075653703 504.2490909090909 L 1807.3793980503397 504.2490909090909 L 1813.3865861993465 504.2490909090909 L 1819.4087735696994 504.2490909090909 L 1831.4081506463674 504.2490909090909 L 1837.3778407420095 504.2490909090909 L 1843.977498134177 504.2490909090909 L 1849.4522139254068 504.2490909090909 L 1855.4144044103762 504.2490909090909 L 1861.41409294871 504.2490909090909 L 1867.3762834336794 504.2490909090909 L 1874.9358909919804 504.2490909090909 L 1880.9130806982955 504.2490909090909 L 1887.062761450088 504.2490909090909 L 1892.9349566069823 504.2490909090909 L 1910.8890245579466 504.2490909090909 L 1917.136200248487 504.2490909090909 L 1922.8884016346146 504.2490909090909 L 1928.8655913409298 504.2490909090909 L 1935.0827685887784 504.2490909090909 L 1940.9549637456728 504.2490909090909 L 1946.9321534519881 504.2490909090909 L 1954.4317641249056 504.2490909090909 L 1960.4239530525665 504.2490909090909 L 1966.3936431482089 504.2490909090909 L 1972.38583207587 504.2490909090909 L 1978.3930202248769 504.2490909090909 L 1984.385209152538 504.2490909090909 L 1990.369898469526 504.2490909090909 L 1996.384586229206 504.2490909090909 L 2002.369275546194 504.2490909090909 L 2008.4139617485655 504.2490909090909 L 2014.3461537908431 504.2490909090909 L 2020.375840771869 504.2490909090909 L 2026.3905285315486 504.2490909090909 L 2033.8826395937933 504.2490909090909 L 2039.912326574819 504.2490909090909 L 2045.897015891807 504.2490909090909 L 2051.986699758216 504.2490909090909 L 2057.866394525783 504.2490909090909 L 2063.881082285463 504.2490909090909 L 2069.873271213124 504.2490909090909 L 2075.90295819415 504.2490909090909 L 2081.865148679119 504.2490909090909 L 2087.8498379961075 504.2490909090909 L 2093.894524198479 504.2490909090909 L 2099.864214294121 504.2490909090909 L 2105.8939012751466 504.2490909090909 L 2113.3860123373915 504.2490909090909 L 2119.3482028223607 504.2490909090909 L 2125.3703901927133 504.2490909090909 L 2137.384766490727 504.2490909090909 L 2143.40695386108 504.2490909090909 L 2149.3616447353766 504.2490909090909 L 2161.3760210333903 504.2490909090909 L 2167.383209182397 504.2490909090909 L 2173.480392659479 504.2490909090909" stroke="#7cb5ec" stroke-width="2"  stroke-linejoin="round" stroke-linecap="round"></path></g><g class="highcharts-markers highcharts-series-0"  transform="translate(75,72) scale(1 1)" clip-path="none"></g><g class="highcharts-series highcharts-series-1"  transform="translate(75,72) scale(1 1)" clip-path="url(#highcharts-34)"><path fill="none" d="M 21.519607340520885 526.4665454545454 L 27.01682196376939 526.4883272727272 L 33.00151128075753 526.4665454545454 L 40.501121953675 526.3794181818182 L 45.518361493856794 526.4883272727272 L 52.50049903034296 526.4229818181818 L 58.515186790022774 526.4229818181818 L 64.54487377104842 526.4229818181818 L 70.47706581332613 526.3794181818182 L 76.50675279435178 526.4012 L 82.49144211133994 526.3794181818182 L 88.53612831371142 526.3576363636364 L 94.6708098441579 526.3576363636364 L 100.4680088943231 526.3140727272728 L 106.5126950966946 526.3140727272728 L 113.97480771624748 526.3576363636364 L 119.98199586525438 526.3358545454546 L 125.98918401426127 526.3358545454546 L 131.97387333124942 526.3140727272728 L 137.9810614802563 526.2487272727273 L 143.96575079724445 526.2705090909091 L 150.00293738894302 526.2487272727273 L 156.0101255379499 526.2051636363636 L 161.9798156335922 526.2487272727273 L 167.95700533990745 526.2487272727273 L 173.97919271026018 526.1833818181818 L 179.97888124859415 526.2487272727273 L 186.00106861894687 526.2051636363636 L 191.99325754660794 526.1833818181818 L 199.4928682195254 526.1833818181818 L 205.5750524752615 526.1616 L 211.5072445175392 526.1833818181818 L 217.48443422385444 526.0962545454545 L 223.50662159420716 526.1398181818182 L 229.50631013254113 526.1398181818182 L 235.4984990602022 526.0962545454545 L 241.49068798786325 526.1398181818182 L 253.49756467520413 526.0526909090909 L 259.47475438151935 526.0744727272727 L 265.52694019456374 526.0962545454545 L 272.95905437142494 526.0962545454545 L 279.01873979514227 526.0526909090909 L 285.39340886712216 526.0526909090909 L 291.0106172611373 526.0091272727273 L 296.99530657812545 526.0091272727273 L 303.0024947271324 526.0091272727273 L 309.4746587378601 525.9655636363636 L 315.1293651852399 525.9873454545454 L 320.98656112078845 526.0091272727273 L 326.94125199508494 525.9437818181818 L 333.39841678446686 525.9655636363636 L 338.96312790377164 525.9655636363636 L 345.00781410614314 525.9655636363636 L 350.98500381245833 525.922 L 357.43466899116737 525.9437818181818 L 364.47680341303686 525.9437818181818 L 370.47649195137086 525.9437818181818 L 376.4911797110507 525.9002181818182 L 382.4758690280388 525.922 L 388.4755575663728 525.8348727272727 L 394.4902453260526 525.9002181818182 L 400.4674350323678 525.8784363636364 L 406.48962240272056 525.8784363636364 L 413.05928135219625 525.8784363636364 L 418.4889994793885 525.8348727272727 L 424.48118840704956 525.8784363636364 L 430.46587772403774 525.8130909090909 L 437.95048917560933 525.8348727272727 L 444.0251738206725 525.7695272727273 L 449.9873643056419 525.8348727272727 L 455.97205362263 525.7477454545455 L 461.971742160964 525.7477454545455 L 467.98642992064384 525.7477454545455 L 479.9858069973118 525.7259636363636 L 485.962996703627 525.7477454545455 L 491.96268524196097 525.7477454545455 L 497.95487416962203 525.7259636363636 L 503.9770615399748 525.7259636363636 L 509.9992489103275 525.7041818181818 L 515.953939784624 525.7041818181818 L 523.491048510906 525.7041818181818 L 529.49073704924 525.6824 L 535.5954201369948 525.6170545454545 L 541.5276121792725 525.6388363636363 L 547.4748034428961 525.6388363636363 L 553.4669923705571 525.6824 L 559.4591812982183 525.6170545454545 L 565.481368668571 525.6606181818182 L 571.4810572069049 525.6170545454545 L 577.4582469132201 525.6170545454545 L 583.5254319476104 525.5734909090909 L 589.472623211234 525.6388363636363 L 597.3022167537598 525.5952727272727 L 602.9944212545041 525.5517090909091 L 608.9566117394736 525.5517090909091 L 614.918802224443 525.5299272727273 L 621.270972464404 525.5517090909091 L 626.9856757971671 525.5517090909091 L 632.9553658928095 525.5081454545455 L 638.9625540418164 525.5299272727273 L 645.3372231137962 525.5299272727273 L 650.9094338437739 525.5081454545455 L 656.9616196568182 525.4863636363636 L 662.9613081951522 525.4863636363636 L 669.2609811604029 525.3992363636364 L 674.9681848824931 525.4210181818182 L 682.4527963340648 525.4863636363636 L 688.4674840937446 525.4428 L 693.3647298631597 525.4210181818182 L 706.4065528233632 525.4428 L 712.4512390257347 525.3992363636364 L 718.4134295107041 525.3556727272727 L 724.4506161024026 525.3992363636364 L 730.4353054193907 525.3338909090909 L 736.412495125706 525.3774545454546 L 742.41218366404 525.3556727272727 L 748.4418706450656 525.3338909090909 L 754.5090556794559 525.3338909090909 L 761.9636686883358 525.3338909090909 L 767.9258591733052 525.3121090909091 L 779.9702339140107 525.2903272727273 L 785.9474236203259 525.2903272727273 L 791.9396125479869 525.2685454545455 L 797.9318014756481 525.2685454545455 L 803.9614884566737 525.2903272727273 L 809.9311785523159 525.2685454545455 L 815.9383667013228 525.2903272727273 L 821.9155564076381 525.2249818181818 L 827.922744556645 525.2249818181818 L 835.4523536722542 525.2032 L 841.4445425999152 525.2032 L 853.4739181192748 525.1814181818181 L 859.4661070469359 525.1814181818181 L 865.4657955852698 525.2032 L 871.450484902258 525.1814181818181 L 877.4576730512649 525.1814181818181 L 883.4798604216177 525.1160727272727 L 889.5020477919703 525.1596363636363 L 895.4567386662668 525.1160727272727 L 901.6289182500778 525.1596363636363 L 907.4636153536077 525.0725090909091 L 913.4708035026146 525.0942909090909 L 920.970414175532 525.1160727272727 L 926.9401042711744 525.0725090909091 L 933.3222729538271 525.0942909090909 L 938.9469809585153 525.0289454545455 L 944.9391698861763 525.0725090909091 L 950.9463580351832 525.0725090909091 L 957.3435259391817 525.0507272727273 L 962.9382355011783 524.9853818181818 L 968.9379240395122 524.9853818181818 L 974.9901098525567 525.0071636363637 L 981.312281649826 524.9853818181818 L 986.9594884865329 524.9853818181818 L 994.4291007167587 525.0071636363637 L 1000.4362888657656 524.9853818181818 L 1005.393531520564 524.9636 L 1012.4281663317606 525.0071636363637 L 1018.4578533127863 524.9636 L 1024.487540293812 524.9418181818182 L 1030.4197323360897 524.9200363636364 L 1036.4269204850966 524.9418181818182 L 1042.464107076795 524.9418181818182 L 1048.5087932791666 524.8764727272727 L 1054.4259861000985 524.8982545454545 L 1060.478171913143 524.9200363636364 L 1066.4328627874393 524.8764727272727 L 1072.5300462645212 524.8764727272727 L 1079.9546608307096 524.8111272727273 L 1085.9543493690435 524.8111272727273 L 1091.901540632667 524.8764727272727 L 1097.9387272243657 524.8111272727273 L 1103.9234165413538 524.8764727272727 L 1109.915605469015 524.8111272727273 L 1115.9152940073488 524.8111272727273 L 1121.9449809883745 524.8546909090909 L 1127.9371699160356 524.7893454545455 L 1133.9368584543695 524.8111272727273 L 1139.9515462140494 524.7893454545455 L 1145.9587343630562 524.7457818181819 L 1151.9509232907174 524.7675636363637 L 1159.7505183905514 524.7457818181819 L 1165.4427228912957 524.7457818181819 L 1171.427412208284 524.7457818181819 L 1177.4420999679637 524.7457818181819 L 1183.4567877276436 524.6804363636363 L 1189.4339774339587 524.7457818181819 L 1195.4711640256573 524.6804363636363 L 1201.418355289281 524.7239999999999 L 1207.485540323671 524.6804363636363 L 1213.4327315872947 524.6804363636363 L 1219.4549189576474 524.6586545454545 L 1225.4246090532897 524.6586545454545 L 1231.4542960343153 524.6804363636363 L 1238.938907485887 524.6368727272727 L 1245.4185711072878 524.6586545454545 L 1250.9007865091903 524.6368727272727 L 1256.945472711562 524.5933090909091 L 1262.9151628072043 524.6150909090909 L 1269.282332268511 524.6368727272727 L 1274.9520379372368 524.5715272727273 L 1280.929227643552 524.5933090909091 L 1286.928916181886 524.5715272727273 L 1293.371081749922 524.5497454545455 L 1304.9579802395795 524.5715272727273 L 1310.912671113876 524.5933090909091 L 1317.1673464150892 524.5279636363637 L 1324.4194699358004 524.5279636363637 L 1330.441657306153 524.5279636363637 L 1336.4263466231412 524.5279636363637 L 1342.4710328255128 524.4844 L 1348.4407229211552 524.5279636363637 L 1354.6728993903494 524.4844 L 1360.4251007764772 524.4844 L 1366.439788536157 524.4626181818182 L 1378.3566698954228 524.4844 L 1384.4088557084672 524.4408363636363 L 1390.4385426894928 524.4626181818182 L 1397.9306537517375 524.4408363636363 L 1403.975339954109 524.4626181818182 L 1409.9300308284055 524.3972727272727 L 1415.9597178094311 524.3972727272727 L 1421.966905958438 524.3972727272727 L 1427.8840987793699 524.3972727272727 L 1433.943784203087 524.3754909090909 L 1439.9209739094024 524.3754909090909 L 1446.0931534932135 524.3319272727273 L 1451.9428498180891 524.3537090909091 L 1457.9050403030585 524.3319272727273 L 1463.9347272840841 524.3101454545455 L 1469.9269162117453 524.3319272727273 L 1477.4415261060085 524.3101454545455 L 1483.4262154229966 524.3319272727273 L 1489.4334035720035 524.3319272727273 L 1495.4255924996646 524.2883636363637 L 1501.477778312709 524.2883636363637 L 1507.4324691870054 524.2883636363637 L 1513.4171585039935 524.2665818181817 L 1519.4393458743464 524.2665818181817 L 1525.3940367486427 524.2665818181817 L 1531.4087245083226 524.2665818181817 L 1537.4084130466565 524.2665818181817 L 1543.4006019743176 524.2447999999999 L 1549.4077901233245 524.2665818181817 L 1556.9298996282607 524.2447999999999 L 1562.9445873879406 524.2447999999999 L 1568.899278262237 524.2012363636363 L 1574.898966800571 524.1576727272727 L 1581.16864132313 524.1576727272727 L 1586.9658403732954 524.2012363636363 L 1592.9580293009562 524.2012363636363 L 1598.9127201752528 524.2012363636363 L 1604.9499067669512 524.1576727272727 L 1610.882098809229 524.1576727272727 L 1616.9267850116005 524.1358909090909 L 1622.9264735499346 524.1358909090909 L 1629.143650797783 524.0923272727273 L 1636.4407719825317 524.1141090909091 L 1642.3954628568283 524.0923272727273 L 1648.432649448527 524.1358909090909 L 1653.4348897673628 524.0923272727273 L 1660.409527693176 524.1141090909091 L 1666.5817072769871 524.0487636363637 L 1672.8063841355086 524.0705454545455 L 1678.4235925295238 524.0705454545455 L 1684.3707837931474 524.0487636363637 L 1690.3779719421543 524.0705454545455 L 1696.3776604804882 524.0487636363637 L 1702.4148470721868 524.0269818181819 L 1708.407035999848 524.0705454545455 L 1714.5567167516401 524.0269818181819 L 1721.936333653791 524.0269818181819 L 1727.8760253067417 524.0269818181819 L 1733.9132118984403 524.0269818181819 L 1739.8829019940824 523.9834181818181 L 1745.8900901430893 523.9834181818181 L 1751.8972782920962 523.9834181818181 L 1757.8894672197573 523.9834181818181 L 1763.8816561474184 524.0052000000001 L 1769.8888442964253 523.9398545454545 L 1775.9035320561052 523.9180727272727 L 1781.910720205112 523.9398545454545 L 1787.8804103007544 523.9398545454545 L 1795.3950201950177 523.9180727272727 L 1801.4172075653703 523.8745090909091 L 1807.3793980503397 523.9180727272727 L 1813.3865861993465 523.9180727272727 L 1819.4087735696994 523.9180727272727 L 1831.4081506463674 523.8962909090909 L 1837.3778407420095 523.8962909090909 L 1843.977498134177 523.8309454545455 L 1849.4522139254068 523.8745090909091 L 1855.4144044103762 523.8962909090909 L 1861.41409294871 523.8309454545455 L 1867.3762834336794 523.8309454545455 L 1874.9358909919804 523.8309454545455 L 1880.9130806982955 523.8091636363636 L 1887.062761450088 523.7656 L 1892.9349566069823 523.8309454545455 L 1910.8890245579466 523.7656 L 1917.136200248487 523.7438181818181 L 1922.8884016346146 523.7438181818181 L 1928.8655913409298 523.7656 L 1935.0827685887784 523.7438181818181 L 1940.9549637456728 523.7438181818181 L 1946.9321534519881 523.7438181818181 L 1954.4317641249056 523.6784727272727 L 1960.4239530525665 523.7220363636363 L 1966.3936431482089 523.6784727272727 L 1972.38583207587 523.7002545454545 L 1978.3930202248769 523.7002545454545 L 1984.385209152538 523.6784727272727 L 1990.369898469526 523.6566909090909 L 1996.384586229206 523.6784727272727 L 2002.369275546194 523.6349090909091 L 2008.4139617485655 523.6566909090909 L 2014.3461537908431 523.6566909090909 L 2020.375840771869 523.6784727272727 L 2026.3905285315486 523.6131272727273 L 2033.8826395937933 523.6566909090909 L 2039.912326574819 523.6131272727273 L 2045.897015891807 523.5695636363637 L 2051.986699758216 523.6131272727273 L 2057.866394525783 523.5695636363637 L 2063.881082285463 523.5913454545455 L 2069.873271213124 523.5913454545455 L 2075.90295819415 523.6131272727273 L 2081.865148679119 523.6131272727273 L 2087.8498379961075 523.5695636363637 L 2093.894524198479 523.5042181818181 L 2099.864214294121 523.5695636363637 L 2105.8939012751466 523.5042181818181 L 2113.3860123373915 523.526 L 2119.3482028223607 523.4824363636363 L 2125.3703901927133 523.4824363636363 L 2137.384766490727 523.4824363636363 L 2143.40695386108 523.4824363636363 L 2149.3616447353766 523.5042181818181 L 2161.3760210333903 523.4824363636363 L 2167.383209182397 523.4170909090909 L 2173.480392659479 523.4606545454545" stroke="#434348" stroke-width="2"  stroke-linejoin="round" stroke-linecap="round"></path></g><g class="highcharts-markers highcharts-series-1"  transform="translate(75,72) scale(1 1)" clip-path="none"></g><g class="highcharts-series highcharts-series-2"  visibility="hidden" transform="translate(75,72) scale(1 1)" clip-path="url(#highcharts-34)"></g><g class="highcharts-markers highcharts-series-2"  visibility="hidden" transform="translate(75,72) scale(1 1)" clip-path="none"></g><g class="highcharts-series highcharts-series-3"  transform="translate(75,72) scale(1 1)" clip-path="url(#highcharts-34)"><path fill="none" d="M 21.519607340520885 111.0872727272727 L 27.01682196376939 111.0872727272727 L 33.00151128075753 111.0872727272727 L 40.501121953675 111.0872727272727 L 45.518361493856794 111.0872727272727 L 52.50049903034296 111.0872727272727 L 58.515186790022774 111.0872727272727 L 64.54487377104842 111.0872727272727 L 70.47706581332613 111.0872727272727 L 76.50675279435178 111.0872727272727 L 82.49144211133994 111.0872727272727 L 88.53612831371142 111.0872727272727 L 94.6708098441579 111.0872727272727 L 100.4680088943231 111.0872727272727 L 106.5126950966946 111.0872727272727 L 113.97480771624748 111.0872727272727 L 119.98199586525438 111.0872727272727 L 125.98918401426127 111.0872727272727 L 131.97387333124942 111.0872727272727 L 137.9810614802563 111.0872727272727 L 143.96575079724445 111.0872727272727 L 150.00293738894302 111.0872727272727 L 156.0101255379499 111.0872727272727 L 161.9798156335922 111.0872727272727 L 167.95700533990745 111.0872727272727 L 173.97919271026018 111.0872727272727 L 179.97888124859415 111.0872727272727 L 186.00106861894687 111.0872727272727 L 191.99325754660794 111.0872727272727 L 199.4928682195254 111.0872727272727 L 205.5750524752615 111.0872727272727 L 211.5072445175392 111.0872727272727 L 217.48443422385444 113.26545454545453 L 223.50662159420716 111.0872727272727 L 229.50631013254113 113.26545454545453 L 235.4984990602022 111.0872727272727 L 241.49068798786325 111.0872727272727 L 253.49756467520413 111.0872727272727 L 259.47475438151935 111.0872727272727 L 265.52694019456374 111.0872727272727 L 272.95905437142494 111.0872727272727 L 279.01873979514227 111.0872727272727 L 285.39340886712216 111.0872727272727 L 291.0106172611373 111.0872727272727 L 296.99530657812545 111.0872727272727 L 303.0024947271324 111.0872727272727 L 309.4746587378601 111.0872727272727 L 315.1293651852399 111.0872727272727 L 320.98656112078845 111.0872727272727 L 326.94125199508494 111.0872727272727 L 333.39841678446686 95.83999999999997 L 338.96312790377164 98.0181818181818 L 345.00781410614314 98.0181818181818 L 350.98500381245833 98.0181818181818 L 357.43466899116737 95.83999999999997 L 364.47680341303686 95.83999999999997 L 370.47649195137086 95.83999999999997 L 376.4911797110507 95.83999999999997 L 382.4758690280388 95.83999999999997 L 388.4755575663728 95.83999999999997 L 394.4902453260526 95.83999999999997 L 400.4674350323678 95.83999999999997 L 406.48962240272056 95.83999999999997 L 413.05928135219625 95.83999999999997 L 418.4889994793885 95.83999999999997 L 424.48118840704956 95.83999999999997 L 430.46587772403774 95.83999999999997 L 437.95048917560933 95.83999999999997 L 444.0251738206725 95.83999999999997 L 449.9873643056419 95.83999999999997 L 455.97205362263 95.83999999999997 L 461.971742160964 95.83999999999997 L 467.98642992064384 93.66181818181815 L 479.9858069973118 93.66181818181815 L 485.962996703627 93.66181818181815 L 491.96268524196097 93.66181818181815 L 497.95487416962203 93.66181818181815 L 503.9770615399748 93.66181818181815 L 509.9992489103275 93.66181818181815 L 515.953939784624 93.66181818181815 L 523.491048510906 93.66181818181815 L 529.49073704924 93.66181818181815 L 535.5954201369948 93.66181818181815 L 541.5276121792725 93.66181818181815 L 547.4748034428961 93.66181818181815 L 553.4669923705571 93.66181818181815 L 559.4591812982183 93.66181818181815 L 565.481368668571 93.66181818181815 L 571.4810572069049 93.66181818181815 L 577.4582469132201 93.66181818181815 L 583.5254319476104 93.66181818181815 L 589.472623211234 93.66181818181815 L 597.3022167537598 93.66181818181815 L 602.9944212545041 93.66181818181815 L 608.9566117394736 93.66181818181815 L 614.918802224443 93.66181818181815 L 621.270972464404 93.66181818181815 L 626.9856757971671 91.48363636363638 L 632.9553658928095 91.48363636363638 L 638.9625540418164 91.48363636363638 L 645.3372231137962 91.48363636363638 L 650.9094338437739 91.48363636363638 L 656.9616196568182 91.48363636363638 L 662.9613081951522 91.48363636363638 L 669.2609811604029 91.48363636363638 L 674.9681848824931 91.48363636363638 L 682.4527963340648 91.48363636363638 L 688.4674840937446 91.48363636363638 L 693.3647298631597 89.30545454545455 L 706.4065528233632 91.48363636363638 L 712.4512390257347 91.48363636363638 L 718.4134295107041 91.48363636363638 L 724.4506161024026 91.48363636363638 L 730.4353054193907 91.48363636363638 L 736.412495125706 89.30545454545455 L 742.41218366404 91.48363636363638 L 748.4418706450656 89.30545454545455 L 754.5090556794559 89.30545454545455 L 761.9636686883358 89.30545454545455 L 767.9258591733052 89.30545454545455 L 779.9702339140107 89.30545454545455 L 785.9474236203259 89.30545454545455 L 791.9396125479869 89.30545454545455 L 797.9318014756481 87.12727272727273 L 803.9614884566737 87.12727272727273 L 809.9311785523159 87.12727272727273 L 815.9383667013228 87.12727272727273 L 821.9155564076381 87.12727272727273 L 827.922744556645 87.12727272727273 L 835.4523536722542 87.12727272727273 L 841.4445425999152 87.12727272727273 L 853.4739181192748 87.12727272727273 L 859.4661070469359 87.12727272727273 L 865.4657955852698 87.12727272727273 L 871.450484902258 87.12727272727273 L 877.4576730512649 87.12727272727273 L 883.4798604216177 87.12727272727273 L 889.5020477919703 87.12727272727273 L 895.4567386662668 87.12727272727273 L 901.6289182500778 104.55272727272728 L 907.4636153536077 538.0109090909091 L 913.4708035026146 516.2290909090909 L 920.970414175532 527.12 L 926.9401042711744 84.94909090909096 L 933.3222729538271 84.94909090909096 L 938.9469809585153 84.94909090909096 L 944.9391698861763 84.94909090909096 L 950.9463580351832 84.94909090909096 L 957.3435259391817 84.94909090909096 L 962.9382355011783 84.94909090909096 L 968.9379240395122 84.94909090909096 L 974.9901098525567 84.94909090909096 L 981.312281649826 84.94909090909096 L 986.9594884865329 84.94909090909096 L 994.4291007167587 82.77090909090907 L 1000.4362888657656 82.77090909090907 L 1005.393531520564 82.77090909090907 L 1012.4281663317606 82.77090909090907 L 1018.4578533127863 82.77090909090907 L 1024.487540293812 82.77090909090907 L 1030.4197323360897 82.77090909090907 L 1036.4269204850966 82.77090909090907 L 1042.464107076795 82.77090909090907 L 1048.5087932791666 82.77090909090907 L 1054.4259861000985 82.77090909090907 L 1060.478171913143 82.77090909090907 L 1066.4328627874393 82.77090909090907 L 1072.5300462645212 80.5927272727273 L 1079.9546608307096 80.5927272727273 L 1085.9543493690435 80.5927272727273 L 1091.901540632667 80.5927272727273 L 1097.9387272243657 80.5927272727273 L 1103.9234165413538 80.5927272727273 L 1109.915605469015 80.5927272727273 L 1115.9152940073488 80.5927272727273 L 1121.9449809883745 80.5927272727273 L 1127.9371699160356 80.5927272727273 L 1133.9368584543695 80.5927272727273 L 1139.9515462140494 80.5927272727273 L 1145.9587343630562 80.5927272727273 L 1151.9509232907174 80.5927272727273 L 1159.7505183905514 80.5927272727273 L 1165.4427228912957 80.5927272727273 L 1171.427412208284 80.5927272727273 L 1177.4420999679637 78.41454545454542 L 1183.4567877276436 78.41454545454542 L 1189.4339774339587 80.5927272727273 L 1195.4711640256573 80.5927272727273 L 1201.418355289281 80.5927272727273 L 1207.485540323671 80.5927272727273 L 1213.4327315872947 78.41454545454542 L 1219.4549189576474 78.41454545454542 L 1225.4246090532897 78.41454545454542 L 1231.4542960343153 78.41454545454542 L 1238.938907485887 78.41454545454542 L 1245.4185711072878 78.41454545454542 L 1250.9007865091903 78.41454545454542 L 1256.945472711562 78.41454545454542 L 1262.9151628072043 78.41454545454542 L 1269.282332268511 78.41454545454542 L 1274.9520379372368 78.41454545454542 L 1280.929227643552 78.41454545454542 L 1286.928916181886 78.41454545454542 L 1293.371081749922 78.41454545454542 L 1304.9579802395795 78.41454545454542 L 1310.912671113876 78.41454545454542 L 1317.1673464150892 78.41454545454542 L 1324.4194699358004 78.41454545454542 L 1330.441657306153 78.41454545454542 L 1336.4263466231412 78.41454545454542 L 1342.4710328255128 78.41454545454542 L 1348.4407229211552 78.41454545454542 L 1354.6728993903494 78.41454545454542 L 1360.4251007764772 78.41454545454542 L 1366.439788536157 78.41454545454542 L 1378.3566698954228 78.41454545454542 L 1384.4088557084672 78.41454545454542 L 1390.4385426894928 78.41454545454542 L 1397.9306537517375 78.41454545454542 L 1403.975339954109 78.41454545454542 L 1409.9300308284055 78.41454545454542 L 1415.9597178094311 78.41454545454542 L 1421.966905958438 78.41454545454542 L 1427.8840987793699 78.41454545454542 L 1433.943784203087 78.41454545454542 L 1439.9209739094024 78.41454545454542 L 1446.0931534932135 78.41454545454542 L 1451.9428498180891 78.41454545454542 L 1457.9050403030585 78.41454545454542 L 1463.9347272840841 76.23636363636365 L 1469.9269162117453 78.41454545454542 L 1477.4415261060085 76.23636363636365 L 1483.4262154229966 78.41454545454542 L 1489.4334035720035 78.41454545454542 L 1495.4255924996646 76.23636363636365 L 1501.477778312709 76.23636363636365 L 1507.4324691870054 78.41454545454542 L 1513.4171585039935 76.23636363636365 L 1519.4393458743464 78.41454545454542 L 1525.3940367486427 76.23636363636365 L 1531.4087245083226 78.41454545454542 L 1537.4084130466565 76.23636363636365 L 1543.4006019743176 76.23636363636365 L 1549.4077901233245 76.23636363636365 L 1556.9298996282607 76.23636363636365 L 1562.9445873879406 76.23636363636365 L 1568.899278262237 76.23636363636365 L 1574.898966800571 76.23636363636365 L 1581.16864132313 76.23636363636365 L 1586.9658403732954 76.23636363636365 L 1592.9580293009562 76.23636363636365 L 1598.9127201752528 76.23636363636365 L 1604.9499067669512 76.23636363636365 L 1610.882098809229 76.23636363636365 L 1616.9267850116005 76.23636363636365 L 1622.9264735499346 76.23636363636365 L 1629.143650797783 76.23636363636365 L 1636.4407719825317 76.23636363636365 L 1642.3954628568283 76.23636363636365 L 1648.432649448527 76.23636363636365 L 1653.4348897673628 76.23636363636365 L 1660.409527693176 76.23636363636365 L 1666.5817072769871 76.23636363636365 L 1672.8063841355086 76.23636363636365 L 1678.4235925295238 76.23636363636365 L 1684.3707837931474 76.23636363636365 L 1690.3779719421543 76.23636363636365 L 1696.3776604804882 76.23636363636365 L 1702.4148470721868 76.23636363636365 L 1708.407035999848 76.23636363636365 L 1714.5567167516401 76.23636363636365 L 1721.936333653791 76.23636363636365 L 1727.8760253067417 76.23636363636365 L 1733.9132118984403 78.41454545454542 L 1739.8829019940824 78.41454545454542 L 1745.8900901430893 76.23636363636365 L 1751.8972782920962 76.23636363636365 L 1757.8894672197573 76.23636363636365 L 1763.8816561474184 76.23636363636365 L 1769.8888442964253 78.41454545454542 L 1775.9035320561052 76.23636363636365 L 1781.910720205112 76.23636363636365 L 1787.8804103007544 76.23636363636365 L 1795.3950201950177 76.23636363636365 L 1801.4172075653703 76.23636363636365 L 1807.3793980503397 76.23636363636365 L 1813.3865861993465 78.41454545454542 L 1819.4087735696994 78.41454545454542 L 1831.4081506463674 78.41454545454542 L 1837.3778407420095 76.23636363636365 L 1843.977498134177 76.23636363636365 L 1849.4522139254068 76.23636363636365 L 1855.4144044103762 76.23636363636365 L 1861.41409294871 76.23636363636365 L 1867.3762834336794 76.23636363636365 L 1874.9358909919804 76.23636363636365 L 1880.9130806982955 76.23636363636365 L 1887.062761450088 76.23636363636365 L 1892.9349566069823 76.23636363636365 L 1910.8890245579466 76.23636363636365 L 1917.136200248487 76.23636363636365 L 1922.8884016346146 76.23636363636365 L 1928.8655913409298 76.23636363636365 L 1935.0827685887784 76.23636363636365 L 1940.9549637456728 76.23636363636365 L 1946.9321534519881 76.23636363636365 L 1954.4317641249056 76.23636363636365 L 1960.4239530525665 76.23636363636365 L 1966.3936431482089 76.23636363636365 L 1972.38583207587 76.23636363636365 L 1978.3930202248769 76.23636363636365 L 1984.385209152538 76.23636363636365 L 1990.369898469526 76.23636363636365 L 1996.384586229206 76.23636363636365 L 2002.369275546194 76.23636363636365 L 2008.4139617485655 76.23636363636365 L 2014.3461537908431 76.23636363636365 L 2020.375840771869 76.23636363636365 L 2026.3905285315486 76.23636363636365 L 2033.8826395937933 76.23636363636365 L 2039.912326574819 76.23636363636365 L 2045.897015891807 76.23636363636365 L 2051.986699758216 76.23636363636365 L 2057.866394525783 78.41454545454542 L 2063.881082285463 76.23636363636365 L 2069.873271213124 78.41454545454542 L 2075.90295819415 76.23636363636365 L 2081.865148679119 76.23636363636365 L 2087.8498379961075 76.23636363636365 L 2093.894524198479 76.23636363636365 L 2099.864214294121 76.23636363636365 L 2105.8939012751466 76.23636363636365 L 2113.3860123373915 76.23636363636365 L 2119.3482028223607 76.23636363636365 L 2125.3703901927133 76.23636363636365 L 2137.384766490727 78.41454545454542 L 2143.40695386108 76.23636363636365 L 2149.3616447353766 78.41454545454542 L 2161.3760210333903 78.41454545454542 L 2167.383209182397 78.41454545454542 L 2173.480392659479 78.41454545454542" stroke="#f7a35c" stroke-width="2"  stroke-linejoin="round" stroke-linecap="round"></path></g><g class="highcharts-markers highcharts-series-3"  transform="translate(75,72) scale(1 1)" clip-path="none"></g><g class="highcharts-series highcharts-series-4"  transform="translate(75,72) scale(1 1)" clip-path="url(#highcharts-34)"><path fill="none" d="M 21.519607340520885 581.5309818181818 L 27.01682196376939 579.9409090909091 L 33.00151128075753 581.1606909090909 L 40.501121953675 580.441890909091 L 45.518361493856794 580.441890909091 L 52.50049903034296 581.1606909090909 L 58.515186790022774 580.6814909090909 L 64.54487377104842 579.832 L 70.47706581332613 581.5309818181818 L 76.50675279435178 580.6814909090909 L 82.49144211133994 581.0517818181818 L 88.53612831371142 580.202290909091 L 94.6708098441579 580.441890909091 L 100.4680088943231 580.5508 L 106.5126950966946 581.0517818181818 L 113.97480771624748 581.2913818181818 L 119.98199586525438 580.6814909090909 L 125.98918401426127 580.0716 L 131.97387333124942 580.441890909091 L 137.9810614802563 580.3112 L 143.96575079724445 580.5508 L 150.00293738894302 581.0517818181818 L 156.0101255379499 581.0517818181818 L 161.9798156335922 581.6398909090909 L 167.95700533990745 580.9210909090909 L 173.97919271026018 580.6814909090909 L 179.97888124859415 580.6814909090909 L 186.00106861894687 580.441890909091 L 191.99325754660794 581.0517818181818 L 199.4928682195254 580.0716 L 205.5750524752615 580.5508 L 211.5072445175392 579.5924 L 217.48443422385444 579.5924 L 223.50662159420716 580.202290909091 L 229.50631013254113 580.3112 L 235.4984990602022 581.0517818181818 L 241.49068798786325 580.441890909091 L 253.49756467520413 580.5508 L 259.47475438151935 581.0517818181818 L 265.52694019456374 581.5309818181818 L 272.95905437142494 580.6814909090909 L 279.01873979514227 580.202290909091 L 285.39340886712216 580.6814909090909 L 291.0106172611373 580.202290909091 L 296.99530657812545 580.441890909091 L 303.0024947271324 580.7904 L 309.4746587378601 580.5508 L 315.1293651852399 581.4002909090909 L 320.98656112078845 580.202290909091 L 326.94125199508494 581.0517818181818 L 333.39841678446686 580.0716 L 338.96312790377164 579.701309090909 L 345.00781410614314 580.7904 L 350.98500381245833 580.0716 L 357.43466899116737 581.0517818181818 L 364.47680341303686 580.3112 L 370.47649195137086 581.7705818181818 L 376.4911797110507 580.5508 L 382.4758690280388 581.4002909090909 L 388.4755575663728 580.6814909090909 L 394.4902453260526 580.0716 L 400.4674350323678 581.4002909090909 L 406.48962240272056 580.202290909091 L 413.05928135219625 580.6814909090909 L 418.4889994793885 580.6814909090909 L 424.48118840704956 580.0716 L 430.46587772403774 580.5508 L 437.95048917560933 580.6814909090909 L 444.0251738206725 580.441890909091 L 449.9873643056419 580.5508 L 455.97205362263 580.7904 L 461.971742160964 580.202290909091 L 467.98642992064384 580.202290909091 L 479.9858069973118 580.3112 L 485.962996703627 580.6814909090909 L 491.96268524196097 580.7904 L 497.95487416962203 580.3112 L 503.9770615399748 580.5508 L 509.9992489103275 581.2913818181818 L 515.953939784624 580.441890909091 L 523.491048510906 580.3112 L 529.49073704924 579.832 L 535.5954201369948 580.5508 L 541.5276121792725 580.0716 L 547.4748034428961 579.222109090909 L 553.4669923705571 579.461709090909 L 559.4591812982183 579.5924 L 565.481368668571 580.441890909091 L 571.4810572069049 579.701309090909 L 577.4582469132201 579.701309090909 L 583.5254319476104 579.5924 L 589.472623211234 579.832 L 597.3022167537598 579.5924 L 602.9944212545041 579.832 L 608.9566117394736 579.461709090909 L 614.918802224443 580.441890909091 L 621.270972464404 579.701309090909 L 626.9856757971671 580.5508 L 632.9553658928095 580.9210909090909 L 638.9625540418164 579.832 L 645.3372231137962 579.222109090909 L 650.9094338437739 580.0716 L 656.9616196568182 579.461709090909 L 662.9613081951522 579.222109090909 L 669.2609811604029 580.3112 L 674.9681848824931 579.461709090909 L 682.4527963340648 580.0716 L 688.4674840937446 579.832 L 693.3647298631597 580.0716 L 706.4065528233632 580.202290909091 L 712.4512390257347 580.202290909091 L 718.4134295107041 579.701309090909 L 724.4506161024026 580.441890909091 L 730.4353054193907 579.222109090909 L 736.412495125706 580.5508 L 742.41218366404 580.202290909091 L 748.4418706450656 580.0716 L 754.5090556794559 580.3112 L 761.9636686883358 579.222109090909 L 767.9258591733052 579.5924 L 779.9702339140107 579.5924 L 785.9474236203259 579.832 L 791.9396125479869 579.461709090909 L 797.9318014756481 580.202290909091 L 803.9614884566737 580.202290909091 L 809.9311785523159 580.202290909091 L 815.9383667013228 580.6814909090909 L 821.9155564076381 579.3528 L 827.922744556645 579.3528 L 835.4523536722542 579.9409090909091 L 841.4445425999152 579.222109090909 L 853.4739181192748 579.5924 L 859.4661070469359 579.832 L 865.4657955852698 579.5924 L 871.450484902258 578.8518181818182 L 877.4576730512649 579.9409090909091 L 883.4798604216177 580.202290909091 L 889.5020477919703 580.441890909091 L 895.4567386662668 572.3172727272728 L 901.6289182500778 571.5984727272727 L 907.4636153536077 570.6182909090909 L 913.4708035026146 569.7688 L 920.970414175532 579.3528 L 926.9401042711744 579.5924 L 933.3222729538271 578.6122181818182 L 938.9469809585153 579.1132 L 944.9391698861763 579.5924 L 950.9463580351832 579.3528 L 957.3435259391817 579.3528 L 962.9382355011783 579.461709090909 L 968.9379240395122 579.701309090909 L 974.9901098525567 579.701309090909 L 981.312281649826 579.701309090909 L 986.9594884865329 580.3112 L 994.4291007167587 579.5924 L 1000.4362888657656 579.701309090909 L 1005.393531520564 579.832 L 1012.4281663317606 580.202290909091 L 1018.4578533127863 579.701309090909 L 1024.487540293812 579.5924 L 1030.4197323360897 579.5924 L 1036.4269204850966 579.1132 L 1042.464107076795 580.5508 L 1048.5087932791666 579.832 L 1054.4259861000985 580.0716 L 1060.478171913143 580.3112 L 1066.4328627874393 579.5924 L 1072.5300462645212 579.222109090909 L 1079.9546608307096 580.3112 L 1085.9543493690435 579.222109090909 L 1091.901540632667 579.832 L 1097.9387272243657 580.0716 L 1103.9234165413538 579.461709090909 L 1109.915605469015 580.3112 L 1115.9152940073488 579.461709090909 L 1121.9449809883745 579.222109090909 L 1127.9371699160356 579.461709090909 L 1133.9368584543695 579.832 L 1139.9515462140494 578.8518181818182 L 1145.9587343630562 579.701309090909 L 1151.9509232907174 579.3528 L 1159.7505183905514 579.5924 L 1165.4427228912957 580.0716 L 1171.427412208284 579.3528 L 1177.4420999679637 580.0716 L 1183.4567877276436 579.832 L 1189.4339774339587 579.222109090909 L 1195.4711640256573 579.5924 L 1201.418355289281 578.503309090909 L 1207.485540323671 579.701309090909 L 1213.4327315872947 579.701309090909 L 1219.4549189576474 579.701309090909 L 1225.4246090532897 579.701309090909 L 1231.4542960343153 579.832 L 1238.938907485887 580.5508 L 1245.4185711072878 579.9409090909091 L 1250.9007865091903 578.982509090909 L 1256.945472711562 579.832 L 1262.9151628072043 579.222109090909 L 1269.282332268511 578.503309090909 L 1274.9520379372368 579.701309090909 L 1280.929227643552 579.461709090909 L 1286.928916181886 579.3528 L 1293.371081749922 578.982509090909 L 1304.9579802395795 579.701309090909 L 1310.912671113876 579.3528 L 1317.1673464150892 579.701309090909 L 1324.4194699358004 580.5508 L 1330.441657306153 579.3528 L 1336.4263466231412 579.1132 L 1342.4710328255128 578.6122181818182 L 1348.4407229211552 579.461709090909 L 1354.6728993903494 579.1132 L 1360.4251007764772 579.461709090909 L 1366.439788536157 577.8934181818182 L 1378.3566698954228 579.9409090909091 L 1384.4088557084672 579.1132 L 1390.4385426894928 579.3528 L 1397.9306537517375 579.3528 L 1403.975339954109 579.832 L 1409.9300308284055 578.742909090909 L 1415.9597178094311 579.9409090909091 L 1421.966905958438 579.5924 L 1427.8840987793699 578.742909090909 L 1433.943784203087 579.3528 L 1439.9209739094024 579.1132 L 1446.0931534932135 579.3528 L 1451.9428498180891 579.832 L 1457.9050403030585 579.701309090909 L 1463.9347272840841 579.461709090909 L 1469.9269162117453 579.701309090909 L 1477.4415261060085 579.5924 L 1483.4262154229966 579.3528 L 1489.4334035720035 579.701309090909 L 1495.4255924996646 578.503309090909 L 1501.477778312709 579.832 L 1507.4324691870054 579.3528 L 1513.4171585039935 578.742909090909 L 1519.4393458743464 578.742909090909 L 1525.3940367486427 578.8518181818182 L 1531.4087245083226 579.3528 L 1537.4084130466565 578.742909090909 L 1543.4006019743176 579.461709090909 L 1549.4077901233245 579.701309090909 L 1556.9298996282607 579.3528 L 1562.9445873879406 579.9409090909091 L 1568.899278262237 579.9409090909091 L 1574.898966800571 578.6122181818182 L 1581.16864132313 579.9409090909091 L 1586.9658403732954 579.701309090909 L 1592.9580293009562 579.461709090909 L 1598.9127201752528 578.8518181818182 L 1604.9499067669512 579.5924 L 1610.882098809229 578.503309090909 L 1616.9267850116005 579.5924 L 1622.9264735499346 578.982509090909 L 1629.143650797783 579.1132 L 1636.4407719825317 579.832 L 1642.3954628568283 579.701309090909 L 1648.432649448527 579.461709090909 L 1653.4348897673628 579.222109090909 L 1660.409527693176 579.222109090909 L 1666.5817072769871 579.5924 L 1672.8063841355086 578.8518181818182 L 1678.4235925295238 578.982509090909 L 1684.3707837931474 579.5924 L 1690.3779719421543 578.6122181818182 L 1696.3776604804882 579.461709090909 L 1702.4148470721868 578.982509090909 L 1708.407035999848 579.9409090909091 L 1714.5567167516401 579.1132 L 1721.936333653791 579.222109090909 L 1727.8760253067417 579.461709090909 L 1733.9132118984403 578.503309090909 L 1739.8829019940824 578.503309090909 L 1745.8900901430893 579.9409090909091 L 1751.8972782920962 579.5924 L 1757.8894672197573 578.8518181818182 L 1763.8816561474184 579.1132 L 1769.8888442964253 578.982509090909 L 1775.9035320561052 578.982509090909 L 1781.910720205112 579.832 L 1787.8804103007544 578.742909090909 L 1795.3950201950177 578.3726181818182 L 1801.4172075653703 578.6122181818182 L 1807.3793980503397 578.1330181818182 L 1813.3865861993465 578.503309090909 L 1819.4087735696994 578.982509090909 L 1831.4081506463674 578.982509090909 L 1837.3778407420095 578.8518181818182 L 1843.977498134177 579.222109090909 L 1849.4522139254068 578.503309090909 L 1855.4144044103762 578.8518181818182 L 1861.41409294871 578.8518181818182 L 1867.3762834336794 579.9409090909091 L 1874.9358909919804 578.742909090909 L 1880.9130806982955 578.742909090909 L 1887.062761450088 579.701309090909 L 1892.9349566069823 578.6122181818182 L 1910.8890245579466 579.5924 L 1917.136200248487 578.982509090909 L 1922.8884016346146 577.7627272727273 L 1928.8655913409298 578.6122181818182 L 1935.0827685887784 578.742909090909 L 1940.9549637456728 578.2637090909091 L 1946.9321534519881 578.8518181818182 L 1954.4317641249056 578.503309090909 L 1960.4239530525665 578.982509090909 L 1966.3936431482089 578.742909090909 L 1972.38583207587 578.1330181818182 L 1978.3930202248769 578.503309090909 L 1984.385209152538 578.503309090909 L 1990.369898469526 578.742909090909 L 1996.384586229206 579.1132 L 2002.369275546194 577.7627272727273 L 2008.4139617485655 578.503309090909 L 2014.3461537908431 578.1330181818182 L 2020.375840771869 578.503309090909 L 2026.3905285315486 579.1132 L 2033.8826395937933 578.0241090909091 L 2039.912326574819 578.503309090909 L 2045.897015891807 578.0241090909091 L 2051.986699758216 579.222109090909 L 2057.866394525783 578.742909090909 L 2063.881082285463 578.742909090909 L 2069.873271213124 579.1132 L 2075.90295819415 578.2637090909091 L 2081.865148679119 578.1330181818182 L 2087.8498379961075 578.1330181818182 L 2093.894524198479 577.5231272727273 L 2099.864214294121 578.0241090909091 L 2105.8939012751466 579.3528 L 2113.3860123373915 579.3528 L 2119.3482028223607 578.1330181818182 L 2125.3703901927133 578.1330181818182 L 2137.384766490727 578.0241090909091 L 2143.40695386108 578.503309090909 L 2149.3616447353766 578.6122181818182 L 2161.3760210333903 578.6122181818182 L 2167.383209182397 578.2637090909091 L 2173.480392659479 578.0241090909091" stroke="#8085e9" stroke-width="2"  stroke-linejoin="round" stroke-linecap="round"></path></g><g class="highcharts-markers highcharts-series-4"  transform="translate(75,72) scale(1 1)" clip-path="none"></g><g class="highcharts-series highcharts-series-5"  transform="translate(75,72) scale(1 1)" clip-path="url(#highcharts-34)"><path fill="none" d="M 21.519607340520885 505.33818181818185 L 27.01682196376939 507.5163636363636 L 33.00151128075753 505.33818181818185 L 40.501121953675 507.5163636363636 L 45.518361493856794 505.33818181818185 L 52.50049903034296 507.5163636363636 L 58.515186790022774 509.69454545454545 L 64.54487377104842 505.33818181818185 L 70.47706581332613 507.5163636363636 L 76.50675279435178 505.33818181818185 L 82.49144211133994 503.15999999999997 L 88.53612831371142 507.5163636363636 L 94.6708098441579 509.69454545454545 L 100.4680088943231 505.33818181818185 L 106.5126950966946 507.5163636363636 L 113.97480771624748 505.33818181818185 L 119.98199586525438 505.33818181818185 L 125.98918401426127 505.33818181818185 L 131.97387333124942 507.5163636363636 L 137.9810614802563 507.5163636363636 L 143.96575079724445 505.33818181818185 L 150.00293738894302 509.69454545454545 L 156.0101255379499 507.5163636363636 L 161.9798156335922 509.69454545454545 L 167.95700533990745 505.33818181818185 L 173.97919271026018 507.5163636363636 L 179.97888124859415 507.5163636363636 L 186.00106861894687 509.69454545454545 L 191.99325754660794 509.69454545454545 L 199.4928682195254 509.69454545454545 L 205.5750524752615 509.69454545454545 L 211.5072445175392 507.5163636363636 L 217.48443422385444 505.33818181818185 L 223.50662159420716 507.5163636363636 L 229.50631013254113 505.33818181818185 L 235.4984990602022 509.69454545454545 L 241.49068798786325 507.5163636363636 L 253.49756467520413 507.5163636363636 L 259.47475438151935 505.33818181818185 L 265.52694019456374 507.5163636363636 L 272.95905437142494 505.33818181818185 L 279.01873979514227 505.33818181818185 L 285.39340886712216 507.5163636363636 L 291.0106172611373 503.15999999999997 L 296.99530657812545 505.33818181818185 L 303.0024947271324 505.33818181818185 L 309.4746587378601 509.69454545454545 L 315.1293651852399 509.69454545454545 L 320.98656112078845 505.33818181818185 L 326.94125199508494 516.2290909090909 L 333.39841678446686 522.7636363636364 L 338.96312790377164 524.9418181818182 L 345.00781410614314 518.4072727272727 L 350.98500381245833 522.7636363636364 L 357.43466899116737 514.050909090909 L 364.47680341303686 520.5854545454546 L 370.47649195137086 507.5163636363636 L 376.4911797110507 520.5854545454546 L 382.4758690280388 518.4072727272727 L 388.4755575663728 522.7636363636364 L 394.4902453260526 520.5854545454546 L 400.4674350323678 518.4072727272727 L 406.48962240272056 524.9418181818182 L 413.05928135219625 522.7636363636364 L 418.4889994793885 520.5854545454546 L 424.48118840704956 522.7636363636364 L 430.46587772403774 518.4072727272727 L 437.95048917560933 518.4072727272727 L 444.0251738206725 516.2290909090909 L 449.9873643056419 516.2290909090909 L 455.97205362263 505.33818181818185 L 461.971742160964 511.8727272727273 L 467.98642992064384 509.69454545454545 L 479.9858069973118 503.15999999999997 L 485.962996703627 505.33818181818185 L 491.96268524196097 503.15999999999997 L 497.95487416962203 500.9818181818182 L 503.9770615399748 503.15999999999997 L 509.9992489103275 503.15999999999997 L 515.953939784624 496.62545454545455 L 523.491048510906 496.62545454545455 L 529.49073704924 481.3781818181818 L 535.5954201369948 494.4472727272727 L 541.5276121792725 498.8036363636364 L 547.4748034428961 490.0909090909091 L 553.4669923705571 496.62545454545455 L 559.4591812982183 498.8036363636364 L 565.481368668571 490.0909090909091 L 571.4810572069049 492.2690909090909 L 577.4582469132201 492.2690909090909 L 583.5254319476104 496.62545454545455 L 589.472623211234 498.8036363636364 L 597.3022167537598 500.9818181818182 L 602.9944212545041 505.33818181818185 L 608.9566117394736 503.15999999999997 L 614.918802224443 496.62545454545455 L 621.270972464404 505.33818181818185 L 626.9856757971671 503.15999999999997 L 632.9553658928095 500.9818181818182 L 638.9625540418164 507.5163636363636 L 645.3372231137962 500.9818181818182 L 650.9094338437739 503.15999999999997 L 656.9616196568182 507.5163636363636 L 662.9613081951522 498.8036363636364 L 669.2609811604029 505.33818181818185 L 674.9681848824931 505.33818181818185 L 682.4527963340648 503.15999999999997 L 688.4674840937446 505.33818181818185 L 693.3647298631597 468.3090909090909 L 706.4065528233632 507.5163636363636 L 712.4512390257347 505.33818181818185 L 718.4134295107041 507.5163636363636 L 724.4506161024026 503.15999999999997 L 730.4353054193907 507.5163636363636 L 736.412495125706 507.5163636363636 L 742.41218366404 505.33818181818185 L 748.4418706450656 507.5163636363636 L 754.5090556794559 507.5163636363636 L 761.9636686883358 505.33818181818185 L 767.9258591733052 507.5163636363636 L 779.9702339140107 503.15999999999997 L 785.9474236203259 507.5163636363636 L 791.9396125479869 507.5163636363636 L 797.9318014756481 509.69454545454545 L 803.9614884566737 505.33818181818185 L 809.9311785523159 505.33818181818185 L 815.9383667013228 507.5163636363636 L 821.9155564076381 505.33818181818185 L 827.922744556645 503.15999999999997 L 835.4523536722542 507.5163636363636 L 841.4445425999152 507.5163636363636 L 853.4739181192748 505.33818181818185 L 859.4661070469359 507.5163636363636 L 865.4657955852698 507.5163636363636 L 871.450484902258 505.33818181818185 L 877.4576730512649 505.33818181818185 L 883.4798604216177 509.69454545454545 L 889.5020477919703 507.5163636363636 L 895.4567386662668 505.33818181818185 L 901.6289182500778 509.69454545454545 L 907.4636153536077 509.69454545454545 L 913.4708035026146 507.5163636363636 L 920.970414175532 507.5163636363636 L 926.9401042711744 507.5163636363636 L 933.3222729538271 505.33818181818185 L 938.9469809585153 509.69454545454545 L 944.9391698861763 505.33818181818185 L 950.9463580351832 505.33818181818185 L 957.3435259391817 505.33818181818185 L 962.9382355011783 507.5163636363636 L 968.9379240395122 507.5163636363636 L 974.9901098525567 505.33818181818185 L 981.312281649826 505.33818181818185 L 986.9594884865329 509.69454545454545 L 994.4291007167587 503.15999999999997 L 1000.4362888657656 507.5163636363636 L 1005.393531520564 505.33818181818185 L 1012.4281663317606 507.5163636363636 L 1018.4578533127863 505.33818181818185 L 1024.487540293812 507.5163636363636 L 1030.4197323360897 509.69454545454545 L 1036.4269204850966 505.33818181818185 L 1042.464107076795 505.33818181818185 L 1048.5087932791666 505.33818181818185 L 1054.4259861000985 509.69454545454545 L 1060.478171913143 507.5163636363636 L 1066.4328627874393 507.5163636363636 L 1072.5300462645212 507.5163636363636 L 1079.9546608307096 509.69454545454545 L 1085.9543493690435 507.5163636363636 L 1091.901540632667 507.5163636363636 L 1097.9387272243657 505.33818181818185 L 1103.9234165413538 507.5163636363636 L 1109.915605469015 505.33818181818185 L 1115.9152940073488 507.5163636363636 L 1121.9449809883745 507.5163636363636 L 1127.9371699160356 505.33818181818185 L 1133.9368584543695 507.5163636363636 L 1139.9515462140494 507.5163636363636 L 1145.9587343630562 507.5163636363636 L 1151.9509232907174 505.33818181818185 L 1159.7505183905514 507.5163636363636 L 1165.4427228912957 505.33818181818185 L 1171.427412208284 507.5163636363636 L 1177.4420999679637 507.5163636363636 L 1183.4567877276436 507.5163636363636 L 1189.4339774339587 509.69454545454545 L 1195.4711640256573 505.33818181818185 L 1201.418355289281 505.33818181818185 L 1207.485540323671 505.33818181818185 L 1213.4327315872947 507.5163636363636 L 1219.4549189576474 507.5163636363636 L 1225.4246090532897 507.5163636363636 L 1231.4542960343153 509.69454545454545 L 1238.938907485887 505.33818181818185 L 1245.4185711072878 507.5163636363636 L 1250.9007865091903 507.5163636363636 L 1256.945472711562 507.5163636363636 L 1262.9151628072043 505.33818181818185 L 1269.282332268511 507.5163636363636 L 1274.9520379372368 472.6654545454545 L 1280.929227643552 505.33818181818185 L 1286.928916181886 507.5163636363636 L 1293.371081749922 507.5163636363636 L 1304.9579802395795 507.5163636363636 L 1310.912671113876 509.69454545454545 L 1317.1673464150892 507.5163636363636 L 1324.4194699358004 505.33818181818185 L 1330.441657306153 507.5163636363636 L 1336.4263466231412 507.5163636363636 L 1342.4710328255128 507.5163636363636 L 1348.4407229211552 507.5163636363636 L 1354.6728993903494 507.5163636363636 L 1360.4251007764772 505.33818181818185 L 1366.439788536157 507.5163636363636 L 1378.3566698954228 507.5163636363636 L 1384.4088557084672 507.5163636363636 L 1390.4385426894928 505.33818181818185 L 1397.9306537517375 507.5163636363636 L 1403.975339954109 505.33818181818185 L 1409.9300308284055 507.5163636363636 L 1415.9597178094311 507.5163636363636 L 1421.966905958438 507.5163636363636 L 1427.8840987793699 505.33818181818185 L 1433.943784203087 507.5163636363636 L 1439.9209739094024 505.33818181818185 L 1446.0931534932135 503.15999999999997 L 1451.9428498180891 509.69454545454545 L 1457.9050403030585 511.8727272727273 L 1463.9347272840841 507.5163636363636 L 1469.9269162117453 509.69454545454545 L 1477.4415261060085 509.69454545454545 L 1483.4262154229966 507.5163636363636 L 1489.4334035720035 509.69454545454545 L 1495.4255924996646 509.69454545454545 L 1501.477778312709 509.69454545454545 L 1507.4324691870054 507.5163636363636 L 1513.4171585039935 509.69454545454545 L 1519.4393458743464 507.5163636363636 L 1525.3940367486427 507.5163636363636 L 1531.4087245083226 503.15999999999997 L 1537.4084130466565 507.5163636363636 L 1543.4006019743176 505.33818181818185 L 1549.4077901233245 509.69454545454545 L 1556.9298996282607 507.5163636363636 L 1562.9445873879406 505.33818181818185 L 1568.899278262237 507.5163636363636 L 1574.898966800571 509.69454545454545 L 1581.16864132313 505.33818181818185 L 1586.9658403732954 507.5163636363636 L 1592.9580293009562 496.62545454545455 L 1598.9127201752528 507.5163636363636 L 1604.9499067669512 507.5163636363636 L 1610.882098809229 505.33818181818185 L 1616.9267850116005 507.5163636363636 L 1622.9264735499346 505.33818181818185 L 1629.143650797783 509.69454545454545 L 1636.4407719825317 507.5163636363636 L 1642.3954628568283 505.33818181818185 L 1648.432649448527 507.5163636363636 L 1653.4348897673628 509.69454545454545 L 1660.409527693176 505.33818181818185 L 1666.5817072769871 505.33818181818185 L 1672.8063841355086 509.69454545454545 L 1678.4235925295238 505.33818181818185 L 1684.3707837931474 507.5163636363636 L 1690.3779719421543 485.73454545454547 L 1696.3776604804882 505.33818181818185 L 1702.4148470721868 492.2690909090909 L 1708.407035999848 507.5163636363636 L 1714.5567167516401 505.33818181818185 L 1721.936333653791 498.8036363636364 L 1727.8760253067417 507.5163636363636 L 1733.9132118984403 505.33818181818185 L 1739.8829019940824 509.69454545454545 L 1745.8900901430893 507.5163636363636 L 1751.8972782920962 505.33818181818185 L 1757.8894672197573 505.33818181818185 L 1763.8816561474184 507.5163636363636 L 1769.8888442964253 507.5163636363636 L 1775.9035320561052 507.5163636363636 L 1781.910720205112 509.69454545454545 L 1787.8804103007544 505.33818181818185 L 1795.3950201950177 507.5163636363636 L 1801.4172075653703 505.33818181818185 L 1807.3793980503397 507.5163636363636 L 1813.3865861993465 509.69454545454545 L 1819.4087735696994 505.33818181818185 L 1831.4081506463674 507.5163636363636 L 1837.3778407420095 507.5163636363636 L 1843.977498134177 507.5163636363636 L 1849.4522139254068 511.8727272727273 L 1855.4144044103762 509.69454545454545 L 1861.41409294871 507.5163636363636 L 1867.3762834336794 505.33818181818185 L 1874.9358909919804 507.5163636363636 L 1880.9130806982955 507.5163636363636 L 1887.062761450088 509.69454545454545 L 1892.9349566069823 507.5163636363636 L 1910.8890245579466 505.33818181818185 L 1917.136200248487 507.5163636363636 L 1922.8884016346146 509.69454545454545 L 1928.8655913409298 507.5163636363636 L 1935.0827685887784 507.5163636363636 L 1940.9549637456728 509.69454545454545 L 1946.9321534519881 507.5163636363636 L 1954.4317641249056 505.33818181818185 L 1960.4239530525665 507.5163636363636 L 1966.3936431482089 507.5163636363636 L 1972.38583207587 507.5163636363636 L 1978.3930202248769 509.69454545454545 L 1984.385209152538 507.5163636363636 L 1990.369898469526 507.5163636363636 L 1996.384586229206 507.5163636363636 L 2002.369275546194 507.5163636363636 L 2008.4139617485655 507.5163636363636 L 2014.3461537908431 507.5163636363636 L 2020.375840771869 507.5163636363636 L 2026.3905285315486 507.5163636363636 L 2033.8826395937933 507.5163636363636 L 2039.912326574819 505.33818181818185 L 2045.897015891807 496.62545454545455 L 2051.986699758216 507.5163636363636 L 2057.866394525783 505.33818181818185 L 2063.881082285463 507.5163636363636 L 2069.873271213124 507.5163636363636 L 2075.90295819415 505.33818181818185 L 2081.865148679119 505.33818181818185 L 2087.8498379961075 507.5163636363636 L 2093.894524198479 509.69454545454545 L 2099.864214294121 505.33818181818185 L 2105.8939012751466 507.5163636363636 L 2113.3860123373915 511.8727272727273 L 2119.3482028223607 503.15999999999997 L 2125.3703901927133 507.5163636363636 L 2137.384766490727 507.5163636363636 L 2143.40695386108 503.15999999999997 L 2149.3616447353766 509.69454545454545 L 2161.3760210333903 498.8036363636364 L 2167.383209182397 507.5163636363636 L 2173.480392659479 505.33818181818185" stroke="#f15c80" stroke-width="2"  stroke-linejoin="round" stroke-linecap="round"></path></g><g class="highcharts-markers highcharts-series-5"  transform="translate(75,72) scale(1 1)" clip-path="none"></g></g><text x="1140" text-anchor="middle" class="highcharts-title"  style="color:#333333;font-size:18px;fill:#333333;width:2216px;" y="24"><tspan>Environmental Sensor Feed</tspan></text><text x="1140" text-anchor="middle" class="highcharts-subtitle"  style="color:#555555;fill:#555555;width:2216px;" y="52"><tspan>2019-11-30 16:37:33</tspan></text><g class="highcharts-legend"  transform="translate(847,732)"><rect x="0.5" y="0.5" width="585" height="52" strokeWidth="1" stroke="#C98657" stroke-width="1" fill="#FCFFC5" visibility="visible"></rect><g  transform="translate(0,24.421875)"><g><g class="highcharts-legend-item"  transform="translate(8,3)"><path fill="none" d="M 0 11 L 16 11" stroke="#7cb5ec" stroke-width="2"></path><path fill="#7cb5ec" d="M 8 7 C 13.328 7 13.328 15 8 15 C 2.6719999999999997 15 2.6719999999999997 7 8 7 Z"></path><text x="21" style="color:#333333;font-size:12px;font-weight:bold;cursor:pointer;fill:#333333;" text-anchor="start"  y="15">Humidity</text></g><g class="highcharts-legend-item"  transform="translate(105.140625,3)"><path fill="none" d="M 0 11 L 16 11" stroke="#434348" stroke-width="2"></path><path fill="#434348" d="M 8 7 L 12 11 8 15 4 11 Z"></path><text x="21" y="15" style="color:#333333;font-size:12px;font-weight:bold;cursor:pointer;fill:#333333;" text-anchor="start" >Temperature</text></g><g class="highcharts-legend-item"  transform="translate(224.65625,3)"><path fill="none" d="M 0 11 L 16 11" stroke="#CCC" stroke-width="2"></path><path fill="#CCC" d="M 4 7 L 12 7 12 15 4 15 Z"></path><text x="21" y="15" style="color:#ccc;font-size:12px;font-weight:bold;cursor:pointer;fill:#ccc;" text-anchor="start" >Pressure</text></g><g class="highcharts-legend-item"  transform="translate(317.359375,3)"><path fill="none" d="M 0 11 L 16 11" stroke="#f7a35c" stroke-width="2"></path><path fill="#f7a35c" d="M 8 7 L 12 15 4 15 Z"></path><text x="21" y="15" style="color:#333333;font-size:12px;font-weight:bold;cursor:pointer;fill:#333333;" text-anchor="start" >Light</text></g><g class="highcharts-legend-item"  transform="translate(389.71875,3)"><path fill="none" d="M 0 11 L 16 11" stroke="#8085e9" stroke-width="2"></path><path fill="#8085e9" d="M 4 7 L 12 7 8 15 Z"></path><text x="21" y="15" style="color:#333333;font-size:12px;font-weight:bold;cursor:pointer;fill:#333333;" text-anchor="start" ><tspan>IR Temperature</tspan></text></g><g class="highcharts-legend-item"  transform="translate(523.75,3)"><path fill="none" d="M 0 11 L 16 11" stroke="#f15c80" stroke-width="2"></path><path fill="#f15c80" d="M 8 7 C 13.328 7 13.328 15 8 15 C 2.6719999999999997 15 2.6719999999999997 7 8 7 Z"></path><text x="21" y="15" style="color:#333333;font-size:12px;font-weight:bold;cursor:pointer;fill:#333333;" text-anchor="start" >Noise</text></g></g></g><g class="highcharts-legend-title"  style="" transform="translate(5,4)"><text x="3"  style="font-weight:bold;" y="15"><tspan>Select/Deselect Series to Display:</tspan></text></g></g><g class="highcharts-axis-labels highcharts-xaxis-labels" ><text x="138.74991503971916" style="color:#606060;cursor:default;font-size:11px;fill:#606060;" text-anchor="middle" transform="translate(0,0)" y="690" opacity="1">16:37:40</text><text x="213.74602176889388" style="color:#606060;cursor:default;font-size:11px;fill:#606060;" text-anchor="middle" transform="translate(0,0)" y="690" opacity="1">16:37:50</text><text x="288.7421284980686" style="color:#606060;cursor:default;font-size:11px;fill:#606060;" text-anchor="middle" transform="translate(0,0)" y="690" opacity="1">16:38:00</text><text x="363.7382352272433" style="color:#606060;cursor:default;font-size:11px;fill:#606060;" text-anchor="middle" transform="translate(0,0)" y="690" opacity="1">16:38:10</text><text x="438.73434195641806" style="color:#606060;cursor:default;font-size:11px;fill:#606060;" text-anchor="middle" transform="translate(0,0)" y="690" opacity="1">16:38:20</text><text x="513.7304486855928" style="color:#606060;cursor:default;font-size:11px;fill:#606060;" text-anchor="middle" transform="translate(0,0)" y="690" opacity="1">16:38:30</text><text x="588.7265554147675" style="color:#606060;cursor:default;font-size:11px;fill:#606060;" text-anchor="middle" transform="translate(0,0)" y="690" opacity="1">16:38:40</text><text x="663.7226621439422" style="color:#606060;cursor:default;font-size:11px;fill:#606060;" text-anchor="middle" transform="translate(0,0)" y="690" opacity="1">16:38:50</text><text x="738.7187688731169" style="color:#606060;cursor:default;font-size:11px;fill:#606060;" text-anchor="middle" transform="translate(0,0)" y="690" opacity="1">16:39:00</text><text x="813.7148756022916" style="color:#606060;cursor:default;font-size:11px;fill:#606060;" text-anchor="middle" transform="translate(0,0)" y="690" opacity="1">16:39:10</text><text x="888.7109823314664" style="color:#606060;cursor:default;font-size:11px;fill:#606060;" text-anchor="middle" transform="translate(0,0)" y="690" opacity="1">16:39:20</text><text x="963.7070890606411" style="color:#606060;cursor:default;font-size:11px;fill:#606060;" text-anchor="middle" transform="translate(0,0)" y="690" opacity="1">16:39:30</text><text x="1038.7031957898157" style="color:#606060;cursor:default;font-size:11px;fill:#606060;" text-anchor="middle" transform="translate(0,0)" y="690" opacity="1">16:39:40</text><text x="1113.6993025189906" style="color:#606060;cursor:default;font-size:11px;fill:#606060;" text-anchor="middle" transform="translate(0,0)" y="690" opacity="1">16:39:50</text><text x="1188.6954092481653" style="color:#606060;cursor:default;font-size:11px;fill:#606060;" text-anchor="middle" transform="translate(0,0)" y="690" opacity="1">16:40:00</text><text x="1263.69151597734" style="color:#606060;cursor:default;font-size:11px;fill:#606060;" text-anchor="middle" transform="translate(0,0)" y="690" opacity="1">16:40:10</text><text x="1338.6876227065147" style="color:#606060;cursor:default;font-size:11px;fill:#606060;" text-anchor="middle" transform="translate(0,0)" y="690" opacity="1">16:40:20</text><text x="1413.6837294356894" style="color:#606060;cursor:default;font-size:11px;fill:#606060;" text-anchor="middle" transform="translate(0,0)" y="690" opacity="1">16:40:30</text><text x="1488.6798361648641" style="color:#606060;cursor:default;font-size:11px;fill:#606060;" text-anchor="middle" transform="translate(0,0)" y="690" opacity="1">16:40:40</text><text x="1563.6759428940388" style="color:#606060;cursor:default;font-size:11px;fill:#606060;" text-anchor="middle" transform="translate(0,0)" y="690" opacity="1">16:40:50</text><text x="1638.6720496232135" style="color:#606060;cursor:default;font-size:11px;fill:#606060;" text-anchor="middle" transform="translate(0,0)" y="690" opacity="1">16:41:00</text><text x="1713.6681563523882" style="color:#606060;cursor:default;font-size:11px;fill:#606060;" text-anchor="middle" transform="translate(0,0)" y="690" opacity="1">16:41:10</text><text x="1788.664263081563" style="color:#606060;cursor:default;font-size:11px;fill:#606060;" text-anchor="middle" transform="translate(0,0)" y="690" opacity="1">16:41:20</text><text x="1863.6603698107378" style="color:#606060;cursor:default;font-size:11px;fill:#606060;" text-anchor="middle" transform="translate(0,0)" y="690" opacity="1">16:41:30</text><text x="1938.6564765399125" style="color:#606060;cursor:default;font-size:11px;fill:#606060;" text-anchor="middle" transform="translate(0,0)" y="690" opacity="1">16:41:40</text><text x="2013.6525832690872" style="color:#606060;cursor:default;font-size:11px;fill:#606060;" text-anchor="middle" transform="translate(0,0)" y="690" opacity="1">16:41:50</text><text x="2088.648689998262" style="color:#606060;cursor:default;font-size:11px;fill:#606060;" text-anchor="middle" transform="translate(0,0)" y="690" opacity="1">16:42:00</text><text x="2163.6447967274366" style="color:#606060;cursor:default;font-size:11px;fill:#606060;" text-anchor="middle" transform="translate(0,0)" y="690" opacity="1">16:42:10</text><text x="2238.6409034566113" style="color:#606060;cursor:default;font-size:11px;fill:#606060;" text-anchor="middle" transform="translate(0,0)" y="690" opacity="1">16:42:20</text></g><g class="highcharts-axis-labels highcharts-yaxis-labels" ><text x="60" style="color:#606060;cursor:default;font-size:11px;fill:#606060;width:742px;text-overflow:clip;" text-anchor="end" transform="translate(0,0)" y="674" opacity="1">0</text><text x="60" style="color:#606060;cursor:default;font-size:11px;fill:#606060;width:742px;text-overflow:clip;" text-anchor="end" transform="translate(0,0)" y="619" opacity="1">25</text><text x="60" style="color:#606060;cursor:default;font-size:11px;fill:#606060;width:742px;text-overflow:clip;" text-anchor="end" transform="translate(0,0)" y="565" opacity="1">50</text><text x="60" style="color:#606060;cursor:default;font-size:11px;fill:#606060;width:742px;text-overflow:clip;" text-anchor="end" transform="translate(0,0)" y="510" opacity="1">75</text><text x="60" style="color:#606060;cursor:default;font-size:11px;fill:#606060;width:742px;text-overflow:clip;" text-anchor="end" transform="translate(0,0)" y="456" opacity="1">100</text><text x="60" style="color:#606060;cursor:default;font-size:11px;fill:#606060;width:742px;text-overflow:clip;" text-anchor="end" transform="translate(0,0)" y="401" opacity="1">125</text><text x="60" style="color:#606060;cursor:default;font-size:11px;fill:#606060;width:742px;text-overflow:clip;" text-anchor="end" transform="translate(0,0)" y="347" opacity="1">150</text><text x="60" style="color:#606060;cursor:default;font-size:11px;fill:#606060;width:742px;text-overflow:clip;" text-anchor="end" transform="translate(0,0)" y="292" opacity="1">175</text><text x="60" style="color:#606060;cursor:default;font-size:11px;fill:#606060;width:742px;text-overflow:clip;" text-anchor="end" transform="translate(0,0)" y="238" opacity="1">200</text><text x="60" style="color:#606060;cursor:default;font-size:11px;fill:#606060;width:742px;text-overflow:clip;" text-anchor="end" transform="translate(0,0)" y="184" opacity="1">225</text><text x="60" style="color:#606060;cursor:default;font-size:11px;fill:#606060;width:742px;text-overflow:clip;" text-anchor="end" transform="translate(0,0)" y="129" opacity="1">250</text><text x="60" style="color:#606060;cursor:default;font-size:11px;fill:#606060;width:742px;text-overflow:clip;" text-anchor="end" transform="translate(0,0)" y="75" opacity="1">275</text></g><g class="highcharts-tooltip"  style="cursor:default;padding:0;pointer-events:none;white-space:nowrap;" transform="translate(0,-9999)"><path fill="none" d="M 3.5 0.5 L 13.5 0.5 C 16.5 0.5 16.5 0.5 16.5 3.5 L 16.5 13.5 C 16.5 16.5 16.5 16.5 13.5 16.5 L 3.5 16.5 C 0.5 16.5 0.5 16.5 0.5 13.5 L 0.5 3.5 C 0.5 0.5 0.5 0.5 3.5 0.5"  stroke="black" stroke-opacity="0.049999999999999996" stroke-width="5" transform="translate(1, 1)"></path><path fill="none" d="M 3.5 0.5 L 13.5 0.5 C 16.5 0.5 16.5 0.5 16.5 3.5 L 16.5 13.5 C 16.5 16.5 16.5 16.5 13.5 16.5 L 3.5 16.5 C 0.5 16.5 0.5 16.5 0.5 13.5 L 0.5 3.5 C 0.5 0.5 0.5 0.5 3.5 0.5"  stroke="black" stroke-opacity="0.09999999999999999" stroke-width="3" transform="translate(1, 1)"></path><path fill="none" d="M 3.5 0.5 L 13.5 0.5 C 16.5 0.5 16.5 0.5 16.5 3.5 L 16.5 13.5 C 16.5 16.5 16.5 16.5 13.5 16.5 L 3.5 16.5 C 0.5 16.5 0.5 16.5 0.5 13.5 L 0.5 3.5 C 0.5 0.5 0.5 0.5 3.5 0.5"  stroke="black" stroke-opacity="0.15" stroke-width="1" transform="translate(1, 1)"></path><path fill="rgb(249, 249, 249)" fill-opacity=" .85" d="M 3.5 0.5 L 13.5 0.5 C 16.5 0.5 16.5 0.5 16.5 3.5 L 16.5 13.5 C 16.5 16.5 16.5 16.5 13.5 16.5 L 3.5 16.5 C 0.5 16.5 0.5 16.5 0.5 13.5 L 0.5 3.5 C 0.5 0.5 0.5 0.5 3.5 0.5"></path><text x="8"  style="font-size:12px;color:#333333;fill:#333333;" y="20"></text></g><text x="2270" text-anchor="end"  style="cursor:pointer;color:#909090;font-size:9px;fill:#909090;" y="795"></text></svg>