<svg xmlns:xlink="http://www.w3.org/1999/xlink" version="1.1" style="font-family:'lucida grande', 'lucida sans unicode', arial, helvetica, sans-serif;font-size:12px;" xmlns="http://www.w3.org/2000/svg" width="2280" height="800"><desc>Created with Highcharts 4.2.1 /Highstock 4.2.1</desc><defs><clipPath id="highcharts-34"><rect x="0" y="0" width="2207" height="627"></rect></clipPath></defs><rect x="0" y="0" width="2280" height="800" strokeWidth="0" fill="#FFFFFF" class=" highcharts-background"></rect><g class="highcharts-grid" ></g><g class="highcharts-grid" ><path fill="none" d="M 63 688.5 L 2270 688.5" stroke="#D8D8D8" stroke-width="1"  opacity="1"></path><path fill="none" d="M 63 610.5 L 2270 610.5" stroke="#D8D8D8" stroke-width="1"  opacity="1"></path><path fill="none" d="M 63 531.5 L 2270 531.5" stroke="#D8D8D8" stroke-width="1"  opacity="1"></path><path fill="none" d="M 63 453.5 L 2270 453.5" stroke="#D8D8D8" stroke-width="1"  opacity="1"></path><path fill="none" d="M 63 375.5 L 2270 375.5" stroke="#D8D8D8" stroke-width="1"  opacity="1"></path><path fill="none" d="M 63 296.5 L 2270 296.5" stroke="#D8D8D8" stroke-width="1"  opacity="1"></path><path fill="none" d="M 63 218.5 L 2270 218.5" stroke="#D8D8D8" stroke-width="1"  opacity="1"></path><path fill="none" d="M 63 139.5 L 2270 139.5" stroke="#D8D8D8" stroke-width="1"  opacity="1"></path><path fill="none" d="M 63 60.5 L 2270 60.5" stroke="#D8D8D8" stroke-width="1"  opacity="1"></path></g><g class="highcharts-axis" ><path fill="none" d="M 132.5 688 L 132.5 698" stroke="#C0D0E0" stroke-width="1" opacity="1"></path><path fill="none" d="M 208.5 688 L 208.5 698" stroke="#C0D0E0" stroke-width="1" opacity="1"></path><path fill="none" d="M 284.5 688 L 284.5 698" stroke="#C0D0E0" stroke-width="1" opacity="1"></path><path fill="none" d="M 360.5 688 L 360.5 698" stroke="#C0D0E0" stroke-width="1" opacity="1"></path><path fill="none" d="M 436.5 688 L 436.5 698" stroke="#C0D0E0" stroke-width="1" opacity="1"></path><path fill="none" d="M 512.5 688 L 512.5 698" stroke="#C0D0E0" stroke-width="1" opacity="1"></path><path fill="none" d="M 587.5 688 L 587.5 698" stroke="#C0D0E0" stroke-width="1" opacity="1"></path><path fill="none" d="M 663.5 688 L 663.5 698" stroke="#C0D0E0" stroke-width="1" opacity="1"></path><path fill="none" d="M 739.5 688 L 739.5 698" stroke="#C0D0E0" stroke-width="1" opacity="1"></path><path fill="none" d="M 815.5 688 L 815.5 698" stroke="#C0D0E0" stroke-width="1" opacity="1"></path><path fill="none" d="M 891.5 688 L 891.5 698" stroke="#C0D0E0" stroke-width="1" opacity="1"></path><path fill="none" d="M 967.5 688 L 967.5 698" stroke="#C0D0E0" stroke-width="1" opacity="1"></path><path fill="none" d="M 1043.5 688 L 1043.5 698" stroke="#C0D0E0" stroke-width="1" opacity="1"></path><path fill="none" d="M 1118.5 688 L 1118.5 698" stroke="#C0D0E0" stroke-width="1" opacity="1"></path><path fill="none" d="M 1194.5 688 L 1194.5 698" stroke="#C0D0E0" stroke-width="1" opacity="1"></path><path fill="none" d="M 1270.5 688 L 1270.5 698" stroke="#C0D0E0" stroke-width="1" opacity="1"></path><path fill="none" d="M 1346.5 688 L 1346.5 698" stroke="#C0D0E0" stroke-width="1" opacity="1"></path><path fill="none" d="M 1422.5 688 L 1422.5 698" stroke="#C0D0E0" stroke-width="1" opacity="1"></path><path fill="none" d="M 1498.5 688 L 1498.5 698" stroke="#C0D0E0" stroke-width="1" opacity="1"></path><path fill="none" d="M 1574.5 688 L 1574.5 698" stroke="#C0D0E0" stroke-width="1" opacity="1"></path><path fill="none" d="M 1649.5 688 L 1649.5 698" stroke="#C0D0E0" stroke-width="1" opacity="1"></path><path fill="none" d="M 1725.5 688 L 1725.5 698" stroke="#C0D0E0" stroke-width="1" opacity="1"></path><path fill="none" d="M 1801.5 688 L 1801.5 698" stroke="#C0D0E0" stroke-width="1" opacity="1"></path><path fill="none" d="M 1877.5 688 L 1877.5 698" stroke="#C0D0E0" stroke-width="1" opacity="1"></path><path fill="none" d="M 1953.5 688 L 1953.5 698" stroke="#C0D0E0" stroke-width="1" opacity="1"></path><path fill="none" d="M 2029.5 688 L 2029.5 698" stroke="#C0D0E0" stroke-width="1" opacity="1"></path><path fill="none" d="M 2105.5 688 L 2105.5 698" stroke="#C0D0E0" stroke-width="1" opacity="1"></path><path fill="none" d="M 2180.5 688 L 2180.5 698" stroke="#C0D0E0" stroke-width="1" opacity="1"></path><path fill="none" d="M 2256.5 688 L 2256.5 698" stroke="#C0D0E0" stroke-width="1" opacity="1"></path><text x="1166.5"  text-anchor="middle" transform="translate(0,0)" class=" highcharts-xaxis-title" style="color:#707070;fill:#707070;" y="725.96875">Time</text><path fill="none" d="M 63 688.5 L 2270 688.5" stroke="#C0D0E0" stroke-width="1" ></path></g><g class="highcharts-axis" ><text x="24.078125"  text-anchor="middle" transform="translate(0,0) rotate(270 24.078125 374.5)" class=" highcharts-yaxis-title" style="color:#707070;fill:#707070;" y="374.5">Values</text></g><g class="highcharts-series-group" ><g class="highcharts-series highcharts-series-0"  transform="translate(63,61) scale(1 1)" clip-path="url(#highcharts-34)"><path fill="none" d="M 21.6372548293308 309.58125 L 26.006823597865743 309.58125 L 32.1060133372791 309.58125 L 38.21278913358228 309.58125 L 44.27404858854655 309.58125 L 50.37323832795991 309.58125 L 56.43449778292418 309.58125 L 62.647478375684805 309.58125 L 68.68597965997962 309.58125 L 74.7472391149439 309.58125 L 80.82367068368781 309.58125 L 86.96079070755026 309.58125 L 93.06756650385343 313.5 L 99.16675624326679 313.5 L 106.76798524686404 313.5 L 112.92786344139594 313.5 L 119.00429501013984 313.5 L 125.1034847495532 313.5 L 131.22543265963603 313.5 L 137.37013874038828 313.5 L 144.63758124083355 313.5 L 149.50024370720664 313.5 L 155.66012190173853 313.5 L 161.83517221005008 313.5 L 169.0722704829361 313.5 L 173.98044929064807 313.5 L 180.08722508695126 313.5 L 186.1788287694748 313.5 L 199.85648934181594 313.5 L 200.0537268209512 313.5 L 200.228206129417 313.5 L 204.49157010149452 317.41875 L 210.6438622391366 317.41875 L 217.78234177245497 317.41875 L 224.31393675458793 317.41875 L 230.40554043711148 317.41875 L 236.5274883471943 317.41875 L 243.45355828759776 317.41875 L 248.74103993980066 317.41875 L 254.83264362232418 317.41875 L 260.9394194186274 317.41875 L 266.26483135527934 317.41875 L 273.1453849543439 317.41875 L 279.23698863686747 317.41875 L 285.38928077450953 317.41875 L 291.4126099450247 317.41875 L 297.5193857413279 317.41875 L 303.7778826754274 317.41875 L 309.702593106375 317.41875 L 315.7941967888985 317.41875 L 322.014763438549 317.41875 L 328.0305065521743 317.41875 L 335.66207978333085 317.41875 L 341.7612695227442 317.41875 L 347.8452871483779 317.41875 L 353.9520629446811 317.41875 L 360.0588387409843 317.41875 L 366.1883727079569 317.41875 L 372.26480427670083 317.41875 L 378.3412358454447 317.41875 L 384.4404255848581 317.41875 L 390.5547874380511 317.41875 L 396.6388050636848 317.41875 L 402.76075297376764 321.3375 L 408.8675287700708 321.3375 L 414.9287882250351 321.3375 L 421.05073613511786 321.3375 L 427.1271677038618 321.3375 L 433.30221801217334 321.3375 L 439.31037506890885 321.3375 L 445.4247369221019 321.3375 L 451.7439223113199 321.3375 L 466.7643149531588 321.3375 L 466.8781058065061 321.3375 L 466.96155243229407 321.3375 L 471.39180965594755 321.3375 L 477.5744460211489 321.3375 L 491.16865996770207 321.3375 L 491.29003687793914 321.3375 L 491.37348350372713 321.3375 L 495.73546621537224 321.3375 L 501.88775835301436 321.3375 L 508.98830760188366 321.3375 L 514.2606171403069 321.3375 L 520.1701554574748 321.3375 L 526.2845173106678 321.3375 L 533.9843650538327 321.3375 L 538.4677246757149 321.3375 L 544.574500472018 321.3375 L 550.6888623252111 321.3375 L 557.38735055892 321.3375 L 562.9934466004952 321.3375 L 570.4960568645248 321.3375 L 576.8000701399633 321.3375 L 581.7082489476753 321.3375 L 588.7860400258751 321.3375 L 594.945918220407 321.3375 L 601.0375219029305 321.3375 L 607.0987813578948 321.3375 L 613.2434874386471 321.3375 L 619.281988722942 321.3375 L 625.4266948036942 321.3375 L 631.5638148275566 321.3375 L 637.6402463963005 321.3375 L 643.7166779650444 321.3375 L 650.0055191267032 321.3375 L 655.9529877283202 321.3375 L 662.0218332401744 321.3375 L 669.6382343575513 321.3375 L 675.7905264951933 321.3375 L 681.8062696088186 321.3375 L 688.0495944291386 321.3375 L 694.0501654289843 321.3375 L 700.2024575666263 321.3375 L 706.2864751922601 321.3375 L 712.3098043627753 321.3375 L 718.4165801590784 321.3375 L 724.5309420122715 321.3375 L 733.6645545076118 321.3375 L 733.7935174747388 321.3375 L 733.8921362143063 321.3375 L 733.9983410107639 321.3375 L 734.1121318641111 321.3375 L 736.7293214910982 321.3375 L 742.7905809460624 321.3375 L 748.8973567423656 321.3375 L 754.9662022542198 321.3375 L 761.110908334972 321.3375 L 767.308716813953 325.25624999999997 L 775.8202726443283 325.25624999999997 L 781.0167216138534 321.3375 L 787.108325296377 325.25624999999997 L 793.1240684100023 325.25624999999997 L 800.042552293516 325.25624999999997 L 805.2996897181596 325.25624999999997 L 811.436809742022 325.25624999999997 L 817.5208273676557 325.25624999999997 L 831.2136600537765 325.25624999999997 L 831.3653811915729 325.25624999999997 L 835.8411547565653 325.25624999999997 L 842.1224098613343 325.25624999999997 L 848.6084885021284 325.25624999999997 L 854.1994124299239 325.25624999999997 L 860.2303276573289 325.25624999999997 L 866.337103453632 325.25624999999997 L 873.2100709958069 325.25624999999997 L 878.694790127145 325.25624999999997 L 886.1215398222764 325.25624999999997 L 892.5165857803927 325.25624999999997 L 898.3502635286624 325.25624999999997 L 904.4873835525249 325.25624999999997 L 910.6169175194974 329.175 L 916.6705909175719 329.175 L 922.739436429426 329.175 L 928.9220727946274 329.175 L 934.9909183064815 329.175 L 941.0825219890049 329.175 L 947.2575722973165 329.175 L 953.2581432971623 329.175 L 959.4028493779145 329.175 L 965.4868670035482 329.175 L 971.6012288567413 329.175 L 977.6549022548157 329.175 L 983.8071943924577 329.175 L 991.3932512822754 329.175 L 997.484854964799 329.175 L 1003.5916307611021 329.175 L 1009.7135786711849 329.175 L 1015.7975962968186 329.175 L 1021.9043720931219 329.175 L 1027.9959757756453 329.175 L 1034.1330957995078 329.175 L 1040.3081461078193 329.175 L 1046.2935449938855 329.175 L 1052.3699765626293 329.175 L 1058.5677850416103 329.175 L 1064.6214584396848 329.175 L 1070.6978900084287 329.175 L 1076.804665804732 329.175 L 1082.9417858285942 329.175 L 1088.9954592266688 329.175 L 1096.6118603440457 329.175 L 1102.7034640265692 329.175 L 1108.870928277991 329.175 L 1115.857686673513 329.175 L 1121.0237914154786 329.175 L 1127.1078090411124 329.175 L 1133.199412723636 329.175 L 1139.9206591280144 329.175 L 1145.4053782593526 329.175 L 1151.6107727952233 325.25624999999997 L 1157.5809995675097 325.25624999999997 L 1164.3250041425576 325.25624999999997 L 1170.0221328668108 325.25624999999997 L 1175.916499070199 325.25624999999997 L 1181.9853445820531 325.25624999999997 L 1188.554869848635 325.25624999999997 L 1194.2671706866677 325.25624999999997 L 1200.328430141632 325.25624999999997 L 1207.89931491767 325.25624999999997 L 1212.9212845787292 325.25624999999997 L 1220.1811410222847 325.25624999999997 L 1226.2651586479185 325.25624999999997 L 1232.3795205011115 325.25624999999997 L 1238.5621568663128 325.25624999999997 L 1244.5778999799381 325.25624999999997 L 1250.6467454917922 325.25624999999997 L 1256.776279458765 325.25624999999997 L 1262.890641311958 325.25624999999997 L 1268.9898310513713 325.25624999999997 L 1275.1345371321236 325.25624999999997 L 1281.3323456111045 325.25624999999997 L 1287.302572383391 325.25624999999997 L 1293.3941760659145 325.25624999999997 L 1299.7285335689123 325.25624999999997 L 1305.6228997723006 325.25624999999997 L 1311.7220895117139 325.25624999999997 L 1319.330904572201 325.25624999999997 L 1325.4528524822838 325.25624999999997 L 1331.552042221697 325.25624999999997 L 1337.636059847331 325.25624999999997 L 1343.697319302295 325.25624999999997 L 1349.9785744070641 325.25624999999997 L 1356.009489634469 325.25624999999997 L 1362.0555769756538 325.25624999999997 L 1368.2306272839653 325.25624999999997 L 1374.3070588527091 325.25624999999997 L 1380.3986625352327 325.25624999999997 L 1386.459921990197 325.25624999999997 L 1392.5515256727206 325.25624999999997 L 1398.7872644361505 325.25624999999997 L 1404.8105936066659 325.25624999999997 L 1411.0008160287568 325.25624999999997 L 1416.9558706872638 325.25624999999997 L 1423.1309209955753 325.25624999999997 L 1429.305971303887 325.25624999999997 L 1435.458263441529 325.25624999999997 L 1442.991217933118 325.25624999999997 L 1449.0752355587515 325.25624999999997 L 1455.6599329391133 325.25624999999997 L 1461.2887871513578 325.25624999999997 L 1467.9493451006178 325.25624999999997 L 1472.8347657376603 325.25624999999997 L 1480.5118553101556 325.25624999999997 L 1480.7015067324012 325.25624999999997 L 1486.8613849269332 325.25624999999997 L 1491.7543916208654 325.25624999999997 L 1497.8763395309481 325.25624999999997 L 1504.0513898392599 325.25624999999997 L 1510.1733377493426 325.25624999999997 L 1516.189080862968 325.25624999999997 L 1522.3565451143897 325.25624999999997 L 1528.410218512464 325.25624999999997 L 1534.5473385363266 325.25624999999997 L 1540.6237701050704 325.25624999999997 L 1548.2325851655576 325.25624999999997 L 1554.4455657583183 325.25624999999997 L 1560.4613088719436 325.25624999999997 L 1566.6439452371449 325.25624999999997 L 1572.7052046921092 325.25624999999997 L 1578.7588780901835 325.25624999999997 L 1584.8656538864868 325.25624999999997 L 1590.9269133414512 325.25624999999997 L 1597.1019636497626 325.25624999999997 L 1607.7603735799564 325.25624999999997 L 1607.9576110590915 325.25624999999997 L 1608.1245043106676 325.25624999999997 L 1608.2913975622437 325.25624999999997 L 1609.4672363801653 325.25624999999997 L 1615.5360818920194 325.25624999999997 L 1621.5518250056448 325.25624999999997 L 1627.6130844606091 325.25624999999997 L 1633.8412371671493 325.25624999999997 L 1639.8645663376644 325.25624999999997 L 1646.0244445321964 325.25624999999997 L 1652.2450111818468 325.25624999999997 L 1658.3821312057094 325.25624999999997 L 1665.8923275266286 325.25624999999997 L 1670.5501664569767 325.25624999999997 L 1678.0603627778962 325.25624999999997 L 1684.13679434664 325.25624999999997 L 1690.2739143705026 325.25624999999997 L 1696.3882762236956 325.25624999999997 L 1702.5026380768886 325.25624999999997 L 1708.6776883852 325.25624999999997 L 1714.7465338970542 325.25624999999997 L 1720.8077933520185 325.25624999999997 L 1726.9449133758808 325.25624999999997 L 1733.0592752290738 325.25624999999997 L 1739.166051025377 325.25624999999997 L 1746.7141776307456 325.25624999999997 L 1751.3720165610935 325.25624999999997 L 1757.463620243617 325.25624999999997 L 1763.623498438149 325.25624999999997 L 1770.7543919145776 325.25624999999997 L 1775.7763615756369 325.25624999999997 L 1783.4155208636832 325.25624999999997 L 1789.4691942617576 325.25624999999997 L 1795.18908115668 325.25624999999997 L 1801.7282621957029 325.25624999999997 L 1807.7819355937772 325.25624999999997 L 1813.9342277314195 325.25624999999997 L 1819.274811781851 325.25624999999997 L 1826.1553653809156 325.25624999999997 L 1832.2317969496594 325.25624999999997 L 1838.3461588028524 325.25624999999997 L 1844.5136230542741 325.25624999999997 L 1850.5748825092385 325.25624999999997 L 1856.6892443624315 325.25624999999997 L 1862.7884341018448 325.25624999999997 L 1868.9103820119276 325.25624999999997 L 1875.1537068322475 325.25624999999997 L 1881.131519661424 325.25624999999997 L 1887.2307094008372 325.25624999999997 L 1893.4664481642671 325.25624999999997 L 1901.0145747696358 325.25624999999997 L 1907.2275553623963 325.25624999999997 L 1911.8853942927444 325.25624999999997 L 1919.395590613664 325.25624999999997 L 1925.502366409967 325.25624999999997 L 1931.578797978711 325.25624999999997 L 1937.685573775014 325.25624999999997 L 1943.8302798557663 325.25624999999997 L 1949.9067114245104 325.25624999999997 L 1955.990729050144 325.25624999999997 L 1962.1657793584554 325.25624999999997 L 1968.3560017805466 325.25624999999997 L 1974.3414006666128 325.25624999999997 L 1980.5012788611448 325.25624999999997 L 1986.7370176245747 325.25624999999997 L 1995.8706301199152 325.25624999999997 L 1996.1133839403894 325.25624999999997 L 1996.3182074764145 325.25624999999997 L 1998.8216062500542 325.25624999999997 L 2005.1180334686028 325.25624999999997 L 2011.0275717857708 325.25624999999997 L 2017.2405523785314 325.25624999999997 L 2023.2562954921568 325.25624999999997 L 2029.446517914248 325.25624999999997 L 2044.6413898645526 325.25624999999997 L 2044.8765576281369 325.25624999999997 L 2045.088967221052 325.25624999999997 L 2045.3013768139667 325.25624999999997 L 2049.2537124535615 325.25624999999997 L 2055.368074306755 325.25624999999997 L 2061.998288028455 325.25624999999997 L 2067.5740398424714 325.25624999999997 L 2073.695987752554 325.25624999999997 L 2079.984828914213 325.25624999999997 L 2086.546768123905 325.25624999999997 L 2092.0163151414636 325.25624999999997 L 2098.2141236204448 325.25624999999997 L 2104.4650344976544 325.25624999999997 L 2110.920768910889 325.25624999999997 L 2116.587553407583 325.25624999999997 L 2122.7701897727843 325.25624999999997 L 2128.801105000189 325.25624999999997 L 2134.8092620569246 325.25624999999997 L 2135.0671879911783 325.25624999999997 L 2141.105689275473 325.25624999999997 L 2147.159362673548 325.25624999999997 L 2153.2964826974103 325.25624999999997 L 2159.4336027212726 325.25624999999997 L 2167.04241778176 325.25624999999997 L 2173.2933286589696 325.25624999999997 L 2179.3697602277134 325.25624999999997 L 2185.3627451706693 325.25624999999997" stroke="#7cb5ec" stroke-width="2"  stroke-linejoin="round" stroke-linecap="round"></path></g><g class="highcharts-markers highcharts-series-0"  transform="translate(63,61) scale(1 1)" clip-path="none"></g><g class="highcharts-series highcharts-series-1"  transform="translate(63,61) scale(1 1)" clip-path="url(#highcharts-34)"><path fill="none" d="M 21.6372548293308 366.01125 L 26.006823597865743 365.776125 L 32.1060133372791 365.69775 L 38.21278913358228 365.69775 L 44.27404858854655 365.541 L 50.37323832795991 365.541 L 56.43449778292418 365.541 L 62.647478375684805 365.541 L 68.68597965997962 365.541 L 74.7472391149439 365.38424999999995 L 80.82367068368781 365.462625 L 86.96079070755026 365.38424999999995 L 93.06756650385343 365.462625 L 99.16675624326679 365.2275 L 106.76798524686404 365.30587499999996 L 112.92786344139594 365.30587499999996 L 119.00429501013984 365.149125 L 125.1034847495532 365.149125 L 131.22543265963603 365.07075 L 137.37013874038828 365.149125 L 144.63758124083355 364.992375 L 149.50024370720664 364.992375 L 155.66012190173853 364.835625 L 161.83517221005008 364.992375 L 169.0722704829361 364.835625 L 173.98044929064807 364.835625 L 180.08722508695126 364.678875 L 186.1788287694748 364.835625 L 199.85648934181594 364.52212499999996 L 200.0537268209512 364.52212499999996 L 200.228206129417 364.52212499999996 L 204.49157010149452 364.678875 L 210.6438622391366 364.44374999999997 L 217.78234177245497 364.52212499999996 L 224.31393675458793 364.44374999999997 L 230.40554043711148 364.44374999999997 L 236.5274883471943 364.52212499999996 L 243.45355828759776 364.287 L 248.74103993980066 364.36537500000003 L 254.83264362232418 364.287 L 260.9394194186274 364.287 L 266.26483135527934 364.13025 L 273.1453849543439 364.287 L 279.23698863686747 364.208625 L 285.38928077450953 364.13025 L 291.4126099450247 364.287 L 297.5193857413279 364.13025 L 303.7778826754274 364.13025 L 309.702593106375 364.13025 L 315.7941967888985 363.97349999999994 L 322.014763438549 364.13025 L 328.0305065521743 364.051875 L 335.66207978333085 364.051875 L 341.7612695227442 363.81675 L 347.8452871483779 363.895125 L 353.9520629446811 363.895125 L 360.0588387409843 363.97349999999994 L 366.1883727079569 363.81675 L 372.26480427670083 363.73837499999996 L 378.3412358454447 363.65999999999997 L 384.4404255848581 363.73837499999996 L 390.5547874380511 363.73837499999996 L 396.6388050636848 363.65999999999997 L 402.76075297376764 363.73837499999996 L 408.8675287700708 363.73837499999996 L 414.9287882250351 363.65999999999997 L 421.05073613511786 363.50325 L 427.1271677038618 363.424875 L 433.30221801217334 363.424875 L 439.31037506890885 363.18975 L 445.4247369221019 363.3465 L 451.7439223113199 363.268125 L 466.7643149531588 363.268125 L 466.8781058065061 363.268125 L 466.96155243229407 363.268125 L 471.39180965594755 363.268125 L 477.5744460211489 363.18975 L 491.16865996770207 363.11137499999995 L 491.29003687793914 363.11137499999995 L 491.37348350372713 363.11137499999995 L 495.73546621537224 363.11137499999995 L 501.88775835301436 363.18975 L 508.98830760188366 363.11137499999995 L 514.2606171403069 363.11137499999995 L 520.1701554574748 362.954625 L 526.2845173106678 363.033 L 533.9843650538327 362.954625 L 538.4677246757149 362.87624999999997 L 544.574500472018 362.954625 L 550.6888623252111 362.87624999999997 L 557.38735055892 362.797875 L 562.9934466004952 362.797875 L 570.4960568645248 362.797875 L 576.8000701399633 362.7195 L 581.7082489476753 362.797875 L 588.7860400258751 362.7195 L 594.945918220407 362.56275 L 601.0375219029305 362.56275 L 607.0987813578948 362.56275 L 613.2434874386471 362.56275 L 619.281988722942 362.56275 L 625.4266948036942 362.484375 L 631.5638148275566 362.24924999999996 L 637.6402463963005 362.484375 L 643.7166779650444 362.484375 L 650.0055191267032 362.32762499999995 L 655.9529877283202 362.17087499999997 L 662.0218332401744 362.09250000000003 L 669.6382343575513 362.014125 L 675.7905264951933 362.17087499999997 L 681.8062696088186 362.09250000000003 L 688.0495944291386 362.014125 L 694.0501654289843 362.09250000000003 L 700.2024575666263 361.857375 L 706.2864751922601 361.93575 L 712.3098043627753 361.93575 L 718.4165801590784 361.93575 L 724.5309420122715 361.857375 L 733.6645545076118 361.93575 L 733.7935174747388 361.93575 L 733.8921362143063 361.93575 L 733.9983410107639 361.93575 L 734.1121318641111 361.93575 L 736.7293214910982 361.93575 L 742.7905809460624 362.014125 L 748.8973567423656 361.77899999999994 L 754.9662022542198 361.77899999999994 L 761.110908334972 361.700625 L 767.308716813953 361.700625 L 775.8202726443283 361.62225 L 781.0167216138534 361.543875 L 787.108325296377 361.62225 L 793.1240684100023 361.543875 L 800.042552293516 361.543875 L 805.2996897181596 361.38712499999997 L 811.436809742022 361.46549999999996 L 817.5208273676557 361.46549999999996 L 831.2136600537765 361.38712499999997 L 831.3653811915729 361.38712499999997 L 835.8411547565653 361.38712499999997 L 842.1224098613343 361.073625 L 848.6084885021284 361.152 L 854.1994124299239 361.30875 L 860.2303276573289 361.073625 L 866.337103453632 361.30875 L 873.2100709958069 361.30875 L 878.694790127145 361.30875 L 886.1215398222764 361.152 L 892.5165857803927 361.073625 L 898.3502635286624 360.99525 L 904.4873835525249 360.99525 L 910.6169175194974 360.760125 L 916.6705909175719 360.83849999999995 L 922.739436429426 360.83849999999995 L 928.9220727946274 360.83849999999995 L 934.9909183064815 360.83849999999995 L 941.0825219890049 360.760125 L 947.2575722973165 360.83849999999995 L 953.2581432971623 360.83849999999995 L 959.4028493779145 360.60337499999997 L 965.4868670035482 360.68175 L 971.6012288567413 360.60337499999997 L 977.6549022548157 360.60337499999997 L 983.8071943924577 360.68175 L 991.3932512822754 360.760125 L 997.484854964799 360.525 L 1003.5916307611021 360.60337499999997 L 1009.7135786711849 360.60337499999997 L 1015.7975962968186 360.36825 L 1021.9043720931219 360.446625 L 1027.9959757756453 360.446625 L 1034.1330957995078 360.36825 L 1040.3081461078193 360.289875 L 1046.2935449938855 360.36825 L 1052.3699765626293 360.289875 L 1058.5677850416103 360.289875 L 1064.6214584396848 360.2115 L 1070.6978900084287 360.289875 L 1076.804665804732 360.2115 L 1082.9417858285942 360.289875 L 1088.9954592266688 359.97637499999996 L 1096.6118603440457 360.05474999999996 L 1102.7034640265692 360.2115 L 1108.870928277991 360.2115 L 1115.857686673513 359.898 L 1121.0237914154786 359.97637499999996 L 1127.1078090411124 359.898 L 1133.199412723636 359.819625 L 1139.9206591280144 359.898 L 1145.4053782593526 359.819625 L 1151.6107727952233 359.74125 L 1157.5809995675097 359.74125 L 1164.3250041425576 359.662875 L 1170.0221328668108 359.662875 L 1175.916499070199 359.74125 L 1181.9853445820531 359.662875 L 1188.554869848635 359.74125 L 1194.2671706866677 359.662875 L 1200.328430141632 359.50612499999994 L 1207.89931491767 359.50612499999994 L 1212.9212845787292 359.5845 L 1220.1811410222847 359.5845 L 1226.2651586479185 359.42775 L 1232.3795205011115 359.50612499999994 L 1238.5621568663128 359.42775 L 1244.5778999799381 359.42775 L 1250.6467454917922 359.50612499999994 L 1256.776279458765 359.42775 L 1262.890641311958 359.42775 L 1268.9898310513713 359.349375 L 1275.1345371321236 359.271 L 1281.3323456111045 359.271 L 1287.302572383391 359.271 L 1293.3941760659145 359.11424999999997 L 1299.7285335689123 359.19262499999996 L 1305.6228997723006 359.03587500000003 L 1311.7220895117139 359.03587500000003 L 1319.330904572201 359.11424999999997 L 1325.4528524822838 359.11424999999997 L 1331.552042221697 359.03587500000003 L 1337.636059847331 359.11424999999997 L 1343.697319302295 359.11424999999997 L 1349.9785744070641 358.879125 L 1356.009489634469 359.03587500000003 L 1362.0555769756538 358.879125 L 1368.2306272839653 358.80075 L 1374.3070588527091 358.879125 L 1380.3986625352327 358.722375 L 1386.459921990197 358.722375 L 1392.5515256727206 358.64399999999995 L 1398.7872644361505 358.64399999999995 L 1404.8105936066659 358.64399999999995 L 1411.0008160287568 358.722375 L 1416.9558706872638 358.64399999999995 L 1423.1309209955753 358.40887499999997 L 1429.305971303887 358.48725 L 1435.458263441529 358.64399999999995 L 1442.991217933118 358.40887499999997 L 1449.0752355587515 358.40887499999997 L 1455.6599329391133 358.40887499999997 L 1461.2887871513578 358.40887499999997 L 1467.9493451006178 358.565625 L 1472.8347657376603 358.17375 L 1480.5118553101556 358.3305 L 1480.7015067324012 358.3305 L 1486.8613849269332 358.17375 L 1491.7543916208654 358.3305 L 1497.8763395309481 358.3305 L 1504.0513898392599 358.095375 L 1510.1733377493426 358.252125 L 1516.189080862968 358.095375 L 1522.3565451143897 358.095375 L 1528.410218512464 358.17375 L 1534.5473385363266 358.095375 L 1540.6237701050704 358.17375 L 1548.2325851655576 358.017 L 1554.4455657583183 358.095375 L 1560.4613088719436 358.017 L 1566.6439452371449 357.938625 L 1572.7052046921092 357.86024999999995 L 1578.7588780901835 357.938625 L 1584.8656538864868 357.938625 L 1590.9269133414512 357.86024999999995 L 1597.1019636497626 357.86024999999995 L 1607.7603735799564 357.7035 L 1607.9576110590915 357.7035 L 1608.1245043106676 357.7035 L 1608.2913975622437 357.7035 L 1609.4672363801653 357.7035 L 1615.5360818920194 357.7035 L 1621.5518250056448 357.54675 L 1627.6130844606091 357.625125 L 1633.8412371671493 357.625125 L 1639.8645663376644 357.54675 L 1646.0244445321964 357.39 L 1652.2450111818468 357.625125 L 1658.3821312057094 357.39 L 1665.8923275266286 357.39 L 1670.5501664569767 357.39 L 1678.0603627778962 357.311625 L 1684.13679434664 357.39 L 1690.2739143705026 357.468375 L 1696.3882762236956 357.23325 L 1702.5026380768886 357.23325 L 1708.6776883852 357.23325 L 1714.7465338970542 357.23325 L 1720.8077933520185 357.23325 L 1726.9449133758808 357.23325 L 1733.0592752290738 357.0765 L 1739.166051025377 356.84137499999997 L 1746.7141776307456 356.99812499999996 L 1751.3720165610935 356.99812499999996 L 1757.463620243617 356.91974999999996 L 1763.623498438149 356.91974999999996 L 1770.7543919145776 356.91974999999996 L 1775.7763615756369 356.91974999999996 L 1783.4155208636832 357.0765 L 1789.4691942617576 356.99812499999996 L 1795.18908115668 356.99812499999996 L 1801.7282621957029 356.84137499999997 L 1807.7819355937772 356.91974999999996 L 1813.9342277314195 356.76300000000003 L 1819.274811781851 356.76300000000003 L 1826.1553653809156 356.76300000000003 L 1832.2317969496594 356.76300000000003 L 1838.3461588028524 356.684625 L 1844.5136230542741 356.527875 L 1850.5748825092385 356.527875 L 1856.6892443624315 356.527875 L 1862.7884341018448 356.44949999999994 L 1868.9103820119276 356.44949999999994 L 1875.1537068322475 356.29275 L 1881.131519661424 356.44949999999994 L 1887.2307094008372 356.371125 L 1893.4664481642671 356.29275 L 1901.0145747696358 356.44949999999994 L 1907.2275553623963 356.44949999999994 L 1911.8853942927444 356.29275 L 1919.395590613664 356.29275 L 1925.502366409967 356.13599999999997 L 1931.578797978711 356.057625 L 1937.685573775014 356.13599999999997 L 1943.8302798557663 356.057625 L 1949.9067114245104 356.057625 L 1955.990729050144 356.057625 L 1962.1657793584554 356.057625 L 1968.3560017805466 356.057625 L 1974.3414006666128 356.057625 L 1980.5012788611448 355.97925 L 1986.7370176245747 355.744125 L 1995.8706301199152 355.900875 L 1996.1133839403894 355.900875 L 1996.3182074764145 355.900875 L 1998.8216062500542 355.97925 L 2005.1180334686028 355.900875 L 2011.0275717857708 355.900875 L 2017.2405523785314 355.66575 L 2023.2562954921568 355.8225 L 2029.446517914248 355.744125 L 2044.6413898645526 355.58737499999995 L 2044.8765576281369 355.58737499999995 L 2045.088967221052 355.58737499999995 L 2045.3013768139667 355.58737499999995 L 2049.2537124535615 355.58737499999995 L 2055.368074306755 355.58737499999995 L 2061.998288028455 355.35225 L 2067.5740398424714 355.430625 L 2073.695987752554 355.35225 L 2079.984828914213 355.430625 L 2086.546768123905 355.35225 L 2092.0163151414636 355.273875 L 2098.2141236204448 355.35225 L 2104.4650344976544 355.117125 L 2110.920768910889 355.1955 L 2116.587553407583 355.430625 L 2122.7701897727843 355.273875 L 2128.801105000189 355.273875 L 2134.8092620569246 355.273875 L 2135.0671879911783 355.273875 L 2141.105689275473 355.03875 L 2147.159362673548 355.117125 L 2153.2964826974103 355.273875 L 2159.4336027212726 355.03875 L 2167.04241778176 354.960375 L 2173.2933286589696 354.960375 L 2179.3697602277134 354.960375 L 2185.3627451706693 354.960375" stroke="#434348" stroke-width="2"  stroke-linejoin="round" stroke-linecap="round"></path></g><g class="highcharts-markers highcharts-series-1"  transform="translate(63,61) scale(1 1)" clip-path="none"></g><g class="highcharts-series highcharts-series-2"  visibility="hidden" transform="translate(63,61) scale(1 1)" clip-path="url(#highcharts-34)"></g><g class="highcharts-markers highcharts-series-2"  visibility="hidden" transform="translate(63,61) scale(1 1)" clip-path="none"></g><g class="highcharts-series highcharts-series-3"  transform="translate(63,61) scale(1 1)" clip-path="url(#highcharts-34)"><path fill="none" d="M 21.6372548293308 297.825 L 26.006823597865743 297.825 L 32.1060133372791 297.825 L 38.21278913358228 297.825 L 44.27404858854655 297.825 L 50.37323832795991 297.825 L 56.43449778292418 297.825 L 62.647478375684805 297.825 L 68.68597965997962 289.9875 L 74.7472391149439 297.825 L 80.82367068368781 297.825 L 86.96079070755026 289.9875 L 93.06756650385343 289.9875 L 99.16675624326679 289.9875 L 106.76798524686404 289.9875 L 112.92786344139594 297.825 L 119.00429501013984 282.15 L 125.1034847495532 282.15 L 131.22543265963603 282.15 L 137.37013874038828 282.15 L 144.63758124083355 282.15 L 149.50024370720664 282.15 L 155.66012190173853 282.15 L 161.83517221005008 282.15 L 169.0722704829361 282.15 L 173.98044929064807 282.15 L 180.08722508695126 282.15 L 186.1788287694748 282.15 L 199.85648934181594 282.15 L 200.0537268209512 282.15 L 200.228206129417 282.15 L 204.49157010149452 282.15 L 210.6438622391366 282.15 L 217.78234177245497 282.15 L 224.31393675458793 282.15 L 230.40554043711148 282.15 L 236.5274883471943 282.15 L 243.45355828759776 282.15 L 248.74103993980066 282.15 L 254.83264362232418 282.15 L 260.9394194186274 282.15 L 266.26483135527934 282.15 L 273.1453849543439 282.15 L 279.23698863686747 282.15 L 285.38928077450953 282.15 L 291.4126099450247 282.15 L 297.5193857413279 282.15 L 303.7778826754274 282.15 L 309.702593106375 352.6875 L 315.7941967888985 282.15 L 322.014763438549 282.15 L 328.0305065521743 282.15 L 335.66207978333085 250.79999999999995 L 341.7612695227442 250.79999999999995 L 347.8452871483779 250.79999999999995 L 353.9520629446811 250.79999999999995 L 360.0588387409843 250.79999999999995 L 366.1883727079569 250.79999999999995 L 372.26480427670083 250.79999999999995 L 378.3412358454447 250.79999999999995 L 384.4404255848581 250.79999999999995 L 390.5547874380511 250.79999999999995 L 396.6388050636848 250.79999999999995 L 402.76075297376764 250.79999999999995 L 408.8675287700708 250.79999999999995 L 414.9287882250351 250.79999999999995 L 421.05073613511786 250.79999999999995 L 427.1271677038618 250.79999999999995 L 433.30221801217334 250.79999999999995 L 439.31037506890885 250.79999999999995 L 445.4247369221019 250.79999999999995 L 451.7439223113199 250.79999999999995 L 466.7643149531588 250.79999999999995 L 466.8781058065061 250.79999999999995 L 466.96155243229407 250.79999999999995 L 471.39180965594755 250.79999999999995 L 477.5744460211489 242.96249999999998 L 491.16865996770207 242.96249999999998 L 491.29003687793914 242.96249999999998 L 491.37348350372713 242.96249999999998 L 495.73546621537224 242.96249999999998 L 501.88775835301436 242.96249999999998 L 508.98830760188366 242.96249999999998 L 514.2606171403069 242.96249999999998 L 520.1701554574748 242.96249999999998 L 526.2845173106678 242.96249999999998 L 533.9843650538327 242.96249999999998 L 538.4677246757149 242.96249999999998 L 544.574500472018 242.96249999999998 L 550.6888623252111 242.96249999999998 L 557.38735055892 242.96249999999998 L 562.9934466004952 242.96249999999998 L 570.4960568645248 242.96249999999998 L 576.8000701399633 242.96249999999998 L 581.7082489476753 242.96249999999998 L 588.7860400258751 242.96249999999998 L 594.945918220407 242.96249999999998 L 601.0375219029305 242.96249999999998 L 607.0987813578948 242.96249999999998 L 613.2434874386471 242.96249999999998 L 619.281988722942 242.96249999999998 L 625.4266948036942 242.96249999999998 L 631.5638148275566 242.96249999999998 L 637.6402463963005 242.96249999999998 L 643.7166779650444 242.96249999999998 L 650.0055191267032 235.125 L 655.9529877283202 235.125 L 662.0218332401744 235.125 L 669.6382343575513 235.125 L 675.7905264951933 235.125 L 681.8062696088186 235.125 L 688.0495944291386 235.125 L 694.0501654289843 235.125 L 700.2024575666263 235.125 L 706.2864751922601 235.125 L 712.3098043627753 235.125 L 718.4165801590784 235.125 L 724.5309420122715 235.125 L 733.6645545076118 235.125 L 733.7935174747388 235.125 L 733.8921362143063 235.125 L 733.9983410107639 235.125 L 734.1121318641111 235.125 L 736.7293214910982 235.125 L 742.7905809460624 235.125 L 748.8973567423656 235.125 L 754.9662022542198 235.125 L 761.110908334972 227.28749999999997 L 767.308716813953 227.28749999999997 L 775.8202726443283 227.28749999999997 L 781.0167216138534 227.28749999999997 L 787.108325296377 227.28749999999997 L 793.1240684100023 227.28749999999997 L 800.042552293516 227.28749999999997 L 805.2996897181596 227.28749999999997 L 811.436809742022 227.28749999999997 L 817.5208273676557 227.28749999999997 L 831.2136600537765 227.28749999999997 L 831.3653811915729 227.28749999999997 L 835.8411547565653 227.28749999999997 L 842.1224098613343 227.28749999999997 L 848.6084885021284 227.28749999999997 L 854.1994124299239 227.28749999999997 L 860.2303276573289 227.28749999999997 L 866.337103453632 297.825 L 873.2100709958069 572.1375 L 878.694790127145 579.975 L 886.1215398222764 579.975 L 892.5165857803927 579.975 L 898.3502635286624 579.975 L 904.4873835525249 579.975 L 910.6169175194974 579.975 L 916.6705909175719 564.3 L 922.739436429426 572.1375 L 928.9220727946274 493.7625 L 934.9909183064815 227.28749999999997 L 941.0825219890049 219.45 L 947.2575722973165 219.45 L 953.2581432971623 219.45 L 959.4028493779145 219.45 L 965.4868670035482 219.45 L 971.6012288567413 219.45 L 977.6549022548157 219.45 L 983.8071943924577 219.45 L 991.3932512822754 219.45 L 997.484854964799 219.45 L 1003.5916307611021 219.45 L 1009.7135786711849 211.61249999999995 L 1015.7975962968186 211.61249999999995 L 1021.9043720931219 211.61249999999995 L 1027.9959757756453 211.61249999999995 L 1034.1330957995078 211.61249999999995 L 1040.3081461078193 211.61249999999995 L 1046.2935449938855 211.61249999999995 L 1052.3699765626293 211.61249999999995 L 1058.5677850416103 211.61249999999995 L 1064.6214584396848 211.61249999999995 L 1070.6978900084287 211.61249999999995 L 1076.804665804732 211.61249999999995 L 1082.9417858285942 211.61249999999995 L 1088.9954592266688 211.61249999999995 L 1096.6118603440457 211.61249999999995 L 1102.7034640265692 211.61249999999995 L 1108.870928277991 211.61249999999995 L 1115.857686673513 211.61249999999995 L 1121.0237914154786 211.61249999999995 L 1127.1078090411124 211.61249999999995 L 1133.199412723636 211.61249999999995 L 1139.9206591280144 211.61249999999995 L 1145.4053782593526 211.61249999999995 L 1151.6107727952233 211.61249999999995 L 1157.5809995675097 211.61249999999995 L 1164.3250041425576 211.61249999999995 L 1170.0221328668108 211.61249999999995 L 1175.916499070199 211.61249999999995 L 1181.9853445820531 211.61249999999995 L 1188.554869848635 211.61249999999995 L 1194.2671706866677 211.61249999999995 L 1200.328430141632 211.61249999999995 L 1207.89931491767 211.61249999999995 L 1212.9212845787292 211.61249999999995 L 1220.1811410222847 211.61249999999995 L 1226.2651586479185 211.61249999999995 L 1232.3795205011115 211.61249999999995 L 1238.5621568663128 211.61249999999995 L 1244.5778999799381 211.61249999999995 L 1250.6467454917922 211.61249999999995 L 1256.776279458765 203.77499999999998 L 1262.890641311958 211.61249999999995 L 1268.9898310513713 203.77499999999998 L 1275.1345371321236 203.77499999999998 L 1281.3323456111045 203.77499999999998 L 1287.302572383391 203.77499999999998 L 1293.3941760659145 211.61249999999995 L 1299.7285335689123 493.7625 L 1305.6228997723006 485.92499999999995 L 1311.7220895117139 509.4375 L 1319.330904572201 517.275 L 1325.4528524822838 211.61249999999995 L 1331.552042221697 203.77499999999998 L 1337.636059847331 203.77499999999998 L 1343.697319302295 203.77499999999998 L 1349.9785744070641 211.61249999999995 L 1356.009489634469 211.61249999999995 L 1362.0555769756538 211.61249999999995 L 1368.2306272839653 203.77499999999998 L 1374.3070588527091 203.77499999999998 L 1380.3986625352327 211.61249999999995 L 1386.459921990197 203.77499999999998 L 1392.5515256727206 203.77499999999998 L 1398.7872644361505 203.77499999999998 L 1404.8105936066659 203.77499999999998 L 1411.0008160287568 211.61249999999995 L 1416.9558706872638 203.77499999999998 L 1423.1309209955753 203.77499999999998 L 1429.305971303887 203.77499999999998 L 1435.458263441529 203.77499999999998 L 1442.991217933118 203.77499999999998 L 1449.0752355587515 211.61249999999995 L 1455.6599329391133 203.77499999999998 L 1461.2887871513578 203.77499999999998 L 1467.9493451006178 203.77499999999998 L 1472.8347657376603 203.77499999999998 L 1480.5118553101556 203.77499999999998 L 1480.7015067324012 203.77499999999998 L 1486.8613849269332 203.77499999999998 L 1491.7543916208654 203.77499999999998 L 1497.8763395309481 203.77499999999998 L 1504.0513898392599 203.77499999999998 L 1510.1733377493426 203.77499999999998 L 1516.189080862968 203.77499999999998 L 1522.3565451143897 203.77499999999998 L 1528.410218512464 203.77499999999998 L 1534.5473385363266 203.77499999999998 L 1540.6237701050704 203.77499999999998 L 1548.2325851655576 203.77499999999998 L 1554.4455657583183 203.77499999999998 L 1560.4613088719436 203.77499999999998 L 1566.6439452371449 203.77499999999998 L 1572.7052046921092 203.77499999999998 L 1578.7588780901835 203.77499999999998 L 1584.8656538864868 203.77499999999998 L 1590.9269133414512 203.77499999999998 L 1597.1019636497626 203.77499999999998 L 1607.7603735799564 203.77499999999998 L 1607.9576110590915 203.77499999999998 L 1608.1245043106676 203.77499999999998 L 1608.2913975622437 203.77499999999998 L 1609.4672363801653 203.77499999999998 L 1615.5360818920194 203.77499999999998 L 1621.5518250056448 203.77499999999998 L 1627.6130844606091 203.77499999999998 L 1633.8412371671493 203.77499999999998 L 1639.8645663376644 203.77499999999998 L 1646.0244445321964 203.77499999999998 L 1652.2450111818468 203.77499999999998 L 1658.3821312057094 203.77499999999998 L 1665.8923275266286 203.77499999999998 L 1670.5501664569767 203.77499999999998 L 1678.0603627778962 203.77499999999998 L 1684.13679434664 203.77499999999998 L 1690.2739143705026 203.77499999999998 L 1696.3882762236956 203.77499999999998 L 1702.5026380768886 203.77499999999998 L 1708.6776883852 203.77499999999998 L 1714.7465338970542 203.77499999999998 L 1720.8077933520185 203.77499999999998 L 1726.9449133758808 203.77499999999998 L 1733.0592752290738 203.77499999999998 L 1739.166051025377 203.77499999999998 L 1746.7141776307456 203.77499999999998 L 1751.3720165610935 203.77499999999998 L 1757.463620243617 211.61249999999995 L 1763.623498438149 211.61249999999995 L 1770.7543919145776 203.77499999999998 L 1775.7763615756369 203.77499999999998 L 1783.4155208636832 203.77499999999998 L 1789.4691942617576 203.77499999999998 L 1795.18908115668 203.77499999999998 L 1801.7282621957029 203.77499999999998 L 1807.7819355937772 203.77499999999998 L 1813.9342277314195 203.77499999999998 L 1819.274811781851 203.77499999999998 L 1826.1553653809156 203.77499999999998 L 1832.2317969496594 211.61249999999995 L 1838.3461588028524 203.77499999999998 L 1844.5136230542741 203.77499999999998 L 1850.5748825092385 211.61249999999995 L 1856.6892443624315 203.77499999999998 L 1862.7884341018448 203.77499999999998 L 1868.9103820119276 203.77499999999998 L 1875.1537068322475 203.77499999999998 L 1881.131519661424 203.77499999999998 L 1887.2307094008372 203.77499999999998 L 1893.4664481642671 203.77499999999998 L 1901.0145747696358 203.77499999999998 L 1907.2275553623963 203.77499999999998 L 1911.8853942927444 203.77499999999998 L 1919.395590613664 203.77499999999998 L 1925.502366409967 203.77499999999998 L 1931.578797978711 203.77499999999998 L 1937.685573775014 203.77499999999998 L 1943.8302798557663 203.77499999999998 L 1949.9067114245104 203.77499999999998 L 1955.990729050144 203.77499999999998 L 1962.1657793584554 203.77499999999998 L 1968.3560017805466 203.77499999999998 L 1974.3414006666128 203.77499999999998 L 1980.5012788611448 203.77499999999998 L 1986.7370176245747 203.77499999999998 L 1995.8706301199152 203.77499999999998 L 1996.1133839403894 203.77499999999998 L 1996.3182074764145 203.77499999999998 L 1998.8216062500542 203.77499999999998 L 2005.1180334686028 203.77499999999998 L 2011.0275717857708 203.77499999999998 L 2017.2405523785314 203.77499999999998 L 2023.2562954921568 203.77499999999998 L 2029.446517914248 203.77499999999998 L 2044.6413898645526 203.77499999999998 L 2044.8765576281369 203.77499999999998 L 2045.088967221052 203.77499999999998 L 2045.3013768139667 203.77499999999998 L 2049.2537124535615 203.77499999999998 L 2055.368074306755 203.77499999999998 L 2061.998288028455 203.77499999999998 L 2067.5740398424714 203.77499999999998 L 2073.695987752554 203.77499999999998 L 2079.984828914213 203.77499999999998 L 2086.546768123905 203.77499999999998 L 2092.0163151414636 203.77499999999998 L 2098.2141236204448 203.77499999999998 L 2104.4650344976544 203.77499999999998 L 2110.920768910889 203.77499999999998 L 2116.587553407583 203.77499999999998 L 2122.7701897727843 203.77499999999998 L 2128.801105000189 203.77499999999998 L 2134.8092620569246 203.77499999999998 L 2135.0671879911783 203.77499999999998 L 2141.105689275473 203.77499999999998 L 2147.159362673548 203.77499999999998 L 2153.2964826974103 203.77499999999998 L 2159.4336027212726 211.61249999999995 L 2167.04241778176 211.61249999999995 L 2173.2933286589696 211.61249999999995 L 2179.3697602277134 211.61249999999995 L 2185.3627451706693 211.61249999999995" stroke="#f7a35c" stroke-width="2"  stroke-linejoin="round" stroke-linecap="round"></path></g><g class="highcharts-markers highcharts-series-3"  transform="translate(63,61) scale(1 1)" clip-path="none"></g><g class="highcharts-series highcharts-series-4"  transform="translate(63,61) scale(1 1)" clip-path="url(#highcharts-34)"><path fill="none" d="M 21.6372548293308 558.03 L 26.006823597865743 560.616375 L 32.1060133372791 555.8355 L 38.21278913358228 558.421875 L 44.27404858854655 558.421875 L 50.37323832795991 552.778875 L 56.43449778292418 559.3623749999999 L 62.647478375684805 555.8355 L 68.68597965997962 558.892125 L 74.7472391149439 555.443625 L 80.82367068368781 558.421875 L 86.96079070755026 557.167875 L 93.06756650385343 550.584375 L 99.16675624326679 557.167875 L 106.76798524686404 557.167875 L 112.92786344139594 555.8355 L 119.00429501013984 559.75425 L 125.1034847495532 556.697625 L 131.22543265963603 555.443625 L 137.37013874038828 558.421875 L 144.63758124083355 555.443625 L 149.50024370720664 559.75425 L 155.66012190173853 560.2245 L 161.83517221005008 555.8355 L 169.0722704829361 555.8355 L 173.98044929064807 556.30575 L 180.08722508695126 558.03 L 186.1788287694748 553.249125 L 199.85648934181594 555.443625 L 200.0537268209512 555.443625 L 200.228206129417 555.443625 L 204.49157010149452 554.503125 L 210.6438622391366 559.3623749999999 L 217.78234177245497 556.697625 L 224.31393675458793 556.697625 L 230.40554043711148 555.8355 L 236.5274883471943 555.8355 L 243.45355828759776 553.641 L 248.74103993980066 553.641 L 254.83264362232418 558.421875 L 260.9394194186274 557.55975 L 266.26483135527934 553.249125 L 273.1453849543439 553.641 L 279.23698863686747 554.503125 L 285.38928077450953 555.443625 L 291.4126099450247 554.973375 L 297.5193857413279 557.55975 L 303.7778826754274 559.75425 L 309.702593106375 558.892125 L 315.7941967888985 556.30575 L 322.014763438549 555.443625 L 328.0305065521743 557.55975 L 335.66207978333085 555.443625 L 341.7612695227442 552.778875 L 347.8452871483779 558.421875 L 353.9520629446811 551.524875 L 360.0588387409843 557.55975 L 366.1883727079569 558.892125 L 372.26480427670083 555.8355 L 378.3412358454447 557.167875 L 384.4404255848581 559.3623749999999 L 390.5547874380511 554.973375 L 396.6388050636848 557.167875 L 402.76075297376764 553.641 L 408.8675287700708 554.973375 L 414.9287882250351 552.778875 L 421.05073613511786 555.443625 L 427.1271677038618 555.8355 L 433.30221801217334 558.892125 L 439.31037506890885 557.55975 L 445.4247369221019 553.249125 L 451.7439223113199 557.55975 L 466.7643149531588 549.72225 L 466.8781058065061 549.72225 L 466.96155243229407 549.72225 L 471.39180965594755 553.249125 L 477.5744460211489 555.8355 L 491.16865996770207 554.1112499999999 L 491.29003687793914 554.1112499999999 L 491.37348350372713 554.1112499999999 L 495.73546621537224 558.892125 L 501.88775835301436 554.973375 L 508.98830760188366 556.697625 L 514.2606171403069 555.8355 L 520.1701554574748 557.167875 L 526.2845173106678 555.8355 L 533.9843650538327 552.778875 L 538.4677246757149 553.249125 L 544.574500472018 553.249125 L 550.6888623252111 556.697625 L 557.38735055892 556.30575 L 562.9934466004952 554.1112499999999 L 570.4960568645248 554.1112499999999 L 576.8000701399633 551.91675 L 581.7082489476753 553.249125 L 588.7860400258751 552.387 L 594.945918220407 554.973375 L 601.0375219029305 552.387 L 607.0987813578948 556.697625 L 613.2434874386471 553.641 L 619.281988722942 551.524875 L 625.4266948036942 557.55975 L 631.5638148275566 551.524875 L 637.6402463963005 557.55975 L 643.7166779650444 552.387 L 650.0055191267032 554.1112499999999 L 655.9529877283202 555.443625 L 662.0218332401744 553.249125 L 669.6382343575513 554.1112499999999 L 675.7905264951933 555.443625 L 681.8062696088186 556.30575 L 688.0495944291386 552.778875 L 694.0501654289843 558.03 L 700.2024575666263 559.3623749999999 L 706.2864751922601 555.8355 L 712.3098043627753 552.387 L 718.4165801590784 553.641 L 724.5309420122715 553.641 L 733.6645545076118 554.503125 L 733.7935174747388 554.503125 L 733.8921362143063 554.503125 L 733.9983410107639 554.503125 L 734.1121318641111 554.503125 L 736.7293214910982 551.91675 L 742.7905809460624 552.778875 L 748.8973567423656 553.641 L 754.9662022542198 554.503125 L 761.110908334972 553.641 L 767.308716813953 557.167875 L 775.8202726443283 555.8355 L 781.0167216138534 553.641 L 787.108325296377 553.641 L 793.1240684100023 555.8355 L 800.042552293516 554.503125 L 805.2996897181596 554.503125 L 811.436809742022 552.387 L 817.5208273676557 554.1112499999999 L 831.2136600537765 551.91675 L 831.3653811915729 551.91675 L 835.8411547565653 555.8355 L 842.1224098613343 553.249125 L 848.6084885021284 555.443625 L 854.1994124299239 553.641 L 860.2303276573289 541.492875 L 866.337103453632 532.714875 L 873.2100709958069 530.990625 L 878.694790127145 531.460875 L 886.1215398222764 534.909375 L 892.5165857803927 531.85275 L 898.3502635286624 530.990625 L 904.4873835525249 531.460875 L 910.6169175194974 534.5174999999999 L 916.6705909175719 529.65825 L 922.739436429426 533.185125 L 928.9220727946274 556.30575 L 934.9909183064815 552.778875 L 941.0825219890049 553.249125 L 947.2575722973165 557.55975 L 953.2581432971623 552.387 L 959.4028493779145 555.8355 L 965.4868670035482 554.1112499999999 L 971.6012288567413 553.641 L 977.6549022548157 557.167875 L 983.8071943924577 555.8355 L 991.3932512822754 556.30575 L 997.484854964799 557.167875 L 1003.5916307611021 554.1112499999999 L 1009.7135786711849 553.249125 L 1015.7975962968186 552.778875 L 1021.9043720931219 553.249125 L 1027.9959757756453 556.30575 L 1034.1330957995078 551.91675 L 1040.3081461078193 554.503125 L 1046.2935449938855 553.249125 L 1052.3699765626293 557.55975 L 1058.5677850416103 553.249125 L 1064.6214584396848 554.503125 L 1070.6978900084287 553.641 L 1076.804665804732 557.167875 L 1082.9417858285942 554.973375 L 1088.9954592266688 556.30575 L 1096.6118603440457 557.167875 L 1102.7034640265692 556.30575 L 1108.870928277991 550.584375 L 1115.857686673513 556.30575 L 1121.0237914154786 552.387 L 1127.1078090411124 554.1112499999999 L 1133.199412723636 556.697625 L 1139.9206591280144 550.584375 L 1145.4053782593526 553.641 L 1151.6107727952233 552.387 L 1157.5809995675097 554.503125 L 1164.3250041425576 558.421875 L 1170.0221328668108 556.697625 L 1175.916499070199 553.249125 L 1181.9853445820531 557.167875 L 1188.554869848635 552.778875 L 1194.2671706866677 554.973375 L 1200.328430141632 556.30575 L 1207.89931491767 553.249125 L 1212.9212845787292 557.55975 L 1220.1811410222847 553.641 L 1226.2651586479185 555.443625 L 1232.3795205011115 551.524875 L 1238.5621568663128 554.503125 L 1244.5778999799381 556.30575 L 1250.6467454917922 554.973375 L 1256.776279458765 551.524875 L 1262.890641311958 554.1112499999999 L 1268.9898310513713 558.892125 L 1275.1345371321236 556.30575 L 1281.3323456111045 556.697625 L 1287.302572383391 554.503125 L 1293.3941760659145 535.379625 L 1299.7285335689123 535.7715 L 1305.6228997723006 532.714875 L 1311.7220895117139 533.655375 L 1319.330904572201 549.330375 L 1325.4528524822838 552.387 L 1331.552042221697 556.697625 L 1337.636059847331 557.55975 L 1343.697319302295 553.249125 L 1349.9785744070641 557.167875 L 1356.009489634469 556.30575 L 1362.0555769756538 556.697625 L 1368.2306272839653 557.167875 L 1374.3070588527091 554.1112499999999 L 1380.3986625352327 559.75425 L 1386.459921990197 555.8355 L 1392.5515256727206 553.641 L 1398.7872644361505 557.55975 L 1404.8105936066659 552.778875 L 1411.0008160287568 554.503125 L 1416.9558706872638 552.778875 L 1423.1309209955753 554.503125 L 1429.305971303887 554.1112499999999 L 1435.458263441529 553.249125 L 1442.991217933118 553.641 L 1449.0752355587515 553.641 L 1455.6599329391133 551.524875 L 1461.2887871513578 551.054625 L 1467.9493451006178 555.443625 L 1472.8347657376603 556.697625 L 1480.5118553101556 554.973375 L 1480.7015067324012 554.973375 L 1486.8613849269332 557.167875 L 1491.7543916208654 553.249125 L 1497.8763395309481 556.697625 L 1504.0513898392599 554.1112499999999 L 1510.1733377493426 555.8355 L 1516.189080862968 554.1112499999999 L 1522.3565451143897 554.503125 L 1528.410218512464 552.778875 L 1534.5473385363266 556.697625 L 1540.6237701050704 554.503125 L 1548.2325851655576 554.1112499999999 L 1554.4455657583183 554.503125 L 1560.4613088719436 553.249125 L 1566.6439452371449 555.8355 L 1572.7052046921092 551.91675 L 1578.7588780901835 560.616375 L 1584.8656538864868 551.524875 L 1590.9269133414512 557.55975 L 1597.1019636497626 554.1112499999999 L 1607.7603735799564 554.1112499999999 L 1607.9576110590915 554.1112499999999 L 1608.1245043106676 554.1112499999999 L 1608.2913975622437 554.1112499999999 L 1609.4672363801653 557.167875 L 1615.5360818920194 552.778875 L 1621.5518250056448 554.973375 L 1627.6130844606091 552.778875 L 1633.8412371671493 551.91675 L 1639.8645663376644 554.503125 L 1646.0244445321964 554.973375 L 1652.2450111818468 554.1112499999999 L 1658.3821312057094 551.91675 L 1665.8923275266286 554.1112499999999 L 1670.5501664569767 549.330375 L 1678.0603627778962 553.641 L 1684.13679434664 549.330375 L 1690.2739143705026 551.524875 L 1696.3882762236956 554.1112499999999 L 1702.5026380768886 549.72225 L 1708.6776883852 550.584375 L 1714.7465338970542 553.249125 L 1720.8077933520185 553.641 L 1726.9449133758808 554.1112499999999 L 1733.0592752290738 554.1112499999999 L 1739.166051025377 552.387 L 1746.7141776307456 552.387 L 1751.3720165610935 553.641 L 1757.463620243617 554.973375 L 1763.623498438149 550.1925 L 1770.7543919145776 552.387 L 1775.7763615756369 552.387 L 1783.4155208636832 554.503125 L 1789.4691942617576 551.054625 L 1795.18908115668 550.584375 L 1801.7282621957029 553.641 L 1807.7819355937772 555.443625 L 1813.9342277314195 551.91675 L 1819.274811781851 554.1112499999999 L 1826.1553653809156 550.584375 L 1832.2317969496594 553.249125 L 1838.3461588028524 552.387 L 1844.5136230542741 555.8355 L 1850.5748825092385 551.91675 L 1856.6892443624315 550.1925 L 1862.7884341018448 551.524875 L 1868.9103820119276 554.1112499999999 L 1875.1537068322475 548.46825 L 1881.131519661424 550.1925 L 1887.2307094008372 554.973375 L 1893.4664481642671 551.054625 L 1901.0145747696358 551.91675 L 1907.2275553623963 554.1112499999999 L 1911.8853942927444 554.503125 L 1919.395590613664 554.1112499999999 L 1925.502366409967 552.387 L 1931.578797978711 554.1112499999999 L 1937.685573775014 552.387 L 1943.8302798557663 555.443625 L 1949.9067114245104 555.8355 L 1955.990729050144 552.387 L 1962.1657793584554 550.1925 L 1968.3560017805466 550.584375 L 1974.3414006666128 552.778875 L 1980.5012788611448 554.503125 L 1986.7370176245747 552.387 L 1995.8706301199152 550.584375 L 1996.1133839403894 550.584375 L 1996.3182074764145 550.584375 L 1998.8216062500542 551.054625 L 2005.1180334686028 554.973375 L 2011.0275717857708 548.46825 L 2017.2405523785314 551.91675 L 2023.2562954921568 550.1925 L 2029.446517914248 553.641 L 2044.6413898645526 552.778875 L 2044.8765576281369 552.778875 L 2045.088967221052 552.778875 L 2045.3013768139667 552.778875 L 2049.2537124535615 552.387 L 2055.368074306755 551.524875 L 2061.998288028455 552.387 L 2067.5740398424714 555.443625 L 2073.695987752554 554.503125 L 2079.984828914213 546.665625 L 2086.546768123905 551.054625 L 2092.0163151414636 555.8355 L 2098.2141236204448 547.1358749999999 L 2104.4650344976544 550.584375 L 2110.920768910889 554.1112499999999 L 2116.587553407583 554.1112499999999 L 2122.7701897727843 551.91675 L 2128.801105000189 551.054625 L 2134.8092620569246 548.46825 L 2135.0671879911783 548.46825 L 2141.105689275473 550.584375 L 2147.159362673548 550.1925 L 2153.2964826974103 548.46825 L 2159.4336027212726 553.249125 L 2167.04241778176 551.524875 L 2173.2933286589696 547.52775 L 2179.3697602277134 549.330375 L 2185.3627451706693 552.387" stroke="#8085e9" stroke-width="2"  stroke-linejoin="round" stroke-linecap="round"></path></g><g class="highcharts-markers highcharts-series-4"  transform="translate(63,61) scale(1 1)" clip-path="none"></g><g class="highcharts-series highcharts-series-5"  transform="translate(63,61) scale(1 1)" clip-path="url(#highcharts-34)"><path fill="none" d="M 21.6372548293308 78.375 L 26.006823597865743 297.825 L 32.1060133372791 258.6375 L 38.21278913358228 305.66249999999997 L 44.27404858854655 282.15 L 50.37323832795991 289.9875 L 56.43449778292418 297.825 L 62.647478375684805 250.79999999999995 L 68.68597965997962 282.15 L 74.7472391149439 266.47499999999997 L 80.82367068368781 250.79999999999995 L 86.96079070755026 297.825 L 93.06756650385343 297.825 L 99.16675624326679 289.9875 L 106.76798524686404 289.9875 L 112.92786344139594 289.9875 L 119.00429501013984 282.15 L 125.1034847495532 305.66249999999997 L 131.22543265963603 289.9875 L 137.37013874038828 305.66249999999997 L 144.63758124083355 289.9875 L 149.50024370720664 297.825 L 155.66012190173853 289.9875 L 161.83517221005008 297.825 L 169.0722704829361 297.825 L 173.98044929064807 289.9875 L 180.08722508695126 297.825 L 186.1788287694748 203.77499999999998 L 199.85648934181594 297.825 L 200.0537268209512 297.825 L 200.228206129417 297.825 L 204.49157010149452 305.66249999999997 L 210.6438622391366 297.825 L 217.78234177245497 282.15 L 224.31393675458793 297.825 L 230.40554043711148 297.825 L 236.5274883471943 282.15 L 243.45355828759776 289.9875 L 248.74103993980066 289.9875 L 254.83264362232418 289.9875 L 260.9394194186274 274.3125 L 266.26483135527934 289.9875 L 273.1453849543439 289.9875 L 279.23698863686747 297.825 L 285.38928077450953 289.9875 L 291.4126099450247 289.9875 L 297.5193857413279 289.9875 L 303.7778826754274 289.9875 L 309.702593106375 297.825 L 315.7941967888985 289.9875 L 322.014763438549 297.825 L 328.0305065521743 282.15 L 335.66207978333085 337.0125 L 341.7612695227442 352.6875 L 347.8452871483779 352.6875 L 353.9520629446811 344.84999999999997 L 360.0588387409843 352.6875 L 366.1883727079569 337.0125 L 372.26480427670083 337.0125 L 378.3412358454447 337.0125 L 384.4404255848581 289.9875 L 390.5547874380511 337.0125 L 396.6388050636848 344.84999999999997 L 402.76075297376764 337.0125 L 408.8675287700708 344.84999999999997 L 414.9287882250351 344.84999999999997 L 421.05073613511786 337.0125 L 427.1271677038618 337.0125 L 433.30221801217334 344.84999999999997 L 439.31037506890885 337.0125 L 445.4247369221019 329.175 L 451.7439223113199 321.3375 L 466.7643149531588 337.0125 L 466.8781058065061 337.0125 L 466.96155243229407 337.0125 L 471.39180965594755 321.3375 L 477.5744460211489 297.825 L 491.16865996770207 274.3125 L 491.29003687793914 274.3125 L 491.37348350372713 274.3125 L 495.73546621537224 282.15 L 501.88775835301436 258.6375 L 508.98830760188366 282.15 L 514.2606171403069 274.3125 L 520.1701554574748 258.6375 L 526.2845173106678 242.96249999999998 L 533.9843650538327 227.28749999999997 L 538.4677246757149 235.125 L 544.574500472018 242.96249999999998 L 550.6888623252111 242.96249999999998 L 557.38735055892 266.47499999999997 L 562.9934466004952 258.6375 L 570.4960568645248 266.47499999999997 L 576.8000701399633 250.79999999999995 L 581.7082489476753 258.6375 L 588.7860400258751 250.79999999999995 L 594.945918220407 250.79999999999995 L 601.0375219029305 266.47499999999997 L 607.0987813578948 274.3125 L 613.2434874386471 274.3125 L 619.281988722942 282.15 L 625.4266948036942 297.825 L 631.5638148275566 289.9875 L 637.6402463963005 274.3125 L 643.7166779650444 289.9875 L 650.0055191267032 289.9875 L 655.9529877283202 297.825 L 662.0218332401744 297.825 L 669.6382343575513 282.15 L 675.7905264951933 289.9875 L 681.8062696088186 289.9875 L 688.0495944291386 282.15 L 694.0501654289843 289.9875 L 700.2024575666263 289.9875 L 706.2864751922601 274.3125 L 712.3098043627753 289.9875 L 718.4165801590784 289.9875 L 724.5309420122715 282.15 L 733.6645545076118 289.9875 L 733.7935174747388 289.9875 L 733.8921362143063 289.9875 L 733.9983410107639 289.9875 L 734.1121318641111 289.9875 L 736.7293214910982 289.9875 L 742.7905809460624 282.15 L 748.8973567423656 289.9875 L 754.9662022542198 282.15 L 761.110908334972 289.9875 L 767.308716813953 289.9875 L 775.8202726443283 297.825 L 781.0167216138534 282.15 L 787.108325296377 289.9875 L 793.1240684100023 289.9875 L 800.042552293516 289.9875 L 805.2996897181596 289.9875 L 811.436809742022 289.9875 L 817.5208273676557 297.825 L 831.2136600537765 289.9875 L 831.3653811915729 289.9875 L 835.8411547565653 297.825 L 842.1224098613343 289.9875 L 848.6084885021284 289.9875 L 854.1994124299239 297.825 L 860.2303276573289 282.15 L 866.337103453632 297.825 L 873.2100709958069 297.825 L 878.694790127145 289.9875 L 886.1215398222764 297.825 L 892.5165857803927 289.9875 L 898.3502635286624 289.9875 L 904.4873835525249 313.5 L 910.6169175194974 289.9875 L 916.6705909175719 282.15 L 922.739436429426 289.9875 L 928.9220727946274 289.9875 L 934.9909183064815 289.9875 L 941.0825219890049 289.9875 L 947.2575722973165 297.825 L 953.2581432971623 282.15 L 959.4028493779145 297.825 L 965.4868670035482 297.825 L 971.6012288567413 297.825 L 977.6549022548157 297.825 L 983.8071943924577 289.9875 L 991.3932512822754 282.15 L 997.484854964799 297.825 L 1003.5916307611021 297.825 L 1009.7135786711849 282.15 L 1015.7975962968186 297.825 L 1021.9043720931219 289.9875 L 1027.9959757756453 289.9875 L 1034.1330957995078 297.825 L 1040.3081461078193 297.825 L 1046.2935449938855 297.825 L 1052.3699765626293 289.9875 L 1058.5677850416103 289.9875 L 1064.6214584396848 297.825 L 1070.6978900084287 282.15 L 1076.804665804732 289.9875 L 1082.9417858285942 297.825 L 1088.9954592266688 297.825 L 1096.6118603440457 297.825 L 1102.7034640265692 289.9875 L 1108.870928277991 289.9875 L 1115.857686673513 297.825 L 1121.0237914154786 289.9875 L 1127.1078090411124 313.5 L 1133.199412723636 297.825 L 1139.9206591280144 289.9875 L 1145.4053782593526 289.9875 L 1151.6107727952233 297.825 L 1157.5809995675097 305.66249999999997 L 1164.3250041425576 297.825 L 1170.0221328668108 289.9875 L 1175.916499070199 297.825 L 1181.9853445820531 297.825 L 1188.554869848635 305.66249999999997 L 1194.2671706866677 289.9875 L 1200.328430141632 289.9875 L 1207.89931491767 297.825 L 1212.9212845787292 297.825 L 1220.1811410222847 289.9875 L 1226.2651586479185 289.9875 L 1232.3795205011115 289.9875 L 1238.5621568663128 289.9875 L 1244.5778999799381 305.66249999999997 L 1250.6467454917922 297.825 L 1256.776279458765 289.9875 L 1262.890641311958 297.825 L 1268.9898310513713 289.9875 L 1275.1345371321236 289.9875 L 1281.3323456111045 289.9875 L 1287.302572383391 289.9875 L 1293.3941760659145 297.825 L 1299.7285335689123 297.825 L 1305.6228997723006 289.9875 L 1311.7220895117139 289.9875 L 1319.330904572201 297.825 L 1325.4528524822838 282.15 L 1331.552042221697 289.9875 L 1337.636059847331 289.9875 L 1343.697319302295 289.9875 L 1349.9785744070641 289.9875 L 1356.009489634469 289.9875 L 1362.0555769756538 297.825 L 1368.2306272839653 297.825 L 1374.3070588527091 297.825 L 1380.3986625352327 297.825 L 1386.459921990197 297.825 L 1392.5515256727206 297.825 L 1398.7872644361505 297.825 L 1404.8105936066659 297.825 L 1411.0008160287568 289.9875 L 1416.9558706872638 289.9875 L 1423.1309209955753 305.66249999999997 L 1429.305971303887 282.15 L 1435.458263441529 242.96249999999998 L 1442.991217933118 289.9875 L 1449.0752355587515 297.825 L 1455.6599329391133 297.825 L 1461.2887871513578 297.825 L 1467.9493451006178 297.825 L 1472.8347657376603 289.9875 L 1480.5118553101556 289.9875 L 1480.7015067324012 289.9875 L 1486.8613849269332 305.66249999999997 L 1491.7543916208654 297.825 L 1497.8763395309481 297.825 L 1504.0513898392599 297.825 L 1510.1733377493426 297.825 L 1516.189080862968 297.825 L 1522.3565451143897 305.66249999999997 L 1528.410218512464 297.825 L 1534.5473385363266 297.825 L 1540.6237701050704 297.825 L 1548.2325851655576 297.825 L 1554.4455657583183 297.825 L 1560.4613088719436 297.825 L 1566.6439452371449 297.825 L 1572.7052046921092 282.15 L 1578.7588780901835 297.825 L 1584.8656538864868 289.9875 L 1590.9269133414512 289.9875 L 1597.1019636497626 289.9875 L 1607.7603735799564 297.825 L 1607.9576110590915 297.825 L 1608.1245043106676 297.825 L 1608.2913975622437 297.825 L 1609.4672363801653 305.66249999999997 L 1615.5360818920194 282.15 L 1621.5518250056448 227.28749999999997 L 1627.6130844606091 297.825 L 1633.8412371671493 289.9875 L 1639.8645663376644 289.9875 L 1646.0244445321964 258.6375 L 1652.2450111818468 297.825 L 1658.3821312057094 289.9875 L 1665.8923275266286 289.9875 L 1670.5501664569767 305.66249999999997 L 1678.0603627778962 305.66249999999997 L 1684.13679434664 258.6375 L 1690.2739143705026 289.9875 L 1696.3882762236956 297.825 L 1702.5026380768886 305.66249999999997 L 1708.6776883852 297.825 L 1714.7465338970542 289.9875 L 1720.8077933520185 297.825 L 1726.9449133758808 274.3125 L 1733.0592752290738 289.9875 L 1739.166051025377 282.15 L 1746.7141776307456 297.825 L 1751.3720165610935 297.825 L 1757.463620243617 282.15 L 1763.623498438149 282.15 L 1770.7543919145776 305.66249999999997 L 1775.7763615756369 289.9875 L 1783.4155208636832 297.825 L 1789.4691942617576 289.9875 L 1795.18908115668 297.825 L 1801.7282621957029 289.9875 L 1807.7819355937772 297.825 L 1813.9342277314195 289.9875 L 1819.274811781851 289.9875 L 1826.1553653809156 289.9875 L 1832.2317969496594 289.9875 L 1838.3461588028524 289.9875 L 1844.5136230542741 289.9875 L 1850.5748825092385 297.825 L 1856.6892443624315 297.825 L 1862.7884341018448 297.825 L 1868.9103820119276 289.9875 L 1875.1537068322475 297.825 L 1881.131519661424 297.825 L 1887.2307094008372 305.66249999999997 L 1893.4664481642671 297.825 L 1901.0145747696358 297.825 L 1907.2275553623963 289.9875 L 1911.8853942927444 297.825 L 1919.395590613664 289.9875 L 1925.502366409967 289.9875 L 1931.578797978711 297.825 L 1937.685573775014 289.9875 L 1943.8302798557663 305.66249999999997 L 1949.9067114245104 289.9875 L 1955.990729050144 297.825 L 1962.1657793584554 297.825 L 1968.3560017805466 305.66249999999997 L 1974.3414006666128 289.9875 L 1980.5012788611448 289.9875 L 1986.7370176245747 297.825 L 1995.8706301199152 289.9875 L 1996.1133839403894 289.9875 L 1996.3182074764145 289.9875 L 1998.8216062500542 297.825 L 2005.1180334686028 289.9875 L 2011.0275717857708 297.825 L 2017.2405523785314 297.825 L 2023.2562954921568 289.9875 L 2029.446517914248 297.825 L 2044.6413898645526 297.825 L 2044.8765576281369 297.825 L 2045.088967221052 297.825 L 2045.3013768139667 297.825 L 2049.2537124535615 305.66249999999997 L 2055.368074306755 297.825 L 2061.998288028455 289.9875 L 2067.5740398424714 289.9875 L 2073.695987752554 282.15 L 2079.984828914213 289.9875 L 2086.546768123905 289.9875 L 2092.0163151414636 297.825 L 2098.2141236204448 274.3125 L 2104.4650344976544 289.9875 L 2110.920768910889 289.9875 L 2116.587553407583 305.66249999999997 L 2122.7701897727843 297.825 L 2128.801105000189 282.15 L 2134.8092620569246 297.825 L 2135.0671879911783 297.825 L 2141.105689275473 289.9875 L 2147.159362673548 289.9875 L 2153.2964826974103 297.825 L 2159.4336027212726 297.825 L 2167.04241778176 282.15 L 2173.2933286589696 289.9875 L 2179.3697602277134 297.825 L 2185.3627451706693 266.47499999999997" stroke="#f15c80" stroke-width="2"  stroke-linejoin="round" stroke-linecap="round"></path></g><g class="highcharts-markers highcharts-series-5"  transform="translate(63,61) scale(1 1)" clip-path="none"></g></g><text x="1140" text-anchor="middle" class="highcharts-title"  style="color:#333333;font-size:18px;fill:#333333;width:2216px;" y="24"><tspan>Environmental Sensor Feed</tspan></text><text x="1140" text-anchor="middle" class="highcharts-subtitle"  style="color:#555555;fill:#555555;width:2216px;" y="45"><tspan>2019-11-30 16:37:33</tspan></text><g class="highcharts-legend"  transform="translate(843,740)"><rect x="0.5" y="0.5" width="593" height="44" strokeWidth="1" stroke="#C98657" stroke-width="1" fill="#FCFFC5" visibility="visible"></rect><g  transform="translate(0,20.140625)"><g><g class="highcharts-legend-item"  transform="translate(8,3)"><path fill="none" d="M 0 11 L 16 11" stroke="#7cb5ec" stroke-width="2"></path><path fill="#7cb5ec" d="M 8 7 C 13.328 7 13.328 15 8 15 C 2.6719999999999997 15 2.6719999999999997 7 8 7 Z"></path><text x="21" style="color:#333333;font-size:12px;font-weight:bold;cursor:pointer;fill:#333333;" text-anchor="start"  y="15">Humidity</text></g><g class="highcharts-legend-item"  transform="translate(105.5,3)"><path fill="none" d="M 0 11 L 16 11" stroke="#434348" stroke-width="2"></path><path fill="#434348" d="M 8 7 L 12 11 8 15 4 11 Z"></path><text x="21" y="15" style="color:#333333;font-size:12px;font-weight:bold;cursor:pointer;fill:#333333;" text-anchor="start" >Temperature</text></g><g class="highcharts-legend-item"  transform="translate(226.171875,3)"><path fill="none" d="M 0 11 L 16 11" stroke="#CCC" stroke-width="2"></path><path fill="#CCC" d="M 4 7 L 12 7 12 15 4 15 Z"></path><text x="21" y="15" style="color:#ccc;font-size:12px;font-weight:bold;cursor:pointer;fill:#ccc;" text-anchor="start" >Pressure</text></g><g class="highcharts-legend-item"  transform="translate(320.96875,3)"><path fill="none" d="M 0 11 L 16 11" stroke="#f7a35c" stroke-width="2"></path><path fill="#f7a35c" d="M 8 7 L 12 15 4 15 Z"></path><text x="21" y="15" style="color:#333333;font-size:12px;font-weight:bold;cursor:pointer;fill:#333333;" text-anchor="start" >Light</text></g><g class="highcharts-legend-item"  transform="translate(393.515625,3)"><path fill="none" d="M 0 11 L 16 11" stroke="#8085e9" stroke-width="2"></path><path fill="#8085e9" d="M 4 7 L 12 7 8 15 Z"></path><text x="21" y="15" style="color:#333333;font-size:12px;font-weight:bold;cursor:pointer;fill:#333333;" text-anchor="start" ><tspan>IR Temperature</tspan></text></g><g class="highcharts-legend-item"  transform="translate(530.40625,3)"><path fill="none" d="M 0 11 L 16 11" stroke="#f15c80" stroke-width="2"></path><path fill="#f15c80" d="M 8 7 C 13.328 7 13.328 15 8 15 C 2.6719999999999997 15 2.6719999999999997 7 8 7 Z"></path><text x="21" y="15" style="color:#333333;font-size:12px;font-weight:bold;cursor:pointer;fill:#333333;" text-anchor="start" >Noise</text></g></g></g><g class="highcharts-legend-title"  style="" transform="translate(5,4)"><text x="3"  style="font-weight:bold;" y="15"><tspan>Select/Deselect Series to Display:</tspan></text></g></g><g class="highcharts-axis-labels highcharts-xaxis-labels" ><text x="133.2259492086126" style="color:#606060;cursor:default;font-size:11px;fill:#606060;" text-anchor="middle" transform="translate(0,0)" y="707" opacity="1">16:37:40</text><text x="209.08651810678873" style="color:#606060;cursor:default;font-size:11px;fill:#606060;" text-anchor="middle" transform="translate(0,0)" y="707" opacity="1">16:37:50</text><text x="284.9470870049648" style="color:#606060;cursor:default;font-size:11px;fill:#606060;" text-anchor="middle" transform="translate(0,0)" y="707" opacity="1">16:38:00</text><text x="360.807655903141" style="color:#606060;cursor:default;font-size:11px;fill:#606060;" text-anchor="middle" transform="translate(0,0)" y="707" opacity="1">16:38:10</text><text x="436.6682248013171" style="color:#606060;cursor:default;font-size:11px;fill:#606060;" text-anchor="middle" transform="translate(0,0)" y="707" opacity="1">16:38:20</text><text x="512.5287936994932" style="color:#606060;cursor:default;font-size:11px;fill:#606060;" text-anchor="middle" transform="translate(0,0)" y="707" opacity="1">16:38:30</text><text x="588.3893625976693" style="color:#606060;cursor:default;font-size:11px;fill:#606060;" text-anchor="middle" transform="translate(0,0)" y="707" opacity="1">16:38:40</text><text x="664.2499314958454" style="color:#606060;cursor:default;font-size:11px;fill:#606060;" text-anchor="middle" transform="translate(0,0)" y="707" opacity="1">16:38:50</text><text x="740.1105003940215" style="color:#606060;cursor:default;font-size:11px;fill:#606060;" text-anchor="middle" transform="translate(0,0)" y="707" opacity="1">16:39:00</text><text x="815.9710692921976" style="color:#606060;cursor:default;font-size:11px;fill:#606060;" text-anchor="middle" transform="translate(0,0)" y="707" opacity="1">16:39:10</text><text x="891.8316381903738" style="color:#606060;cursor:default;font-size:11px;fill:#606060;" text-anchor="middle" transform="translate(0,0)" y="707" opacity="1">16:39:20</text><text x="967.6922070885499" style="color:#606060;cursor:default;font-size:11px;fill:#606060;" text-anchor="middle" transform="translate(0,0)" y="707" opacity="1">16:39:30</text><text x="1043.552775986726" style="color:#606060;cursor:default;font-size:11px;fill:#606060;" text-anchor="middle" transform="translate(0,0)" y="707" opacity="1">16:39:40</text><text x="1119.4133448849022" style="color:#606060;cursor:default;font-size:11px;fill:#606060;" text-anchor="middle" transform="translate(0,0)" y="707" opacity="1">16:39:50</text><text x="1195.2739137830783" style="color:#606060;cursor:default;font-size:11px;fill:#606060;" text-anchor="middle" transform="translate(0,0)" y="707" opacity="1">16:40:00</text><text x="1271.1344826812544" style="color:#606060;cursor:default;font-size:11px;fill:#606060;" text-anchor="middle" transform="translate(0,0)" y="707" opacity="1">16:40:10</text><text x="1346.9950515794305" style="color:#606060;cursor:default;font-size:11px;fill:#606060;" text-anchor="middle" transform="translate(0,0)" y="707" opacity="1">16:40:20</text><text x="1422.8556204776066" style="color:#606060;cursor:default;font-size:11px;fill:#606060;" text-anchor="middle" transform="translate(0,0)" y="707" opacity="1">16:40:30</text><text x="1498.7161893757827" style="color:#606060;cursor:default;font-size:11px;fill:#606060;" text-anchor="middle" transform="translate(0,0)" y="707" opacity="1">16:40:40</text><text x="1574.5767582739588" style="color:#606060;cursor:default;font-size:11px;fill:#606060;" text-anchor="middle" transform="translate(0,0)" y="707" opacity="1">16:40:50</text><text x="1650.437327172135" style="color:#606060;cursor:default;font-size:11px;fill:#606060;" text-anchor="middle" transform="translate(0,0)" y="707" opacity="1">16:41:00</text><text x="1726.297896070311" style="color:#606060;cursor:default;font-size:11px;fill:#606060;" text-anchor="middle" transform="translate(0,0)" y="707" opacity="1">16:41:10</text><text x="1802.1584649684871" style="color:#606060;cursor:default;font-size:11px;fill:#606060;" text-anchor="middle" transform="translate(0,0)" y="707" opacity="1">16:41:20</text><text x="1878.0190338666632" style="color:#606060;cursor:default;font-size:11px;fill:#606060;" text-anchor="middle" transform="translate(0,0)" y="707" opacity="1">16:41:30</text><text x="1953.8796027648395" style="color:#606060;cursor:default;font-size:11px;fill:#606060;" text-anchor="middle" transform="translate(0,0)" y="707" opacity="1">16:41:40</text><text x="2029.7401716630156" style="color:#606060;cursor:default;font-size:11px;fill:#606060;" text-anchor="middle" transform="translate(0,0)" y="707" opacity="1">16:41:50</text><text x="2105.6007405611917" style="color:#606060;cursor:default;font-size:11px;fill:#606060;" text-anchor="middle" transform="translate(0,0)" y="707" opacity="1">16:42:00</text><text x="2181.461309459368" style="color:#606060;cursor:default;font-size:11px;fill:#606060;" text-anchor="middle" transform="translate(0,0)" y="707" opacity="1">16:42:10</text><text x="2245.6484375" style="color:#606060;cursor:default;font-size:11px;fill:#606060;" text-anchor="middle" transform="translate(0,0)" y="707" opacity="1">16:42:20</text></g><g class="highcharts-axis-labels highcharts-yaxis-labels" ><text x="48" style="color:#606060;cursor:default;font-size:11px;fill:#606060;width:742px;text-overflow:clip;" text-anchor="end" transform="translate(0,0)" y="693" opacity="1">0</text><text x="48" style="color:#606060;cursor:default;font-size:11px;fill:#606060;width:742px;text-overflow:clip;" text-anchor="end" transform="translate(0,0)" y="614" opacity="1">10</text><text x="48" style="color:#606060;cursor:default;font-size:11px;fill:#606060;width:742px;text-overflow:clip;" text-anchor="end" transform="translate(0,0)" y="536" opacity="1">20</text><text x="48" style="color:#606060;cursor:default;font-size:11px;fill:#606060;width:742px;text-overflow:clip;" text-anchor="end" transform="translate(0,0)" y="457" opacity="1">30</text><text x="48" style="color:#606060;cursor:default;font-size:11px;fill:#606060;width:742px;text-overflow:clip;" text-anchor="end" transform="translate(0,0)" y="379" opacity="1">40</text><text x="48" style="color:#606060;cursor:default;font-size:11px;fill:#606060;width:742px;text-overflow:clip;" text-anchor="end" transform="translate(0,0)" y="301" opacity="1">50</text><text x="48" style="color:#606060;cursor:default;font-size:11px;fill:#606060;width:742px;text-overflow:clip;" text-anchor="end" transform="translate(0,0)" y="222" opacity="1">60</text><text x="48" style="color:#606060;cursor:default;font-size:11px;fill:#606060;width:742px;text-overflow:clip;" text-anchor="end" transform="translate(0,0)" y="144" opacity="1">70</text><text x="48" style="color:#606060;cursor:default;font-size:11px;fill:#606060;width:742px;text-overflow:clip;" text-anchor="end" transform="translate(0,0)" y="66" opacity="1">80</text></g><g class="highcharts-tooltip"  style="cursor:default;padding:0;pointer-events:none;white-space:nowrap;" transform="translate(0,-9999)"><path fill="none" d="M 3.5 0.5 L 13.5 0.5 C 16.5 0.5 16.5 0.5 16.5 3.5 L 16.5 13.5 C 16.5 16.5 16.5 16.5 13.5 16.5 L 3.5 16.5 C 0.5 16.5 0.5 16.5 0.5 13.5 L 0.5 3.5 C 0.5 0.5 0.5 0.5 3.5 0.5"  stroke="black" stroke-opacity="0.049999999999999996" stroke-width="5" transform="translate(1, 1)"></path><path fill="none" d="M 3.5 0.5 L 13.5 0.5 C 16.5 0.5 16.5 0.5 16.5 3.5 L 16.5 13.5 C 16.5 16.5 16.5 16.5 13.5 16.5 L 3.5 16.5 C 0.5 16.5 0.5 16.5 0.5 13.5 L 0.5 3.5 C 0.5 0.5 0.5 0.5 3.5 0.5"  stroke="black" stroke-opacity="0.09999999999999999" stroke-width="3" transform="translate(1, 1)"></path><path fill="none" d="M 3.5 0.5 L 13.5 0.5 C 16.5 0.5 16.5 0.5 16.5 3.5 L 16.5 13.5 C 16.5 16.5 16.5 16.5 13.5 16.5 L 3.5 16.5 C 0.5 16.5 0.5 16.5 0.5 13.5 L 0.5 3.5 C 0.5 0.5 0.5 0.5 3.5 0.5"  stroke="black" stroke-opacity="0.15" stroke-width="1" transform="translate(1, 1)"></path><path fill="rgb(249, 249, 249)" fill-opacity=" .85" d="M 3.5 0.5 L 13.5 0.5 C 16.5 0.5 16.5 0.5 16.5 3.5 L 16.5 13.5 C 16.5 16.5 16.5 16.5 13.5 16.5 L 3.5 16.5 C 0.5 16.5 0.5 16.5 0.5 13.5 L 0.5 3.5 C 0.5 0.5 0.5 0.5 3.5 0.5"></path><text x="8"  style="font-size:12px;color:#333333;fill:#333333;" y="20"></text></g><text x="2270" text-anchor="end"  style="cursor:pointer;color:#909090;font-size:9px;fill:#909090;" y="795"></text></svg>