<svg xmlns:xlink="http://www.w3.org/1999/xlink" version="1.1" style="font-family:'lucida grande', 'lucida sans unicode', arial, helvetica, sans-serif;font-size:12px;" xmlns="http://www.w3.org/2000/svg" width="2280" height="800"><desc>Created with Highcharts 4.2.1 /Highstock 4.2.1</desc><defs><clipPath id="highcharts-34"><rect x="0" y="0" width="2196" height="600"></rect></clipPath></defs><rect x="0" y="0" width="2280" height="800" strokeWidth="0" fill="#FFFFFF" class=" highcharts-background"></rect><g class="highcharts-grid" ></g><g class="highcharts-grid" ><path fill="none" d="M 74 671.5 L 2270 671.5" stroke="#D8D8D8" stroke-width="1"  opacity="1"></path><path fill="none" d="M 74 604.5 L 2270 604.5" stroke="#D8D8D8" stroke-width="1"  opacity="1"></path><path fill="none" d="M 74 538.5 L 2270 538.5" stroke="#D8D8D8" stroke-width="1"  opacity="1"></path><path fill="none" d="M 74 471.5 L 2270 471.5" stroke="#D8D8D8" stroke-width="1"  opacity="1"></path><path fill="none" d="M 74 404.5 L 2270 404.5" stroke="#D8D8D8" stroke-width="1"  opacity="1"></path><path fill="none" d="M 74 338.5 L 2270 338.5" stroke="#D8D8D8" stroke-width="1"  opacity="1"></path><path fill="none" d="M 74 271.5 L 2270 271.5" stroke="#D8D8D8" stroke-width="1"  opacity="1"></path><path fill="none" d="M 74 204.5 L 2270 204.5" stroke="#D8D8D8" stroke-width="1"  opacity="1"></path><path fill="none" d="M 74 138.5 L 2270 138.5" stroke="#D8D8D8" stroke-width="1"  opacity="1"></path><path fill="none" d="M 74 70.5 L 2270 70.5" stroke="#D8D8D8" stroke-width="1"  opacity="1"></path></g><g class="highcharts-axis" ><path fill="none" d="M 138.5 671 L 138.5 681" stroke="#C0D0E0" stroke-width="1" opacity="1"></path><path fill="none" d="M 214.5 671 L 214.5 681" stroke="#C0D0E0" stroke-width="1" opacity="1"></path><path fill="none" d="M 291.5 671 L 291.5 681" stroke="#C0D0E0" stroke-width="1" opacity="1"></path><path fill="none" d="M 368.5 671 L 368.5 681" stroke="#C0D0E0" stroke-width="1" opacity="1"></path><path fill="none" d="M 444.5 671 L 444.5 681" stroke="#C0D0E0" stroke-width="1" opacity="1"></path><path fill="none" d="M 521.5 671 L 521.5 681" stroke="#C0D0E0" stroke-width="1" opacity="1"></path><path fill="none" d="M 598.5 671 L 598.5 681" stroke="#C0D0E0" stroke-width="1" opacity="1"></path><path fill="none" d="M 674.5 671 L 674.5 681" stroke="#C0D0E0" stroke-width="1" opacity="1"></path><path fill="none" d="M 751.5 671 L 751.5 681" stroke="#C0D0E0" stroke-width="1" opacity="1"></path><path fill="none" d="M 828.5 671 L 828.5 681" stroke="#C0D0E0" stroke-width="1" opacity="1"></path><path fill="none" d="M 904.5 671 L 904.5 681" stroke="#C0D0E0" stroke-width="1" opacity="1"></path><path fill="none" d="M 981.5 671 L 981.5 681" stroke="#C0D0E0" stroke-width="1" opacity="1"></path><path fill="none" d="M 1057.5 671 L 1057.5 681" stroke="#C0D0E0" stroke-width="1" opacity="1"></path><path fill="none" d="M 1134.5 671 L 1134.5 681" stroke="#C0D0E0" stroke-width="1" opacity="1"></path><path fill="none" d="M 1211.5 671 L 1211.5 681" stroke="#C0D0E0" stroke-width="1" opacity="1"></path><path fill="none" d="M 1287.5 671 L 1287.5 681" stroke="#C0D0E0" stroke-width="1" opacity="1"></path><path fill="none" d="M 1364.5 671 L 1364.5 681" stroke="#C0D0E0" stroke-width="1" opacity="1"></path><path fill="none" d="M 1441.5 671 L 1441.5 681" stroke="#C0D0E0" stroke-width="1" opacity="1"></path><path fill="none" d="M 1517.5 671 L 1517.5 681" stroke="#C0D0E0" stroke-width="1" opacity="1"></path><path fill="none" d="M 1594.5 671 L 1594.5 681" stroke="#C0D0E0" stroke-width="1" opacity="1"></path><path fill="none" d="M 1671.5 671 L 1671.5 681" stroke="#C0D0E0" stroke-width="1" opacity="1"></path><path fill="none" d="M 1747.5 671 L 1747.5 681" stroke="#C0D0E0" stroke-width="1" opacity="1"></path><path fill="none" d="M 1824.5 671 L 1824.5 681" stroke="#C0D0E0" stroke-width="1" opacity="1"></path><path fill="none" d="M 1900.5 671 L 1900.5 681" stroke="#C0D0E0" stroke-width="1" opacity="1"></path><path fill="none" d="M 1977.5 671 L 1977.5 681" stroke="#C0D0E0" stroke-width="1" opacity="1"></path><path fill="none" d="M 2054.5 671 L 2054.5 681" stroke="#C0D0E0" stroke-width="1" opacity="1"></path><path fill="none" d="M 2130.5 671 L 2130.5 681" stroke="#C0D0E0" stroke-width="1" opacity="1"></path><path fill="none" d="M 2207.5 671 L 2207.5 681" stroke="#C0D0E0" stroke-width="1" opacity="1"></path><text x="1172"  text-anchor="middle" transform="translate(0,0)" class=" highcharts-xaxis-title" style="color:#707070;fill:#707070;" y="712.7999992370605">Time</text><path fill="none" d="M 74 671.5 L 2270 671.5" stroke="#C0D0E0" stroke-width="1" ></path></g><g class="highcharts-axis" ><text x="28.149999618530273"  text-anchor="middle" transform="translate(0,0) rotate(270 28.149999618530273 371)" class=" highcharts-yaxis-title" style="color:#707070;fill:#707070;" y="371">Values</text></g><g class="highcharts-series-group" ><g class="highcharts-series highcharts-series-0"  transform="translate(74,71) scale(1 1)" clip-path="url(#highcharts-34)"><path fill="none" d="M 21.529411251075732 502.6666666666667 L 23.200152096071537 502.6666666666667 L 29.80647598775219 502.6666666666667 L 36.39747198177233 502.6666666666667 L 43.509616496249876 502.6666666666667 L 48.19228923153628 502.6666666666667 L 55.12816292291794 502.6666666666667 L 61.083051164026834 502.6666666666667 L 67.91929352061516 502.6666666666667 L 74.0581165336502 502.6666666666667 L 80.4805056534047 502.6666666666667 L 87.04850980093408 502.6666666666667 L 92.36729028913173 502.6666666666667 L 98.53676909748779 502.6666666666667 L 105.05878955203563 502.6666666666667 L 111.44285892763885 502.6666666666667 L 116.90725444361136 502.6666666666667 L 124.21866162767557 502.6666666666667 L 130.54141941263674 502.6666666666667 L 137.00212827654255 502.6666666666667 L 142.0066868626997 502.6666666666667 L 148.7586257821552 502.6666666666667 L 155.24232649255177 502.6666666666667 L 161.52676453336167 502.6666666666667 L 168.01812919258848 502.6666666666667 L 174.440518312343 502.6666666666667 L 179.36077346136733 502.6666666666667 L 185.89045786474543 502.6666666666667 L 192.4201422681235 502.6666666666667 L 198.7582279507452 502.6666666666667 L 205.13463337751818 502.6666666666667 L 211.4343993159886 502.6666666666667 L 217.9257639752154 502.6666666666667 L 223.19089682160126 502.6666666666667 L 229.6056219925255 502.6666666666667 L 236.1889540377154 502.6666666666667 L 242.74163028758426 502.6666666666667 L 249.36328207692543 502.6666666666667 L 255.76267935018916 502.6666666666667 L 260.6522787038925 502.6666666666667 L 267.0133562330049 504 L 273.2901303249846 504 L 279.8657984213442 504 L 286.34183518291053 504 L 292.9711509210819 504 L 299.4165318873272 504 L 305.8389210070817 504 L 310.728520360785 504 L 317.15090948053955 504 L 323.51965095848226 504 L 330.06466325952084 504 L 337.64430865264404 504 L 342.79448226657604 504 L 349.23219928399106 504 L 355.60094076193377 504 L 362.16894490946316 504 L 368.3537516154797 504 L 373.1437196343897 504 L 379.6350842936165 504 L 386.6475974733007 504 L 392.433878840144 504 L 398.8179482157472 504 L 405.1790257448597 502.6666666666667 L 418.0774516261805 502.6666666666667 L 424.4461931041232 502.6666666666667 L 429.47374353677117 502.6666666666667 L 435.81182921939285 502.6666666666667 L 442.0809393625422 502.6666666666667 L 448.4190250451639 502.6666666666667 L 454.71112703480406 502.6666666666667 L 461.2178195916914 502.6666666666667 L 467.77049584156026 502.6666666666667 L 474.1545652171635 502.6666666666667 L 480.5386345927667 501.33333333333337 L 485.5202013324331 501.33333333333337 L 491.7969754244127 501.33333333333337 L 498.1273971582042 501.33333333333337 L 504.51913048263765 501.33333333333337 L 510.92619170473165 501.33333333333337 L 517.3639087221467 501.33333333333337 L 523.7019944047684 501.33333333333337 L 530.1320474733532 501.33333333333337 L 536.4931250024656 501.33333333333337 L 542.762235145615 501.33333333333337 L 549.1846242653695 501.33333333333337 L 555.5610296921425 501.33333333333337 L 562.0064106583877 501.33333333333337 L 568.2372010573858 501.33333333333337 L 573.0961446157681 501.33333333333337 L 579.4648860937109 501.33333333333337 L 585.8872752134654 501.33333333333337 L 592.3709759238619 501.33333333333337 L 598.6477500158416 501.33333333333337 L 605.070139135596 501.33333333333337 L 611.354577176406 501.33333333333337 L 617.7233186543488 502.6666666666667 L 624.1533717229335 502.6666666666667 L 636.8295430881768 502.6666666666667 L 643.2212764126103 502.6666666666667 L 648.1491955104649 502.6666666666667 L 654.2956824723302 502.6666666666667 L 660.5647926154796 502.6666666666667 L 666.8262388097987 502.6666666666667 L 673.302275571365 502.6666666666667 L 680.7822896296949 502.6666666666667 L 686.1317259132136 502.6666666666667 L 692.4238279028538 502.6666666666667 L 698.7619135854754 502.6666666666667 L 705.4218851189679 502.6666666666667 L 711.4534128483793 502.6666666666667 L 717.6995311450379 502.6666666666667 L 724.0069610323386 502.6666666666667 L 729.8775458363147 502.6666666666667 L 736.7597718858846 502.6666666666667 L 741.8409699603443 502.6666666666667 L 749.888116232113 502.6666666666667 L 754.5401331720784 502.6666666666667 L 760.9165385988514 502.6666666666667 L 767.369583513927 502.6666666666667 L 773.9222597637958 502.6666666666667 L 780.306329139399 502.6666666666667 L 786.7287182591535 502.6666666666667 L 793.0744678906054 502.6666666666667 L 799.4508733173784 502.6666666666667 L 805.8426066418119 502.6666666666667 L 810.632574660722 502.6666666666667 L 817.0166440363251 502.6666666666667 L 823.4083773607587 502.6666666666667 L 829.8231025316828 502.6666666666667 L 836.2838113955887 502.6666666666667 L 842.851815543118 502.6666666666667 L 849.19756517457 502.6666666666667 L 855.6276182431548 502.6666666666667 L 861.9886957722672 502.6666666666667 L 868.4110848920217 502.6666666666667 L 873.1550692179502 502.6666666666667 L 879.646433877177 502.6666666666667 L 886.0305032527802 502.6666666666667 L 892.3379331400808 502.6666666666667 L 898.8216338504774 502.6666666666667 L 905.2133671749109 502.6666666666667 L 911.5284610110418 502.6666666666667 L 917.9891698749476 502.6666666666667 L 924.495862431835 502.6666666666667 L 929.3931257343685 502.6666666666667 L 936.0684251655215 502.6666666666667 L 942.2762237180289 502.6666666666667 L 948.6679570424623 502.6666666666667 L 955.0750182645563 502.6666666666667 L 961.443759742499 502.6666666666667 L 967.9121325552351 501.33333333333337 L 975.1698920974875 501.33333333333337 L 980.5729760228179 501.33333333333337 L 987.0336848867237 501.33333333333337 L 991.923284240427 501.33333333333337 L 1004.6990869404638 501.33333333333337 L 1011.083156316067 501.33333333333337 L 1017.5745209752938 501.33333333333337 L 1024.2958040994283 501.33333333333337 L 1030.480610805445 501.33333333333337 L 1036.9259917716902 501.33333333333337 L 1043.417356430917 501.33333333333337 L 1048.751464816775 501.33333333333337 L 1054.8136483415076 501.33333333333337 L 1061.2207095636015 501.33333333333337 L 1067.6814184275074 501.33333333333337 L 1073.360404510727 501.33333333333337 L 1080.5798443088281 501.33333333333337 L 1087.009897377413 501.33333333333337 L 1093.386302804186 501.33333333333337 L 1098.1149592324539 501.33333333333337 L 1104.5220204545478 501.33333333333337 L 1110.8907619324905 501.33333333333337 L 1117.282495256924 501.33333333333337 L 1123.7125483255088 501.33333333333337 L 1130.096617701112 501.33333333333337 L 1136.3887196907522 501.33333333333337 L 1149.1032108001468 501.33333333333337 L 1155.6099033570342 501.33333333333337 L 1161.9249971931652 501.33333333333337 L 1167.2054579372116 501.33333333333337 L 1173.1680101271506 501.33333333333337 L 1179.552079502754 501.33333333333337 L 1185.966804673678 500 L 1192.3585379981116 500 L 1198.7349434248845 500 L 1205.1496685958089 500 L 1211.5567298179028 500 L 1218.0480944771296 500 L 1224.5088033410354 500 L 1230.961848256111 500 L 1235.7134965308696 500 L 1242.1205577529636 500 L 1248.4892992309065 500 L 1254.8043930670374 500 L 1261.288093777434 500 L 1267.672163153037 500 L 1274.0409046309799 500 L 1280.478621648395 500 L 1286.8780189216586 500 L 1294.0208192314572 500 L 1299.5388623892416 500 L 1305.9842433554868 500 L 1310.7588834767362 500 L 1323.5116943302821 500 L 1329.8804358082248 500 L 1336.2951609791492 500 L 1342.8248453825272 500 L 1349.0939555256766 500 L 1355.547000440752 500 L 1361.892750072204 500 L 1367.6943593367077 500 L 1374.7758480558643 500 L 1379.5811439724348 500 L 1385.8885738597355 498.6666666666667 L 1392.3492827236414 498.6666666666667 L 1398.8713031781892 498.6666666666667 L 1405.217052809641 498.6666666666667 L 1411.677761673547 498.6666666666667 L 1418.0618310491502 498.6666666666667 L 1424.315613294639 498.6666666666667 L 1430.753330312054 498.6666666666667 L 1437.21403917596 498.6666666666667 L 1443.536796960921 498.6666666666667 L 1448.326764979831 498.6666666666667 L 1454.8104656902276 498.6666666666667 L 1461.2251908611518 498.6666666666667 L 1467.6015962879248 498.6666666666667 L 1474.0009935611886 498.6666666666667 L 1480.392726885622 498.6666666666667 L 1486.769132312395 498.6666666666667 L 1493.176193534489 498.6666666666667 L 1499.6828860913763 498.6666666666667 L 1506.2202344435846 498.6666666666667 L 1510.8492595370592 498.6666666666667 L 1517.3252962986255 498.6666666666667 L 1523.808997009022 498.6666666666667 L 1530.1317547939832 498.6666666666667 L 1536.4928323230959 498.6666666666667 L 1542.90755749402 498.6666666666667 L 1549.3299466137746 498.6666666666667 L 1555.7293438870383 498.6666666666667 L 1567.0260044628355 498.6666666666667 L 1573.356426196627 498.6666666666667 L 1579.7328316234 498.6666666666667 L 1586.1322288966637 498.6666666666667 L 1592.6465854023813 497.33333333333337 L 1599.045982675645 497.33333333333337 L 1605.361076511776 497.33333333333337 L 1612.6111721051982 497.33333333333337 L 1618.1522071094732 497.33333333333337 L 1624.8888181312682 497.33333333333337 L 1629.6328024571967 497.33333333333337 L 1636.9825293854121 497.33333333333337 L 1642.2093424876466 497.33333333333337 L 1648.9076337652905 497.33333333333337 L 1655.3453507827055 497.33333333333337 L 1661.7294201583086 497.33333333333337 L 1667.845251324853 497.33333333333337 L 1674.1756730586444 497.33333333333337 L 1680.5827342807384 497.33333333333337 L 1686.0624576943715 497.33333333333337 L 1693.3355451342843 497.33333333333337 L 1699.9801887701162 497.33333333333337 L 1704.6015499147607 497.33333333333337 L 1710.87066005791 497.33333333333337 L 1717.2930491776644 497.33333333333337 L 1723.715438297419 497.33333333333337 L 1730.091843724192 497.33333333333337 L 1736.5218967927767 497.33333333333337 L 1742.8599824753985 497.33333333333337 L 1749.2057321068503 497.33333333333337 L 1755.6434491242653 497.33333333333337 L 1762.0505103463595 497.33333333333337 L 1768.5801947497375 497.33333333333337 L 1774.8186490975659 497.33333333333337 L 1779.6009531676457 497.33333333333337 L 1786.1766212640052 497.33333333333337 L 1792.5223708954572 497.33333333333337 L 1798.9677518617025 497.33333333333337 L 1805.3901409814569 497.33333333333337 L 1811.743554561739 497.33333333333337 L 1818.0739762955307 497.33333333333337 L 1824.4273898758129 497.33333333333337 L 1830.8804347908883 497.33333333333337 L 1837.3641355012849 497.33333333333337 L 1842.1004558783832 496 L 1848.4308776121745 496 L 1854.7459714483055 496 L 1861.2143442610416 496 L 1867.5294380971725 496 L 1873.9058435239454 496 L 1881.2325786056701 496 L 1893.1653469343787 496 L 1899.5110965658307 496 L 1907.0524222148024 496 L 1912.3252190100186 496 L 1917.0155556941352 496 L 1923.4839285068713 496 L 1931.1325494394669 496 L 1936.3133788487198 496 L 1942.8047435079466 496 L 1949.19647683238 496 L 1955.9024320588542 496 L 1961.9799434812471 496 L 1968.3640128568504 496 L 1974.7710740789444 496 L 1980.243133543747 496 L 1985.9221196269668 496 L 1992.3904924397027 496 L 1998.8358734059482 496 L 2011.3740936922468 496 L 2017.873122300304 496 L 2024.2341998294164 496 L 2030.572285512038 496 L 2037.063650171265 496 L 2043.3940719050563 496 L 2049.816461024811 496 L 2054.522125606588 496 L 2060.936850777512 496 L 2067.3439119996065 496 L 2073.681997682228 496 L 2080.127378648473 496 L 2086.8026780796263 496 L 2092.9185092461703 496 L 2099.287250724113 496 L 2105.694311946207 496 L 2112.1780126566036 496 L 2118.623393622849 496 L 2123.3443861022865 494.6666666666667 L 2129.7207915290596 494.6666666666667 L 2136.250475932438 494.6666666666667 L 2142.5042581779267 494.6666666666667 L 2149.033942581305 494.6666666666667 L 2155.3720282639265 494.6666666666667 L 2161.7790894860204 494.6666666666667 L 2168.224470452266 494.6666666666667 L 2174.4705887489245 494.6666666666667" stroke="#7cb5ec" stroke-width="2"  stroke-linejoin="round" stroke-linecap="round"></path></g><g class="highcharts-markers highcharts-series-0"  transform="translate(74,71) scale(1 1)" clip-path="none"></g><g class="highcharts-series highcharts-series-1"  transform="translate(74,71) scale(1 1)" clip-path="url(#highcharts-34)"><path fill="none" d="M 21.529411251075732 509.8666666666667 L 23.200152096071537 509.8666666666667 L 29.80647598775219 509.8933333333333 L 36.39747198177233 509.8933333333333 L 43.509616496249876 509.84000000000003 L 48.19228923153628 509.8666666666667 L 55.12816292291794 509.81333333333333 L 61.083051164026834 509.81333333333333 L 67.91929352061516 509.7866666666667 L 74.0581165336502 509.7866666666667 L 80.4805056534047 509.8666666666667 L 87.04850980093408 509.7866666666667 L 92.36729028913173 509.7866666666667 L 98.53676909748779 509.7866666666667 L 105.05878955203563 509.7866666666667 L 111.44285892763885 509.76 L 116.90725444361136 509.76 L 124.21866162767557 509.7866666666667 L 130.54141941263674 509.73333333333335 L 137.00212827654255 509.73333333333335 L 142.0066868626997 509.73333333333335 L 148.7586257821552 509.7066666666667 L 155.24232649255177 509.76 L 161.52676453336167 509.73333333333335 L 168.01812919258848 509.76 L 174.440518312343 509.76 L 179.36077346136733 509.68 L 185.89045786474543 509.68 L 192.4201422681235 509.7066666666667 L 198.7582279507452 509.73333333333335 L 205.13463337751818 509.7066666666667 L 211.4343993159886 509.7066666666667 L 217.9257639752154 509.68 L 223.19089682160126 509.7066666666667 L 229.6056219925255 509.7066666666667 L 236.1889540377154 509.6533333333333 L 242.74163028758426 509.6533333333333 L 249.36328207692543 509.73333333333335 L 255.76267935018916 509.73333333333335 L 260.6522787038925 509.73333333333335 L 267.0133562330049 509.73333333333335 L 273.2901303249846 509.76 L 279.8657984213442 509.73333333333335 L 286.34183518291053 509.62666666666667 L 292.9711509210819 509.68 L 299.4165318873272 509.62666666666667 L 305.8389210070817 509.6533333333333 L 310.728520360785 509.68 L 317.15090948053955 509.6533333333333 L 323.51965095848226 509.62666666666667 L 330.06466325952084 509.68 L 337.64430865264404 509.6533333333333 L 342.79448226657604 509.68 L 349.23219928399106 509.6533333333333 L 355.60094076193377 509.6533333333333 L 362.16894490946316 509.62666666666667 L 368.3537516154797 509.62666666666667 L 373.1437196343897 509.62666666666667 L 379.6350842936165 509.6 L 386.6475974733007 509.5466666666667 L 392.433878840144 509.5466666666667 L 398.8179482157472 509.52 L 405.1790257448597 509.49333333333334 L 418.0774516261805 509.4666666666667 L 424.4461931041232 509.44 L 429.47374353677117 509.4666666666667 L 435.81182921939285 509.4666666666667 L 442.0809393625422 509.41333333333336 L 448.4190250451639 509.38666666666666 L 454.71112703480406 509.44 L 461.2178195916914 509.41333333333336 L 467.77049584156026 509.41333333333336 L 474.1545652171635 509.38666666666666 L 480.5386345927667 509.44 L 485.5202013324331 509.4666666666667 L 491.7969754244127 509.41333333333336 L 498.1273971582042 509.38666666666666 L 504.51913048263765 509.38666666666666 L 510.92619170473165 509.36 L 517.3639087221467 509.36 L 523.7019944047684 509.33333333333337 L 530.1320474733532 509.33333333333337 L 536.4931250024656 509.36 L 542.762235145615 509.28 L 549.1846242653695 509.25333333333333 L 555.5610296921425 509.25333333333333 L 562.0064106583877 509.33333333333337 L 568.2372010573858 509.38666666666666 L 573.0961446157681 509.38666666666666 L 579.4648860937109 509.33333333333337 L 585.8872752134654 509.36 L 592.3709759238619 509.38666666666666 L 598.6477500158416 509.38666666666666 L 605.070139135596 509.36 L 611.354577176406 509.28 L 617.7233186543488 509.36 L 624.1533717229335 509.33333333333337 L 636.8295430881768 509.38666666666666 L 643.2212764126103 509.33333333333337 L 648.1491955104649 509.33333333333337 L 654.2956824723302 509.28 L 660.5647926154796 509.33333333333337 L 666.8262388097987 509.28 L 673.302275571365 509.28 L 680.7822896296949 509.28 L 686.1317259132136 509.3066666666667 L 692.4238279028538 509.25333333333333 L 698.7619135854754 509.25333333333333 L 705.4218851189679 509.25333333333333 L 711.4534128483793 509.3066666666667 L 717.6995311450379 509.2266666666667 L 724.0069610323386 509.17333333333335 L 729.8775458363147 509.2266666666667 L 736.7597718858846 509.2266666666667 L 741.8409699603443 509.2266666666667 L 749.888116232113 509.25333333333333 L 754.5401331720784 509.17333333333335 L 760.9165385988514 509.17333333333335 L 767.369583513927 509.2266666666667 L 773.9222597637958 509.25333333333333 L 780.306329139399 509.17333333333335 L 786.7287182591535 509.2266666666667 L 793.0744678906054 509.2266666666667 L 799.4508733173784 509.09333333333336 L 805.8426066418119 509.14666666666665 L 810.632574660722 509.14666666666665 L 817.0166440363251 509.12 L 823.4083773607587 509.14666666666665 L 829.8231025316828 509.14666666666665 L 836.2838113955887 509.09333333333336 L 842.851815543118 509.12 L 849.19756517457 509.09333333333336 L 855.6276182431548 509.12 L 861.9886957722672 509.17333333333335 L 868.4110848920217 509.17333333333335 L 873.1550692179502 509.09333333333336 L 879.646433877177 509.12 L 886.0305032527802 509.12 L 892.3379331400808 509.12 L 898.8216338504774 509.12 L 905.2133671749109 509.09333333333336 L 911.5284610110418 509.09333333333336 L 917.9891698749476 509.06666666666666 L 924.495862431835 509.12 L 929.3931257343685 509.09333333333336 L 936.0684251655215 509.09333333333336 L 942.2762237180289 509.09333333333336 L 948.6679570424623 509.09333333333336 L 955.0750182645563 509.09333333333336 L 961.443759742499 509.0133333333333 L 967.9121325552351 509.04 L 975.1698920974875 509.0133333333333 L 980.5729760228179 509.04 L 987.0336848867237 509.09333333333336 L 991.923284240427 509.0133333333333 L 1004.6990869404638 509.09333333333336 L 1011.083156316067 509.04 L 1017.5745209752938 509.0133333333333 L 1024.2958040994283 508.9866666666667 L 1030.480610805445 509.0133333333333 L 1036.9259917716902 508.9866666666667 L 1043.417356430917 508.96000000000004 L 1048.751464816775 508.9866666666667 L 1054.8136483415076 509.0133333333333 L 1061.2207095636015 508.9866666666667 L 1067.6814184275074 508.96000000000004 L 1073.360404510727 508.96000000000004 L 1080.5798443088281 508.93333333333334 L 1087.009897377413 508.9866666666667 L 1093.386302804186 508.93333333333334 L 1098.1149592324539 508.93333333333334 L 1104.5220204545478 508.93333333333334 L 1110.8907619324905 508.93333333333334 L 1117.282495256924 508.93333333333334 L 1123.7125483255088 508.96000000000004 L 1130.096617701112 508.96000000000004 L 1136.3887196907522 508.96000000000004 L 1149.1032108001468 508.9866666666667 L 1155.6099033570342 508.93333333333334 L 1161.9249971931652 508.9066666666667 L 1167.2054579372116 508.93333333333334 L 1173.1680101271506 508.88 L 1179.552079502754 508.88 L 1185.966804673678 508.85333333333335 L 1192.3585379981116 508.85333333333335 L 1198.7349434248845 508.85333333333335 L 1205.1496685958089 508.85333333333335 L 1211.5567298179028 508.9066666666667 L 1218.0480944771296 508.85333333333335 L 1224.5088033410354 508.88 L 1230.961848256111 508.9066666666667 L 1235.7134965308696 508.8266666666667 L 1242.1205577529636 508.85333333333335 L 1248.4892992309065 508.85333333333335 L 1254.8043930670374 508.85333333333335 L 1261.288093777434 508.85333333333335 L 1267.672163153037 508.85333333333335 L 1274.0409046309799 508.85333333333335 L 1280.478621648395 508.88 L 1286.8780189216586 508.8266666666667 L 1294.0208192314572 508.7733333333333 L 1299.5388623892416 508.8266666666667 L 1305.9842433554868 508.8266666666667 L 1310.7588834767362 508.8266666666667 L 1323.5116943302821 508.74666666666667 L 1329.8804358082248 508.72 L 1336.2951609791492 508.74666666666667 L 1342.8248453825272 508.72 L 1349.0939555256766 508.8266666666667 L 1355.547000440752 508.7733333333333 L 1361.892750072204 508.96000000000004 L 1367.6943593367077 508.72 L 1374.7758480558643 508.74666666666667 L 1379.5811439724348 508.6933333333333 L 1385.8885738597355 508.6666666666667 L 1392.3492827236414 508.6933333333333 L 1398.8713031781892 508.72 L 1405.217052809641 508.6933333333333 L 1411.677761673547 508.6933333333333 L 1418.0618310491502 508.6933333333333 L 1424.315613294639 508.6933333333333 L 1430.753330312054 508.6666666666667 L 1437.21403917596 508.61333333333334 L 1443.536796960921 508.64 L 1448.326764979831 508.6666666666667 L 1454.8104656902276 508.64 L 1461.2251908611518 508.64 L 1467.6015962879248 508.64 L 1474.0009935611886 508.61333333333334 L 1480.392726885622 508.5866666666667 L 1486.769132312395 508.56 L 1493.176193534489 508.61333333333334 L 1499.6828860913763 508.61333333333334 L 1506.2202344435846 508.5866666666667 L 1510.8492595370592 508.64 L 1517.3252962986255 508.5866666666667 L 1523.808997009022 508.61333333333334 L 1530.1317547939832 508.53333333333336 L 1536.4928323230959 508.5866666666667 L 1542.90755749402 508.5866666666667 L 1549.3299466137746 508.5866666666667 L 1555.7293438870383 508.53333333333336 L 1567.0260044628355 508.56 L 1573.356426196627 508.53333333333336 L 1579.7328316234 508.56 L 1586.1322288966637 508.48 L 1592.6465854023813 508.48 L 1599.045982675645 508.50666666666666 L 1605.361076511776 508.50666666666666 L 1612.6111721051982 508.56 L 1618.1522071094732 508.50666666666666 L 1624.8888181312682 508.56 L 1629.6328024571967 508.50666666666666 L 1636.9825293854121 508.50666666666666 L 1642.2093424876466 508.4533333333334 L 1648.9076337652905 508.48 L 1655.3453507827055 508.48 L 1661.7294201583086 508.48 L 1667.845251324853 508.48 L 1674.1756730586444 508.4533333333334 L 1680.5827342807384 508.3466666666667 L 1686.0624576943715 508.3466666666667 L 1693.3355451342843 508.4533333333334 L 1699.9801887701162 508.37333333333333 L 1704.6015499147607 508.37333333333333 L 1710.87066005791 508.37333333333333 L 1717.2930491776644 508.4266666666667 L 1723.715438297419 508.4266666666667 L 1730.091843724192 508.3466666666667 L 1736.5218967927767 508.37333333333333 L 1742.8599824753985 508.3466666666667 L 1749.2057321068503 508.3466666666667 L 1755.6434491242653 508.3466666666667 L 1762.0505103463595 508.3466666666667 L 1768.5801947497375 508.3466666666667 L 1774.8186490975659 508.3466666666667 L 1779.6009531676457 508.3466666666667 L 1786.1766212640052 508.3466666666667 L 1792.5223708954572 508.3466666666667 L 1798.9677518617025 508.29333333333335 L 1805.3901409814569 508.3466666666667 L 1811.743554561739 508.32 L 1818.0739762955307 508.32 L 1824.4273898758129 508.32 L 1830.8804347908883 508.29333333333335 L 1837.3641355012849 508.29333333333335 L 1842.1004558783832 508.24 L 1848.4308776121745 508.24 L 1854.7459714483055 508.24 L 1861.2143442610416 508.24 L 1867.5294380971725 508.21333333333337 L 1873.9058435239454 508.26666666666665 L 1881.2325786056701 508.24 L 1893.1653469343787 508.29333333333335 L 1899.5110965658307 508.21333333333337 L 1907.0524222148024 508.18666666666667 L 1912.3252190100186 508.21333333333337 L 1917.0155556941352 508.21333333333337 L 1923.4839285068713 508.24 L 1931.1325494394669 508.16 L 1936.3133788487198 508.16 L 1942.8047435079466 508.18666666666667 L 1949.19647683238 508.16 L 1955.9024320588542 508.16 L 1961.9799434812471 508.18666666666667 L 1968.3640128568504 508.16 L 1974.7710740789444 508.1333333333333 L 1980.243133543747 508.16 L 1985.9221196269668 508.18666666666667 L 1992.3904924397027 508.1333333333333 L 1998.8358734059482 508.1333333333333 L 2011.3740936922468 508.08000000000004 L 2017.873122300304 508.1066666666667 L 2024.2341998294164 508.1066666666667 L 2030.572285512038 508.1066666666667 L 2037.063650171265 508.1333333333333 L 2043.3940719050563 508.1333333333333 L 2049.816461024811 508.16 L 2054.522125606588 508.18666666666667 L 2060.936850777512 508.08000000000004 L 2067.3439119996065 508.1066666666667 L 2073.681997682228 508.08000000000004 L 2080.127378648473 507.97333333333336 L 2086.8026780796263 508.08000000000004 L 2092.9185092461703 508.1066666666667 L 2099.287250724113 508.08000000000004 L 2105.694311946207 507.97333333333336 L 2112.1780126566036 508.02666666666664 L 2118.623393622849 507.97333333333336 L 2123.3443861022865 507.97333333333336 L 2129.7207915290596 507.94666666666666 L 2136.250475932438 508.02666666666664 L 2142.5042581779267 508.02666666666664 L 2149.033942581305 507.97333333333336 L 2155.3720282639265 507.94666666666666 L 2161.7790894860204 507.94666666666666 L 2168.224470452266 507.94666666666666 L 2174.4705887489245 507.94666666666666" stroke="#434348" stroke-width="2"  stroke-linejoin="round" stroke-linecap="round"></path></g><g class="highcharts-markers highcharts-series-1"  transform="translate(74,71) scale(1 1)" clip-path="none"></g><g class="highcharts-series highcharts-series-2"  visibility="hidden" transform="translate(74,71) scale(1 1)" clip-path="url(#highcharts-34)"></g><g class="highcharts-markers highcharts-series-2"  visibility="hidden" transform="translate(74,71) scale(1 1)" clip-path="none"></g><g class="highcharts-series highcharts-series-3"  transform="translate(74,71) scale(1 1)" clip-path="url(#highcharts-34)"><path fill="none" d="M 21.529411251075732 154.66666666666669 L 23.200152096071537 154.66666666666669 L 29.80647598775219 154.66666666666669 L 36.39747198177233 154.66666666666669 L 43.509616496249876 154.66666666666669 L 48.19228923153628 154.66666666666669 L 55.12816292291794 154.66666666666669 L 61.083051164026834 154.66666666666669 L 67.91929352061516 154.66666666666669 L 74.0581165336502 154.66666666666669 L 80.4805056534047 154.66666666666669 L 87.04850980093408 154.66666666666669 L 92.36729028913173 154.66666666666669 L 98.53676909748779 154.66666666666669 L 105.05878955203563 152 L 111.44285892763885 152 L 116.90725444361136 152 L 124.21866162767557 152 L 130.54141941263674 152 L 137.00212827654255 152 L 142.0066868626997 152 L 148.7586257821552 152 L 155.24232649255177 152 L 161.52676453336167 152 L 168.01812919258848 152 L 174.440518312343 152 L 179.36077346136733 152 L 185.89045786474543 152 L 192.4201422681235 152 L 198.7582279507452 152 L 205.13463337751818 240 L 211.4343993159886 154.66666666666669 L 217.9257639752154 154.66666666666669 L 223.19089682160126 154.66666666666669 L 229.6056219925255 154.66666666666669 L 236.1889540377154 152 L 242.74163028758426 154.66666666666669 L 249.36328207692543 154.66666666666669 L 255.76267935018916 154.66666666666669 L 260.6522787038925 152 L 267.0133562330049 152 L 273.2901303249846 154.66666666666669 L 279.8657984213442 154.66666666666669 L 286.34183518291053 154.66666666666669 L 292.9711509210819 154.66666666666669 L 299.4165318873272 154.66666666666669 L 305.8389210070817 154.66666666666669 L 310.728520360785 157.33333333333337 L 317.15090948053955 154.66666666666669 L 323.51965095848226 154.66666666666669 L 330.06466325952084 154.66666666666669 L 337.64430865264404 117.33333333333337 L 342.79448226657604 120 L 349.23219928399106 120 L 355.60094076193377 122.66666666666669 L 362.16894490946316 117.33333333333337 L 368.3537516154797 120 L 373.1437196343897 120 L 379.6350842936165 120 L 386.6475974733007 120 L 392.433878840144 120 L 398.8179482157472 120 L 405.1790257448597 120 L 418.0774516261805 120 L 424.4461931041232 117.33333333333337 L 429.47374353677117 117.33333333333337 L 435.81182921939285 117.33333333333337 L 442.0809393625422 117.33333333333337 L 448.4190250451639 117.33333333333337 L 454.71112703480406 117.33333333333337 L 461.2178195916914 117.33333333333337 L 467.77049584156026 117.33333333333337 L 474.1545652171635 117.33333333333337 L 480.5386345927667 117.33333333333337 L 485.5202013324331 114.66666666666669 L 491.7969754244127 114.66666666666669 L 498.1273971582042 114.66666666666669 L 504.51913048263765 114.66666666666669 L 510.92619170473165 114.66666666666669 L 517.3639087221467 114.66666666666669 L 523.7019944047684 114.66666666666669 L 530.1320474733532 114.66666666666669 L 536.4931250024656 114.66666666666669 L 542.762235145615 112 L 549.1846242653695 112 L 555.5610296921425 112 L 562.0064106583877 112 L 568.2372010573858 112 L 573.0961446157681 112 L 579.4648860937109 112 L 585.8872752134654 112 L 592.3709759238619 112 L 598.6477500158416 112 L 605.070139135596 112 L 611.354577176406 109.33333333333337 L 617.7233186543488 109.33333333333337 L 624.1533717229335 109.33333333333337 L 636.8295430881768 109.33333333333337 L 643.2212764126103 109.33333333333337 L 648.1491955104649 106.66666666666669 L 654.2956824723302 106.66666666666669 L 660.5647926154796 106.66666666666669 L 666.8262388097987 106.66666666666669 L 673.302275571365 106.66666666666669 L 680.7822896296949 106.66666666666669 L 686.1317259132136 104 L 692.4238279028538 104 L 698.7619135854754 104 L 705.4218851189679 104 L 711.4534128483793 104 L 717.6995311450379 104 L 724.0069610323386 104 L 729.8775458363147 101.33333333333337 L 736.7597718858846 101.33333333333337 L 741.8409699603443 101.33333333333337 L 749.888116232113 104 L 754.5401331720784 104 L 760.9165385988514 101.33333333333337 L 767.369583513927 101.33333333333337 L 773.9222597637958 101.33333333333337 L 780.306329139399 101.33333333333337 L 786.7287182591535 101.33333333333337 L 793.0744678906054 101.33333333333337 L 799.4508733173784 98.66666666666669 L 805.8426066418119 98.66666666666669 L 810.632574660722 98.66666666666669 L 817.0166440363251 98.66666666666669 L 823.4083773607587 98.66666666666669 L 829.8231025316828 101.33333333333337 L 836.2838113955887 98.66666666666669 L 842.851815543118 98.66666666666669 L 849.19756517457 98.66666666666669 L 855.6276182431548 98.66666666666669 L 861.9886957722672 98.66666666666669 L 868.4110848920217 98.66666666666669 L 873.1550692179502 98.66666666666669 L 879.646433877177 98.66666666666669 L 886.0305032527802 98.66666666666669 L 892.3379331400808 96 L 898.8216338504774 98.66666666666669 L 905.2133671749109 96 L 911.5284610110418 96 L 917.9891698749476 96 L 924.495862431835 96 L 929.3931257343685 96 L 936.0684251655215 96 L 942.2762237180289 96 L 948.6679570424623 96 L 955.0750182645563 96 L 961.443759742499 93.33333333333337 L 967.9121325552351 93.33333333333337 L 975.1698920974875 93.33333333333337 L 980.5729760228179 93.33333333333337 L 987.0336848867237 90.66666666666669 L 991.923284240427 90.66666666666669 L 1004.6990869404638 90.66666666666669 L 1011.083156316067 88 L 1017.5745209752938 88 L 1024.2958040994283 85.33333333333337 L 1030.480610805445 85.33333333333337 L 1036.9259917716902 85.33333333333337 L 1043.417356430917 85.33333333333337 L 1048.751464816775 88 L 1054.8136483415076 85.33333333333337 L 1061.2207095636015 85.33333333333337 L 1067.6814184275074 85.33333333333337 L 1073.360404510727 85.33333333333337 L 1080.5798443088281 85.33333333333337 L 1087.009897377413 229.33333333333337 L 1093.386302804186 568 L 1098.1149592324539 592 L 1104.5220204545478 600 L 1110.8907619324905 589.3333333333334 L 1117.282495256924 82.66666666666674 L 1123.7125483255088 82.66666666666674 L 1130.096617701112 85.33333333333337 L 1136.3887196907522 85.33333333333337 L 1149.1032108001468 82.66666666666674 L 1155.6099033570342 82.66666666666674 L 1161.9249971931652 82.66666666666674 L 1167.2054579372116 82.66666666666674 L 1173.1680101271506 82.66666666666674 L 1179.552079502754 82.66666666666674 L 1185.966804673678 82.66666666666674 L 1192.3585379981116 82.66666666666674 L 1198.7349434248845 80 L 1205.1496685958089 80 L 1211.5567298179028 82.66666666666674 L 1218.0480944771296 82.66666666666674 L 1224.5088033410354 82.66666666666674 L 1230.961848256111 82.66666666666674 L 1235.7134965308696 85.33333333333337 L 1242.1205577529636 82.66666666666674 L 1248.4892992309065 82.66666666666674 L 1254.8043930670374 82.66666666666674 L 1261.288093777434 82.66666666666674 L 1267.672163153037 82.66666666666674 L 1274.0409046309799 82.66666666666674 L 1280.478621648395 82.66666666666674 L 1286.8780189216586 82.66666666666674 L 1294.0208192314572 82.66666666666674 L 1299.5388623892416 82.66666666666674 L 1305.9842433554868 82.66666666666674 L 1310.7588834767362 82.66666666666674 L 1323.5116943302821 82.66666666666674 L 1329.8804358082248 82.66666666666674 L 1336.2951609791492 82.66666666666674 L 1342.8248453825272 82.66666666666674 L 1349.0939555256766 82.66666666666674 L 1355.547000440752 82.66666666666674 L 1361.892750072204 82.66666666666674 L 1367.6943593367077 80 L 1374.7758480558643 80 L 1379.5811439724348 80 L 1385.8885738597355 80 L 1392.3492827236414 82.66666666666674 L 1398.8713031781892 82.66666666666674 L 1405.217052809641 82.66666666666674 L 1411.677761673547 80 L 1418.0618310491502 77.33333333333337 L 1424.315613294639 77.33333333333337 L 1430.753330312054 77.33333333333337 L 1437.21403917596 77.33333333333337 L 1443.536796960921 77.33333333333337 L 1448.326764979831 77.33333333333337 L 1454.8104656902276 80 L 1461.2251908611518 80 L 1467.6015962879248 80 L 1474.0009935611886 80 L 1480.392726885622 80 L 1486.769132312395 77.33333333333337 L 1493.176193534489 77.33333333333337 L 1499.6828860913763 77.33333333333337 L 1506.2202344435846 77.33333333333337 L 1510.8492595370592 77.33333333333337 L 1517.3252962986255 74.66666666666674 L 1523.808997009022 74.66666666666674 L 1530.1317547939832 74.66666666666674 L 1536.4928323230959 74.66666666666674 L 1542.90755749402 74.66666666666674 L 1549.3299466137746 74.66666666666674 L 1555.7293438870383 74.66666666666674 L 1567.0260044628355 74.66666666666674 L 1573.356426196627 74.66666666666674 L 1579.7328316234 74.66666666666674 L 1586.1322288966637 74.66666666666674 L 1592.6465854023813 74.66666666666674 L 1599.045982675645 74.66666666666674 L 1605.361076511776 74.66666666666674 L 1612.6111721051982 74.66666666666674 L 1618.1522071094732 74.66666666666674 L 1624.8888181312682 74.66666666666674 L 1629.6328024571967 74.66666666666674 L 1636.9825293854121 74.66666666666674 L 1642.2093424876466 74.66666666666674 L 1648.9076337652905 74.66666666666674 L 1655.3453507827055 74.66666666666674 L 1661.7294201583086 74.66666666666674 L 1667.845251324853 74.66666666666674 L 1674.1756730586444 74.66666666666674 L 1680.5827342807384 74.66666666666674 L 1686.0624576943715 74.66666666666674 L 1693.3355451342843 74.66666666666674 L 1699.9801887701162 74.66666666666674 L 1704.6015499147607 74.66666666666674 L 1710.87066005791 74.66666666666674 L 1717.2930491776644 74.66666666666674 L 1723.715438297419 74.66666666666674 L 1730.091843724192 74.66666666666674 L 1736.5218967927767 74.66666666666674 L 1742.8599824753985 74.66666666666674 L 1749.2057321068503 74.66666666666674 L 1755.6434491242653 74.66666666666674 L 1762.0505103463595 74.66666666666674 L 1768.5801947497375 74.66666666666674 L 1774.8186490975659 77.33333333333337 L 1779.6009531676457 74.66666666666674 L 1786.1766212640052 74.66666666666674 L 1792.5223708954572 74.66666666666674 L 1798.9677518617025 74.66666666666674 L 1805.3901409814569 74.66666666666674 L 1811.743554561739 74.66666666666674 L 1818.0739762955307 74.66666666666674 L 1824.4273898758129 74.66666666666674 L 1830.8804347908883 74.66666666666674 L 1837.3641355012849 74.66666666666674 L 1842.1004558783832 77.33333333333337 L 1848.4308776121745 80 L 1854.7459714483055 85.33333333333337 L 1861.2143442610416 85.33333333333337 L 1867.5294380971725 82.66666666666674 L 1873.9058435239454 74.66666666666674 L 1881.2325786056701 74.66666666666674 L 1893.1653469343787 74.66666666666674 L 1899.5110965658307 74.66666666666674 L 1907.0524222148024 74.66666666666674 L 1912.3252190100186 74.66666666666674 L 1917.0155556941352 74.66666666666674 L 1923.4839285068713 74.66666666666674 L 1931.1325494394669 74.66666666666674 L 1936.3133788487198 74.66666666666674 L 1942.8047435079466 74.66666666666674 L 1949.19647683238 74.66666666666674 L 1955.9024320588542 74.66666666666674 L 1961.9799434812471 74.66666666666674 L 1968.3640128568504 74.66666666666674 L 1974.7710740789444 74.66666666666674 L 1980.243133543747 74.66666666666674 L 1985.9221196269668 74.66666666666674 L 1992.3904924397027 74.66666666666674 L 1998.8358734059482 74.66666666666674 L 2011.3740936922468 74.66666666666674 L 2017.873122300304 74.66666666666674 L 2024.2341998294164 74.66666666666674 L 2030.572285512038 74.66666666666674 L 2037.063650171265 74.66666666666674 L 2043.3940719050563 74.66666666666674 L 2049.816461024811 74.66666666666674 L 2054.522125606588 74.66666666666674 L 2060.936850777512 74.66666666666674 L 2067.3439119996065 74.66666666666674 L 2073.681997682228 74.66666666666674 L 2080.127378648473 74.66666666666674 L 2086.8026780796263 74.66666666666674 L 2092.9185092461703 74.66666666666674 L 2099.287250724113 74.66666666666674 L 2105.694311946207 74.66666666666674 L 2112.1780126566036 74.66666666666674 L 2118.623393622849 74.66666666666674 L 2123.3443861022865 74.66666666666674 L 2129.7207915290596 74.66666666666674 L 2136.250475932438 74.66666666666674 L 2142.5042581779267 74.66666666666674 L 2149.033942581305 74.66666666666674 L 2155.3720282639265 74.66666666666674 L 2161.7790894860204 74.66666666666674 L 2168.224470452266 74.66666666666674 L 2174.4705887489245 77.33333333333337" stroke="#f7a35c" stroke-width="2"  stroke-linejoin="round" stroke-linecap="round"></path></g><g class="highcharts-markers highcharts-series-3"  transform="translate(74,71) scale(1 1)" clip-path="none"></g><g class="highcharts-series highcharts-series-4"  transform="translate(74,71) scale(1 1)" clip-path="url(#highcharts-34)"><path fill="none" d="M 21.529411251075732 590.16 L 23.200152096071537 590.0266666666666 L 29.80647598775219 590.7733333333333 L 36.39747198177233 590.9066666666666 L 43.509616496249876 591.2 L 48.19228923153628 589.8666666666667 L 55.12816292291794 589.44 L 61.083051164026834 590.48 L 67.91929352061516 589.5733333333334 L 74.0581165336502 589.44 L 80.4805056534047 589.44 L 87.04850980093408 590.0266666666666 L 92.36729028913173 589.5733333333334 L 98.53676909748779 590.6133333333333 L 105.05878955203563 590.48 L 111.44285892763885 590.6133333333333 L 116.90725444361136 590.16 L 124.21866162767557 590.7733333333333 L 130.54141941263674 590.48 L 137.00212827654255 590.0266666666666 L 142.0066868626997 589.5733333333334 L 148.7586257821552 589.1466666666666 L 155.24232649255177 591.0666666666667 L 161.52676453336167 589.7333333333333 L 168.01812919258848 590.7733333333333 L 174.440518312343 590.16 L 179.36077346136733 589.1466666666666 L 185.89045786474543 590.16 L 192.4201422681235 589.5733333333334 L 198.7582279507452 584.4 L 205.13463337751818 590.16 L 211.4343993159886 590.6133333333333 L 217.9257639752154 590.0266666666666 L 223.19089682160126 590.48 L 229.6056219925255 589.1466666666666 L 236.1889540377154 590.0266666666666 L 242.74163028758426 589.7333333333333 L 249.36328207692543 590.48 L 255.76267935018916 589.5733333333334 L 260.6522787038925 590.16 L 267.0133562330049 589.5733333333334 L 273.2901303249846 589.1466666666666 L 279.8657984213442 590.48 L 286.34183518291053 590.7733333333333 L 292.9711509210819 590.7733333333333 L 299.4165318873272 588.9866666666667 L 305.8389210070817 588.9866666666667 L 310.728520360785 590.7733333333333 L 317.15090948053955 589.8666666666667 L 323.51965095848226 588.6933333333334 L 330.06466325952084 590.0266666666666 L 337.64430865264404 589.7333333333333 L 342.79448226657604 588.9866666666667 L 349.23219928399106 588.6933333333334 L 355.60094076193377 589.7333333333333 L 362.16894490946316 589.1466666666666 L 368.3537516154797 590.6133333333333 L 373.1437196343897 590.0266666666666 L 379.6350842936165 590.7733333333333 L 386.6475974733007 588.5333333333333 L 392.433878840144 589.8666666666667 L 398.8179482157472 591.0666666666667 L 405.1790257448597 589.1466666666666 L 418.0774516261805 588.8266666666667 L 424.4461931041232 588.5333333333333 L 429.47374353677117 589.1466666666666 L 435.81182921939285 588.9866666666667 L 442.0809393625422 589.44 L 448.4190250451639 588.8266666666667 L 454.71112703480406 588.6933333333334 L 461.2178195916914 588.6933333333334 L 467.77049584156026 589.8666666666667 L 474.1545652171635 587.6533333333333 L 480.5386345927667 588.1066666666667 L 485.5202013324331 588.4 L 491.7969754244127 590.0266666666666 L 498.1273971582042 588.4 L 504.51913048263765 589.44 L 510.92619170473165 589.44 L 517.3639087221467 588.4 L 523.7019944047684 587.36 L 530.1320474733532 587.9466666666667 L 536.4931250024656 588.6933333333334 L 542.762235145615 588.9866666666667 L 549.1846242653695 589.1466666666666 L 555.5610296921425 587.4933333333333 L 562.0064106583877 587.9466666666667 L 568.2372010573858 587.6533333333333 L 573.0961446157681 588.4 L 579.4648860937109 587.36 L 585.8872752134654 587.7866666666666 L 592.3709759238619 588.6933333333334 L 598.6477500158416 588.5333333333333 L 605.070139135596 589.7333333333333 L 611.354577176406 588.8266666666667 L 617.7233186543488 588.8266666666667 L 624.1533717229335 588.8266666666667 L 636.8295430881768 588.8266666666667 L 643.2212764126103 590.6133333333333 L 648.1491955104649 588.6933333333334 L 654.2956824723302 588.6933333333334 L 660.5647926154796 589.5733333333334 L 666.8262388097987 588.6933333333334 L 673.302275571365 587.2 L 680.7822896296949 589.44 L 686.1317259132136 589.8666666666667 L 692.4238279028538 587.9466666666667 L 698.7619135854754 588.8266666666667 L 705.4218851189679 588.4 L 711.4534128483793 588.5333333333333 L 717.6995311450379 589.5733333333334 L 724.0069610323386 587.7866666666666 L 729.8775458363147 588.8266666666667 L 736.7597718858846 587.9466666666667 L 741.8409699603443 587.6533333333333 L 749.888116232113 588.6933333333334 L 754.5401331720784 586.7733333333333 L 760.9165385988514 587.0666666666667 L 767.369583513927 588.4 L 773.9222597637958 588.5333333333333 L 780.306329139399 589.1466666666666 L 786.7287182591535 588.1066666666667 L 793.0744678906054 587.7866666666666 L 799.4508733173784 589.7333333333333 L 805.8426066418119 588.1066666666667 L 810.632574660722 587.9466666666667 L 817.0166440363251 588.4 L 823.4083773607587 588.8266666666667 L 829.8231025316828 588.1066666666667 L 836.2838113955887 588.1066666666667 L 842.851815543118 587.7866666666666 L 849.19756517457 586.9066666666666 L 855.6276182431548 587.6533333333333 L 861.9886957722672 587.4933333333333 L 868.4110848920217 588.8266666666667 L 873.1550692179502 587.6533333333333 L 879.646433877177 588.1066666666667 L 886.0305032527802 586.9066666666666 L 892.3379331400808 586.7733333333333 L 898.8216338504774 588.1066666666667 L 905.2133671749109 585.8666666666667 L 911.5284610110418 587.6533333333333 L 917.9891698749476 588.5333333333333 L 924.495862431835 587.7866666666666 L 929.3931257343685 587.4933333333333 L 936.0684251655215 587.0666666666667 L 942.2762237180289 588.4 L 948.6679570424623 588.9866666666667 L 955.0750182645563 588.9866666666667 L 961.443759742499 588.8266666666667 L 967.9121325552351 587.36 L 975.1698920974875 587.7866666666666 L 980.5729760228179 587.36 L 987.0336848867237 587.9466666666667 L 991.923284240427 585.7333333333333 L 1004.6990869404638 587.4933333333333 L 1011.083156316067 587.36 L 1017.5745209752938 586.9066666666666 L 1024.2958040994283 588.24 L 1030.480610805445 587.6533333333333 L 1036.9259917716902 586.32 L 1043.417356430917 587.0666666666667 L 1048.751464816775 586.7733333333333 L 1054.8136483415076 587.36 L 1061.2207095636015 587.6533333333333 L 1067.6814184275074 588.5333333333333 L 1073.360404510727 587.36 L 1080.5798443088281 579.6533333333333 L 1087.009897377413 573.8666666666667 L 1093.386302804186 572.6666666666666 L 1098.1149592324539 572.24 L 1104.5220204545478 571.04 L 1110.8907619324905 585.8666666666667 L 1117.282495256924 587.0666666666667 L 1123.7125483255088 586.32 L 1130.096617701112 586.0266666666666 L 1136.3887196907522 586.4533333333334 L 1149.1032108001468 587.4933333333333 L 1155.6099033570342 588.1066666666667 L 1161.9249971931652 586.4533333333334 L 1167.2054579372116 587.4933333333333 L 1173.1680101271506 587.36 L 1179.552079502754 586.32 L 1185.966804673678 585.44 L 1192.3585379981116 585.8666666666667 L 1198.7349434248845 586.6133333333333 L 1205.1496685958089 587.6533333333333 L 1211.5567298179028 586.0266666666666 L 1218.0480944771296 585.44 L 1224.5088033410354 586.7733333333333 L 1230.961848256111 586.7733333333333 L 1235.7134965308696 586.0266666666666 L 1242.1205577529636 586.6133333333333 L 1248.4892992309065 586.7733333333333 L 1254.8043930670374 587.36 L 1261.288093777434 586.6133333333333 L 1267.672163153037 585.8666666666667 L 1274.0409046309799 585.28 L 1280.478621648395 586.32 L 1286.8780189216586 587.4933333333333 L 1294.0208192314572 585.8666666666667 L 1299.5388623892416 586.9066666666666 L 1305.9842433554868 586.7733333333333 L 1310.7588834767362 586.7733333333333 L 1323.5116943302821 587.2 L 1329.8804358082248 586.6133333333333 L 1336.2951609791492 588.6933333333334 L 1342.8248453825272 585.8666666666667 L 1349.0939555256766 587.2 L 1355.547000440752 585.7333333333333 L 1361.892750072204 586.6133333333333 L 1367.6943593367077 586.7733333333333 L 1374.7758480558643 586.4533333333334 L 1379.5811439724348 586.7733333333333 L 1385.8885738597355 587.0666666666667 L 1392.3492827236414 587.2 L 1398.8713031781892 586.0266666666666 L 1405.217052809641 587.4933333333333 L 1411.677761673547 585.7333333333333 L 1418.0618310491502 586.9066666666666 L 1424.315613294639 586.0266666666666 L 1430.753330312054 585.12 L 1437.21403917596 586.0266666666666 L 1443.536796960921 585.7333333333333 L 1448.326764979831 586.9066666666666 L 1454.8104656902276 587.6533333333333 L 1461.2251908611518 586.6133333333333 L 1467.6015962879248 586.7733333333333 L 1474.0009935611886 587.0666666666667 L 1480.392726885622 586.32 L 1486.769132312395 585.44 L 1493.176193534489 585.5733333333334 L 1499.6828860913763 585.5733333333334 L 1506.2202344435846 585.5733333333334 L 1510.8492595370592 586.32 L 1517.3252962986255 587.4933333333333 L 1523.808997009022 584.5333333333333 L 1530.1317547939832 586.32 L 1536.4928323230959 585.8666666666667 L 1542.90755749402 586.32 L 1549.3299466137746 586.4533333333334 L 1555.7293438870383 585.7333333333333 L 1567.0260044628355 585.28 L 1573.356426196627 585.8666666666667 L 1579.7328316234 585.8666666666667 L 1586.1322288966637 584.24 L 1592.6465854023813 585.44 L 1599.045982675645 584.6933333333334 L 1605.361076511776 584.5333333333333 L 1612.6111721051982 585.5733333333334 L 1618.1522071094732 584.6933333333334 L 1624.8888181312682 584.9866666666667 L 1629.6328024571967 585.7333333333333 L 1636.9825293854121 585.8666666666667 L 1642.2093424876466 586.7733333333333 L 1648.9076337652905 585.44 L 1655.3453507827055 585.44 L 1661.7294201583086 585.28 L 1667.845251324853 585.44 L 1674.1756730586444 584.5333333333333 L 1680.5827342807384 585.5733333333334 L 1686.0624576943715 585.7333333333333 L 1693.3355451342843 584.6933333333334 L 1699.9801887701162 584.9866666666667 L 1704.6015499147607 585.8666666666667 L 1710.87066005791 585.44 L 1717.2930491776644 586.16 L 1723.715438297419 585.28 L 1730.091843724192 584.9866666666667 L 1736.5218967927767 585.5733333333334 L 1742.8599824753985 585.7333333333333 L 1749.2057321068503 585.28 L 1755.6434491242653 585.5733333333334 L 1762.0505103463595 585.28 L 1768.5801947497375 584.8266666666667 L 1774.8186490975659 583.7866666666666 L 1779.6009531676457 586.16 L 1786.1766212640052 584.08 L 1792.5223708954572 584.8266666666667 L 1798.9677518617025 584.9866666666667 L 1805.3901409814569 584.24 L 1811.743554561739 584.4 L 1818.0739762955307 585.44 L 1824.4273898758129 585.8666666666667 L 1830.8804347908883 585.5733333333334 L 1837.3641355012849 584.5333333333333 L 1842.1004558783832 585.7333333333333 L 1848.4308776121745 583.4933333333333 L 1854.7459714483055 584.9866666666667 L 1861.2143442610416 585.28 L 1867.5294380971725 584.9866666666667 L 1873.9058435239454 584.5333333333333 L 1881.2325786056701 584.6933333333334 L 1893.1653469343787 584.8266666666667 L 1899.5110965658307 585.44 L 1907.0524222148024 584.8266666666667 L 1912.3252190100186 584.9866666666667 L 1917.0155556941352 584.08 L 1923.4839285068713 584.9866666666667 L 1931.1325494394669 586.16 L 1936.3133788487198 584.4 L 1942.8047435079466 585.28 L 1949.19647683238 584.6933333333334 L 1955.9024320588542 584.4 L 1961.9799434812471 583.6533333333333 L 1968.3640128568504 584.6933333333334 L 1974.7710740789444 584.24 L 1980.243133543747 585.44 L 1985.9221196269668 584.8266666666667 L 1992.3904924397027 584.8266666666667 L 1998.8358734059482 584.6933333333334 L 2011.3740936922468 583.9466666666667 L 2017.873122300304 584.6933333333334 L 2024.2341998294164 583.2 L 2030.572285512038 584.24 L 2037.063650171265 584.8266666666667 L 2043.3940719050563 585.8666666666667 L 2049.816461024811 584.9866666666667 L 2054.522125606588 583.7866666666666 L 2060.936850777512 583.7866666666666 L 2067.3439119996065 584.4 L 2073.681997682228 584.5333333333333 L 2080.127378648473 583.7866666666666 L 2086.8026780796263 585.12 L 2092.9185092461703 583.7866666666666 L 2099.287250724113 584.5333333333333 L 2105.694311946207 584.6933333333334 L 2112.1780126566036 583.9466666666667 L 2118.623393622849 584.6933333333334 L 2123.3443861022865 582.6133333333333 L 2129.7207915290596 583.6533333333333 L 2136.250475932438 583.7866666666666 L 2142.5042581779267 584.4 L 2149.033942581305 584.24 L 2155.3720282639265 583.6533333333333 L 2161.7790894860204 585.12 L 2168.224470452266 584.5333333333333 L 2174.4705887489245 583.9466666666667" stroke="#8085e9" stroke-width="2"  stroke-linejoin="round" stroke-linecap="round"></path></g><g class="highcharts-markers highcharts-series-4"  transform="translate(74,71) scale(1 1)" clip-path="none"></g><g class="highcharts-series highcharts-series-5"  transform="translate(74,71) scale(1 1)" clip-path="url(#highcharts-34)"><path fill="none" d="M 21.529411251075732 485.33333333333337 L 23.200152096071537 488 L 29.80647598775219 482.6666666666667 L 36.39747198177233 485.33333333333337 L 43.509616496249876 485.33333333333337 L 48.19228923153628 482.6666666666667 L 55.12816292291794 482.6666666666667 L 61.083051164026834 474.6666666666667 L 67.91929352061516 485.33333333333337 L 74.0581165336502 482.6666666666667 L 80.4805056534047 482.6666666666667 L 87.04850980093408 482.6666666666667 L 92.36729028913173 482.6666666666667 L 98.53676909748779 482.6666666666667 L 105.05878955203563 485.33333333333337 L 111.44285892763885 480 L 116.90725444361136 482.6666666666667 L 124.21866162767557 485.33333333333337 L 130.54141941263674 482.6666666666667 L 137.00212827654255 488 L 142.0066868626997 482.6666666666667 L 148.7586257821552 485.33333333333337 L 155.24232649255177 482.6666666666667 L 161.52676453336167 485.33333333333337 L 168.01812919258848 488 L 174.440518312343 485.33333333333337 L 179.36077346136733 485.33333333333337 L 185.89045786474543 485.33333333333337 L 192.4201422681235 480 L 198.7582279507452 485.33333333333337 L 205.13463337751818 482.6666666666667 L 211.4343993159886 485.33333333333337 L 217.9257639752154 485.33333333333337 L 223.19089682160126 485.33333333333337 L 229.6056219925255 482.6666666666667 L 236.1889540377154 485.33333333333337 L 242.74163028758426 485.33333333333337 L 249.36328207692543 482.6666666666667 L 255.76267935018916 482.6666666666667 L 260.6522787038925 488 L 267.0133562330049 485.33333333333337 L 273.2901303249846 482.6666666666667 L 279.8657984213442 482.6666666666667 L 286.34183518291053 480 L 292.9711509210819 482.6666666666667 L 299.4165318873272 488 L 305.8389210070817 482.6666666666667 L 310.728520360785 485.33333333333337 L 317.15090948053955 488 L 323.51965095848226 477.33333333333337 L 330.06466325952084 490.6666666666667 L 337.64430865264404 498.6666666666667 L 342.79448226657604 504 L 349.23219928399106 506.6666666666667 L 355.60094076193377 506.6666666666667 L 362.16894490946316 504 L 368.3537516154797 506.6666666666667 L 373.1437196343897 504 L 379.6350842936165 506.6666666666667 L 386.6475974733007 506.6666666666667 L 392.433878840144 506.6666666666667 L 398.8179482157472 506.6666666666667 L 405.1790257448597 501.33333333333337 L 418.0774516261805 506.6666666666667 L 424.4461931041232 504 L 429.47374353677117 504 L 435.81182921939285 506.6666666666667 L 442.0809393625422 501.33333333333337 L 448.4190250451639 501.33333333333337 L 454.71112703480406 501.33333333333337 L 461.2178195916914 493.33333333333337 L 467.77049584156026 488 L 474.1545652171635 493.33333333333337 L 480.5386345927667 496 L 485.5202013324331 474.6666666666667 L 491.7969754244127 488 L 498.1273971582042 480 L 504.51913048263765 434.6666666666667 L 510.92619170473165 466.6666666666667 L 517.3639087221467 482.6666666666667 L 523.7019944047684 474.6666666666667 L 530.1320474733532 466.6666666666667 L 536.4931250024656 469.33333333333337 L 542.762235145615 469.33333333333337 L 549.1846242653695 469.33333333333337 L 555.5610296921425 477.33333333333337 L 562.0064106583877 472 L 568.2372010573858 480 L 573.0961446157681 432 L 579.4648860937109 474.6666666666667 L 585.8872752134654 472 L 592.3709759238619 474.6666666666667 L 598.6477500158416 472 L 605.070139135596 480 L 611.354577176406 480 L 617.7233186543488 482.6666666666667 L 624.1533717229335 472 L 636.8295430881768 469.33333333333337 L 643.2212764126103 482.6666666666667 L 648.1491955104649 482.6666666666667 L 654.2956824723302 485.33333333333337 L 660.5647926154796 485.33333333333337 L 666.8262388097987 482.6666666666667 L 673.302275571365 477.33333333333337 L 680.7822896296949 482.6666666666667 L 686.1317259132136 482.6666666666667 L 692.4238279028538 480 L 698.7619135854754 482.6666666666667 L 705.4218851189679 482.6666666666667 L 711.4534128483793 482.6666666666667 L 717.6995311450379 480 L 724.0069610323386 485.33333333333337 L 729.8775458363147 480 L 736.7597718858846 482.6666666666667 L 741.8409699603443 485.33333333333337 L 749.888116232113 482.6666666666667 L 754.5401331720784 482.6666666666667 L 760.9165385988514 482.6666666666667 L 767.369583513927 485.33333333333337 L 773.9222597637958 485.33333333333337 L 780.306329139399 485.33333333333337 L 786.7287182591535 488 L 793.0744678906054 488 L 799.4508733173784 485.33333333333337 L 805.8426066418119 485.33333333333337 L 810.632574660722 485.33333333333337 L 817.0166440363251 485.33333333333337 L 823.4083773607587 482.6666666666667 L 829.8231025316828 485.33333333333337 L 836.2838113955887 485.33333333333337 L 842.851815543118 482.6666666666667 L 849.19756517457 485.33333333333337 L 855.6276182431548 480 L 861.9886957722672 485.33333333333337 L 868.4110848920217 485.33333333333337 L 873.1550692179502 480 L 879.646433877177 482.6666666666667 L 886.0305032527802 485.33333333333337 L 892.3379331400808 485.33333333333337 L 898.8216338504774 482.6666666666667 L 905.2133671749109 482.6666666666667 L 911.5284610110418 488 L 917.9891698749476 482.6666666666667 L 924.495862431835 485.33333333333337 L 929.3931257343685 482.6666666666667 L 936.0684251655215 488 L 942.2762237180289 485.33333333333337 L 948.6679570424623 485.33333333333337 L 955.0750182645563 480 L 961.443759742499 485.33333333333337 L 967.9121325552351 485.33333333333337 L 975.1698920974875 485.33333333333337 L 980.5729760228179 485.33333333333337 L 987.0336848867237 488 L 991.923284240427 488 L 1004.6990869404638 488 L 1011.083156316067 482.6666666666667 L 1017.5745209752938 485.33333333333337 L 1024.2958040994283 485.33333333333337 L 1030.480610805445 482.6666666666667 L 1036.9259917716902 482.6666666666667 L 1043.417356430917 488 L 1048.751464816775 488 L 1054.8136483415076 485.33333333333337 L 1061.2207095636015 482.6666666666667 L 1067.6814184275074 485.33333333333337 L 1073.360404510727 485.33333333333337 L 1080.5798443088281 482.6666666666667 L 1087.009897377413 488 L 1093.386302804186 485.33333333333337 L 1098.1149592324539 485.33333333333337 L 1104.5220204545478 485.33333333333337 L 1110.8907619324905 482.6666666666667 L 1117.282495256924 482.6666666666667 L 1123.7125483255088 485.33333333333337 L 1130.096617701112 485.33333333333337 L 1136.3887196907522 482.6666666666667 L 1149.1032108001468 482.6666666666667 L 1155.6099033570342 482.6666666666667 L 1161.9249971931652 485.33333333333337 L 1167.2054579372116 485.33333333333337 L 1173.1680101271506 488 L 1179.552079502754 485.33333333333337 L 1185.966804673678 485.33333333333337 L 1192.3585379981116 482.6666666666667 L 1198.7349434248845 488 L 1205.1496685958089 482.6666666666667 L 1211.5567298179028 485.33333333333337 L 1218.0480944771296 485.33333333333337 L 1224.5088033410354 485.33333333333337 L 1230.961848256111 485.33333333333337 L 1235.7134965308696 480 L 1242.1205577529636 488 L 1248.4892992309065 488 L 1254.8043930670374 485.33333333333337 L 1261.288093777434 482.6666666666667 L 1267.672163153037 482.6666666666667 L 1274.0409046309799 485.33333333333337 L 1280.478621648395 482.6666666666667 L 1286.8780189216586 485.33333333333337 L 1294.0208192314572 482.6666666666667 L 1299.5388623892416 474.6666666666667 L 1305.9842433554868 485.33333333333337 L 1310.7588834767362 485.33333333333337 L 1323.5116943302821 485.33333333333337 L 1329.8804358082248 482.6666666666667 L 1336.2951609791492 485.33333333333337 L 1342.8248453825272 488 L 1349.0939555256766 485.33333333333337 L 1355.547000440752 482.6666666666667 L 1361.892750072204 482.6666666666667 L 1367.6943593367077 485.33333333333337 L 1374.7758480558643 485.33333333333337 L 1379.5811439724348 485.33333333333337 L 1385.8885738597355 485.33333333333337 L 1392.3492827236414 488 L 1398.8713031781892 485.33333333333337 L 1405.217052809641 482.6666666666667 L 1411.677761673547 485.33333333333337 L 1418.0618310491502 488 L 1424.315613294639 485.33333333333337 L 1430.753330312054 485.33333333333337 L 1437.21403917596 488 L 1443.536796960921 482.6666666666667 L 1448.326764979831 485.33333333333337 L 1454.8104656902276 485.33333333333337 L 1461.2251908611518 485.33333333333337 L 1467.6015962879248 482.6666666666667 L 1474.0009935611886 477.33333333333337 L 1480.392726885622 485.33333333333337 L 1486.769132312395 488 L 1493.176193534489 485.33333333333337 L 1499.6828860913763 485.33333333333337 L 1506.2202344435846 485.33333333333337 L 1510.8492595370592 488 L 1517.3252962986255 488 L 1523.808997009022 488 L 1530.1317547939832 482.6666666666667 L 1536.4928323230959 482.6666666666667 L 1542.90755749402 485.33333333333337 L 1549.3299466137746 485.33333333333337 L 1555.7293438870383 488 L 1567.0260044628355 485.33333333333337 L 1573.356426196627 482.6666666666667 L 1579.7328316234 488 L 1586.1322288966637 485.33333333333337 L 1592.6465854023813 485.33333333333337 L 1599.045982675645 485.33333333333337 L 1605.361076511776 485.33333333333337 L 1612.6111721051982 482.6666666666667 L 1618.1522071094732 488 L 1624.8888181312682 482.6666666666667 L 1629.6328024571967 485.33333333333337 L 1636.9825293854121 485.33333333333337 L 1642.2093424876466 485.33333333333337 L 1648.9076337652905 485.33333333333337 L 1655.3453507827055 485.33333333333337 L 1661.7294201583086 485.33333333333337 L 1667.845251324853 488 L 1674.1756730586444 482.6666666666667 L 1680.5827342807384 488 L 1686.0624576943715 488 L 1693.3355451342843 485.33333333333337 L 1699.9801887701162 485.33333333333337 L 1704.6015499147607 482.6666666666667 L 1710.87066005791 485.33333333333337 L 1717.2930491776644 482.6666666666667 L 1723.715438297419 482.6666666666667 L 1730.091843724192 482.6666666666667 L 1736.5218967927767 485.33333333333337 L 1742.8599824753985 488 L 1749.2057321068503 482.6666666666667 L 1755.6434491242653 482.6666666666667 L 1762.0505103463595 482.6666666666667 L 1768.5801947497375 485.33333333333337 L 1774.8186490975659 485.33333333333337 L 1779.6009531676457 477.33333333333337 L 1786.1766212640052 485.33333333333337 L 1792.5223708954572 482.6666666666667 L 1798.9677518617025 485.33333333333337 L 1805.3901409814569 482.6666666666667 L 1811.743554561739 485.33333333333337 L 1818.0739762955307 485.33333333333337 L 1824.4273898758129 482.6666666666667 L 1830.8804347908883 485.33333333333337 L 1837.3641355012849 485.33333333333337 L 1842.1004558783832 480 L 1848.4308776121745 485.33333333333337 L 1854.7459714483055 480 L 1861.2143442610416 485.33333333333337 L 1867.5294380971725 485.33333333333337 L 1873.9058435239454 485.33333333333337 L 1881.2325786056701 482.6666666666667 L 1893.1653469343787 488 L 1899.5110965658307 485.33333333333337 L 1907.0524222148024 482.6666666666667 L 1912.3252190100186 482.6666666666667 L 1917.0155556941352 485.33333333333337 L 1923.4839285068713 488 L 1931.1325494394669 485.33333333333337 L 1936.3133788487198 482.6666666666667 L 1942.8047435079466 482.6666666666667 L 1949.19647683238 485.33333333333337 L 1955.9024320588542 485.33333333333337 L 1961.9799434812471 485.33333333333337 L 1968.3640128568504 488 L 1974.7710740789444 482.6666666666667 L 1980.243133543747 485.33333333333337 L 1985.9221196269668 488 L 1992.3904924397027 488 L 1998.8358734059482 488 L 2011.3740936922468 485.33333333333337 L 2017.873122300304 485.33333333333337 L 2024.2341998294164 485.33333333333337 L 2030.572285512038 485.33333333333337 L 2037.063650171265 485.33333333333337 L 2043.3940719050563 488 L 2049.816461024811 482.6666666666667 L 2054.522125606588 485.33333333333337 L 2060.936850777512 485.33333333333337 L 2067.3439119996065 482.6666666666667 L 2073.681997682228 485.33333333333337 L 2080.127378648473 485.33333333333337 L 2086.8026780796263 480 L 2092.9185092461703 482.6666666666667 L 2099.287250724113 482.6666666666667 L 2105.694311946207 482.6666666666667 L 2112.1780126566036 485.33333333333337 L 2118.623393622849 488 L 2123.3443861022865 485.33333333333337 L 2129.7207915290596 482.6666666666667 L 2136.250475932438 485.33333333333337 L 2142.5042581779267 482.6666666666667 L 2149.033942581305 485.33333333333337 L 2155.3720282639265 485.33333333333337 L 2161.7790894860204 474.6666666666667 L 2168.224470452266 485.33333333333337 L 2174.4705887489245 469.33333333333337" stroke="#f15c80" stroke-width="2"  stroke-linejoin="round" stroke-linecap="round"></path></g><g class="highcharts-markers highcharts-series-5"  transform="translate(74,71) scale(1 1)" clip-path="none"></g></g><text x="1140" text-anchor="middle" class="highcharts-title"  style="color:#333333;font-size:18px;fill:#333333;width:2216px;" y="24"><tspan>Environmental Sensor Feed</tspan></text><text x="1140" text-anchor="middle" class="highcharts-subtitle"  style="color:#555555;fill:#555555;width:2216px;" y="52"><tspan>2019-11-30 16:37:33</tspan></text><g class="highcharts-legend"  transform="translate(848,732)"><rect x="0.5" y="0.5" width="582" height="52" strokeWidth="1" stroke="#C98657" stroke-width="1" fill="#FCFFC5" visibility="visible"></rect><g  transform="translate(0,24.399999618530273)"><g><g class="highcharts-legend-item"  transform="translate(8,3)"><path fill="none" d="M 0 11 L 16 11" stroke="#7cb5ec" stroke-width="2"></path><path fill="#7cb5ec" d="M 8 7 C 13.328 7 13.328 15 8 15 C 2.6719999999999997 15 2.6719999999999997 7 8 7 Z"></path><text x="21" style="color:#333333;font-size:12px;font-weight:bold;cursor:pointer;fill:#333333;" text-anchor="start"  y="15">Humidity</text></g><g class="highcharts-legend-item"  transform="translate(104,3)"><path fill="none" d="M 0 11 L 16 11" stroke="#434348" stroke-width="2"></path><path fill="#434348" d="M 8 7 L 12 11 8 15 4 11 Z"></path><text x="21" y="15" style="color:#333333;font-size:12px;font-weight:bold;cursor:pointer;fill:#333333;" text-anchor="start" >Temperature</text></g><g class="highcharts-legend-item"  transform="translate(222.75,3)"><path fill="none" d="M 0 11 L 16 11" stroke="#CCC" stroke-width="2"></path><path fill="#CCC" d="M 4 7 L 12 7 12 15 4 15 Z"></path><text x="21" y="15" style="color:#ccc;font-size:12px;font-weight:bold;cursor:pointer;fill:#ccc;" text-anchor="start" >Pressure</text></g><g class="highcharts-legend-item"  transform="translate(315.1666679382324,3)"><path fill="none" d="M 0 11 L 16 11" stroke="#f7a35c" stroke-width="2"></path><path fill="#f7a35c" d="M 8 7 L 12 15 4 15 Z"></path><text x="21" y="15" style="color:#333333;font-size:12px;font-weight:bold;cursor:pointer;fill:#333333;" text-anchor="start" >Light</text></g><g class="highcharts-legend-item"  transform="translate(386.6500015258789,3)"><path fill="none" d="M 0 11 L 16 11" stroke="#8085e9" stroke-width="2"></path><path fill="#8085e9" d="M 4 7 L 12 7 8 15 Z"></path><text x="21" y="15" style="color:#333333;font-size:12px;font-weight:bold;cursor:pointer;fill:#333333;" text-anchor="start" ><tspan>IR Temperature</tspan></text></g><g class="highcharts-legend-item"  transform="translate(520.4500045776367,3)"><path fill="none" d="M 0 11 L 16 11" stroke="#f15c80" stroke-width="2"></path><path fill="#f15c80" d="M 8 7 C 13.328 7 13.328 15 8 15 C 2.6719999999999997 15 2.6719999999999997 7 8 7 Z"></path><text x="21" y="15" style="color:#333333;font-size:12px;font-weight:bold;cursor:pointer;fill:#333333;" text-anchor="start" >Noise</text></g></g></g><g class="highcharts-legend-title"  style="" transform="translate(5,4)"><text x="3"  style="font-weight:bold;" y="15"><tspan>Select/Deselect Series to Display:</tspan></text></g></g><g class="highcharts-axis-labels highcharts-xaxis-labels" ><text x="138.7617466025497" style="color:#606060;cursor:default;font-size:11px;fill:#606060;" text-anchor="middle" transform="translate(0,0)" y="690" opacity="1">16:37:40</text><text x="215.40123490510948" style="color:#606060;cursor:default;font-size:11px;fill:#606060;" text-anchor="middle" transform="translate(0,0)" y="690" opacity="1">16:37:50</text><text x="292.0407232076692" style="color:#606060;cursor:default;font-size:11px;fill:#606060;" text-anchor="middle" transform="translate(0,0)" y="690" opacity="1">16:38:00</text><text x="368.680211510229" style="color:#606060;cursor:default;font-size:11px;fill:#606060;" text-anchor="middle" transform="translate(0,0)" y="690" opacity="1">16:38:10</text><text x="445.31969981278877" style="color:#606060;cursor:default;font-size:11px;fill:#606060;" text-anchor="middle" transform="translate(0,0)" y="690" opacity="1">16:38:20</text><text x="521.9591881153485" style="color:#606060;cursor:default;font-size:11px;fill:#606060;" text-anchor="middle" transform="translate(0,0)" y="690" opacity="1">16:38:30</text><text x="598.5986764179083" style="color:#606060;cursor:default;font-size:11px;fill:#606060;" text-anchor="middle" transform="translate(0,0)" y="690" opacity="1">16:38:40</text><text x="675.2381647204681" style="color:#606060;cursor:default;font-size:11px;fill:#606060;" text-anchor="middle" transform="translate(0,0)" y="690" opacity="1">16:38:50</text><text x="751.8776530230278" style="color:#606060;cursor:default;font-size:11px;fill:#606060;" text-anchor="middle" transform="translate(0,0)" y="690" opacity="1">16:39:00</text><text x="828.5171413255877" style="color:#606060;cursor:default;font-size:11px;fill:#606060;" text-anchor="middle" transform="translate(0,0)" y="690" opacity="1">16:39:10</text><text x="905.1566296281474" style="color:#606060;cursor:default;font-size:11px;fill:#606060;" text-anchor="middle" transform="translate(0,0)" y="690" opacity="1">16:39:20</text><text x="981.7961179307072" style="color:#606060;cursor:default;font-size:11px;fill:#606060;" text-anchor="middle" transform="translate(0,0)" y="690" opacity="1">16:39:30</text><text x="1058.435606233267" style="color:#606060;cursor:default;font-size:11px;fill:#606060;" text-anchor="middle" transform="translate(0,0)" y="690" opacity="1">16:39:40</text><text x="1135.0750945358268" style="color:#606060;cursor:default;font-size:11px;fill:#606060;" text-anchor="middle" transform="translate(0,0)" y="690" opacity="1">16:39:50</text><text x="1211.7145828383866" style="color:#606060;cursor:default;font-size:11px;fill:#606060;" text-anchor="middle" transform="translate(0,0)" y="690" opacity="1">16:40:00</text><text x="1288.3540711409462" style="color:#606060;cursor:default;font-size:11px;fill:#606060;" text-anchor="middle" transform="translate(0,0)" y="690" opacity="1">16:40:10</text><text x="1364.993559443506" style="color:#606060;cursor:default;font-size:11px;fill:#606060;" text-anchor="middle" transform="translate(0,0)" y="690" opacity="1">16:40:20</text><text x="1441.6330477460658" style="color:#606060;cursor:default;font-size:11px;fill:#606060;" text-anchor="middle" transform="translate(0,0)" y="690" opacity="1">16:40:30</text><text x="1518.2725360486256" style="color:#606060;cursor:default;font-size:11px;fill:#606060;" text-anchor="middle" transform="translate(0,0)" y="690" opacity="1">16:40:40</text><text x="1594.9120243511854" style="color:#606060;cursor:default;font-size:11px;fill:#606060;" text-anchor="middle" transform="translate(0,0)" y="690" opacity="1">16:40:50</text><text x="1671.551512653745" style="color:#606060;cursor:default;font-size:11px;fill:#606060;" text-anchor="middle" transform="translate(0,0)" y="690" opacity="1">16:41:00</text><text x="1748.1910009563048" style="color:#606060;cursor:default;font-size:11px;fill:#606060;" text-anchor="middle" transform="translate(0,0)" y="690" opacity="1">16:41:10</text><text x="1824.8304892588646" style="color:#606060;cursor:default;font-size:11px;fill:#606060;" text-anchor="middle" transform="translate(0,0)" y="690" opacity="1">16:41:20</text><text x="1901.4699775614245" style="color:#606060;cursor:default;font-size:11px;fill:#606060;" text-anchor="middle" transform="translate(0,0)" y="690" opacity="1">16:41:30</text><text x="1978.1094658639843" style="color:#606060;cursor:default;font-size:11px;fill:#606060;" text-anchor="middle" transform="translate(0,0)" y="690" opacity="1">16:41:40</text><text x="2054.748954166544" style="color:#606060;cursor:default;font-size:11px;fill:#606060;" text-anchor="middle" transform="translate(0,0)" y="690" opacity="1">16:41:50</text><text x="2131.3884424691037" style="color:#606060;cursor:default;font-size:11px;fill:#606060;" text-anchor="middle" transform="translate(0,0)" y="690" opacity="1">16:42:00</text><text x="2208.0279307716637" style="color:#606060;cursor:default;font-size:11px;fill:#606060;" text-anchor="middle" transform="translate(0,0)" y="690" opacity="1">16:42:10</text></g><g class="highcharts-axis-labels highcharts-yaxis-labels" ><text x="59" style="color:#606060;cursor:default;font-size:11px;fill:#606060;width:742px;text-overflow:clip;" text-anchor="end" transform="translate(0,0)" y="674" opacity="1">0</text><text x="59" style="color:#606060;cursor:default;font-size:11px;fill:#606060;width:742px;text-overflow:clip;" text-anchor="end" transform="translate(0,0)" y="607" opacity="1">25</text><text x="59" style="color:#606060;cursor:default;font-size:11px;fill:#606060;width:742px;text-overflow:clip;" text-anchor="end" transform="translate(0,0)" y="540" opacity="1">50</text><text x="59" style="color:#606060;cursor:default;font-size:11px;fill:#606060;width:742px;text-overflow:clip;" text-anchor="end" transform="translate(0,0)" y="474" opacity="1">75</text><text x="59" style="color:#606060;cursor:default;font-size:11px;fill:#606060;width:742px;text-overflow:clip;" text-anchor="end" transform="translate(0,0)" y="407" opacity="1">100</text><text x="59" style="color:#606060;cursor:default;font-size:11px;fill:#606060;width:742px;text-overflow:clip;" text-anchor="end" transform="translate(0,0)" y="340" opacity="1">125</text><text x="59" style="color:#606060;cursor:default;font-size:11px;fill:#606060;width:742px;text-overflow:clip;" text-anchor="end" transform="translate(0,0)" y="274" opacity="1">150</text><text x="59" style="color:#606060;cursor:default;font-size:11px;fill:#606060;width:742px;text-overflow:clip;" text-anchor="end" transform="translate(0,0)" y="207" opacity="1">175</text><text x="59" style="color:#606060;cursor:default;font-size:11px;fill:#606060;width:742px;text-overflow:clip;" text-anchor="end" transform="translate(0,0)" y="140" opacity="1">200</text><text x="59" style="color:#606060;cursor:default;font-size:11px;fill:#606060;width:742px;text-overflow:clip;" text-anchor="end" transform="translate(0,0)" y="74" opacity="1">225</text></g><g class="highcharts-tooltip"  style="cursor:default;padding:0;pointer-events:none;white-space:nowrap;" transform="translate(0,-9999)"><path fill="none" d="M 3.5 0.5 L 13.5 0.5 C 16.5 0.5 16.5 0.5 16.5 3.5 L 16.5 13.5 C 16.5 16.5 16.5 16.5 13.5 16.5 L 3.5 16.5 C 0.5 16.5 0.5 16.5 0.5 13.5 L 0.5 3.5 C 0.5 0.5 0.5 0.5 3.5 0.5"  stroke="black" stroke-opacity="0.049999999999999996" stroke-width="5" transform="translate(1, 1)"></path><path fill="none" d="M 3.5 0.5 L 13.5 0.5 C 16.5 0.5 16.5 0.5 16.5 3.5 L 16.5 13.5 C 16.5 16.5 16.5 16.5 13.5 16.5 L 3.5 16.5 C 0.5 16.5 0.5 16.5 0.5 13.5 L 0.5 3.5 C 0.5 0.5 0.5 0.5 3.5 0.5"  stroke="black" stroke-opacity="0.09999999999999999" stroke-width="3" transform="translate(1, 1)"></path><path fill="none" d="M 3.5 0.5 L 13.5 0.5 C 16.5 0.5 16.5 0.5 16.5 3.5 L 16.5 13.5 C 16.5 16.5 16.5 16.5 13.5 16.5 L 3.5 16.5 C 0.5 16.5 0.5 16.5 0.5 13.5 L 0.5 3.5 C 0.5 0.5 0.5 0.5 3.5 0.5"  stroke="black" stroke-opacity="0.15" stroke-width="1" transform="translate(1, 1)"></path><path fill="rgb(249, 249, 249)" fill-opacity=" .85" d="M 3.5 0.5 L 13.5 0.5 C 16.5 0.5 16.5 0.5 16.5 3.5 L 16.5 13.5 C 16.5 16.5 16.5 16.5 13.5 16.5 L 3.5 16.5 C 0.5 16.5 0.5 16.5 0.5 13.5 L 0.5 3.5 C 0.5 0.5 0.5 0.5 3.5 0.5"></path><text x="8"  style="font-size:12px;color:#333333;fill:#333333;" y="20"></text></g><text x="2270" text-anchor="end"  style="cursor:pointer;color:#909090;font-size:9px;fill:#909090;" y="795"></text></svg>