<svg xmlns:xlink="http://www.w3.org/1999/xlink" version="1.1" style="font-family:'lucida grande', 'lucida sans unicode', arial, helvetica, sans-serif;font-size:12px;" xmlns="http://www.w3.org/2000/svg" width="2280" height="800"><desc>Created with Highcharts 4.2.1 /Highstock 4.2.1</desc><defs><clipPath id="highcharts-34"><rect x="0" y="0" width="2195" height="599"></rect></clipPath></defs><rect x="0" y="0" width="2280" height="800" strokeWidth="0" fill="#FFFFFF" class=" highcharts-background"></rect><g class="highcharts-grid" ></g><g class="highcharts-grid" ><path fill="none" d="M 75 671.5 L 2270 671.5" stroke="#D8D8D8" stroke-width="1"  opacity="1"></path><path fill="none" d="M 75 621.5 L 2270 621.5" stroke="#D8D8D8" stroke-width="1"  opacity="1"></path><path fill="none" d="M 75 571.5 L 2270 571.5" stroke="#D8D8D8" stroke-width="1"  opacity="1"></path><path fill="none" d="M 75 521.5 L 2270 521.5" stroke="#D8D8D8" stroke-width="1"  opacity="1"></path><path fill="none" d="M 75 471.5 L 2270 471.5" stroke="#D8D8D8" stroke-width="1"  opacity="1"></path><path fill="none" d="M 75 421.5 L 2270 421.5" stroke="#D8D8D8" stroke-width="1"  opacity="1"></path><path fill="none" d="M 75 372.5 L 2270 372.5" stroke="#D8D8D8" stroke-width="1"  opacity="1"></path><path fill="none" d="M 75 322.5 L 2270 322.5" stroke="#D8D8D8" stroke-width="1"  opacity="1"></path><path fill="none" d="M 75 272.5 L 2270 272.5" stroke="#D8D8D8" stroke-width="1"  opacity="1"></path><path fill="none" d="M 75 222.5 L 2270 222.5" stroke="#D8D8D8" stroke-width="1"  opacity="1"></path><path fill="none" d="M 75 172.5 L 2270 172.5" stroke="#D8D8D8" stroke-width="1"  opacity="1"></path><path fill="none" d="M 75 122.5 L 2270 122.5" stroke="#D8D8D8" stroke-width="1"  opacity="1"></path><path fill="none" d="M 75 71.5 L 2270 71.5" stroke="#D8D8D8" stroke-width="1"  opacity="1"></path></g><g class="highcharts-axis" ><path fill="none" d="M 137.5 671 L 137.5 681" stroke="#C0D0E0" stroke-width="1" opacity="1"></path><path fill="none" d="M 212.5 671 L 212.5 681" stroke="#C0D0E0" stroke-width="1" opacity="1"></path><path fill="none" d="M 287.5 671 L 287.5 681" stroke="#C0D0E0" stroke-width="1" opacity="1"></path><path fill="none" d="M 362.5 671 L 362.5 681" stroke="#C0D0E0" stroke-width="1" opacity="1"></path><path fill="none" d="M 436.5 671 L 436.5 681" stroke="#C0D0E0" stroke-width="1" opacity="1"></path><path fill="none" d="M 511.5 671 L 511.5 681" stroke="#C0D0E0" stroke-width="1" opacity="1"></path><path fill="none" d="M 586.5 671 L 586.5 681" stroke="#C0D0E0" stroke-width="1" opacity="1"></path><path fill="none" d="M 661.5 671 L 661.5 681" stroke="#C0D0E0" stroke-width="1" opacity="1"></path><path fill="none" d="M 736.5 671 L 736.5 681" stroke="#C0D0E0" stroke-width="1" opacity="1"></path><path fill="none" d="M 810.5 671 L 810.5 681" stroke="#C0D0E0" stroke-width="1" opacity="1"></path><path fill="none" d="M 885.5 671 L 885.5 681" stroke="#C0D0E0" stroke-width="1" opacity="1"></path><path fill="none" d="M 960.5 671 L 960.5 681" stroke="#C0D0E0" stroke-width="1" opacity="1"></path><path fill="none" d="M 1035.5 671 L 1035.5 681" stroke="#C0D0E0" stroke-width="1" opacity="1"></path><path fill="none" d="M 1109.5 671 L 1109.5 681" stroke="#C0D0E0" stroke-width="1" opacity="1"></path><path fill="none" d="M 1184.5 671 L 1184.5 681" stroke="#C0D0E0" stroke-width="1" opacity="1"></path><path fill="none" d="M 1259.5 671 L 1259.5 681" stroke="#C0D0E0" stroke-width="1" opacity="1"></path><path fill="none" d="M 1334.5 671 L 1334.5 681" stroke="#C0D0E0" stroke-width="1" opacity="1"></path><path fill="none" d="M 1409.5 671 L 1409.5 681" stroke="#C0D0E0" stroke-width="1" opacity="1"></path><path fill="none" d="M 1483.5 671 L 1483.5 681" stroke="#C0D0E0" stroke-width="1" opacity="1"></path><path fill="none" d="M 1558.5 671 L 1558.5 681" stroke="#C0D0E0" stroke-width="1" opacity="1"></path><path fill="none" d="M 1633.5 671 L 1633.5 681" stroke="#C0D0E0" stroke-width="1" opacity="1"></path><path fill="none" d="M 1708.5 671 L 1708.5 681" stroke="#C0D0E0" stroke-width="1" opacity="1"></path><path fill="none" d="M 1782.5 671 L 1782.5 681" stroke="#C0D0E0" stroke-width="1" opacity="1"></path><path fill="none" d="M 1857.5 671 L 1857.5 681" stroke="#C0D0E0" stroke-width="1" opacity="1"></path><path fill="none" d="M 1932.5 671 L 1932.5 681" stroke="#C0D0E0" stroke-width="1" opacity="1"></path><path fill="none" d="M 2007.5 671 L 2007.5 681" stroke="#C0D0E0" stroke-width="1" opacity="1"></path><path fill="none" d="M 2082.5 671 L 2082.5 681" stroke="#C0D0E0" stroke-width="1" opacity="1"></path><path fill="none" d="M 2156.5 671 L 2156.5 681" stroke="#C0D0E0" stroke-width="1" opacity="1"></path><path fill="none" d="M 2231.5 671 L 2231.5 681" stroke="#C0D0E0" stroke-width="1" opacity="1"></path><text x="1172.5"  text-anchor="middle" transform="translate(0,0)" class=" highcharts-xaxis-title" style="color:#707070;fill:#707070;" y="712.8125">Time</text><path fill="none" d="M 75 671.5 L 2270 671.5" stroke="#C0D0E0" stroke-width="1" ></path></g><g class="highcharts-axis" ><text x="28.875"  text-anchor="middle" transform="translate(0,0) rotate(270 28.875 371.5)" class=" highcharts-yaxis-title" style="color:#707070;fill:#707070;" y="371.5">Values</text></g><g class="highcharts-series-group" ><g class="highcharts-series highcharts-series-0"  transform="translate(75,72) scale(1 1)" clip-path="url(#highcharts-34)"><path fill="none" d="M 21.519606984039093 519.1333333333333 L 25.931385320032373 519.1333333333333 L 31.90598004962327 519.1333333333333 L 37.94039550241408 520.1316666666667 L 43.900035051205 520.1316666666667 L 49.882107371195886 520.1316666666667 L 55.8492245103868 520.1316666666667 L 61.93598309597753 521.13 L 67.90310023516844 521.13 L 73.90760532635929 521.13 L 79.8822000559502 522.1283333333333 L 85.85679478554108 522.1283333333333 L 91.84634469593196 522.1283333333333 L 97.80598424472288 522.1283333333333 L 105.29852982551147 522.1283333333333 L 111.28060214550236 522.1283333333333 L 117.24771928469328 523.1266666666667 L 123.24474678548414 523.1266666666667 L 129.21186392467504 523.1266666666667 L 135.19393624466593 523.1266666666667 L 141.15357579345684 523.1266666666667 L 147.18051365584768 523.1266666666667 L 153.1326756142386 523.1266666666667 L 159.08483757262954 524.125 L 165.10429784462036 524.125 L 171.0564598030113 524.125 L 177.07592007500213 524.125 L 184.53107770379077 524.125 L 190.82720882058118 524.125 L 196.51017752457253 524.125 L 202.4997274349634 524.125 L 208.4743221645543 524.125 L 214.8452291853446 525.1233333333333 L 220.4160340333361 525.1233333333333 L 226.38315117252702 525.1233333333333 L 232.4325218061178 525.1233333333333 L 238.61648906690837 525.1233333333333 L 244.36675608449963 525.1233333333333 L 250.30396286209057 525.1233333333333 L 257.8338963948791 525.1233333333333 L 269.81299621566086 525.1233333333333 L 275.72777022205184 525.1233333333333 L 281.69488736124276 525.1233333333333 L 287.6919148620336 525.1233333333333 L 293.70389754362446 525.1233333333333 L 299.6560595020154 525.1233333333333 L 305.6829973644062 525.1233333333333 L 311.65011450359714 525.1233333333333 L 317.6022764619881 525.1233333333333 L 323.561916010779 525.1233333333333 L 331.0918495435675 525.1233333333333 L 337.04401150195844 525.1233333333333 L 342.9961734603494 525.1233333333333 L 349.0754544555401 525.1233333333333 L 355.0126612331311 525.1233333333333 L 360.95734560112203 525.1233333333333 L 367.0216714155128 525.1233333333333 L 372.89157987950387 526.1216666666667 L 378.9484281034946 525.1233333333333 L 384.91554524268554 525.1233333333333 L 390.8677072010764 525.1233333333333 L 396.8647347018673 525.1233333333333 L 402.8991501546581 525.1233333333333 L 408.84383452264905 525.1233333333333 L 416.3887232362376 525.1233333333333 L 422.3483627850285 525.1233333333333 L 428.22574883941957 525.1233333333333 L 434.37232814821016 525.1233333333333 L 440.3020573354012 525.1233333333333 L 446.291607245792 525.1233333333333 L 452.24376920418297 525.1233333333333 L 458.26322947617376 525.1233333333333 L 464.20043625376474 524.125 L 470.3320603817554 524.125 L 476.1870136649465 524.125 L 482.1017876713375 524.125 L 488.1287255337283 524.125 L 495.6137935241169 524.125 L 501.6482089769077 524.125 L 507.48820707929883 524.125 L 513.5899208456896 523.1266666666667 L 519.5794707560804 523.1266666666667 L 525.6437965704712 523.1266666666667 L 531.5436153960621 523.1266666666667 L 537.4808221736531 523.1266666666667 L 543.4628944936441 523.1266666666667 L 549.5421754888347 523.1266666666667 L 555.4345167240258 523.1266666666667 L 561.5437080808165 523.1266666666667 L 568.9166122152052 523.1266666666667 L 574.8762517639962 523.1266666666667 L 580.8358913127871 523.1266666666667 L 586.803008451978 523.1266666666667 L 592.8224687239688 523.1266666666667 L 598.7521979111598 523.1266666666667 L 604.7193150503507 523.1266666666667 L 610.8210288167414 523.1266666666667 L 616.6610269191325 523.1266666666667 L 622.6730096007234 524.125 L 628.6476043303143 524.125 L 634.6221990599051 524.125 L 642.1072670502938 524.125 L 648.1042945510846 524.125 L 654.0489789190756 524.125 L 660.1581702758663 524.125 L 666.0280787398573 524.125 L 671.9951958790482 525.1233333333333 L 678.0819544646389 525.1233333333333 L 684.0640267846298 525.1233333333333 L 689.9638456102208 525.1233333333333 L 695.9384403398117 525.1233333333333 L 701.9429454310026 525.1233333333333 L 707.9250177509934 525.1233333333333 L 713.9444780229843 525.1233333333333 L 721.3472925189731 525.1233333333333 L 727.4340511045638 525.1233333333333 L 733.3936906533547 525.1233333333333 L 739.3981957445455 525.1233333333333 L 745.3578352933365 525.1233333333333 L 751.2800868901274 525.1233333333333 L 757.3444127045182 525.1233333333333 L 763.3115298437091 525.1233333333333 L 769.2786469829 525.1233333333333 L 775.3354952068908 525.1233333333333 L 781.2727019844817 525.1233333333333 L 787.2173863524727 525.1233333333333 L 794.6276784388614 525.1233333333333 L 800.6920042532522 525.1233333333333 L 806.659121392443 525.1233333333333 L 812.9552525092334 525.1233333333333 L 818.6606539844248 525.1233333333333 L 824.6576814852157 525.1233333333333 L 830.6023658532066 525.1233333333333 L 836.6442588963974 525.1233333333333 L 842.5665104931884 525.1233333333333 L 848.5111948611793 525.1233333333333 L 854.5306551331702 525.1233333333333 L 860.8342638403606 525.1233333333333 L 866.4873221827519 525.1233333333333 L 873.9873453539406 525.1233333333333 L 879.9619400835314 525.1233333333333 L 885.9365348131223 525.1233333333333 L 891.9111295427132 525.1233333333333 L 897.938067405104 525.1233333333333 L 903.875274182695 525.1233333333333 L 909.8423913218859 525.1233333333333 L 915.7945532802768 524.125 L 921.7915807810676 524.125 L 927.8035634626585 524.125 L 933.7258150594495 524.125 L 939.7751856930403 524.125 L 947.2452985026289 524.125 L 953.2348484130198 524.125 L 959.2543086850106 524.125 L 965.1915154626016 524.125 L 971.1361998305925 524.125 L 977.0883617889834 524.125 L 983.1078220609743 524.125 L 989.0973719713652 524.125 L 995.101877062556 524.125 L 1001.024128659347 524.125 L 1006.9912457985379 524.125 L 1013.0181836609287 524.125 L 1020.5107292417173 524.125 L 1026.500279152108 524.125 L 1032.4449635200992 524.125 L 1038.41208065929 524.125 L 1044.5137944256808 524.125 L 1050.3911804800719 524.125 L 1056.3882079808627 524.125 L 1062.3478475296536 524.125 L 1068.3448750304444 524.125 L 1074.2970369888353 524.125 L 1080.548302563226 524.125 L 1086.2761368096171 524.125 L 1092.3554178048078 524.125 L 1100.0872462783962 524.125 L 1105.6954390783876 524.125 L 1111.7672424831783 524.125 L 1117.6745388991692 524.125 L 1123.81364061756 524.125 L 1129.646161129551 523.1266666666667 L 1136.0843664639413 523.1266666666667 L 1141.6402161311328 523.1266666666667 L 1147.8167058015233 523.1266666666667 L 1153.6940918559144 523.1266666666667 L 1159.6312986335054 523.1266666666667 L 1165.6058933630964 523.1266666666667 L 1171.640308815887 523.1266666666667 L 1179.1328543966756 523.1266666666667 L 1184.9803300894669 523.1266666666667 L 1191.1269093982573 523.1266666666667 L 1196.9893402718485 523.1266666666667 L 1203.0387109054393 523.1266666666667 L 1208.9460073214302 523.1266666666667 L 1214.950512412621 523.1266666666667 L 1220.9550175038119 523.1266666666667 L 1226.9520450046027 523.1266666666667 L 1232.8967293725939 523.1266666666667 L 1238.8488913309848 523.1266666666667 L 1246.3638696829732 523.1266666666667 L 1252.375852364564 523.1266666666667 L 1258.320536732555 523.1266666666667 L 1264.287653871746 523.1266666666667 L 1270.3295469149368 523.1266666666667 L 1276.3340520061276 523.1266666666667 L 1282.2189156509187 523.1266666666667 L 1288.2159431517096 523.1266666666667 L 1294.1755827005004 522.1283333333333 L 1300.1426998396914 522.1283333333333 L 1306.1172945692822 522.1283333333333 L 1312.1367548412732 522.1283333333333 L 1318.1188271612639 522.1283333333333 L 1325.6263279228526 522.1283333333333 L 1331.6158778332433 522.1283333333333 L 1337.5530846108343 522.1283333333333 L 1343.5127241596253 522.1283333333333 L 1349.5097516604162 522.1283333333333 L 1355.484346390007 522.1283333333333 L 1361.4813738907978 522.1283333333333 L 1367.441013439589 522.1283333333333 L 1373.4081305787797 522.1283333333333 L 1379.3902028987707 522.1283333333333 L 1385.3573200379615 522.1283333333333 L 1391.3618251291523 522.1283333333333 L 1398.921669023541 522.1283333333333 L 1404.8364430299318 522.1283333333333 L 1416.7856324891136 522.1283333333333 L 1422.7303168571045 522.1283333333333 L 1428.7497771290955 522.1283333333333 L 1440.855995986677 522.1283333333333 L 1446.6810389082682 522.1283333333333 L 1452.745364722659 522.1283333333333 L 1464.7244645434407 522.1283333333333 L 1470.6990592730315 521.13 L 1478.1168289498203 521.13 L 1484.166199583411 521.13 L 1490.1333167226019 521.13 L 1496.1752097657927 521.13 L 1502.0974613625838 521.13 L 1508.0944888633746 521.13 L 1514.0989939545655 521.13 L 1520.1558421785562 521.13 L 1526.0780937753473 521.13 L 1532.0227781433382 521.13 L 1538.019805644129 521.13 L 1543.9869227833199 521.13 L 1551.4495580025084 521.13 L 1557.4391079128993 521.13 L 1563.68289589689 521.13 L 1569.3957749624813 521.13 L 1575.4825335480718 521.13 L 1581.359919602463 521.13 L 1587.3120815608538 521.13 L 1593.3240642424448 521.13 L 1599.2762262008357 521.13 L 1605.2582985208264 521.13 L 1611.2403708408174 521.13 L 1617.2000103896085 521.13 L 1623.2269482519991 521.13 L 1630.7344490135877 521.13 L 1636.6641782007787 521.13 L 1642.6612057015695 521.13 L 1649.8621252567586 521.13 L 1654.5804847991515 521.13 L 1660.5999450711422 521.13 L 1666.552107029533 521.13 L 1678.5910275735148 520.1316666666667 L 1684.5207567607058 520.1316666666667 L 1690.4878738998966 520.1316666666667 L 1703.9699693910761 520.1316666666667 L 1709.914653759067 520.1316666666667 L 1716.0612330678578 520.1316666666667 L 1727.8833034902398 520.1316666666667 L 1733.8279878582307 520.1316666666667 L 1740.0119551190212 520.1316666666667 L 1745.522939243813 520.1316666666667 L 1751.8564583126033 520.1316666666667 L 1757.7787099093941 520.1316666666667 L 1763.730871867785 520.1316666666667 L 1769.750332139776 520.1316666666667 L 1777.2653104917645 520.1316666666667 L 1783.1800844981556 520.1316666666667 L 1789.1845895893464 520.1316666666667 L 1795.1068411861374 520.1316666666667 L 1801.1786445909281 520.1316666666667 L 1807.093418597319 520.1316666666667 L 1813.06053573651 520.1316666666667 L 1819.0799960085008 520.1316666666667 L 1825.1293666420916 520.1316666666667 L 1831.0067526964826 520.1316666666667 L 1836.9888250164736 520.1316666666667 L 1843.0606284212643 520.1316666666667 L 1850.493353278853 520.1316666666667 L 1856.438037646844 520.1316666666667 L 1862.3827220148348 520.1316666666667 L 1868.4470478292255 520.1316666666667 L 1874.4665081012165 520.1316666666667 L 1880.4411028308073 520.1316666666667 L 1886.3932647891984 520.1316666666667 L 1892.442635422789 520.1316666666667 L 1898.38731979078 520.1316666666667 L 1904.391824881971 520.1316666666667 L 1910.3365092499619 520.1316666666667 L 1916.3559695219526 520.1316666666667 L 1922.3081314803435 520.1316666666667 L 1929.7857218803322 520.1316666666667 L 1941.682568206714 519.1333333333333 L 1948.0160872755043 519.1333333333333 L 1953.7214887506957 519.1333333333333 L 1965.6632006194775 519.1333333333333 L 1971.6452729394684 519.1333333333333 L 1977.6572556210592 519.1333333333333 L 1984.7385337298485 519.1333333333333 L 1989.5765347186411 519.1333333333333 L 1995.528696677032 519.1333333333333 L 2003.0436750290205 519.1333333333333 L 2015.0152972594024 519.1333333333333 L 2020.9824143985932 519.1333333333333 L 2026.9495315377842 519.1333333333333 L 2032.6025898801756 519.1333333333333 L 2038.9136761777659 519.1333333333333 L 2044.880793316957 519.1333333333333 L 2050.862865636948 519.1333333333333 L 2062.7896223249295 519.1333333333333 L 2068.7866498257204 519.1333333333333 L 2074.8584532305113 519.1333333333333 L 2082.3435212208997 519.1333333333333 L 2088.265772817691 519.1333333333333 L 2094.2852330896817 519.1333333333333 L 2100.3346037232723 519.1333333333333 L 2106.241900139263 519.1333333333333 L 2112.209017278454 519.1333333333333 L 2118.1686568272453 519.1333333333333 L 2124.1507291472362 519.1333333333333 L 2130.140279057627 519.1333333333333 L 2136.144784148818 519.1333333333333 L 2142.1044236976086 519.1333333333333 L 2148.0790184271996 519.1333333333333 L 2155.608951959988 519.1333333333333 L 2161.516248375979 519.1333333333333 L 2167.50579828637 519.1333333333333 L 2173.480393015961 519.1333333333333" stroke="#7cb5ec" stroke-width="2"  stroke-linejoin="round" stroke-linecap="round"></path></g><g class="highcharts-markers highcharts-series-0"  transform="translate(75,72) scale(1 1)" clip-path="none"></g><g class="highcharts-series highcharts-series-1"  transform="translate(75,72) scale(1 1)" clip-path="url(#highcharts-34)"><path fill="none" d="M 21.519606984039093 532.6507666666666 L 25.931385320032373 532.6507666666666 L 31.90598004962327 532.6507666666666 L 37.94039550241408 532.6308 L 43.900035051205 532.6308 L 49.882107371195886 532.6507666666666 L 55.8492245103868 532.6507666666666 L 61.93598309597753 532.6507666666666 L 67.90310023516844 532.6707333333334 L 73.90760532635929 532.6507666666666 L 79.8822000559502 532.6707333333334 L 85.85679478554108 532.6707333333334 L 91.84634469593196 532.6507666666666 L 97.80598424472288 532.6108333333333 L 105.29852982551147 532.6707333333334 L 111.28060214550236 532.6308 L 117.24771928469328 532.6507666666666 L 123.24474678548414 532.6907 L 129.21186392467504 532.6507666666666 L 135.19393624466593 532.6308 L 141.15357579345684 532.6707333333334 L 147.18051365584768 532.6907 L 153.1326756142386 532.6907 L 159.08483757262954 532.6707333333334 L 165.10429784462036 532.6507666666666 L 171.0564598030113 532.6907 L 177.07592007500213 532.6907 L 184.53107770379077 532.7106666666666 L 190.82720882058118 532.7306333333333 L 196.51017752457253 532.7306333333333 L 202.4997274349634 532.7106666666666 L 208.4743221645543 532.6907 L 214.8452291853446 532.6907 L 220.4160340333361 532.6308 L 226.38315117252702 532.7106666666666 L 232.4325218061178 532.7905333333333 L 238.61648906690837 532.7106666666666 L 244.36675608449963 532.6907 L 250.30396286209057 532.6907 L 257.8338963948791 532.7106666666666 L 269.81299621566086 532.7106666666666 L 275.72777022205184 532.7306333333333 L 281.69488736124276 532.7306333333333 L 287.6919148620336 532.7506 L 293.70389754362446 532.7905333333333 L 299.6560595020154 532.7306333333333 L 305.6829973644062 532.7306333333333 L 311.65011450359714 532.8105 L 317.6022764619881 532.7506 L 323.561916010779 532.7506 L 331.0918495435675 532.7306333333333 L 337.04401150195844 532.8304666666667 L 342.9961734603494 532.7905333333333 L 349.0754544555401 532.7905333333333 L 355.0126612331311 532.7905333333333 L 360.95734560112203 532.7506 L 367.0216714155128 532.7506 L 372.89157987950387 532.6907 L 378.9484281034946 532.7306333333333 L 384.91554524268554 532.7106666666666 L 390.8677072010764 532.6907 L 396.8647347018673 532.7306333333333 L 402.8991501546581 532.6907 L 408.84383452264905 532.6907 L 416.3887232362376 532.6907 L 422.3483627850285 532.7306333333333 L 428.22574883941957 532.6907 L 434.37232814821016 532.6907 L 440.3020573354012 532.6907 L 446.291607245792 532.6907 L 452.24376920418297 532.6707333333334 L 458.26322947617376 532.6707333333334 L 464.20043625376474 532.6907 L 470.3320603817554 532.6907 L 476.1870136649465 532.6907 L 482.1017876713375 532.6507666666666 L 488.1287255337283 532.6907 L 495.6137935241169 532.6707333333334 L 501.6482089769077 532.6707333333334 L 507.48820707929883 532.6707333333334 L 513.5899208456896 532.6707333333334 L 519.5794707560804 532.6707333333334 L 525.6437965704712 532.6507666666666 L 531.5436153960621 532.6707333333334 L 537.4808221736531 532.6707333333334 L 543.4628944936441 532.6907 L 549.5421754888347 532.6507666666666 L 555.4345167240258 532.6507666666666 L 561.5437080808165 532.6907 L 568.9166122152052 532.6507666666666 L 574.8762517639962 532.6907 L 580.8358913127871 532.6907 L 586.803008451978 532.7306333333333 L 592.8224687239688 532.7306333333333 L 598.7521979111598 532.6907 L 604.7193150503507 532.6907 L 610.8210288167414 532.7306333333333 L 616.6610269191325 532.7306333333333 L 622.6730096007234 532.7506 L 628.6476043303143 532.7106666666666 L 634.6221990599051 532.7506 L 642.1072670502938 532.7905333333333 L 648.1042945510846 532.7106666666666 L 654.0489789190756 532.7106666666666 L 660.1581702758663 532.7306333333333 L 666.0280787398573 532.7506 L 671.9951958790482 532.7306333333333 L 678.0819544646389 532.7106666666666 L 684.0640267846298 532.6907 L 689.9638456102208 532.6907 L 695.9384403398117 532.6707333333334 L 701.9429454310026 532.6907 L 707.9250177509934 532.6707333333334 L 713.9444780229843 532.6707333333334 L 721.3472925189731 532.6707333333334 L 727.4340511045638 532.6907 L 733.3936906533547 532.6507666666666 L 739.3981957445455 532.6507666666666 L 745.3578352933365 532.6907 L 751.2800868901274 532.6507666666666 L 757.3444127045182 532.6907 L 763.3115298437091 532.6907 L 769.2786469829 532.6907 L 775.3354952068908 532.6907 L 781.2727019844817 532.6308 L 787.2173863524727 532.6707333333334 L 794.6276784388614 532.6907 L 800.6920042532522 532.6707333333334 L 806.659121392443 532.6907 L 812.9552525092334 532.6907 L 818.6606539844248 532.6907 L 824.6576814852157 532.6907 L 830.6023658532066 532.6707333333334 L 836.6442588963974 532.7106666666666 L 842.5665104931884 532.6907 L 848.5111948611793 532.7306333333333 L 854.5306551331702 532.7306333333333 L 860.8342638403606 532.7106666666666 L 866.4873221827519 532.6907 L 873.9873453539406 532.6907 L 879.9619400835314 532.6907 L 885.9365348131223 532.7106666666666 L 891.9111295427132 532.6907 L 897.938067405104 532.6707333333334 L 903.875274182695 532.6907 L 909.8423913218859 532.6707333333334 L 915.7945532802768 532.7306333333333 L 921.7915807810676 532.6707333333334 L 927.8035634626585 532.6907 L 933.7258150594495 532.6907 L 939.7751856930403 532.6907 L 947.2452985026289 532.6707333333334 L 953.2348484130198 532.7106666666666 L 959.2543086850106 532.7506 L 965.1915154626016 532.6907 L 971.1361998305925 532.7106666666666 L 977.0883617889834 532.6907 L 983.1078220609743 532.6907 L 989.0973719713652 532.6507666666666 L 995.101877062556 532.6707333333334 L 1001.024128659347 532.6507666666666 L 1006.9912457985379 532.6907 L 1013.0181836609287 532.6507666666666 L 1020.5107292417173 532.7306333333333 L 1026.500279152108 532.7106666666666 L 1032.4449635200992 532.6907 L 1038.41208065929 532.6907 L 1044.5137944256808 532.6907 L 1050.3911804800719 532.7106666666666 L 1056.3882079808627 532.6907 L 1062.3478475296536 532.6507666666666 L 1068.3448750304444 532.6907 L 1074.2970369888353 532.6907 L 1080.548302563226 532.6907 L 1086.2761368096171 532.6507666666666 L 1092.3554178048078 532.6707333333334 L 1100.0872462783962 532.7106666666666 L 1105.6954390783876 532.7106666666666 L 1111.7672424831783 532.7106666666666 L 1117.6745388991692 532.6907 L 1123.81364061756 532.6907 L 1129.646161129551 532.7106666666666 L 1136.0843664639413 532.7106666666666 L 1141.6402161311328 532.7106666666666 L 1147.8167058015233 532.6907 L 1153.6940918559144 532.6308 L 1159.6312986335054 532.7306333333333 L 1165.6058933630964 532.6907 L 1171.640308815887 532.7106666666666 L 1179.1328543966756 532.6907 L 1184.9803300894669 532.7306333333333 L 1191.1269093982573 532.6907 L 1196.9893402718485 532.6907 L 1203.0387109054393 532.6907 L 1208.9460073214302 532.6707333333334 L 1214.950512412621 532.7106666666666 L 1220.9550175038119 532.6507666666666 L 1226.9520450046027 532.6907 L 1232.8967293725939 532.6507666666666 L 1238.8488913309848 532.6308 L 1246.3638696829732 532.6707333333334 L 1252.375852364564 532.6308 L 1258.320536732555 532.6507666666666 L 1264.287653871746 532.6707333333334 L 1270.3295469149368 532.6707333333334 L 1276.3340520061276 532.6707333333334 L 1282.2189156509187 532.6707333333334 L 1288.2159431517096 532.6507666666666 L 1294.1755827005004 532.6507666666666 L 1300.1426998396914 532.6308 L 1306.1172945692822 532.6308 L 1312.1367548412732 532.6108333333333 L 1318.1188271612639 532.6308 L 1325.6263279228526 532.6507666666666 L 1331.6158778332433 532.6507666666666 L 1337.5530846108343 532.6308 L 1343.5127241596253 532.6507666666666 L 1349.5097516604162 532.6507666666666 L 1355.484346390007 532.6707333333334 L 1361.4813738907978 532.6707333333334 L 1367.441013439589 532.6507666666666 L 1373.4081305787797 532.6507666666666 L 1379.3902028987707 532.6507666666666 L 1385.3573200379615 532.6108333333333 L 1391.3618251291523 532.5708999999999 L 1398.921669023541 532.6108333333333 L 1404.8364430299318 532.5908666666667 L 1416.7856324891136 532.6308 L 1422.7303168571045 532.6108333333333 L 1428.7497771290955 532.6108333333333 L 1440.855995986677 532.6308 L 1446.6810389082682 532.5908666666667 L 1452.745364722659 532.5908666666667 L 1464.7244645434407 532.6308 L 1470.6990592730315 532.6707333333334 L 1478.1168289498203 532.6108333333333 L 1484.166199583411 532.6108333333333 L 1490.1333167226019 532.5908666666667 L 1496.1752097657927 532.5908666666667 L 1502.0974613625838 532.6108333333333 L 1508.0944888633746 532.6308 L 1514.0989939545655 532.5908666666667 L 1520.1558421785562 532.6108333333333 L 1526.0780937753473 532.5509333333333 L 1532.0227781433382 532.5708999999999 L 1538.019805644129 532.5309666666667 L 1543.9869227833199 532.5708999999999 L 1551.4495580025084 532.5708999999999 L 1557.4391079128993 532.5908666666667 L 1563.68289589689 532.5509333333333 L 1569.3957749624813 532.5708999999999 L 1575.4825335480718 532.6108333333333 L 1581.359919602463 532.5908666666667 L 1587.3120815608538 532.6108333333333 L 1593.3240642424448 532.6108333333333 L 1599.2762262008357 532.6108333333333 L 1605.2582985208264 532.5908666666667 L 1611.2403708408174 532.5309666666667 L 1617.2000103896085 532.5309666666667 L 1623.2269482519991 532.5708999999999 L 1630.7344490135877 532.5309666666667 L 1636.6641782007787 532.5309666666667 L 1642.6612057015695 532.5309666666667 L 1649.8621252567586 533.5692333333334 L 1654.5804847991515 532.5309666666667 L 1660.5999450711422 532.5509333333333 L 1666.552107029533 532.511 L 1678.5910275735148 532.5509333333333 L 1684.5207567607058 532.5309666666667 L 1690.4878738998966 532.5309666666667 L 1703.9699693910761 532.511 L 1709.914653759067 532.511 L 1716.0612330678578 532.5309666666667 L 1727.8833034902398 532.511 L 1733.8279878582307 532.5309666666667 L 1740.0119551190212 532.511 L 1745.522939243813 532.5309666666667 L 1751.8564583126033 532.5509333333333 L 1757.7787099093941 532.5309666666667 L 1763.730871867785 532.511 L 1769.750332139776 532.4511 L 1777.2653104917645 532.511 L 1783.1800844981556 532.4710666666667 L 1789.1845895893464 532.5309666666667 L 1795.1068411861374 532.4710666666667 L 1801.1786445909281 532.4511 L 1807.093418597319 532.4511 L 1813.06053573651 532.4511 L 1819.0799960085008 532.4311333333334 L 1825.1293666420916 532.4311333333334 L 1831.0067526964826 532.4111666666666 L 1836.9888250164736 532.4311333333334 L 1843.0606284212643 532.4710666666667 L 1850.493353278853 532.4311333333334 L 1856.438037646844 532.4710666666667 L 1862.3827220148348 532.4710666666667 L 1868.4470478292255 532.4511 L 1874.4665081012165 532.4511 L 1880.4411028308073 532.4511 L 1886.3932647891984 532.4111666666666 L 1892.442635422789 532.4710666666667 L 1898.38731979078 532.3912 L 1904.391824881971 532.4111666666666 L 1910.3365092499619 532.3912 L 1916.3559695219526 532.4710666666667 L 1922.3081314803435 532.3912 L 1929.7857218803322 532.4311333333334 L 1941.682568206714 532.4111666666666 L 1948.0160872755043 532.4111666666666 L 1953.7214887506957 532.4111666666666 L 1965.6632006194775 532.4311333333334 L 1971.6452729394684 532.3712333333333 L 1977.6572556210592 532.3313 L 1984.7385337298485 532.4111666666666 L 1989.5765347186411 532.4111666666666 L 1995.528696677032 532.4111666666666 L 2003.0436750290205 532.3712333333333 L 2015.0152972594024 532.3113333333333 L 2020.9824143985932 532.3512666666667 L 2026.9495315377842 532.3313 L 2032.6025898801756 532.3313 L 2038.9136761777659 532.3313 L 2044.880793316957 532.3313 L 2050.862865636948 532.3113333333333 L 2062.7896223249295 532.3113333333333 L 2068.7866498257204 532.3512666666667 L 2074.8584532305113 532.3313 L 2082.3435212208997 532.3313 L 2088.265772817691 532.3113333333333 L 2094.2852330896817 532.3113333333333 L 2100.3346037232723 532.3313 L 2106.241900139263 532.3512666666667 L 2112.209017278454 532.3313 L 2118.1686568272453 532.3313 L 2124.1507291472362 532.3313 L 2130.140279057627 532.3113333333333 L 2136.144784148818 532.2913666666667 L 2142.1044236976086 532.2913666666667 L 2148.0790184271996 532.2714 L 2155.608951959988 532.3113333333333 L 2161.516248375979 532.2913666666667 L 2167.50579828637 532.2913666666667 L 2173.480393015961 532.2714" stroke="#434348" stroke-width="2"  stroke-linejoin="round" stroke-linecap="round"></path></g><g class="highcharts-markers highcharts-series-1"  transform="translate(75,72) scale(1 1)" clip-path="none"></g><g class="highcharts-series highcharts-series-2"  visibility="hidden" transform="translate(75,72) scale(1 1)" clip-path="url(#highcharts-34)"></g><g class="highcharts-markers highcharts-series-2"  visibility="hidden" transform="translate(75,72) scale(1 1)" clip-path="none"></g><g class="highcharts-series highcharts-series-3"  transform="translate(75,72) scale(1 1)" clip-path="url(#highcharts-34)"><path fill="none" d="M 21.519606984039093 87.85333333333335 L 25.931385320032373 87.85333333333335 L 31.90598004962327 87.85333333333335 L 37.94039550241408 87.85333333333335 L 43.900035051205 87.85333333333335 L 49.882107371195886 87.85333333333335 L 55.8492245103868 87.85333333333335 L 61.93598309597753 87.85333333333335 L 67.90310023516844 87.85333333333335 L 73.90760532635929 87.85333333333335 L 79.8822000559502 87.85333333333335 L 85.85679478554108 85.85666666666668 L 91.84634469593196 87.85333333333335 L 97.80598424472288 87.85333333333335 L 105.29852982551147 87.85333333333335 L 111.28060214550236 87.85333333333335 L 117.24771928469328 87.85333333333335 L 123.24474678548414 87.85333333333335 L 129.21186392467504 87.85333333333335 L 135.19393624466593 87.85333333333335 L 141.15357579345684 85.85666666666668 L 147.18051365584768 85.85666666666668 L 153.1326756142386 85.85666666666668 L 159.08483757262954 87.85333333333335 L 165.10429784462036 87.85333333333335 L 171.0564598030113 85.85666666666668 L 177.07592007500213 85.85666666666668 L 184.53107770379077 85.85666666666668 L 190.82720882058118 85.85666666666668 L 196.51017752457253 85.85666666666668 L 202.4997274349634 85.85666666666668 L 208.4743221645543 87.85333333333335 L 214.8452291853446 87.85333333333335 L 220.4160340333361 85.85666666666668 L 226.38315117252702 85.85666666666668 L 232.4325218061178 85.85666666666668 L 238.61648906690837 85.85666666666668 L 244.36675608449963 85.85666666666668 L 250.30396286209057 85.85666666666668 L 257.8338963948791 85.85666666666668 L 269.81299621566086 85.85666666666668 L 275.72777022205184 85.85666666666668 L 281.69488736124276 87.85333333333335 L 287.6919148620336 87.85333333333335 L 293.70389754362446 87.85333333333335 L 299.6560595020154 87.85333333333335 L 305.6829973644062 95.84000000000003 L 311.65011450359714 85.85666666666668 L 317.6022764619881 85.85666666666668 L 323.561916010779 85.85666666666668 L 331.0918495435675 65.88999999999999 L 337.04401150195844 67.88666666666666 L 342.9961734603494 67.88666666666666 L 349.0754544555401 67.88666666666666 L 355.0126612331311 65.88999999999999 L 360.95734560112203 65.88999999999999 L 367.0216714155128 65.88999999999999 L 372.89157987950387 67.88666666666666 L 378.9484281034946 65.88999999999999 L 384.91554524268554 67.88666666666666 L 390.8677072010764 65.88999999999999 L 396.8647347018673 67.88666666666666 L 402.8991501546581 67.88666666666666 L 408.84383452264905 67.88666666666666 L 416.3887232362376 67.88666666666666 L 422.3483627850285 67.88666666666666 L 428.22574883941957 67.88666666666666 L 434.37232814821016 67.88666666666666 L 440.3020573354012 65.88999999999999 L 446.291607245792 65.88999999999999 L 452.24376920418297 65.88999999999999 L 458.26322947617376 65.88999999999999 L 464.20043625376474 65.88999999999999 L 470.3320603817554 65.88999999999999 L 476.1870136649465 65.88999999999999 L 482.1017876713375 65.88999999999999 L 488.1287255337283 65.88999999999999 L 495.6137935241169 65.88999999999999 L 501.6482089769077 65.88999999999999 L 507.48820707929883 65.88999999999999 L 513.5899208456896 65.88999999999999 L 519.5794707560804 65.88999999999999 L 525.6437965704712 63.89333333333332 L 531.5436153960621 65.88999999999999 L 537.4808221736531 63.89333333333332 L 543.4628944936441 63.89333333333332 L 549.5421754888347 63.89333333333332 L 555.4345167240258 63.89333333333332 L 561.5437080808165 63.89333333333332 L 568.9166122152052 63.89333333333332 L 574.8762517639962 65.88999999999999 L 580.8358913127871 65.88999999999999 L 586.803008451978 65.88999999999999 L 592.8224687239688 65.88999999999999 L 598.7521979111598 65.88999999999999 L 604.7193150503507 63.89333333333332 L 610.8210288167414 63.89333333333332 L 616.6610269191325 67.88666666666666 L 622.6730096007234 63.89333333333332 L 628.6476043303143 63.89333333333332 L 634.6221990599051 63.89333333333332 L 642.1072670502938 59.89999999999998 L 648.1042945510846 61.89666666666665 L 654.0489789190756 61.89666666666665 L 660.1581702758663 59.89999999999998 L 666.0280787398573 59.89999999999998 L 671.9951958790482 61.89666666666665 L 678.0819544646389 59.89999999999998 L 684.0640267846298 59.89999999999998 L 689.9638456102208 61.89666666666665 L 695.9384403398117 59.89999999999998 L 701.9429454310026 57.90333333333331 L 707.9250177509934 59.89999999999998 L 713.9444780229843 57.90333333333331 L 721.3472925189731 57.90333333333331 L 727.4340511045638 57.90333333333331 L 733.3936906533547 57.90333333333331 L 739.3981957445455 57.90333333333331 L 745.3578352933365 57.90333333333331 L 751.2800868901274 57.90333333333331 L 757.3444127045182 55.90666666666664 L 763.3115298437091 57.90333333333331 L 769.2786469829 57.90333333333331 L 775.3354952068908 55.90666666666664 L 781.2727019844817 55.90666666666664 L 787.2173863524727 55.90666666666664 L 794.6276784388614 55.90666666666664 L 800.6920042532522 55.90666666666664 L 806.659121392443 55.90666666666664 L 812.9552525092334 55.90666666666664 L 818.6606539844248 55.90666666666664 L 824.6576814852157 55.90666666666664 L 830.6023658532066 55.90666666666664 L 836.6442588963974 55.90666666666664 L 842.5665104931884 55.90666666666664 L 848.5111948611793 55.90666666666664 L 854.5306551331702 53.90999999999997 L 860.8342638403606 55.90666666666664 L 866.4873221827519 53.90999999999997 L 873.9873453539406 55.90666666666664 L 879.9619400835314 55.90666666666664 L 885.9365348131223 53.90999999999997 L 891.9111295427132 53.90999999999997 L 897.938067405104 53.90999999999997 L 903.875274182695 53.90999999999997 L 909.8423913218859 53.90999999999997 L 915.7945532802768 53.90999999999997 L 921.7915807810676 53.90999999999997 L 927.8035634626585 53.90999999999997 L 933.7258150594495 51.9133333333333 L 939.7751856930403 51.9133333333333 L 947.2452985026289 51.9133333333333 L 953.2348484130198 51.9133333333333 L 959.2543086850106 51.9133333333333 L 965.1915154626016 51.9133333333333 L 971.1361998305925 51.9133333333333 L 977.0883617889834 51.9133333333333 L 983.1078220609743 51.9133333333333 L 989.0973719713652 49.91666666666674 L 995.101877062556 49.91666666666674 L 1001.024128659347 49.91666666666674 L 1006.9912457985379 49.91666666666674 L 1013.0181836609287 49.91666666666674 L 1020.5107292417173 49.91666666666674 L 1026.500279152108 49.91666666666674 L 1032.4449635200992 49.91666666666674 L 1038.41208065929 49.91666666666674 L 1044.5137944256808 51.9133333333333 L 1050.3911804800719 49.91666666666674 L 1056.3882079808627 49.91666666666674 L 1062.3478475296536 47.92000000000007 L 1068.3448750304444 47.92000000000007 L 1074.2970369888353 49.91666666666674 L 1080.548302563226 47.92000000000007 L 1086.2761368096171 47.92000000000007 L 1092.3554178048078 49.91666666666674 L 1100.0872462783962 47.92000000000007 L 1105.6954390783876 49.91666666666674 L 1111.7672424831783 47.92000000000007 L 1117.6745388991692 47.92000000000007 L 1123.81364061756 47.92000000000007 L 1129.646161129551 47.92000000000007 L 1136.0843664639413 47.92000000000007 L 1141.6402161311328 47.92000000000007 L 1147.8167058015233 47.92000000000007 L 1153.6940918559144 47.92000000000007 L 1159.6312986335054 45.9233333333334 L 1165.6058933630964 45.9233333333334 L 1171.640308815887 45.9233333333334 L 1179.1328543966756 45.9233333333334 L 1184.9803300894669 47.92000000000007 L 1191.1269093982573 47.92000000000007 L 1196.9893402718485 45.9233333333334 L 1203.0387109054393 45.9233333333334 L 1208.9460073214302 47.92000000000007 L 1214.950512412621 45.9233333333334 L 1220.9550175038119 45.9233333333334 L 1226.9520450046027 47.92000000000007 L 1232.8967293725939 45.9233333333334 L 1238.8488913309848 45.9233333333334 L 1246.3638696829732 47.92000000000007 L 1252.375852364564 45.9233333333334 L 1258.320536732555 47.92000000000007 L 1264.287653871746 47.92000000000007 L 1270.3295469149368 47.92000000000007 L 1276.3340520061276 45.9233333333334 L 1282.2189156509187 47.92000000000007 L 1288.2159431517096 45.9233333333334 L 1294.1755827005004 45.9233333333334 L 1300.1426998396914 47.92000000000007 L 1306.1172945692822 45.9233333333334 L 1312.1367548412732 45.9233333333334 L 1318.1188271612639 45.9233333333334 L 1325.6263279228526 45.9233333333334 L 1331.6158778332433 45.9233333333334 L 1337.5530846108343 45.9233333333334 L 1343.5127241596253 43.92666666666673 L 1349.5097516604162 45.9233333333334 L 1355.484346390007 45.9233333333334 L 1361.4813738907978 45.9233333333334 L 1367.441013439589 43.92666666666673 L 1373.4081305787797 43.92666666666673 L 1379.3902028987707 45.9233333333334 L 1385.3573200379615 43.92666666666673 L 1391.3618251291523 43.92666666666673 L 1398.921669023541 45.9233333333334 L 1404.8364430299318 43.92666666666673 L 1416.7856324891136 45.9233333333334 L 1422.7303168571045 45.9233333333334 L 1428.7497771290955 43.92666666666673 L 1440.855995986677 45.9233333333334 L 1446.6810389082682 43.92666666666673 L 1452.745364722659 43.92666666666673 L 1464.7244645434407 43.92666666666673 L 1470.6990592730315 45.9233333333334 L 1478.1168289498203 45.9233333333334 L 1484.166199583411 43.92666666666673 L 1490.1333167226019 43.92666666666673 L 1496.1752097657927 45.9233333333334 L 1502.0974613625838 45.9233333333334 L 1508.0944888633746 43.92666666666673 L 1514.0989939545655 45.9233333333334 L 1520.1558421785562 45.9233333333334 L 1526.0780937753473 43.92666666666673 L 1532.0227781433382 45.9233333333334 L 1538.019805644129 43.92666666666673 L 1543.9869227833199 45.9233333333334 L 1551.4495580025084 45.9233333333334 L 1557.4391079128993 43.92666666666673 L 1563.68289589689 45.9233333333334 L 1569.3957749624813 45.9233333333334 L 1575.4825335480718 43.92666666666673 L 1581.359919602463 43.92666666666673 L 1587.3120815608538 45.9233333333334 L 1593.3240642424448 43.92666666666673 L 1599.2762262008357 45.9233333333334 L 1605.2582985208264 45.9233333333334 L 1611.2403708408174 43.92666666666673 L 1617.2000103896085 43.92666666666673 L 1623.2269482519991 43.92666666666673 L 1630.7344490135877 43.92666666666673 L 1636.6641782007787 43.92666666666673 L 1642.6612057015695 43.92666666666673 L 1649.8621252567586 41.930000000000064 L 1654.5804847991515 43.92666666666673 L 1660.5999450711422 43.92666666666673 L 1666.552107029533 43.92666666666673 L 1678.5910275735148 41.930000000000064 L 1684.5207567607058 43.92666666666673 L 1690.4878738998966 43.92666666666673 L 1703.9699693910761 41.930000000000064 L 1709.914653759067 43.92666666666673 L 1716.0612330678578 43.92666666666673 L 1727.8833034902398 43.92666666666673 L 1733.8279878582307 45.9233333333334 L 1740.0119551190212 43.92666666666673 L 1745.522939243813 45.9233333333334 L 1751.8564583126033 45.9233333333334 L 1757.7787099093941 41.930000000000064 L 1763.730871867785 41.930000000000064 L 1769.750332139776 45.9233333333334 L 1777.2653104917645 43.92666666666673 L 1783.1800844981556 43.92666666666673 L 1789.1845895893464 45.9233333333334 L 1795.1068411861374 45.9233333333334 L 1801.1786445909281 43.92666666666673 L 1807.093418597319 43.92666666666673 L 1813.06053573651 45.9233333333334 L 1819.0799960085008 43.92666666666673 L 1825.1293666420916 45.9233333333334 L 1831.0067526964826 45.9233333333334 L 1836.9888250164736 43.92666666666673 L 1843.0606284212643 43.92666666666673 L 1850.493353278853 43.92666666666673 L 1856.438037646844 43.92666666666673 L 1862.3827220148348 45.9233333333334 L 1868.4470478292255 45.9233333333334 L 1874.4665081012165 45.9233333333334 L 1880.4411028308073 43.92666666666673 L 1886.3932647891984 45.9233333333334 L 1892.442635422789 43.92666666666673 L 1898.38731979078 43.92666666666673 L 1904.391824881971 43.92666666666673 L 1910.3365092499619 45.9233333333334 L 1916.3559695219526 43.92666666666673 L 1922.3081314803435 43.92666666666673 L 1929.7857218803322 43.92666666666673 L 1941.682568206714 43.92666666666673 L 1948.0160872755043 45.9233333333334 L 1953.7214887506957 45.9233333333334 L 1965.6632006194775 43.92666666666673 L 1971.6452729394684 43.92666666666673 L 1977.6572556210592 41.930000000000064 L 1984.7385337298485 41.930000000000064 L 1989.5765347186411 43.92666666666673 L 1995.528696677032 43.92666666666673 L 2003.0436750290205 43.92666666666673 L 2015.0152972594024 43.92666666666673 L 2020.9824143985932 41.930000000000064 L 2026.9495315377842 43.92666666666673 L 2032.6025898801756 41.930000000000064 L 2038.9136761777659 43.92666666666673 L 2044.880793316957 45.9233333333334 L 2050.862865636948 43.92666666666673 L 2062.7896223249295 43.92666666666673 L 2068.7866498257204 43.92666666666673 L 2074.8584532305113 43.92666666666673 L 2082.3435212208997 45.9233333333334 L 2088.265772817691 43.92666666666673 L 2094.2852330896817 43.92666666666673 L 2100.3346037232723 43.92666666666673 L 2106.241900139263 43.92666666666673 L 2112.209017278454 43.92666666666673 L 2118.1686568272453 43.92666666666673 L 2124.1507291472362 43.92666666666673 L 2130.140279057627 45.9233333333334 L 2136.144784148818 43.92666666666673 L 2142.1044236976086 43.92666666666673 L 2148.0790184271996 45.9233333333334 L 2155.608951959988 43.92666666666673 L 2161.516248375979 43.92666666666673 L 2167.50579828637 45.9233333333334 L 2173.480393015961 45.9233333333334" stroke="#f7a35c" stroke-width="2"  stroke-linejoin="round" stroke-linecap="round"></path></g><g class="highcharts-markers highcharts-series-3"  transform="translate(75,72) scale(1 1)" clip-path="none"></g><g class="highcharts-series highcharts-series-4"  transform="translate(75,72) scale(1 1)" clip-path="url(#highcharts-34)"><path fill="none" d="M 21.519606984039093 581.8686 L 25.931385320032373 581.7687666666667 L 31.90598004962327 581.0899 L 37.94039550241408 581.4293333333334 L 43.900035051205 581.5291666666667 L 49.882107371195886 581.8686 L 55.8492245103868 581.5291666666667 L 61.93598309597753 581.7687666666667 L 67.90310023516844 581.4293333333334 L 73.90760532635929 580.6506333333333 L 79.8822000559502 581.4293333333334 L 85.85679478554108 581.2097 L 91.84634469593196 581.4293333333334 L 97.80598424472288 580.8702666666667 L 105.29852982551147 581.8686 L 111.28060214550236 580.431 L 117.24771928469328 580.8702666666667 L 123.24474678548414 581.8686 L 129.21186392467504 581.0899 L 135.19393624466593 581.6489666666666 L 141.15357579345684 581.6489666666666 L 147.18051365584768 580.9900666666666 L 153.1326756142386 581.5291666666667 L 159.08483757262954 580.8702666666667 L 165.10429784462036 581.7687666666667 L 171.0564598030113 581.7687666666667 L 177.07592007500213 581.5291666666667 L 184.53107770379077 580.8702666666667 L 190.82720882058118 581.0899 L 196.51017752457253 582.2080333333333 L 202.4997274349634 580.9900666666666 L 208.4743221645543 581.0899 L 214.8452291853446 581.2097 L 220.4160340333361 581.2097 L 226.38315117252702 580.5308333333334 L 232.4325218061178 581.5291666666667 L 238.61648906690837 581.4293333333334 L 244.36675608449963 581.0899 L 250.30396286209057 580.431 L 257.8338963948791 580.5308333333334 L 269.81299621566086 580.5308333333334 L 275.72777022205184 580.5308333333334 L 281.69488736124276 581.5291666666667 L 287.6919148620336 581.5291666666667 L 293.70389754362446 580.5308333333334 L 299.6560595020154 580.431 L 305.6829973644062 580.9900666666666 L 311.65011450359714 580.9900666666666 L 317.6022764619881 581.0899 L 323.561916010779 580.431 L 331.0918495435675 580.2113666666667 L 337.04401150195844 581.2097 L 342.9961734603494 581.0899 L 349.0754544555401 580.9900666666666 L 355.0126612331311 581.6489666666666 L 360.95734560112203 580.8702666666667 L 367.0216714155128 581.0899 L 372.89157987950387 580.9900666666666 L 378.9484281034946 580.2113666666667 L 384.91554524268554 580.6506333333333 L 390.8677072010764 579.9917333333333 L 396.8647347018673 580.6506333333333 L 402.8991501546581 580.431 L 408.84383452264905 580.6506333333333 L 416.3887232362376 580.7704333333334 L 422.3483627850285 580.7704333333334 L 428.22574883941957 580.431 L 434.37232814821016 580.5308333333334 L 440.3020573354012 580.0915666666667 L 446.291607245792 579.9917333333333 L 452.24376920418297 579.9917333333333 L 458.26322947617376 579.2130333333333 L 464.20043625376474 579.6523 L 470.3320603817554 580.2113666666667 L 476.1870136649465 580.2113666666667 L 482.1017876713375 580.0915666666667 L 488.1287255337283 579.6523 L 495.6137935241169 580.431 L 501.6482089769077 579.9917333333333 L 507.48820707929883 580.5308333333334 L 513.5899208456896 579.4326666666667 L 519.5794707560804 579.8719333333333 L 525.6437965704712 580.431 L 531.5436153960621 579.6523 L 537.4808221736531 578.8736 L 543.4628944936441 579.5325 L 549.5421754888347 580.0915666666667 L 555.4345167240258 579.4326666666667 L 561.5437080808165 579.2130333333333 L 568.9166122152052 579.0932333333334 L 574.8762517639962 579.7721 L 580.8358913127871 578.9934 L 586.803008451978 579.2130333333333 L 592.8224687239688 578.6539666666666 L 598.7521979111598 578.4343333333334 L 604.7193150503507 579.4326666666667 L 610.8210288167414 578.9934 L 616.6610269191325 578.9934 L 622.6730096007234 579.6523 L 628.6476043303143 579.0932333333334 L 634.6221990599051 580.431 L 642.1072670502938 578.5341666666667 L 648.1042945510846 580.431 L 654.0489789190756 579.4326666666667 L 660.1581702758663 579.2130333333333 L 666.0280787398573 578.8736 L 671.9951958790482 579.6523 L 678.0819544646389 579.5325 L 684.0640267846298 579.8719333333333 L 689.9638456102208 578.9934 L 695.9384403398117 579.6523 L 701.9429454310026 578.9934 L 707.9250177509934 578.7538 L 713.9444780229843 579.0932333333334 L 721.3472925189731 579.7721 L 727.4340511045638 579.6523 L 733.3936906533547 579.5325 L 739.3981957445455 579.5325 L 745.3578352933365 579.0932333333334 L 751.2800868901274 578.9934 L 757.3444127045182 579.2130333333333 L 763.3115298437091 579.7721 L 769.2786469829 579.9917333333333 L 775.3354952068908 579.4326666666667 L 781.2727019844817 579.7721 L 787.2173863524727 578.9934 L 794.6276784388614 578.9934 L 800.6920042532522 578.9934 L 806.659121392443 578.7538 L 812.9552525092334 579.8719333333333 L 818.6606539844248 579.8719333333333 L 824.6576814852157 579.6523 L 830.6023658532066 579.8719333333333 L 836.6442588963974 579.6523 L 842.5665104931884 578.5341666666667 L 848.5111948611793 579.5325 L 854.5306551331702 580.2113666666667 L 860.8342638403606 579.8719333333333 L 866.4873221827519 579.0932333333334 L 873.9873453539406 579.6523 L 879.9619400835314 579.4326666666667 L 885.9365348131223 579.2130333333333 L 891.9111295427132 579.7721 L 897.938067405104 578.6539666666666 L 903.875274182695 579.5325 L 909.8423913218859 579.0932333333334 L 915.7945532802768 579.2130333333333 L 921.7915807810676 579.6523 L 927.8035634626585 578.7538 L 933.7258150594495 579.5325 L 939.7751856930403 579.6523 L 947.2452985026289 578.4343333333334 L 953.2348484130198 579.3128666666667 L 959.2543086850106 579.9917333333333 L 965.1915154626016 578.7538 L 971.1361998305925 579.9917333333333 L 977.0883617889834 578.8736 L 983.1078220609743 579.0932333333334 L 989.0973719713652 578.8736 L 995.101877062556 579.0932333333334 L 1001.024128659347 579.2130333333333 L 1006.9912457985379 578.5341666666667 L 1013.0181836609287 578.4343333333334 L 1020.5107292417173 579.0932333333334 L 1026.500279152108 578.6539666666666 L 1032.4449635200992 578.9934 L 1038.41208065929 578.0949 L 1044.5137944256808 579.9917333333333 L 1050.3911804800719 578.2147 L 1056.3882079808627 579.2130333333333 L 1062.3478475296536 578.9934 L 1068.3448750304444 577.7554666666666 L 1074.2970369888353 579.6523 L 1080.548302563226 579.2130333333333 L 1086.2761368096171 578.6539666666666 L 1092.3554178048078 579.6523 L 1100.0872462783962 579.7721 L 1105.6954390783876 579.2130333333333 L 1111.7672424831783 578.9934 L 1117.6745388991692 579.2130333333333 L 1123.81364061756 579.5325 L 1129.646161129551 579.0932333333334 L 1136.0843664639413 578.7538 L 1141.6402161311328 578.2147 L 1147.8167058015233 579.3128666666667 L 1153.6940918559144 578.7538 L 1159.6312986335054 578.6539666666666 L 1165.6058933630964 578.7538 L 1171.640308815887 578.8736 L 1179.1328543966756 578.5341666666667 L 1184.9803300894669 578.8736 L 1191.1269093982573 579.0932333333334 L 1196.9893402718485 578.4343333333334 L 1203.0387109054393 577.9950666666666 L 1208.9460073214302 578.7538 L 1214.950512412621 578.9934 L 1220.9550175038119 578.8736 L 1226.9520450046027 578.6539666666666 L 1232.8967293725939 578.9934 L 1238.8488913309848 578.4343333333334 L 1246.3638696829732 578.6539666666666 L 1252.375852364564 578.6539666666666 L 1258.320536732555 578.7538 L 1264.287653871746 579.2130333333333 L 1270.3295469149368 578.6539666666666 L 1276.3340520061276 578.7538 L 1282.2189156509187 578.6539666666666 L 1288.2159431517096 578.8736 L 1294.1755827005004 578.5341666666667 L 1300.1426998396914 578.6539666666666 L 1306.1172945692822 578.4343333333334 L 1312.1367548412732 577.8752666666667 L 1318.1188271612639 577.9950666666666 L 1325.6263279228526 578.0949 L 1331.6158778332433 578.4343333333334 L 1337.5530846108343 578.8736 L 1343.5127241596253 578.4343333333334 L 1349.5097516604162 578.5341666666667 L 1355.484346390007 578.2147 L 1361.4813738907978 579.0932333333334 L 1367.441013439589 578.7538 L 1373.4081305787797 578.5341666666667 L 1379.3902028987707 578.7538 L 1385.3573200379615 579.3128666666667 L 1391.3618251291523 578.6539666666666 L 1398.921669023541 578.2147 L 1404.8364430299318 579.2130333333333 L 1416.7856324891136 578.5341666666667 L 1422.7303168571045 578.0949 L 1428.7497771290955 578.2147 L 1440.855995986677 578.8736 L 1446.6810389082682 578.4343333333334 L 1452.745364722659 578.7538 L 1464.7244645434407 578.4343333333334 L 1470.6990592730315 578.4343333333334 L 1478.1168289498203 578.6539666666666 L 1484.166199583411 579.2130333333333 L 1490.1333167226019 579.2130333333333 L 1496.1752097657927 577.7554666666666 L 1502.0974613625838 578.2147 L 1508.0944888633746 578.6539666666666 L 1514.0989939545655 579.0932333333334 L 1520.1558421785562 578.6539666666666 L 1526.0780937753473 578.2147 L 1532.0227781433382 578.6539666666666 L 1538.019805644129 577.9950666666666 L 1543.9869227833199 578.5341666666667 L 1551.4495580025084 578.7538 L 1557.4391079128993 577.8752666666667 L 1563.68289589689 578.2147 L 1569.3957749624813 578.4343333333334 L 1575.4825335480718 578.4343333333334 L 1581.359919602463 578.0949 L 1587.3120815608538 578.0949 L 1593.3240642424448 578.0949 L 1599.2762262008357 577.9950666666666 L 1605.2582985208264 578.2147 L 1611.2403708408174 578.4343333333334 L 1617.2000103896085 578.3145333333333 L 1623.2269482519991 578.3145333333333 L 1630.7344490135877 578.9934 L 1636.6641782007787 577.6556333333333 L 1642.6612057015695 577.8752666666667 L 1649.8621252567586 578.0949 L 1654.5804847991515 578.5341666666667 L 1660.5999450711422 578.5341666666667 L 1666.552107029533 578.6539666666666 L 1678.5910275735148 578.5341666666667 L 1684.5207567607058 578.5341666666667 L 1690.4878738998966 577.6556333333333 L 1703.9699693910761 577.5358333333334 L 1709.914653759067 577.6556333333333 L 1716.0612330678578 577.7554666666666 L 1727.8833034902398 577.2163666666667 L 1733.8279878582307 577.9950666666666 L 1740.0119551190212 577.0965666666667 L 1745.522939243813 578.2147 L 1751.8564583126033 578.2147 L 1757.7787099093941 578.6539666666666 L 1763.730871867785 578.8736 L 1769.750332139776 577.8752666666667 L 1777.2653104917645 577.6556333333333 L 1783.1800844981556 577.436 L 1789.1845895893464 577.5358333333334 L 1795.1068411861374 578.0949 L 1801.1786445909281 577.436 L 1807.093418597319 578.0949 L 1813.06053573651 578.5341666666667 L 1819.0799960085008 577.7554666666666 L 1825.1293666420916 577.5358333333334 L 1831.0067526964826 577.8752666666667 L 1836.9888250164736 577.5358333333334 L 1843.0606284212643 577.436 L 1850.493353278853 577.5358333333334 L 1856.438037646844 578.0949 L 1862.3827220148348 577.6556333333333 L 1868.4470478292255 577.5358333333334 L 1874.4665081012165 577.7554666666666 L 1880.4411028308073 578.5341666666667 L 1886.3932647891984 577.8752666666667 L 1892.442635422789 578.5341666666667 L 1898.38731979078 578.0949 L 1904.391824881971 578.0949 L 1910.3365092499619 578.0949 L 1916.3559695219526 578.5341666666667 L 1922.3081314803435 577.9950666666666 L 1929.7857218803322 577.8752666666667 L 1941.682568206714 577.2163666666667 L 1948.0160872755043 577.9950666666666 L 1953.7214887506957 577.6556333333333 L 1965.6632006194775 577.436 L 1971.6452729394684 577.9950666666666 L 1977.6572556210592 576.7571333333333 L 1984.7385337298485 577.5358333333334 L 1989.5765347186411 578.2147 L 1995.528696677032 576.8769333333333 L 2003.0436750290205 577.9950666666666 L 2015.0152972594024 577.5358333333334 L 2020.9824143985932 577.6556333333333 L 2026.9495315377842 577.5358333333334 L 2032.6025898801756 577.436 L 2038.9136761777659 578.0949 L 2044.880793316957 577.436 L 2050.862865636948 577.436 L 2062.7896223249295 577.9950666666666 L 2068.7866498257204 577.5358333333334 L 2074.8584532305113 577.9950666666666 L 2082.3435212208997 577.8752666666667 L 2088.265772817691 577.436 L 2094.2852330896817 577.7554666666666 L 2100.3346037232723 577.0965666666667 L 2106.241900139263 577.436 L 2112.209017278454 577.436 L 2118.1686568272453 577.8752666666667 L 2124.1507291472362 576.8769333333333 L 2130.140279057627 577.6556333333333 L 2136.144784148818 577.2163666666667 L 2142.1044236976086 576.7571333333333 L 2148.0790184271996 577.7554666666666 L 2155.608951959988 577.2163666666667 L 2161.516248375979 577.6556333333333 L 2167.50579828637 577.9950666666666 L 2173.480393015961 577.8752666666667" stroke="#8085e9" stroke-width="2"  stroke-linejoin="round" stroke-linecap="round"></path></g><g class="highcharts-markers highcharts-series-4"  transform="translate(75,72) scale(1 1)" clip-path="none"></g><g class="highcharts-series highcharts-series-5"  transform="translate(75,72) scale(1 1)" clip-path="url(#highcharts-34)"><path fill="none" d="M 21.519606984039093 457.2366666666667 L 25.931385320032373 513.1433333333333 L 31.90598004962327 509.15 L 37.94039550241408 513.1433333333333 L 43.900035051205 511.14666666666665 L 49.882107371195886 513.1433333333333 L 55.8492245103868 511.14666666666665 L 61.93598309597753 503.15999999999997 L 67.90310023516844 515.14 L 73.90760532635929 509.15 L 79.8822000559502 509.15 L 85.85679478554108 511.14666666666665 L 91.84634469593196 513.1433333333333 L 97.80598424472288 513.1433333333333 L 105.29852982551147 513.1433333333333 L 111.28060214550236 513.1433333333333 L 117.24771928469328 503.15999999999997 L 123.24474678548414 511.14666666666665 L 129.21186392467504 509.15 L 135.19393624466593 513.1433333333333 L 141.15357579345684 511.14666666666665 L 147.18051365584768 515.14 L 153.1326756142386 511.14666666666665 L 159.08483757262954 513.1433333333333 L 165.10429784462036 511.14666666666665 L 171.0564598030113 509.15 L 177.07592007500213 513.1433333333333 L 184.53107770379077 491.18 L 190.82720882058118 515.14 L 196.51017752457253 513.1433333333333 L 202.4997274349634 513.1433333333333 L 208.4743221645543 515.14 L 214.8452291853446 513.1433333333333 L 220.4160340333361 513.1433333333333 L 226.38315117252702 511.14666666666665 L 232.4325218061178 513.1433333333333 L 238.61648906690837 509.15 L 244.36675608449963 511.14666666666665 L 250.30396286209057 513.1433333333333 L 257.8338963948791 507.1533333333333 L 269.81299621566086 511.14666666666665 L 275.72777022205184 515.14 L 281.69488736124276 513.1433333333333 L 287.6919148620336 513.1433333333333 L 293.70389754362446 513.1433333333333 L 299.6560595020154 515.14 L 305.6829973644062 513.1433333333333 L 311.65011450359714 513.1433333333333 L 317.6022764619881 511.14666666666665 L 323.561916010779 509.15 L 331.0918495435675 531.1133333333333 L 337.04401150195844 529.1166666666667 L 342.9961734603494 529.1166666666667 L 349.0754544555401 529.1166666666667 L 355.0126612331311 531.1133333333333 L 360.95734560112203 525.1233333333333 L 367.0216714155128 527.12 L 372.89157987950387 529.1166666666667 L 378.9484281034946 511.14666666666665 L 384.91554524268554 525.1233333333333 L 390.8677072010764 529.1166666666667 L 396.8647347018673 527.12 L 402.8991501546581 527.12 L 408.84383452264905 525.1233333333333 L 416.3887232362376 523.1266666666667 L 422.3483627850285 527.12 L 428.22574883941957 527.12 L 434.37232814821016 525.1233333333333 L 440.3020573354012 523.1266666666667 L 446.291607245792 521.13 L 452.24376920418297 521.13 L 458.26322947617376 523.1266666666667 L 464.20043625376474 521.13 L 470.3320603817554 515.14 L 476.1870136649465 519.1333333333333 L 482.1017876713375 507.1533333333333 L 488.1287255337283 513.1433333333333 L 495.6137935241169 503.15999999999997 L 501.6482089769077 513.1433333333333 L 507.48820707929883 511.14666666666665 L 513.5899208456896 505.15666666666664 L 519.5794707560804 499.1666666666667 L 525.6437965704712 503.15999999999997 L 531.5436153960621 497.17 L 537.4808221736531 505.15666666666664 L 543.4628944936441 501.16333333333336 L 549.5421754888347 505.15666666666664 L 555.4345167240258 503.15999999999997 L 561.5437080808165 505.15666666666664 L 568.9166122152052 503.15999999999997 L 574.8762517639962 507.1533333333333 L 580.8358913127871 503.15999999999997 L 586.803008451978 505.15666666666664 L 592.8224687239688 507.1533333333333 L 598.7521979111598 509.15 L 604.7193150503507 511.14666666666665 L 610.8210288167414 511.14666666666665 L 616.6610269191325 511.14666666666665 L 622.6730096007234 511.14666666666665 L 628.6476043303143 509.15 L 634.6221990599051 509.15 L 642.1072670502938 513.1433333333333 L 648.1042945510846 509.15 L 654.0489789190756 511.14666666666665 L 660.1581702758663 511.14666666666665 L 666.0280787398573 511.14666666666665 L 671.9951958790482 511.14666666666665 L 678.0819544646389 511.14666666666665 L 684.0640267846298 511.14666666666665 L 689.9638456102208 511.14666666666665 L 695.9384403398117 509.15 L 701.9429454310026 511.14666666666665 L 707.9250177509934 511.14666666666665 L 713.9444780229843 511.14666666666665 L 721.3472925189731 515.14 L 727.4340511045638 511.14666666666665 L 733.3936906533547 513.1433333333333 L 739.3981957445455 511.14666666666665 L 745.3578352933365 515.14 L 751.2800868901274 513.1433333333333 L 757.3444127045182 511.14666666666665 L 763.3115298437091 513.1433333333333 L 769.2786469829 511.14666666666665 L 775.3354952068908 513.1433333333333 L 781.2727019844817 513.1433333333333 L 787.2173863524727 513.1433333333333 L 794.6276784388614 515.14 L 800.6920042532522 513.1433333333333 L 806.659121392443 513.1433333333333 L 812.9552525092334 513.1433333333333 L 818.6606539844248 511.14666666666665 L 824.6576814852157 509.15 L 830.6023658532066 515.14 L 836.6442588963974 511.14666666666665 L 842.5665104931884 513.1433333333333 L 848.5111948611793 515.14 L 854.5306551331702 513.1433333333333 L 860.8342638403606 513.1433333333333 L 866.4873221827519 509.15 L 873.9873453539406 511.14666666666665 L 879.9619400835314 513.1433333333333 L 885.9365348131223 513.1433333333333 L 891.9111295427132 511.14666666666665 L 897.938067405104 511.14666666666665 L 903.875274182695 509.15 L 909.8423913218859 517.1366666666667 L 915.7945532802768 513.1433333333333 L 921.7915807810676 515.14 L 927.8035634626585 511.14666666666665 L 933.7258150594495 511.14666666666665 L 939.7751856930403 513.1433333333333 L 947.2452985026289 511.14666666666665 L 953.2348484130198 515.14 L 959.2543086850106 513.1433333333333 L 965.1915154626016 513.1433333333333 L 971.1361998305925 511.14666666666665 L 977.0883617889834 513.1433333333333 L 983.1078220609743 513.1433333333333 L 989.0973719713652 515.14 L 995.101877062556 515.14 L 1001.024128659347 515.14 L 1006.9912457985379 513.1433333333333 L 1013.0181836609287 511.14666666666665 L 1020.5107292417173 513.1433333333333 L 1026.500279152108 513.1433333333333 L 1032.4449635200992 511.14666666666665 L 1038.41208065929 511.14666666666665 L 1044.5137944256808 511.14666666666665 L 1050.3911804800719 513.1433333333333 L 1056.3882079808627 509.15 L 1062.3478475296536 511.14666666666665 L 1068.3448750304444 509.15 L 1074.2970369888353 511.14666666666665 L 1080.548302563226 513.1433333333333 L 1086.2761368096171 511.14666666666665 L 1092.3554178048078 513.1433333333333 L 1100.0872462783962 511.14666666666665 L 1105.6954390783876 511.14666666666665 L 1111.7672424831783 515.14 L 1117.6745388991692 511.14666666666665 L 1123.81364061756 511.14666666666665 L 1129.646161129551 513.1433333333333 L 1136.0843664639413 513.1433333333333 L 1141.6402161311328 513.1433333333333 L 1147.8167058015233 515.14 L 1153.6940918559144 513.1433333333333 L 1159.6312986335054 511.14666666666665 L 1165.6058933630964 513.1433333333333 L 1171.640308815887 513.1433333333333 L 1179.1328543966756 513.1433333333333 L 1184.9803300894669 513.1433333333333 L 1191.1269093982573 515.14 L 1196.9893402718485 515.14 L 1203.0387109054393 515.14 L 1208.9460073214302 513.1433333333333 L 1214.950512412621 513.1433333333333 L 1220.9550175038119 511.14666666666665 L 1226.9520450046027 515.14 L 1232.8967293725939 511.14666666666665 L 1238.8488913309848 515.14 L 1246.3638696829732 515.14 L 1252.375852364564 511.14666666666665 L 1258.320536732555 511.14666666666665 L 1264.287653871746 513.1433333333333 L 1270.3295469149368 511.14666666666665 L 1276.3340520061276 515.14 L 1282.2189156509187 513.1433333333333 L 1288.2159431517096 513.1433333333333 L 1294.1755827005004 515.14 L 1300.1426998396914 513.1433333333333 L 1306.1172945692822 509.15 L 1312.1367548412732 511.14666666666665 L 1318.1188271612639 513.1433333333333 L 1325.6263279228526 513.1433333333333 L 1331.6158778332433 513.1433333333333 L 1337.5530846108343 511.14666666666665 L 1343.5127241596253 513.1433333333333 L 1349.5097516604162 513.1433333333333 L 1355.484346390007 505.15666666666664 L 1361.4813738907978 513.1433333333333 L 1367.441013439589 509.15 L 1373.4081305787797 513.1433333333333 L 1379.3902028987707 511.14666666666665 L 1385.3573200379615 513.1433333333333 L 1391.3618251291523 513.1433333333333 L 1398.921669023541 513.1433333333333 L 1404.8364430299318 513.1433333333333 L 1416.7856324891136 503.15999999999997 L 1422.7303168571045 513.1433333333333 L 1428.7497771290955 497.17 L 1440.855995986677 515.14 L 1446.6810389082682 511.14666666666665 L 1452.745364722659 513.1433333333333 L 1464.7244645434407 515.14 L 1470.6990592730315 513.1433333333333 L 1478.1168289498203 513.1433333333333 L 1484.166199583411 513.1433333333333 L 1490.1333167226019 513.1433333333333 L 1496.1752097657927 513.1433333333333 L 1502.0974613625838 511.14666666666665 L 1508.0944888633746 511.14666666666665 L 1514.0989939545655 513.1433333333333 L 1520.1558421785562 515.14 L 1526.0780937753473 513.1433333333333 L 1532.0227781433382 519.1333333333333 L 1538.019805644129 511.14666666666665 L 1543.9869227833199 511.14666666666665 L 1551.4495580025084 513.1433333333333 L 1557.4391079128993 511.14666666666665 L 1563.68289589689 513.1433333333333 L 1569.3957749624813 511.14666666666665 L 1575.4825335480718 511.14666666666665 L 1581.359919602463 515.14 L 1587.3120815608538 511.14666666666665 L 1593.3240642424448 517.1366666666667 L 1599.2762262008357 511.14666666666665 L 1605.2582985208264 513.1433333333333 L 1611.2403708408174 513.1433333333333 L 1617.2000103896085 513.1433333333333 L 1623.2269482519991 499.1666666666667 L 1630.7344490135877 513.1433333333333 L 1636.6641782007787 511.14666666666665 L 1642.6612057015695 511.14666666666665 L 1649.8621252567586 513.1433333333333 L 1654.5804847991515 513.1433333333333 L 1660.5999450711422 509.15 L 1666.552107029533 515.14 L 1678.5910275735148 509.15 L 1684.5207567607058 515.14 L 1690.4878738998966 513.1433333333333 L 1703.9699693910761 511.14666666666665 L 1709.914653759067 515.14 L 1716.0612330678578 511.14666666666665 L 1727.8833034902398 513.1433333333333 L 1733.8279878582307 515.14 L 1740.0119551190212 511.14666666666665 L 1745.522939243813 513.1433333333333 L 1751.8564583126033 513.1433333333333 L 1757.7787099093941 513.1433333333333 L 1763.730871867785 513.1433333333333 L 1769.750332139776 511.14666666666665 L 1777.2653104917645 511.14666666666665 L 1783.1800844981556 515.14 L 1789.1845895893464 513.1433333333333 L 1795.1068411861374 513.1433333333333 L 1801.1786445909281 511.14666666666665 L 1807.093418597319 513.1433333333333 L 1813.06053573651 515.14 L 1819.0799960085008 515.14 L 1825.1293666420916 479.2 L 1831.0067526964826 511.14666666666665 L 1836.9888250164736 511.14666666666665 L 1843.0606284212643 513.1433333333333 L 1850.493353278853 513.1433333333333 L 1856.438037646844 513.1433333333333 L 1862.3827220148348 511.14666666666665 L 1868.4470478292255 515.14 L 1874.4665081012165 513.1433333333333 L 1880.4411028308073 511.14666666666665 L 1886.3932647891984 513.1433333333333 L 1892.442635422789 513.1433333333333 L 1898.38731979078 513.1433333333333 L 1904.391824881971 511.14666666666665 L 1910.3365092499619 511.14666666666665 L 1916.3559695219526 513.1433333333333 L 1922.3081314803435 513.1433333333333 L 1929.7857218803322 513.1433333333333 L 1941.682568206714 515.14 L 1948.0160872755043 513.1433333333333 L 1953.7214887506957 499.1666666666667 L 1965.6632006194775 511.14666666666665 L 1971.6452729394684 515.14 L 1977.6572556210592 513.1433333333333 L 1984.7385337298485 513.1433333333333 L 1989.5765347186411 513.1433333333333 L 1995.528696677032 513.1433333333333 L 2003.0436750290205 515.14 L 2015.0152972594024 513.1433333333333 L 2020.9824143985932 513.1433333333333 L 2026.9495315377842 513.1433333333333 L 2032.6025898801756 511.14666666666665 L 2038.9136761777659 513.1433333333333 L 2044.880793316957 513.1433333333333 L 2050.862865636948 513.1433333333333 L 2062.7896223249295 511.14666666666665 L 2068.7866498257204 515.14 L 2074.8584532305113 513.1433333333333 L 2082.3435212208997 513.1433333333333 L 2088.265772817691 513.1433333333333 L 2094.2852330896817 513.1433333333333 L 2100.3346037232723 515.14 L 2106.241900139263 515.14 L 2112.209017278454 513.1433333333333 L 2118.1686568272453 513.1433333333333 L 2124.1507291472362 515.14 L 2130.140279057627 515.14 L 2136.144784148818 511.14666666666665 L 2142.1044236976086 515.14 L 2148.0790184271996 511.14666666666665 L 2155.608951959988 495.17333333333335 L 2161.516248375979 499.1666666666667 L 2167.50579828637 505.15666666666664 L 2173.480393015961 513.1433333333333" stroke="#f15c80" stroke-width="2"  stroke-linejoin="round" stroke-linecap="round"></path></g><g class="highcharts-markers highcharts-series-5"  transform="translate(75,72) scale(1 1)" clip-path="none"></g></g><text x="1140" text-anchor="middle" class="highcharts-title"  style="color:#333333;font-size:18px;fill:#333333;width:2216px;" y="24"><tspan>Environmental Sensor Feed</tspan></text><text x="1140" text-anchor="middle" class="highcharts-subtitle"  style="color:#555555;fill:#555555;width:2216px;" y="52"><tspan>2019-11-30 16:37:34</tspan></text><g class="highcharts-legend"  transform="translate(847,732)"><rect x="0.5" y="0.5" width="585" height="52" strokeWidth="1" stroke="#C98657" stroke-width="1" fill="#FCFFC5" visibility="visible"></rect><g  transform="translate(0,24.421875)"><g><g class="highcharts-legend-item"  transform="translate(8,3)"><path fill="none" d="M 0 11 L 16 11" stroke="#7cb5ec" stroke-width="2"></path><path fill="#7cb5ec" d="M 8 7 C 13.328 7 13.328 15 8 15 C 2.6719999999999997 15 2.6719999999999997 7 8 7 Z"></path><text x="21" style="color:#333333;font-size:12px;font-weight:bold;cursor:pointer;fill:#333333;" text-anchor="start"  y="15">Humidity</text></g><g class="highcharts-legend-item"  transform="translate(105.140625,3)"><path fill="none" d="M 0 11 L 16 11" stroke="#434348" stroke-width="2"></path><path fill="#434348" d="M 8 7 L 12 11 8 15 4 11 Z"></path><text x="21" y="15" style="color:#333333;font-size:12px;font-weight:bold;cursor:pointer;fill:#333333;" text-anchor="start" >Temperature</text></g><g class="highcharts-legend-item"  transform="translate(224.65625,3)"><path fill="none" d="M 0 11 L 16 11" stroke="#CCC" stroke-width="2"></path><path fill="#CCC" d="M 4 7 L 12 7 12 15 4 15 Z"></path><text x="21" y="15" style="color:#ccc;font-size:12px;font-weight:bold;cursor:pointer;fill:#ccc;" text-anchor="start" >Pressure</text></g><g class="highcharts-legend-item"  transform="translate(317.359375,3)"><path fill="none" d="M 0 11 L 16 11" stroke="#f7a35c" stroke-width="2"></path><path fill="#f7a35c" d="M 8 7 L 12 15 4 15 Z"></path><text x="21" y="15" style="color:#333333;font-size:12px;font-weight:bold;cursor:pointer;fill:#333333;" text-anchor="start" >Light</text></g><g class="highcharts-legend-item"  transform="translate(389.71875,3)"><path fill="none" d="M 0 11 L 16 11" stroke="#8085e9" stroke-width="2"></path><path fill="#8085e9" d="M 4 7 L 12 7 8 15 Z"></path><text x="21" y="15" style="color:#333333;font-size:12px;font-weight:bold;cursor:pointer;fill:#333333;" text-anchor="start" ><tspan>IR Temperature</tspan></text></g><g class="highcharts-legend-item"  transform="translate(523.75,3)"><path fill="none" d="M 0 11 L 16 11" stroke="#f15c80" stroke-width="2"></path><path fill="#f15c80" d="M 8 7 C 13.328 7 13.328 15 8 15 C 2.6719999999999997 15 2.6719999999999997 7 8 7 Z"></path><text x="21" y="15" style="color:#333333;font-size:12px;font-weight:bold;cursor:pointer;fill:#333333;" text-anchor="start" >Noise</text></g></g></g><g class="highcharts-legend-title"  style="" transform="translate(5,4)"><text x="3"  style="font-weight:bold;" y="15"><tspan>Select/Deselect Series to Display:</tspan></text></g></g><g class="highcharts-axis-labels highcharts-xaxis-labels" ><text x="138.34924768157538" style="color:#606060;cursor:default;font-size:11px;fill:#606060;" text-anchor="middle" transform="translate(0,0)" y="690" opacity="1">16:37:40</text><text x="213.12515168146146" style="color:#606060;cursor:default;font-size:11px;fill:#606060;" text-anchor="middle" transform="translate(0,0)" y="690" opacity="1">16:37:50</text><text x="287.90105568134754" style="color:#606060;cursor:default;font-size:11px;fill:#606060;" text-anchor="middle" transform="translate(0,0)" y="690" opacity="1">16:38:00</text><text x="362.67695968123365" style="color:#606060;cursor:default;font-size:11px;fill:#606060;" text-anchor="middle" transform="translate(0,0)" y="690" opacity="1">16:38:10</text><text x="437.45286368111977" style="color:#606060;cursor:default;font-size:11px;fill:#606060;" text-anchor="middle" transform="translate(0,0)" y="690" opacity="1">16:38:20</text><text x="512.2287676810058" style="color:#606060;cursor:default;font-size:11px;fill:#606060;" text-anchor="middle" transform="translate(0,0)" y="690" opacity="1">16:38:30</text><text x="587.0046716808919" style="color:#606060;cursor:default;font-size:11px;fill:#606060;" text-anchor="middle" transform="translate(0,0)" y="690" opacity="1">16:38:40</text><text x="661.780575680778" style="color:#606060;cursor:default;font-size:11px;fill:#606060;" text-anchor="middle" transform="translate(0,0)" y="690" opacity="1">16:38:50</text><text x="736.5564796806641" style="color:#606060;cursor:default;font-size:11px;fill:#606060;" text-anchor="middle" transform="translate(0,0)" y="690" opacity="1">16:39:00</text><text x="811.3323836805502" style="color:#606060;cursor:default;font-size:11px;fill:#606060;" text-anchor="middle" transform="translate(0,0)" y="690" opacity="1">16:39:10</text><text x="886.1082876804363" style="color:#606060;cursor:default;font-size:11px;fill:#606060;" text-anchor="middle" transform="translate(0,0)" y="690" opacity="1">16:39:20</text><text x="960.8841916803224" style="color:#606060;cursor:default;font-size:11px;fill:#606060;" text-anchor="middle" transform="translate(0,0)" y="690" opacity="1">16:39:30</text><text x="1035.6600956802085" style="color:#606060;cursor:default;font-size:11px;fill:#606060;" text-anchor="middle" transform="translate(0,0)" y="690" opacity="1">16:39:40</text><text x="1110.4359996800945" style="color:#606060;cursor:default;font-size:11px;fill:#606060;" text-anchor="middle" transform="translate(0,0)" y="690" opacity="1">16:39:50</text><text x="1185.2119036799807" style="color:#606060;cursor:default;font-size:11px;fill:#606060;" text-anchor="middle" transform="translate(0,0)" y="690" opacity="1">16:40:00</text><text x="1259.9878076798668" style="color:#606060;cursor:default;font-size:11px;fill:#606060;" text-anchor="middle" transform="translate(0,0)" y="690" opacity="1">16:40:10</text><text x="1334.7637116797528" style="color:#606060;cursor:default;font-size:11px;fill:#606060;" text-anchor="middle" transform="translate(0,0)" y="690" opacity="1">16:40:20</text><text x="1409.539615679639" style="color:#606060;cursor:default;font-size:11px;fill:#606060;" text-anchor="middle" transform="translate(0,0)" y="690" opacity="1">16:40:30</text><text x="1484.315519679525" style="color:#606060;cursor:default;font-size:11px;fill:#606060;" text-anchor="middle" transform="translate(0,0)" y="690" opacity="1">16:40:40</text><text x="1559.091423679411" style="color:#606060;cursor:default;font-size:11px;fill:#606060;" text-anchor="middle" transform="translate(0,0)" y="690" opacity="1">16:40:50</text><text x="1633.8673276792972" style="color:#606060;cursor:default;font-size:11px;fill:#606060;" text-anchor="middle" transform="translate(0,0)" y="690" opacity="1">16:41:00</text><text x="1708.6432316791834" style="color:#606060;cursor:default;font-size:11px;fill:#606060;" text-anchor="middle" transform="translate(0,0)" y="690" opacity="1">16:41:10</text><text x="1783.4191356790693" style="color:#606060;cursor:default;font-size:11px;fill:#606060;" text-anchor="middle" transform="translate(0,0)" y="690" opacity="1">16:41:20</text><text x="1858.1950396789555" style="color:#606060;cursor:default;font-size:11px;fill:#606060;" text-anchor="middle" transform="translate(0,0)" y="690" opacity="1">16:41:30</text><text x="1932.9709436788416" style="color:#606060;cursor:default;font-size:11px;fill:#606060;" text-anchor="middle" transform="translate(0,0)" y="690" opacity="1">16:41:40</text><text x="2007.7468476787276" style="color:#606060;cursor:default;font-size:11px;fill:#606060;" text-anchor="middle" transform="translate(0,0)" y="690" opacity="1">16:41:50</text><text x="2082.5227516786135" style="color:#606060;cursor:default;font-size:11px;fill:#606060;" text-anchor="middle" transform="translate(0,0)" y="690" opacity="1">16:42:00</text><text x="2157.2986556785" style="color:#606060;cursor:default;font-size:11px;fill:#606060;" text-anchor="middle" transform="translate(0,0)" y="690" opacity="1">16:42:10</text><text x="2232.074559678386" style="color:#606060;cursor:default;font-size:11px;fill:#606060;" text-anchor="middle" transform="translate(0,0)" y="690" opacity="1">16:42:20</text></g><g class="highcharts-axis-labels highcharts-yaxis-labels" ><text x="60" style="color:#606060;cursor:default;font-size:11px;fill:#606060;width:742px;text-overflow:clip;" text-anchor="end" transform="translate(0,0)" y="674" opacity="1">0</text><text x="60" style="color:#606060;cursor:default;font-size:11px;fill:#606060;width:742px;text-overflow:clip;" text-anchor="end" transform="translate(0,0)" y="624" opacity="1">25</text><text x="60" style="color:#606060;cursor:default;font-size:11px;fill:#606060;width:742px;text-overflow:clip;" text-anchor="end" transform="translate(0,0)" y="574" opacity="1">50</text><text x="60" style="color:#606060;cursor:default;font-size:11px;fill:#606060;width:742px;text-overflow:clip;" text-anchor="end" transform="translate(0,0)" y="524" opacity="1">75</text><text x="60" style="color:#606060;cursor:default;font-size:11px;fill:#606060;width:742px;text-overflow:clip;" text-anchor="end" transform="translate(0,0)" y="474" opacity="1">100</text><text x="60" style="color:#606060;cursor:default;font-size:11px;fill:#606060;width:742px;text-overflow:clip;" text-anchor="end" transform="translate(0,0)" y="424" opacity="1">125</text><text x="60" style="color:#606060;cursor:default;font-size:11px;fill:#606060;width:742px;text-overflow:clip;" text-anchor="end" transform="translate(0,0)" y="374" opacity="1">150</text><text x="60" style="color:#606060;cursor:default;font-size:11px;fill:#606060;width:742px;text-overflow:clip;" text-anchor="end" transform="translate(0,0)" y="324" opacity="1">175</text><text x="60" style="color:#606060;cursor:default;font-size:11px;fill:#606060;width:742px;text-overflow:clip;" text-anchor="end" transform="translate(0,0)" y="274" opacity="1">200</text><text x="60" style="color:#606060;cursor:default;font-size:11px;fill:#606060;width:742px;text-overflow:clip;" text-anchor="end" transform="translate(0,0)" y="224" opacity="1">225</text><text x="60" style="color:#606060;cursor:default;font-size:11px;fill:#606060;width:742px;text-overflow:clip;" text-anchor="end" transform="translate(0,0)" y="174" opacity="1">250</text><text x="60" style="color:#606060;cursor:default;font-size:11px;fill:#606060;width:742px;text-overflow:clip;" text-anchor="end" transform="translate(0,0)" y="125" opacity="1">275</text><text x="60" style="color:#606060;cursor:default;font-size:11px;fill:#606060;width:742px;text-overflow:clip;" text-anchor="end" transform="translate(0,0)" y="75" opacity="1">300</text></g><g class="highcharts-tooltip"  style="cursor:default;padding:0;pointer-events:none;white-space:nowrap;" transform="translate(0,-9999)"><path fill="none" d="M 3.5 0.5 L 13.5 0.5 C 16.5 0.5 16.5 0.5 16.5 3.5 L 16.5 13.5 C 16.5 16.5 16.5 16.5 13.5 16.5 L 3.5 16.5 C 0.5 16.5 0.5 16.5 0.5 13.5 L 0.5 3.5 C 0.5 0.5 0.5 0.5 3.5 0.5"  stroke="black" stroke-opacity="0.049999999999999996" stroke-width="5" transform="translate(1, 1)"></path><path fill="none" d="M 3.5 0.5 L 13.5 0.5 C 16.5 0.5 16.5 0.5 16.5 3.5 L 16.5 13.5 C 16.5 16.5 16.5 16.5 13.5 16.5 L 3.5 16.5 C 0.5 16.5 0.5 16.5 0.5 13.5 L 0.5 3.5 C 0.5 0.5 0.5 0.5 3.5 0.5"  stroke="black" stroke-opacity="0.09999999999999999" stroke-width="3" transform="translate(1, 1)"></path><path fill="none" d="M 3.5 0.5 L 13.5 0.5 C 16.5 0.5 16.5 0.5 16.5 3.5 L 16.5 13.5 C 16.5 16.5 16.5 16.5 13.5 16.5 L 3.5 16.5 C 0.5 16.5 0.5 16.5 0.5 13.5 L 0.5 3.5 C 0.5 0.5 0.5 0.5 3.5 0.5"  stroke="black" stroke-opacity="0.15" stroke-width="1" transform="translate(1, 1)"></path><path fill="rgb(249, 249, 249)" fill-opacity=" .85" d="M 3.5 0.5 L 13.5 0.5 C 16.5 0.5 16.5 0.5 16.5 3.5 L 16.5 13.5 C 16.5 16.5 16.5 16.5 13.5 16.5 L 3.5 16.5 C 0.5 16.5 0.5 16.5 0.5 13.5 L 0.5 3.5 C 0.5 0.5 0.5 0.5 3.5 0.5"></path><text x="8"  style="font-size:12px;color:#333333;fill:#333333;" y="20"></text></g><text x="2270" text-anchor="end"  style="cursor:pointer;color:#909090;font-size:9px;fill:#909090;" y="795"></text></svg>