<svg xmlns:xlink="http://www.w3.org/1999/xlink" version="1.1" style="font-family:'lucida grande', 'lucida sans unicode', arial, helvetica, sans-serif;font-size:12px;" xmlns="http://www.w3.org/2000/svg" width="2280" height="800"><desc>Created with Highcharts 4.2.1 /Highstock 4.2.1</desc><defs><clipPath id="highcharts-18"><rect x="0" y="0" width="2195" height="598"></rect></clipPath></defs><rect x="0" y="0" width="2280" height="800" strokeWidth="0" fill="#FFFFFF" class=" highcharts-background"></rect><g class="highcharts-grid" ></g><g class="highcharts-grid" ><path fill="none" d="M 75 670.5 L 2270 670.5" stroke="#D8D8D8" stroke-width="1"  opacity="1"></path><path fill="none" d="M 75 610.5 L 2270 610.5" stroke="#D8D8D8" stroke-width="1"  opacity="1"></path><path fill="none" d="M 75 550.5 L 2270 550.5" stroke="#D8D8D8" stroke-width="1"  opacity="1"></path><path fill="none" d="M 75 491.5 L 2270 491.5" stroke="#D8D8D8" stroke-width="1"  opacity="1"></path><path fill="none" d="M 75 431.5 L 2270 431.5" stroke="#D8D8D8" stroke-width="1"  opacity="1"></path><path fill="none" d="M 75 371.5 L 2270 371.5" stroke="#D8D8D8" stroke-width="1"  opacity="1"></path><path fill="none" d="M 75 311.5 L 2270 311.5" stroke="#D8D8D8" stroke-width="1"  opacity="1"></path><path fill="none" d="M 75 251.5 L 2270 251.5" stroke="#D8D8D8" stroke-width="1"  opacity="1"></path><path fill="none" d="M 75 192.5 L 2270 192.5" stroke="#D8D8D8" stroke-width="1"  opacity="1"></path><path fill="none" d="M 75 132.5 L 2270 132.5" stroke="#D8D8D8" stroke-width="1"  opacity="1"></path><path fill="none" d="M 75 71.5 L 2270 71.5" stroke="#D8D8D8" stroke-width="1"  opacity="1"></path></g><g class="highcharts-axis" ><path fill="none" d="M 130.5 670 L 130.5 680" stroke="#C0D0E0" stroke-width="1" opacity="1"></path><path fill="none" d="M 208.5 670 L 208.5 680" stroke="#C0D0E0" stroke-width="1" opacity="1"></path><path fill="none" d="M 286.5 670 L 286.5 680" stroke="#C0D0E0" stroke-width="1" opacity="1"></path><path fill="none" d="M 364.5 670 L 364.5 680" stroke="#C0D0E0" stroke-width="1" opacity="1"></path><path fill="none" d="M 442.5 670 L 442.5 680" stroke="#C0D0E0" stroke-width="1" opacity="1"></path><path fill="none" d="M 519.5 670 L 519.5 680" stroke="#C0D0E0" stroke-width="1" opacity="1"></path><path fill="none" d="M 597.5 670 L 597.5 680" stroke="#C0D0E0" stroke-width="1" opacity="1"></path><path fill="none" d="M 675.5 670 L 675.5 680" stroke="#C0D0E0" stroke-width="1" opacity="1"></path><path fill="none" d="M 753.5 670 L 753.5 680" stroke="#C0D0E0" stroke-width="1" opacity="1"></path><path fill="none" d="M 831.5 670 L 831.5 680" stroke="#C0D0E0" stroke-width="1" opacity="1"></path><path fill="none" d="M 909.5 670 L 909.5 680" stroke="#C0D0E0" stroke-width="1" opacity="1"></path><path fill="none" d="M 987.5 670 L 987.5 680" stroke="#C0D0E0" stroke-width="1" opacity="1"></path><path fill="none" d="M 1065.5 670 L 1065.5 680" stroke="#C0D0E0" stroke-width="1" opacity="1"></path><path fill="none" d="M 1143.5 670 L 1143.5 680" stroke="#C0D0E0" stroke-width="1" opacity="1"></path><path fill="none" d="M 1221.5 670 L 1221.5 680" stroke="#C0D0E0" stroke-width="1" opacity="1"></path><path fill="none" d="M 1299.5 670 L 1299.5 680" stroke="#C0D0E0" stroke-width="1" opacity="1"></path><path fill="none" d="M 1377.5 670 L 1377.5 680" stroke="#C0D0E0" stroke-width="1" opacity="1"></path><path fill="none" d="M 1455.5 670 L 1455.5 680" stroke="#C0D0E0" stroke-width="1" opacity="1"></path><path fill="none" d="M 1533.5 670 L 1533.5 680" stroke="#C0D0E0" stroke-width="1" opacity="1"></path><path fill="none" d="M 1611.5 670 L 1611.5 680" stroke="#C0D0E0" stroke-width="1" opacity="1"></path><path fill="none" d="M 1688.5 670 L 1688.5 680" stroke="#C0D0E0" stroke-width="1" opacity="1"></path><path fill="none" d="M 1766.5 670 L 1766.5 680" stroke="#C0D0E0" stroke-width="1" opacity="1"></path><path fill="none" d="M 1844.5 670 L 1844.5 680" stroke="#C0D0E0" stroke-width="1" opacity="1"></path><path fill="none" d="M 1922.5 670 L 1922.5 680" stroke="#C0D0E0" stroke-width="1" opacity="1"></path><path fill="none" d="M 2000.5 670 L 2000.5 680" stroke="#C0D0E0" stroke-width="1" opacity="1"></path><path fill="none" d="M 2078.5 670 L 2078.5 680" stroke="#C0D0E0" stroke-width="1" opacity="1"></path><path fill="none" d="M 2156.5 670 L 2156.5 680" stroke="#C0D0E0" stroke-width="1" opacity="1"></path><path fill="none" d="M 2234.5 670 L 2234.5 680" stroke="#C0D0E0" stroke-width="1" opacity="1"></path><text x="1172.5"  text-anchor="middle" transform="translate(0,0)" class=" highcharts-xaxis-title" style="color:#707070;fill:#707070;" y="711.671875">Time</text><path fill="none" d="M 75 670.5 L 2270 670.5" stroke="#C0D0E0" stroke-width="1" ></path></g><g class="highcharts-axis" ><text x="29.125"  text-anchor="middle" transform="translate(0,0) rotate(270 29.125 371)" class=" highcharts-yaxis-title" style="color:#707070;fill:#707070;" y="371">Values</text></g><g class="highcharts-series-group" ><g class="highcharts-series highcharts-series-0"  transform="translate(75,72) scale(1 1)" clip-path="url(#highcharts-18)"><path fill="none" d="M 21.519608514654003 503.516 L 24.660258327922886 503.516 L 30.910385251599415 503.516 L 43.51974355896678 503.516 L 49.62180014405247 503.516 L 55.809581662006536 503.516 L 62.62861041290051 503.516 L 69.8840570038517 503.516 L 76.13418392752823 503.516 L 82.51679483836497 503.516 L 87.66029081046786 503.516 L 94.88456469855781 503.516 L 101.18145067652618 503.516 L 107.70433875023848 503.516 L 114.11032918822116 503.516 L 119.92403827184047 503.516 L 126.03388803264147 503.516 L 132.26063542917208 503.516 L 138.57310775857107 503.516 L 146.28055854101007 503.516 L 152.5462718161172 503.516 L 158.69508745549476 503.516 L 165.01535296060905 503.516 L 171.32782529000804 503.516 L 177.45326140223966 503.516 L 183.75794055592334 503.516 L 190.00027430388457 503.516 L 196.07115818610902 503.516 L 203.23308666847652 503.516 L 208.64155061489984 503.516 L 214.85271165999984 503.516 L 222.7316123081756 503.516 L 229.2545003818879 503.516 L 235.17731392552153 503.516 L 241.349509092045 503.516 L 247.63860189429806 503.516 L 253.8107970608215 503.516 L 260.0765103359287 503.516 L 266.53705300391846 503.516 L 272.5377983047052 503.516 L 278.8268911069582 503.516 L 284.9757067463358 503.516 L 291.420663062895 503.516 L 297.51492647226536 503.516 L 305.2223772547044 503.516 L 312.10375141132084 503.516 L 317.7693901563493 503.516 L 324.05068978288705 503.516 L 330.2150917736952 503.516 L 337.0730864031657 503.516 L 342.90238183821566 503.516 L 348.92650666614827 503.516 L 355.1766335898248 503.516 L 367.64571473431664 503.516 L 373.841289427986 503.516 L 380.64473182744933 503.516 L 386.97279050827893 503.516 L 394.15030534207705 503.516 L 400.3614663871771 503.516 L 406.6193864865689 503.516 L 412.89289293739137 503.516 L 419.06508810391483 503.516 L 425.2996286761607 503.516 L 431.65106688413624 503.516 L 437.729743942076 503.516 L 444.0811821500515 503.516 L 450.253377316575 503.516 L 456.56584964597397 503.516 L 462.75363116392805 503.516 L 476.7501747486201 503.516 L 482.98471532086603 503.516 L 489.1491173116742 503.516 L 495.5161418710803 503.516 L 501.63378480759667 503.516 L 507.9228776098497 503.516 L 514.0950727763732 503.516 L 520.4387178086334 503.516 L 526.665465205164 503.516 L 532.8142808445415 503.516 L 539.1735122282323 503.516 L 546.896549362102 503.516 L 553.1466762857785 503.516 L 559.4513554394622 503.516 L 572.0061615168224 503.516 L 578.334220197652 503.516 L 590.4681947863857 503.516 L 596.7728739400693 503.516 L 602.9918281608847 503.516 L 609.2965073145683 503.516 L 615.4609093053765 503.516 L 623.2930508992604 503.516 L 629.5353846472216 503.516 L 636.2764816409625 503.516 L 641.9577067374216 503.516 L 648.2156268368134 503.516 L 654.4579605847747 503.516 L 661.1367121727931 503.516 L 667.7609115308044 503.516 L 674.1824883202177 503.516 L 679.4039160494737 503.516 L 686.1761857460757 503.516 L 691.9197562482573 503.516 L 699.6505865578422 503.516 L 705.9162998329493 503.516 L 711.0597958050522 503.516 L 718.3697946260106 503.516 L 724.6978533068402 503.516 L 730.7999098919258 503.516 L 737.0344504641718 503.516 L 743.3391296178555 503.516 L 749.5580838386708 503.516 L 755.7146926537637 503.516 L 762.6038599860954 503.516 L 768.2383260282626 503.516 L 776.0237085678547 503.516 L 782.2582491401006 503.516 L 788.4616170094853 503.516 L 794.6727780545853 503.516 L 807.188618253369 503.516 L 813.4231588256149 503.516 L 819.6031471678536 503.516 L 826.0091376058364 503.516 L 832.1267805423527 503.516 L 838.2833893574455 503.516 L 845.2115225683538 503.516 L 850.9161271919587 503.516 L 858.678130204405 503.516 L 864.9282571280814 503.516 L 871.1160386460355 503.516 L 877.3271996911355 503.516 L 883.5071880333743 503.516 L 889.8508330656344 503.516 L 896.0152350564426 503.516 L 902.2575688044038 503.516 L 908.4531434980732 503.516 L 914.7500294760416 503.516 L 920.9923632240028 503.516 L 927.2269037962487 503.516 L 933.5237897742171 503.516 L 939.781709873609 503.516 L 947.3800561960337 503.516 L 953.6535626468561 503.516 L 966.4343708199602 503.516 L 972.3805638907398 503.516 L 978.6930362201388 503.516 L 985.2470969967123 503.516 L 991.0841856074776 503.516 L 997.3265193554388 503.516 L 1003.6234053334072 503.516 L 1010.5359521928848 503.516 L 1017.5731898638073 503.516 L 1023.8389031389145 503.516 L 1030.2059276983207 503.516 L 1035.2636987375552 503.516 L 1042.5503180313676 503.516 L 1049.353760430831 503.516 L 1055.0427787030053 503.516 L 1061.3162851538277 503.516 L 1067.5274461989277 503.516 L 1073.590536905437 503.516 L 1079.980940991989 502.32 L 1086.1375498070818 503.516 L 1092.403263082189 502.32 L 1100.212025148927 502.32 L 1106.547877005472 502.32 L 1112.6655199419881 502.32 L 1118.9078536899494 502.32 L 1125.1657737893413 502.32 L 1131.6185232816158 502.32 L 1137.658234460979 502.32 L 1144.609747199033 502.32 L 1150.1195224297555 502.32 L 1156.3540630020016 502.32 L 1162.526258168525 502.32 L 1168.8309373222087 502.32 L 1175.0343051915934 502.32 L 1182.9209990154843 502.32 L 1189.0074692491394 502.32 L 1195.3511142813998 502.32 L 1201.523309447923 502.32 L 1207.8046090744608 502.32 L 1213.992390592415 502.32 L 1220.258103867522 502.32 L 1226.438092209761 502.32 L 1232.727185012014 502.32 L 1239.4449024786088 502.32 L 1245.17288662936 502.32 L 1251.3996340258905 502.32 L 1259.7461252169846 502.32 L 1265.4663161920203 502.32 L 1271.622925007113 502.32 L 1277.8964314579355 502.32 L 1284.4349058830785 502.32 L 1290.3733057781428 502.32 L 1296.6234327018192 502.32 L 1302.9125255040724 502.32 L 1309.5990702678062 502.32 L 1315.2958817156957 502.32 L 1322.122703642305 502.32 L 1328.5520736074336 502.32 L 1334.3579895153377 502.32 L 1341.8316450263173 502.32 L 1348.081771949994 502.32 L 1354.2617602922328 502.32 L 1360.4963008644786 502.32 L 1366.73863461244 502.32 L 1372.926416130394 502.32 L 1379.2233021083623 502.32 L 1385.473429032039 502.32 L 1391.661210549993 502.32 L 1397.9113374736694 502.32 L 1404.1848439244918 502.32 L 1411.0272522025318 502.32 L 1418.1969738606147 502.32 L 1424.41592808143 502.32 L 1430.806332167982 502.32 L 1437.3370134174095 502.32 L 1443.026031689584 502.32 L 1449.3229176675522 502.32 L 1455.502906009791 502.32 L 1461.7530329334677 502.32 L 1468.003159857144 502.32 L 1474.284459483682 502.32 L 1480.526793231643 502.32 L 1486.706781573882 502.32 L 1494.5623026949118 502.32 L 1500.804636442873 502.32 L 1507.0781428936955 502.32 L 1513.2503380602188 502.32 L 1518.5652838980586 502.32 L 1525.8830758947322 502.32 L 1531.938373425526 502.32 L 1538.1573276463414 501.124 L 1544.4775931514557 501.124 L 1550.6809610208404 501.124 L 1556.9466742959476 501.124 L 1563.196801219624 501.124 L 1569.4157554404392 501.124 L 1577.1621721014549 501.124 L 1583.4434717279926 501.124 L 1589.5844941916548 501.124 L 1595.850207466762 501.124 L 1602.0925412147233 501.124 L 1613.7978911391149 501.124 L 1620.7805765800304 501.124 L 1627.1164284365752 501.124 L 1639.484198296768 501.124 L 1645.6797729904374 501.124 L 1651.976658968406 501.124 L 1658.4683743392568 501.124 L 1665.9654093773827 501.124 L 1672.2778817067815 501.124 L 1678.528008630458 501.124 L 1684.7313764998428 501.124 L 1690.8646057877897 501.124 L 1697.566736902954 501.124 L 1704.2766611938337 501.124 L 1709.5994002073887 501.124 L 1715.9040793610723 501.124 L 1722.1542062847489 501.124 L 1728.3809536812796 501.124 L 1734.5921147263796 501.124 L 1742.3541177388256 501.124 L 1748.5652787839256 501.124 L 1754.88554428904 501.124 L 1761.0109804012716 501.124 L 1767.463729893546 501.124 L 1773.5657864786317 501.124 L 1779.8003270508777 501.124 L 1786.6739080317789 501.124 L 1792.612307926843 501.124 L 1798.464982889039 501.124 L 1804.7618688670073 501.124 L 1812.4771128251616 501.124 L 1818.7584124516993 501.124 L 1824.930607618223 501.124 L 1831.928879410569 501.124 L 1843.7277474435443 501.124 L 1849.9700811915054 501.124 L 1856.2825535209045 501.124 L 1862.3612305788442 501.124 L 1868.7048756111044 501.124 L 1874.8458980747666 501.124 L 1887.2682201649666 501.124 L 1893.6742106029494 501.124 L 1900.0334419866401 501.124 L 1913.819569827019 501.124 L 1919.9917649935423 501.124 L 1926.545825770116 501.124 L 1932.554364246618 501.124 L 1938.765525291718 501.124 L 1944.9143409310955 501.124 L 1951.2112269090637 501.124 L 1963.7270671078475 501.124 L 1969.8680895715097 501.124 L 1976.3987708209374 501.124 L 1983.997117143362 501.124 L 1989.2730971026251 501.124 L 1995.7492261220457 501.124 L 2002.6929456843845 501.124 L 2008.818381796616 501.124 L 2015.0295428417162 501.124 L 2021.310842468254 501.124 L 2027.576555743361 501.124 L 2033.709785031308 501.124 L 2039.9910846578457 501.124 L 2046.1866593515151 501.124 L 2054.065559999691 499.928 L 2060.307893747652 499.928 L 2066.511261617037 499.928 L 2072.7380090135675 499.928 L 2079.050481342966 499.928 L 2085.1915038066286 499.928 L 2091.4572170817355 499.928 L 2097.7151371811274 499.928 L 2103.9262982262276 499.928 L 2110.1530456227583 499.928 L 2116.41096572215 499.928 L 2122.6377131186805 499.928 L 2128.96577179951 499.928 L 2136.6888089333797 499.928 L 2142.954522208487 499.928 L 2149.189062780733 499.928 L 2161.7049029795166 499.928 L 2168.2433774046594 499.928 L 2173.480391485346 499.928" stroke="#7cb5ec" stroke-width="2"  stroke-linejoin="round" stroke-linecap="round"></path></g><g class="highcharts-markers highcharts-series-0"  transform="translate(75,72) scale(1 1)" clip-path="none"></g><g class="highcharts-series highcharts-series-1"  transform="translate(75,72) scale(1 1)" clip-path="url(#highcharts-18)"><path fill="none" d="M 21.519608514654003 518.99224 L 24.660258327922886 519.61416 L 30.910385251599415 519.04008 L 43.51974355896678 518.9444 L 49.62180014405247 519.04008 L 55.809581662006536 519.04008 L 62.62861041290051 519.064 L 69.8840570038517 518.96832 L 76.13418392752823 519.04008 L 82.51679483836497 519.04008 L 87.66029081046786 518.99224 L 94.88456469855781 519.04008 L 101.18145067652618 518.9444 L 107.70433875023848 518.99224 L 114.11032918822116 518.99224 L 119.92403827184047 518.99224 L 126.03388803264147 518.96832 L 132.26063542917208 518.96832 L 138.57310775857107 518.96832 L 146.28055854101007 518.99224 L 152.5462718161172 518.96832 L 158.69508745549476 518.9444 L 165.01535296060905 518.9444 L 171.32782529000804 518.99224 L 177.45326140223966 518.9444 L 183.75794055592334 518.96832 L 190.00027430388457 518.9444 L 196.07115818610902 518.9444 L 203.23308666847652 518.9444 L 208.64155061489984 518.92048 L 214.85271165999984 518.96832 L 222.7316123081756 518.9444 L 229.2545003818879 518.9444 L 235.17731392552153 518.9444 L 241.349509092045 518.96832 L 247.63860189429806 518.9444 L 253.8107970608215 518.92048 L 260.0765103359287 518.89656 L 266.53705300391846 518.89656 L 272.5377983047052 518.89656 L 278.8268911069582 518.89656 L 284.9757067463358 518.92048 L 291.420663062895 518.92048 L 297.51492647226536 518.87264 L 305.2223772547044 518.87264 L 312.10375141132084 518.87264 L 317.7693901563493 518.89656 L 324.05068978288705 518.89656 L 330.2150917736952 518.87264 L 337.0730864031657 518.89656 L 342.90238183821566 518.89656 L 348.92650666614827 518.87264 L 355.1766335898248 518.84872 L 367.64571473431664 518.89656 L 373.841289427986 518.87264 L 380.64473182744933 518.87264 L 386.97279050827893 518.84872 L 394.15030534207705 518.84872 L 400.3614663871771 518.84872 L 406.6193864865689 518.8248 L 412.89289293739137 518.84872 L 419.06508810391483 518.8248 L 425.2996286761607 518.8248 L 431.65106688413624 518.84872 L 437.729743942076 518.8248 L 444.0811821500515 518.8248 L 450.253377316575 518.8248 L 456.56584964597397 518.84872 L 462.75363116392805 518.84872 L 476.7501747486201 518.80088 L 482.98471532086603 518.80088 L 489.1491173116742 518.75304 L 495.5161418710803 518.80088 L 501.63378480759667 518.75304 L 507.9228776098497 518.80088 L 514.0950727763732 518.75304 L 520.4387178086334 518.77696 L 526.665465205164 518.77696 L 532.8142808445415 518.72912 L 539.1735122282323 518.75304 L 546.896549362102 518.75304 L 553.1466762857785 518.72912 L 559.4513554394622 518.72912 L 572.0061615168224 518.7052 L 578.334220197652 518.7052 L 590.4681947863857 518.68128 L 596.7728739400693 518.6334400000001 L 602.9918281608847 518.7052 L 609.2965073145683 518.6334400000001 L 615.4609093053765 518.68128 L 623.2930508992604 518.68128 L 629.5353846472216 518.72912 L 636.2764816409625 518.60952 L 641.9577067374216 518.6334400000001 L 648.2156268368134 518.6334400000001 L 654.4579605847747 518.68128 L 661.1367121727931 518.6334400000001 L 667.7609115308044 518.6334400000001 L 674.1824883202177 518.60952 L 679.4039160494737 518.68128 L 686.1761857460757 518.6334400000001 L 691.9197562482573 518.5856 L 699.6505865578422 518.60952 L 705.9162998329493 518.56168 L 711.0597958050522 518.60952 L 718.3697946260106 518.01152 L 724.6978533068402 518.60952 L 730.7999098919258 518.56168 L 737.0344504641718 518.56168 L 743.3391296178555 518.5856 L 749.5580838386708 518.60952 L 755.7146926537637 518.53776 L 762.6038599860954 518.5856 L 768.2383260282626 518.53776 L 776.0237085678547 518.53776 L 782.2582491401006 518.5138400000001 L 788.4616170094853 518.53776 L 794.6727780545853 518.48992 L 807.188618253369 518.5138400000001 L 813.4231588256149 518.5138400000001 L 819.6031471678536 518.48992 L 826.0091376058364 518.48992 L 832.1267805423527 518.466 L 838.2833893574455 518.48992 L 845.2115225683538 518.48992 L 850.9161271919587 518.466 L 858.678130204405 518.466 L 864.9282571280814 518.5138400000001 L 871.1160386460355 518.466 L 877.3271996911355 518.466 L 883.5071880333743 518.466 L 889.8508330656344 518.44208 L 896.0152350564426 518.44208 L 902.2575688044038 518.41816 L 908.4531434980732 518.44208 L 914.7500294760416 518.466 L 920.9923632240028 518.44208 L 927.2269037962487 518.44208 L 933.5237897742171 518.44208 L 939.781709873609 518.466 L 947.3800561960337 518.41816 L 953.6535626468561 518.39424 L 966.4343708199602 518.44208 L 972.3805638907398 518.41816 L 978.6930362201388 518.39424 L 985.2470969967123 518.41816 L 991.0841856074776 518.41816 L 997.3265193554388 518.37032 L 1003.6234053334072 518.39424 L 1010.5359521928848 518.29856 L 1017.5731898638073 518.39424 L 1023.8389031389145 518.37032 L 1030.2059276983207 518.39424 L 1035.2636987375552 518.29856 L 1042.5503180313676 518.39424 L 1049.353760430831 518.3464 L 1055.0427787030053 518.3464 L 1061.3162851538277 518.27464 L 1067.5274461989277 518.37032 L 1073.590536905437 518.29856 L 1079.980940991989 518.29856 L 1086.1375498070818 518.29856 L 1092.403263082189 518.29856 L 1100.212025148927 518.27464 L 1106.547877005472 518.27464 L 1112.6655199419881 518.27464 L 1118.9078536899494 518.27464 L 1125.1657737893413 518.25072 L 1131.6185232816158 518.2268 L 1137.658234460979 518.2268 L 1144.609747199033 518.25072 L 1150.1195224297555 518.2268 L 1156.3540630020016 518.27464 L 1162.526258168525 518.25072 L 1168.8309373222087 518.20288 L 1175.0343051915934 518.2268 L 1182.9209990154843 518.2268 L 1189.0074692491394 518.25072 L 1195.3511142813998 518.25072 L 1201.523309447923 518.20288 L 1207.8046090744608 518.20288 L 1213.992390592415 518.20288 L 1220.258103867522 518.15504 L 1226.438092209761 518.15504 L 1232.727185012014 518.20288 L 1239.4449024786088 518.17896 L 1245.17288662936 518.17896 L 1251.3996340258905 518.17896 L 1259.7461252169846 518.15504 L 1265.4663161920203 518.13112 L 1271.622925007113 518.1072 L 1277.8964314579355 518.13112 L 1284.4349058830785 518.15504 L 1290.3733057781428 518.13112 L 1296.6234327018192 518.1072 L 1302.9125255040724 518.13112 L 1309.5990702678062 518.1072 L 1315.2958817156957 518.1072 L 1322.122703642305 518.13112 L 1328.5520736074336 518.13112 L 1334.3579895153377 518.05936 L 1341.8316450263173 518.0832800000001 L 1348.081771949994 518.0832800000001 L 1354.2617602922328 518.1072 L 1360.4963008644786 518.0832800000001 L 1366.73863461244 518.0832800000001 L 1372.926416130394 518.03544 L 1379.2233021083623 518.1072 L 1385.473429032039 518.05936 L 1391.661210549993 518.05936 L 1397.9113374736694 518.05936 L 1404.1848439244918 518.03544 L 1411.0272522025318 518.03544 L 1418.1969738606147 518.05936 L 1424.41592808143 518.01152 L 1430.806332167982 518.01152 L 1437.3370134174095 518.01152 L 1443.026031689584 517.9876 L 1449.3229176675522 518.01152 L 1455.502906009791 517.9876 L 1461.7530329334677 518.01152 L 1468.003159857144 517.93976 L 1474.284459483682 517.93976 L 1480.526793231643 517.9876 L 1486.706781573882 517.93976 L 1494.5623026949118 517.93976 L 1500.804636442873 517.9876 L 1507.0781428936955 517.93976 L 1513.2503380602188 517.93976 L 1518.5652838980586 517.89192 L 1525.8830758947322 517.91584 L 1531.938373425526 517.91584 L 1538.1573276463414 517.868 L 1544.4775931514557 517.868 L 1550.6809610208404 517.89192 L 1556.9466742959476 517.91584 L 1563.196801219624 517.91584 L 1569.4157554404392 517.868 L 1577.1621721014549 517.868 L 1583.4434717279926 517.868 L 1589.5844941916548 517.868 L 1595.850207466762 517.84408 L 1602.0925412147233 517.89192 L 1613.7978911391149 517.868 L 1620.7805765800304 517.82016 L 1627.1164284365752 517.868 L 1639.484198296768 517.868 L 1645.6797729904374 517.84408 L 1651.976658968406 517.82016 L 1658.4683743392568 517.82016 L 1665.9654093773827 517.82016 L 1672.2778817067815 517.82016 L 1678.528008630458 517.77232 L 1684.7313764998428 517.79624 L 1690.8646057877897 517.7484 L 1697.566736902954 517.79624 L 1704.2766611938337 517.77232 L 1709.5994002073887 517.79624 L 1715.9040793610723 517.72448 L 1722.1542062847489 517.7484 L 1728.3809536812796 517.7484 L 1734.5921147263796 517.7484 L 1742.3541177388256 517.7484 L 1748.5652787839256 517.72448 L 1754.88554428904 517.72448 L 1761.0109804012716 517.70056 L 1767.463729893546 517.7484 L 1773.5657864786317 517.67664 L 1779.8003270508777 517.70056 L 1786.6739080317789 517.67664 L 1792.612307926843 517.67664 L 1798.464982889039 517.72448 L 1804.7618688670073 517.67664 L 1812.4771128251616 517.67664 L 1818.7584124516993 517.67664 L 1824.930607618223 517.6288 L 1831.928879410569 517.65272 L 1843.7277474435443 517.6288 L 1849.9700811915054 517.67664 L 1856.2825535209045 517.6288 L 1862.3612305788442 517.58096 L 1868.7048756111044 517.58096 L 1874.8458980747666 517.65272 L 1887.2682201649666 517.67664 L 1893.6742106029494 517.6288 L 1900.0334419866401 517.58096 L 1913.819569827019 517.55704 L 1919.9917649935423 517.58096 L 1926.545825770116 517.55704 L 1932.554364246618 517.5092 L 1938.765525291718 517.53312 L 1944.9143409310955 517.53312 L 1951.2112269090637 517.5092 L 1963.7270671078475 517.5092 L 1969.8680895715097 517.5092 L 1976.3987708209374 517.46136 L 1983.997117143362 517.53312 L 1989.2730971026251 517.5092 L 1995.7492261220457 517.48528 L 2002.6929456843845 517.48528 L 2008.818381796616 517.5092 L 2015.0295428417162 517.48528 L 2021.310842468254 517.46136 L 2027.576555743361 517.5092 L 2033.709785031308 517.4135200000001 L 2039.9910846578457 517.46136 L 2046.1866593515151 517.46136 L 2054.065559999691 517.4135200000001 L 2060.307893747652 517.48528 L 2066.511261617037 517.43744 L 2072.7380090135675 517.43744 L 2079.050481342966 517.3896 L 2085.1915038066286 517.4135200000001 L 2091.4572170817355 517.4135200000001 L 2097.7151371811274 517.46136 L 2103.9262982262276 517.43744 L 2110.1530456227583 517.3896 L 2116.41096572215 517.43744 L 2122.6377131186805 517.4135200000001 L 2128.96577179951 517.3896 L 2136.6888089333797 517.3896 L 2142.954522208487 517.4135200000001 L 2149.189062780733 517.34176 L 2161.7049029795166 517.36568 L 2168.2433774046594 517.31784 L 2173.480391485346 517.34176" stroke="#434348" stroke-width="2"  stroke-linejoin="round" stroke-linecap="round"></path></g><g class="highcharts-markers highcharts-series-1"  transform="translate(75,72) scale(1 1)" clip-path="none"></g><g class="highcharts-series highcharts-series-2"  visibility="hidden" transform="translate(75,72) scale(1 1)" clip-path="url(#highcharts-18)"></g><g class="highcharts-markers highcharts-series-2"  visibility="hidden" transform="translate(75,72) scale(1 1)" clip-path="none"></g><g class="highcharts-series highcharts-series-3"  transform="translate(75,72) scale(1 1)" clip-path="url(#highcharts-18)"><path fill="none" d="M 21.519608514654003 533.4159999999999 L 24.660258327922886 533.4159999999999 L 30.910385251599415 533.4159999999999 L 43.51974355896678 533.4159999999999 L 49.62180014405247 533.4159999999999 L 55.809581662006536 533.4159999999999 L 62.62861041290051 533.4159999999999 L 69.8840570038517 533.4159999999999 L 76.13418392752823 533.4159999999999 L 82.51679483836497 533.4159999999999 L 87.66029081046786 533.4159999999999 L 94.88456469855781 531.024 L 101.18145067652618 531.024 L 107.70433875023848 531.024 L 114.11032918822116 531.024 L 119.92403827184047 531.024 L 126.03388803264147 533.4159999999999 L 132.26063542917208 533.4159999999999 L 138.57310775857107 533.4159999999999 L 146.28055854101007 533.4159999999999 L 152.5462718161172 533.4159999999999 L 158.69508745549476 533.4159999999999 L 165.01535296060905 533.4159999999999 L 171.32782529000804 533.4159999999999 L 177.45326140223966 533.4159999999999 L 183.75794055592334 533.4159999999999 L 190.00027430388457 533.4159999999999 L 196.07115818610902 533.4159999999999 L 203.23308666847652 533.4159999999999 L 208.64155061489984 533.4159999999999 L 214.85271165999984 533.4159999999999 L 222.7316123081756 533.4159999999999 L 229.2545003818879 533.4159999999999 L 235.17731392552153 535.808 L 241.349509092045 533.4159999999999 L 247.63860189429806 533.4159999999999 L 253.8107970608215 533.4159999999999 L 260.0765103359287 299 L 266.53705300391846 315.744 L 272.5377983047052 322.92 L 278.8268911069582 327.704 L 284.9757067463358 325.312 L 291.420663062895 330.096 L 297.51492647226536 330.096 L 305.2223772547044 330.096 L 312.10375141132084 332.488 L 317.7693901563493 332.488 L 324.05068978288705 332.488 L 330.2150917736952 332.488 L 337.0730864031657 332.488 L 342.90238183821566 332.488 L 348.92650666614827 332.488 L 355.1766335898248 330.096 L 367.64571473431664 330.096 L 373.841289427986 330.096 L 380.64473182744933 330.096 L 386.97279050827893 327.704 L 394.15030534207705 327.704 L 400.3614663871771 325.312 L 406.6193864865689 325.312 L 412.89289293739137 325.312 L 419.06508810391483 322.92 L 425.2996286761607 322.92 L 431.65106688413624 322.92 L 437.729743942076 320.528 L 444.0811821500515 320.528 L 450.253377316575 318.136 L 456.56584964597397 318.136 L 462.75363116392805 315.744 L 476.7501747486201 313.35200000000003 L 482.98471532086603 310.96000000000004 L 489.1491173116742 310.96000000000004 L 495.5161418710803 308.568 L 501.63378480759667 308.568 L 507.9228776098497 313.35200000000003 L 514.0950727763732 315.744 L 520.4387178086334 303.784 L 526.665465205164 301.392 L 532.8142808445415 301.392 L 539.1735122282323 296.608 L 546.896549362102 296.608 L 553.1466762857785 294.216 L 559.4513554394622 291.824 L 572.0061615168224 287.04 L 578.334220197652 287.04 L 590.4681947863857 282.25600000000003 L 596.7728739400693 282.25600000000003 L 602.9918281608847 279.86400000000003 L 609.2965073145683 277.47200000000004 L 615.4609093053765 275.08000000000004 L 623.2930508992604 272.688 L 629.5353846472216 270.296 L 636.2764816409625 267.904 L 641.9577067374216 265.512 L 648.2156268368134 263.12 L 654.4579605847747 260.728 L 661.1367121727931 258.336 L 667.7609115308044 255.94400000000002 L 674.1824883202177 253.55200000000002 L 679.4039160494737 253.55200000000002 L 686.1761857460757 251.16000000000003 L 691.9197562482573 248.76800000000003 L 699.6505865578422 246.37600000000003 L 705.9162998329493 550.16 L 711.0597958050522 241.59200000000004 L 718.3697946260106 239.2 L 724.6978533068402 236.808 L 730.7999098919258 234.416 L 737.0344504641718 232.024 L 743.3391296178555 229.632 L 749.5580838386708 227.24 L 755.7146926537637 224.848 L 762.6038599860954 222.45600000000002 L 768.2383260282626 220.06400000000002 L 776.0237085678547 217.67200000000003 L 782.2582491401006 215.28000000000003 L 788.4616170094853 212.88800000000003 L 794.6727780545853 210.49600000000004 L 807.188618253369 208.10400000000004 L 813.4231588256149 205.712 L 819.6031471678536 203.32 L 826.0091376058364 200.928 L 832.1267805423527 196.144 L 838.2833893574455 196.144 L 845.2115225683538 193.752 L 850.9161271919587 191.36 L 858.678130204405 188.96800000000002 L 864.9282571280814 184.18400000000003 L 871.1160386460355 181.79200000000003 L 877.3271996911355 179.40000000000003 L 883.5071880333743 177.00800000000004 L 889.8508330656344 174.61600000000004 L 896.0152350564426 174.61600000000004 L 902.2575688044038 172.224 L 908.4531434980732 167.44 L 914.7500294760416 167.44 L 920.9923632240028 162.656 L 927.2269037962487 160.264 L 933.5237897742171 157.872 L 939.781709873609 157.872 L 947.3800561960337 155.48000000000002 L 953.6535626468561 153.08800000000002 L 966.4343708199602 148.30400000000003 L 972.3805638907398 145.91200000000003 L 978.6930362201388 143.52000000000004 L 985.2470969967123 141.12800000000004 L 991.0841856074776 141.12800000000004 L 997.3265193554388 138.736 L 1003.6234053334072 136.344 L 1010.5359521928848 133.952 L 1017.5731898638073 131.56 L 1023.8389031389145 129.168 L 1030.2059276983207 126.77600000000001 L 1035.2636987375552 126.77600000000001 L 1042.5503180313676 124.38400000000001 L 1049.353760430831 121.99200000000002 L 1055.0427787030053 119.60000000000002 L 1061.3162851538277 119.60000000000002 L 1067.5274461989277 117.20800000000003 L 1073.590536905437 114.81600000000003 L 1079.980940991989 112.42400000000004 L 1086.1375498070818 112.42400000000004 L 1092.403263082189 110.03200000000004 L 1100.212025148927 110.03200000000004 L 1106.547877005472 107.64000000000004 L 1112.6655199419881 107.64000000000004 L 1118.9078536899494 105.24800000000005 L 1125.1657737893413 105.24800000000005 L 1131.6185232816158 102.856 L 1137.658234460979 100.464 L 1144.609747199033 100.464 L 1150.1195224297555 98.072 L 1156.3540630020016 98.072 L 1162.526258168525 95.68 L 1168.8309373222087 95.68 L 1175.0343051915934 93.28800000000001 L 1182.9209990154843 93.28800000000001 L 1189.0074692491394 90.89600000000002 L 1195.3511142813998 90.89600000000002 L 1201.523309447923 90.89600000000002 L 1207.8046090744608 88.50400000000002 L 1213.992390592415 88.50400000000002 L 1220.258103867522 86.11200000000002 L 1226.438092209761 86.11200000000002 L 1232.727185012014 86.11200000000002 L 1239.4449024786088 83.72000000000003 L 1245.17288662936 83.72000000000003 L 1251.3996340258905 83.72000000000003 L 1259.7461252169846 81.32799999999997 L 1265.4663161920203 81.32799999999997 L 1271.622925007113 81.32799999999997 L 1277.8964314579355 78.93600000000004 L 1284.4349058830785 78.93600000000004 L 1290.3733057781428 78.93600000000004 L 1296.6234327018192 78.93600000000004 L 1302.9125255040724 78.93600000000004 L 1309.5990702678062 76.54399999999998 L 1315.2958817156957 76.54399999999998 L 1322.122703642305 76.54399999999998 L 1328.5520736074336 76.54399999999998 L 1334.3579895153377 74.15200000000004 L 1341.8316450263173 74.15200000000004 L 1348.081771949994 74.15200000000004 L 1354.2617602922328 74.15200000000004 L 1360.4963008644786 71.75999999999999 L 1366.73863461244 71.75999999999999 L 1372.926416130394 71.75999999999999 L 1379.2233021083623 71.75999999999999 L 1385.473429032039 71.75999999999999 L 1391.661210549993 71.75999999999999 L 1397.9113374736694 69.36800000000005 L 1404.1848439244918 69.36800000000005 L 1411.0272522025318 69.36800000000005 L 1418.1969738606147 69.36800000000005 L 1424.41592808143 69.36800000000005 L 1430.806332167982 66.976 L 1437.3370134174095 66.976 L 1443.026031689584 66.976 L 1449.3229176675522 66.976 L 1455.502906009791 66.976 L 1461.7530329334677 66.976 L 1468.003159857144 66.976 L 1474.284459483682 64.58400000000006 L 1480.526793231643 66.976 L 1486.706781573882 64.58400000000006 L 1494.5623026949118 64.58400000000006 L 1500.804636442873 64.58400000000006 L 1507.0781428936955 64.58400000000006 L 1513.2503380602188 62.19200000000001 L 1518.5652838980586 64.58400000000006 L 1525.8830758947322 64.58400000000006 L 1531.938373425526 62.19200000000001 L 1538.1573276463414 64.58400000000006 L 1544.4775931514557 64.58400000000006 L 1550.6809610208404 62.19200000000001 L 1556.9466742959476 62.19200000000001 L 1563.196801219624 62.19200000000001 L 1569.4157554404392 62.19200000000001 L 1577.1621721014549 62.19200000000001 L 1583.4434717279926 62.19200000000001 L 1589.5844941916548 62.19200000000001 L 1595.850207466762 62.19200000000001 L 1602.0925412147233 59.80000000000007 L 1613.7978911391149 62.19200000000001 L 1620.7805765800304 59.80000000000007 L 1627.1164284365752 62.19200000000001 L 1639.484198296768 59.80000000000007 L 1645.6797729904374 59.80000000000007 L 1651.976658968406 59.80000000000007 L 1658.4683743392568 59.80000000000007 L 1665.9654093773827 59.80000000000007 L 1672.2778817067815 59.80000000000007 L 1678.528008630458 59.80000000000007 L 1684.7313764998428 59.80000000000007 L 1690.8646057877897 59.80000000000007 L 1697.566736902954 59.80000000000007 L 1704.2766611938337 59.80000000000007 L 1709.5994002073887 59.80000000000007 L 1715.9040793610723 59.80000000000007 L 1722.1542062847489 59.80000000000007 L 1728.3809536812796 59.80000000000007 L 1734.5921147263796 59.80000000000007 L 1742.3541177388256 59.80000000000007 L 1748.5652787839256 57.408000000000015 L 1754.88554428904 57.408000000000015 L 1761.0109804012716 59.80000000000007 L 1767.463729893546 59.80000000000007 L 1773.5657864786317 57.408000000000015 L 1779.8003270508777 57.408000000000015 L 1786.6739080317789 59.80000000000007 L 1792.612307926843 57.408000000000015 L 1798.464982889039 59.80000000000007 L 1804.7618688670073 59.80000000000007 L 1812.4771128251616 59.80000000000007 L 1818.7584124516993 57.408000000000015 L 1824.930607618223 59.80000000000007 L 1831.928879410569 57.408000000000015 L 1843.7277474435443 57.408000000000015 L 1849.9700811915054 57.408000000000015 L 1856.2825535209045 57.408000000000015 L 1862.3612305788442 57.408000000000015 L 1868.7048756111044 57.408000000000015 L 1874.8458980747666 57.408000000000015 L 1887.2682201649666 57.408000000000015 L 1893.6742106029494 57.408000000000015 L 1900.0334419866401 57.408000000000015 L 1913.819569827019 57.408000000000015 L 1919.9917649935423 57.408000000000015 L 1926.545825770116 57.408000000000015 L 1932.554364246618 57.408000000000015 L 1938.765525291718 57.408000000000015 L 1944.9143409310955 57.408000000000015 L 1951.2112269090637 57.408000000000015 L 1963.7270671078475 57.408000000000015 L 1969.8680895715097 57.408000000000015 L 1976.3987708209374 57.408000000000015 L 1983.997117143362 57.408000000000015 L 1989.2730971026251 57.408000000000015 L 1995.7492261220457 57.408000000000015 L 2002.6929456843845 57.408000000000015 L 2008.818381796616 57.408000000000015 L 2015.0295428417162 57.408000000000015 L 2021.310842468254 57.408000000000015 L 2027.576555743361 57.408000000000015 L 2033.709785031308 57.408000000000015 L 2039.9910846578457 57.408000000000015 L 2046.1866593515151 57.408000000000015 L 2054.065559999691 57.408000000000015 L 2060.307893747652 57.408000000000015 L 2066.511261617037 57.408000000000015 L 2072.7380090135675 57.408000000000015 L 2079.050481342966 57.408000000000015 L 2085.1915038066286 57.408000000000015 L 2091.4572170817355 57.408000000000015 L 2097.7151371811274 57.408000000000015 L 2103.9262982262276 57.408000000000015 L 2110.1530456227583 57.408000000000015 L 2116.41096572215 57.408000000000015 L 2122.6377131186805 57.408000000000015 L 2128.96577179951 59.80000000000007 L 2136.6888089333797 57.408000000000015 L 2142.954522208487 57.408000000000015 L 2149.189062780733 59.80000000000007 L 2161.7049029795166 59.80000000000007 L 2168.2433774046594 59.80000000000007 L 2173.480391485346 59.80000000000007" stroke="#f7a35c" stroke-width="2"  stroke-linejoin="round" stroke-linecap="round"></path></g><g class="highcharts-markers highcharts-series-3"  transform="translate(75,72) scale(1 1)" clip-path="none"></g><g class="highcharts-series highcharts-series-4"  transform="translate(75,72) scale(1 1)" clip-path="url(#highcharts-18)"><path fill="none" d="M 21.519608514654003 596.63656 L 24.660258327922886 597.83256 L 30.910385251599415 597.30632 L 43.51974355896678 597.30632 L 49.62180014405247 597.42592 L 55.809581662006536 596.49304 L 62.62861041290051 596.22992 L 69.8840570038517 597.95216 L 76.13418392752823 596.49304 L 82.51679483836497 596.89968 L 87.66029081046786 597.42592 L 94.88456469855781 597.30632 L 101.18145067652618 597.1628 L 107.70433875023848 596.89968 L 114.11032918822116 597.30632 L 119.92403827184047 596.22992 L 126.03388803264147 597.01928 L 132.26063542917208 597.01928 L 138.57310775857107 597.1628 L 146.28055854101007 597.56944 L 152.5462718161172 596.49304 L 158.69508745549476 597.01928 L 165.01535296060905 596.63656 L 171.32782529000804 597.01928 L 177.45326140223966 597.56944 L 183.75794055592334 597.01928 L 190.00027430388457 597.1628 L 196.07115818610902 597.1628 L 203.23308666847652 597.01928 L 208.64155061489984 596.89968 L 214.85271165999984 597.42592 L 222.7316123081756 596.89968 L 229.2545003818879 597.1628 L 235.17731392552153 597.1628 L 241.349509092045 596.37344 L 247.63860189429806 597.01928 L 253.8107970608215 597.95216 L 260.0765103359287 597.42592 L 266.53705300391846 597.1628 L 272.5377983047052 597.42592 L 278.8268911069582 597.30632 L 284.9757067463358 596.37344 L 291.420663062895 597.30632 L 297.51492647226536 596.37344 L 305.2223772547044 595.44056 L 312.10375141132084 596.49304 L 317.7693901563493 597.01928 L 324.05068978288705 596.63656 L 330.2150917736952 596.63656 L 337.0730864031657 596.22992 L 342.90238183821566 596.63656 L 348.92650666614827 597.01928 L 355.1766335898248 597.01928 L 367.64571473431664 596.22992 L 373.841289427986 595.82328 L 380.64473182744933 596.89968 L 386.97279050827893 595.29704 L 394.15030534207705 595.82328 L 400.3614663871771 595.56016 L 406.6193864865689 596.22992 L 412.89289293739137 596.11032 L 419.06508810391483 596.22992 L 425.2996286761607 595.82328 L 431.65106688413624 595.29704 L 437.729743942076 595.44056 L 444.0811821500515 595.82328 L 450.253377316575 594.50768 L 456.56584964597397 595.70368 L 462.75363116392805 595.17744 L 476.7501747486201 596.11032 L 482.98471532086603 595.56016 L 489.1491173116742 593.98144 L 495.5161418710803 594.62728 L 501.63378480759667 594.62728 L 507.9228776098497 595.29704 L 514.0950727763732 595.82328 L 520.4387178086334 594.36416 L 526.665465205164 594.62728 L 532.8142808445415 596.11032 L 539.1735122282323 593.83792 L 546.896549362102 594.62728 L 553.1466762857785 594.91432 L 559.4513554394622 596.22992 L 572.0061615168224 594.50768 L 578.334220197652 594.50768 L 590.4681947863857 595.44056 L 596.7728739400693 595.03392 L 602.9918281608847 595.44056 L 609.2965073145683 594.91432 L 615.4609093053765 596.49304 L 623.2930508992604 595.44056 L 629.5353846472216 594.7708 L 636.2764816409625 594.7708 L 641.9577067374216 594.62728 L 648.2156268368134 594.62728 L 654.4579605847747 595.29704 L 661.1367121727931 595.44056 L 667.7609115308044 594.91432 L 674.1824883202177 595.29704 L 679.4039160494737 594.50768 L 686.1761857460757 594.91432 L 691.9197562482573 595.44056 L 699.6505865578422 589.72368 L 705.9162998329493 594.50768 L 711.0597958050522 595.56016 L 718.3697946260106 594.36416 L 724.6978533068402 594.7708 L 730.7999098919258 594.91432 L 737.0344504641718 594.50768 L 743.3391296178555 596.22992 L 749.5580838386708 595.03392 L 755.7146926537637 595.29704 L 762.6038599860954 594.7708 L 768.2383260282626 594.91432 L 776.0237085678547 594.62728 L 782.2582491401006 595.44056 L 788.4616170094853 595.03392 L 794.6727780545853 594.91432 L 807.188618253369 594.7708 L 813.4231588256149 595.03392 L 819.6031471678536 595.29704 L 826.0091376058364 595.70368 L 832.1267805423527 595.29704 L 838.2833893574455 593.98144 L 845.2115225683538 595.70368 L 850.9161271919587 595.29704 L 858.678130204405 595.29704 L 864.9282571280814 594.36416 L 871.1160386460355 595.82328 L 877.3271996911355 594.7708 L 883.5071880333743 594.62728 L 889.8508330656344 595.56016 L 896.0152350564426 595.03392 L 902.2575688044038 595.03392 L 908.4531434980732 595.03392 L 914.7500294760416 594.91432 L 920.9923632240028 594.62728 L 927.2269037962487 595.03392 L 933.5237897742171 593.98144 L 939.781709873609 594.62728 L 947.3800561960337 595.03392 L 953.6535626468561 594.7708 L 966.4343708199602 594.50768 L 972.3805638907398 595.03392 L 978.6930362201388 594.7708 L 985.2470969967123 595.56016 L 991.0841856074776 593.6944 L 997.3265193554388 594.7708 L 1003.6234053334072 594.10104 L 1010.5359521928848 595.44056 L 1017.5731898638073 594.36416 L 1023.8389031389145 595.44056 L 1030.2059276983207 594.50768 L 1035.2636987375552 595.29704 L 1042.5503180313676 594.91432 L 1049.353760430831 594.36416 L 1055.0427787030053 594.62728 L 1061.3162851538277 594.50768 L 1067.5274461989277 593.98144 L 1073.590536905437 595.03392 L 1079.980940991989 594.50768 L 1086.1375498070818 595.29704 L 1092.403263082189 594.62728 L 1100.212025148927 595.44056 L 1106.547877005472 594.50768 L 1112.6655199419881 594.50768 L 1118.9078536899494 594.7708 L 1125.1657737893413 593.6944 L 1131.6185232816158 594.62728 L 1137.658234460979 594.10104 L 1144.609747199033 594.50768 L 1150.1195224297555 594.7708 L 1156.3540630020016 594.50768 L 1162.526258168525 594.50768 L 1168.8309373222087 594.50768 L 1175.0343051915934 595.03392 L 1182.9209990154843 594.50768 L 1189.0074692491394 594.24456 L 1195.3511142813998 594.24456 L 1201.523309447923 594.10104 L 1207.8046090744608 594.24456 L 1213.992390592415 594.62728 L 1220.258103867522 594.50768 L 1226.438092209761 593.6944 L 1232.727185012014 594.24456 L 1239.4449024786088 594.10104 L 1245.17288662936 594.24456 L 1251.3996340258905 594.50768 L 1259.7461252169846 594.10104 L 1265.4663161920203 594.50768 L 1271.622925007113 594.24456 L 1277.8964314579355 593.83792 L 1284.4349058830785 594.62728 L 1290.3733057781428 594.50768 L 1296.6234327018192 593.31168 L 1302.9125255040724 595.17744 L 1309.5990702678062 595.17744 L 1315.2958817156957 593.5748 L 1322.122703642305 594.91432 L 1328.5520736074336 594.24456 L 1334.3579895153377 593.98144 L 1341.8316450263173 594.7708 L 1348.081771949994 594.62728 L 1354.2617602922328 595.9668 L 1360.4963008644786 593.83792 L 1366.73863461244 593.98144 L 1372.926416130394 593.31168 L 1379.2233021083623 593.6944 L 1385.473429032039 593.5748 L 1391.661210549993 595.9668 L 1397.9113374736694 594.50768 L 1404.1848439244918 593.83792 L 1411.0272522025318 593.5748 L 1418.1969738606147 594.50768 L 1424.41592808143 594.7708 L 1430.806332167982 594.10104 L 1437.3370134174095 593.98144 L 1443.026031689584 594.62728 L 1449.3229176675522 593.31168 L 1455.502906009791 594.10104 L 1461.7530329334677 594.10104 L 1468.003159857144 593.83792 L 1474.284459483682 594.50768 L 1480.526793231643 594.10104 L 1486.706781573882 594.24456 L 1494.5623026949118 593.83792 L 1500.804636442873 595.03392 L 1507.0781428936955 593.5748 L 1513.2503380602188 593.5748 L 1518.5652838980586 594.24456 L 1525.8830758947322 593.6944 L 1531.938373425526 594.24456 L 1538.1573276463414 594.10104 L 1544.4775931514557 593.98144 L 1550.6809610208404 594.10104 L 1556.9466742959476 593.16816 L 1563.196801219624 594.10104 L 1569.4157554404392 593.04856 L 1577.1621721014549 593.83792 L 1583.4434717279926 593.98144 L 1589.5844941916548 593.83792 L 1595.850207466762 593.5748 L 1602.0925412147233 593.6944 L 1613.7978911391149 593.31168 L 1620.7805765800304 592.90504 L 1627.1164284365752 593.98144 L 1639.484198296768 592.3788 L 1645.6797729904374 592.3788 L 1651.976658968406 593.98144 L 1658.4683743392568 594.10104 L 1665.9654093773827 593.31168 L 1672.2778817067815 594.62728 L 1678.528008630458 593.31168 L 1684.7313764998428 593.16816 L 1690.8646057877897 593.83792 L 1697.566736902954 593.16816 L 1704.2766611938337 593.16816 L 1709.5994002073887 594.62728 L 1715.9040793610723 592.3788 L 1722.1542062847489 593.31168 L 1728.3809536812796 594.24456 L 1734.5921147263796 594.24456 L 1742.3541177388256 593.16816 L 1748.5652787839256 593.6944 L 1754.88554428904 591.44592 L 1761.0109804012716 592.78544 L 1767.463729893546 594.10104 L 1773.5657864786317 593.31168 L 1779.8003270508777 594.10104 L 1786.6739080317789 592.3788 L 1792.612307926843 593.16816 L 1798.464982889039 592.4984 L 1804.7618688670073 593.43128 L 1812.4771128251616 592.3788 L 1818.7584124516993 593.83792 L 1824.930607618223 594.10104 L 1831.928879410569 594.36416 L 1843.7277474435443 592.78544 L 1849.9700811915054 593.98144 L 1856.2825535209045 593.43128 L 1862.3612305788442 593.83792 L 1868.7048756111044 593.83792 L 1874.8458980747666 593.16816 L 1887.2682201649666 593.31168 L 1893.6742106029494 592.90504 L 1900.0334419866401 593.31168 L 1913.819569827019 593.6944 L 1919.9917649935423 593.98144 L 1926.545825770116 593.04856 L 1932.554364246618 592.90504 L 1938.765525291718 593.16816 L 1944.9143409310955 592.23528 L 1951.2112269090637 592.4984 L 1963.7270671078475 592.4984 L 1969.8680895715097 592.4984 L 1976.3987708209374 593.31168 L 1983.997117143362 592.4984 L 1989.2730971026251 592.90504 L 1995.7492261220457 593.04856 L 2002.6929456843845 593.31168 L 2008.818381796616 593.43128 L 2015.0295428417162 593.6944 L 2021.310842468254 592.3788 L 2027.576555743361 593.98144 L 2033.709785031308 592.3788 L 2039.9910846578457 592.78544 L 2046.1866593515151 592.78544 L 2054.065559999691 593.43128 L 2060.307893747652 593.31168 L 2066.511261617037 592.78544 L 2072.7380090135675 592.90504 L 2079.050481342966 592.3788 L 2085.1915038066286 592.23528 L 2091.4572170817355 592.3788 L 2097.7151371811274 592.4984 L 2103.9262982262276 593.16816 L 2110.1530456227583 593.04856 L 2116.41096572215 592.3788 L 2122.6377131186805 593.16816 L 2128.96577179951 593.04856 L 2136.6888089333797 591.70904 L 2142.954522208487 592.90504 L 2149.189062780733 592.4984 L 2161.7049029795166 591.70904 L 2168.2433774046594 591.1828 L 2173.480391485346 592.4984" stroke="#8085e9" stroke-width="2"  stroke-linejoin="round" stroke-linecap="round"></path></g><g class="highcharts-markers highcharts-series-4"  transform="translate(75,72) scale(1 1)" clip-path="none"></g><g class="highcharts-series highcharts-series-5"  transform="translate(75,72) scale(1 1)" clip-path="url(#highcharts-18)"><path fill="none" d="M 21.519608514654003 490.36 L 24.660258327922886 492.752 L 30.910385251599415 485.576 L 43.51974355896678 492.752 L 49.62180014405247 490.36 L 55.809581662006536 492.752 L 62.62861041290051 490.36 L 69.8840570038517 492.752 L 76.13418392752823 492.752 L 82.51679483836497 495.144 L 87.66029081046786 490.36 L 94.88456469855781 490.36 L 101.18145067652618 490.36 L 107.70433875023848 490.36 L 114.11032918822116 490.36 L 119.92403827184047 490.36 L 126.03388803264147 492.752 L 132.26063542917208 492.752 L 138.57310775857107 490.36 L 146.28055854101007 492.752 L 152.5462718161172 487.968 L 158.69508745549476 492.752 L 165.01535296060905 492.752 L 171.32782529000804 492.752 L 177.45326140223966 492.752 L 183.75794055592334 490.36 L 190.00027430388457 487.968 L 196.07115818610902 492.752 L 203.23308666847652 490.36 L 208.64155061489984 490.36 L 214.85271165999984 490.36 L 222.7316123081756 492.752 L 229.2545003818879 492.752 L 235.17731392552153 471.224 L 241.349509092045 492.752 L 247.63860189429806 480.79200000000003 L 253.8107970608215 495.144 L 260.0765103359287 487.968 L 266.53705300391846 509.496 L 272.5377983047052 514.28 L 278.8268911069582 509.496 L 284.9757067463358 499.928 L 291.420663062895 514.28 L 297.51492647226536 509.496 L 305.2223772547044 514.28 L 312.10375141132084 507.104 L 317.7693901563493 511.88800000000003 L 324.05068978288705 507.104 L 330.2150917736952 509.496 L 337.0730864031657 509.496 L 342.90238183821566 509.496 L 348.92650666614827 507.104 L 355.1766335898248 507.104 L 367.64571473431664 497.536 L 373.841289427986 504.712 L 380.64473182744933 502.32 L 386.97279050827893 499.928 L 394.15030534207705 497.536 L 400.3614663871771 497.536 L 406.6193864865689 499.928 L 412.89289293739137 487.968 L 419.06508810391483 487.968 L 425.2996286761607 490.36 L 431.65106688413624 483.18399999999997 L 437.729743942076 490.36 L 444.0811821500515 487.968 L 450.253377316575 483.18399999999997 L 456.56584964597397 478.4 L 462.75363116392805 478.4 L 476.7501747486201 478.4 L 482.98471532086603 480.79200000000003 L 489.1491173116742 483.18399999999997 L 495.5161418710803 483.18399999999997 L 501.63378480759667 473.616 L 507.9228776098497 478.4 L 514.0950727763732 478.4 L 520.4387178086334 480.79200000000003 L 526.665465205164 483.18399999999997 L 532.8142808445415 485.576 L 539.1735122282323 485.576 L 546.896549362102 487.968 L 553.1466762857785 480.79200000000003 L 559.4513554394622 490.36 L 572.0061615168224 490.36 L 578.334220197652 490.36 L 590.4681947863857 485.576 L 596.7728739400693 487.968 L 602.9918281608847 485.576 L 609.2965073145683 490.36 L 615.4609093053765 490.36 L 623.2930508992604 490.36 L 629.5353846472216 485.576 L 636.2764816409625 490.36 L 641.9577067374216 490.36 L 648.2156268368134 487.968 L 654.4579605847747 490.36 L 661.1367121727931 487.968 L 667.7609115308044 490.36 L 674.1824883202177 490.36 L 679.4039160494737 487.968 L 686.1761857460757 487.968 L 691.9197562482573 492.752 L 699.6505865578422 487.968 L 705.9162998329493 492.752 L 711.0597958050522 487.968 L 718.3697946260106 492.752 L 724.6978533068402 490.36 L 730.7999098919258 495.144 L 737.0344504641718 490.36 L 743.3391296178555 492.752 L 749.5580838386708 487.968 L 755.7146926537637 490.36 L 762.6038599860954 492.752 L 768.2383260282626 492.752 L 776.0237085678547 490.36 L 782.2582491401006 483.18399999999997 L 788.4616170094853 492.752 L 794.6727780545853 492.752 L 807.188618253369 490.36 L 813.4231588256149 490.36 L 819.6031471678536 487.968 L 826.0091376058364 490.36 L 832.1267805423527 490.36 L 838.2833893574455 487.968 L 845.2115225683538 492.752 L 850.9161271919587 487.968 L 858.678130204405 492.752 L 864.9282571280814 490.36 L 871.1160386460355 492.752 L 877.3271996911355 492.752 L 883.5071880333743 495.144 L 889.8508330656344 490.36 L 896.0152350564426 490.36 L 902.2575688044038 490.36 L 908.4531434980732 490.36 L 914.7500294760416 490.36 L 920.9923632240028 490.36 L 927.2269037962487 492.752 L 933.5237897742171 490.36 L 939.781709873609 490.36 L 947.3800561960337 485.576 L 953.6535626468561 492.752 L 966.4343708199602 490.36 L 972.3805638907398 490.36 L 978.6930362201388 492.752 L 985.2470969967123 490.36 L 991.0841856074776 492.752 L 997.3265193554388 492.752 L 1003.6234053334072 490.36 L 1010.5359521928848 492.752 L 1017.5731898638073 490.36 L 1023.8389031389145 490.36 L 1030.2059276983207 490.36 L 1035.2636987375552 492.752 L 1042.5503180313676 490.36 L 1049.353760430831 485.576 L 1055.0427787030053 485.576 L 1061.3162851538277 490.36 L 1067.5274461989277 492.752 L 1073.590536905437 490.36 L 1079.980940991989 487.968 L 1086.1375498070818 490.36 L 1092.403263082189 492.752 L 1100.212025148927 490.36 L 1106.547877005472 490.36 L 1112.6655199419881 492.752 L 1118.9078536899494 492.752 L 1125.1657737893413 495.144 L 1131.6185232816158 492.752 L 1137.658234460979 492.752 L 1144.609747199033 495.144 L 1150.1195224297555 490.36 L 1156.3540630020016 490.36 L 1162.526258168525 490.36 L 1168.8309373222087 492.752 L 1175.0343051915934 483.18399999999997 L 1182.9209990154843 490.36 L 1189.0074692491394 492.752 L 1195.3511142813998 492.752 L 1201.523309447923 490.36 L 1207.8046090744608 492.752 L 1213.992390592415 492.752 L 1220.258103867522 485.576 L 1226.438092209761 492.752 L 1232.727185012014 490.36 L 1239.4449024786088 495.144 L 1245.17288662936 490.36 L 1251.3996340258905 492.752 L 1259.7461252169846 492.752 L 1265.4663161920203 495.144 L 1271.622925007113 495.144 L 1277.8964314579355 492.752 L 1284.4349058830785 492.752 L 1290.3733057781428 490.36 L 1296.6234327018192 495.144 L 1302.9125255040724 492.752 L 1309.5990702678062 492.752 L 1315.2958817156957 492.752 L 1322.122703642305 490.36 L 1328.5520736074336 487.968 L 1334.3579895153377 490.36 L 1341.8316450263173 490.36 L 1348.081771949994 492.752 L 1354.2617602922328 490.36 L 1360.4963008644786 495.144 L 1366.73863461244 490.36 L 1372.926416130394 490.36 L 1379.2233021083623 487.968 L 1385.473429032039 492.752 L 1391.661210549993 490.36 L 1397.9113374736694 492.752 L 1404.1848439244918 492.752 L 1411.0272522025318 492.752 L 1418.1969738606147 490.36 L 1424.41592808143 490.36 L 1430.806332167982 490.36 L 1437.3370134174095 495.144 L 1443.026031689584 490.36 L 1449.3229176675522 487.968 L 1455.502906009791 492.752 L 1461.7530329334677 490.36 L 1468.003159857144 492.752 L 1474.284459483682 492.752 L 1480.526793231643 492.752 L 1486.706781573882 495.144 L 1494.5623026949118 490.36 L 1500.804636442873 492.752 L 1507.0781428936955 492.752 L 1513.2503380602188 492.752 L 1518.5652838980586 490.36 L 1525.8830758947322 490.36 L 1531.938373425526 492.752 L 1538.1573276463414 492.752 L 1544.4775931514557 492.752 L 1550.6809610208404 492.752 L 1556.9466742959476 490.36 L 1563.196801219624 487.968 L 1569.4157554404392 490.36 L 1577.1621721014549 490.36 L 1583.4434717279926 492.752 L 1589.5844941916548 495.144 L 1595.850207466762 490.36 L 1602.0925412147233 492.752 L 1613.7978911391149 492.752 L 1620.7805765800304 492.752 L 1627.1164284365752 490.36 L 1639.484198296768 492.752 L 1645.6797729904374 492.752 L 1651.976658968406 490.36 L 1658.4683743392568 490.36 L 1665.9654093773827 495.144 L 1672.2778817067815 495.144 L 1678.528008630458 487.968 L 1684.7313764998428 487.968 L 1690.8646057877897 495.144 L 1697.566736902954 490.36 L 1704.2766611938337 492.752 L 1709.5994002073887 492.752 L 1715.9040793610723 490.36 L 1722.1542062847489 492.752 L 1728.3809536812796 485.576 L 1734.5921147263796 492.752 L 1742.3541177388256 490.36 L 1748.5652787839256 490.36 L 1754.88554428904 490.36 L 1761.0109804012716 490.36 L 1767.463729893546 487.968 L 1773.5657864786317 492.752 L 1779.8003270508777 490.36 L 1786.6739080317789 492.752 L 1792.612307926843 490.36 L 1798.464982889039 490.36 L 1804.7618688670073 490.36 L 1812.4771128251616 495.144 L 1818.7584124516993 492.752 L 1824.930607618223 490.36 L 1831.928879410569 492.752 L 1843.7277474435443 490.36 L 1849.9700811915054 495.144 L 1856.2825535209045 492.752 L 1862.3612305788442 492.752 L 1868.7048756111044 490.36 L 1874.8458980747666 495.144 L 1887.2682201649666 490.36 L 1893.6742106029494 492.752 L 1900.0334419866401 490.36 L 1913.819569827019 492.752 L 1919.9917649935423 490.36 L 1926.545825770116 492.752 L 1932.554364246618 492.752 L 1938.765525291718 492.752 L 1944.9143409310955 492.752 L 1951.2112269090637 490.36 L 1963.7270671078475 490.36 L 1969.8680895715097 490.36 L 1976.3987708209374 492.752 L 1983.997117143362 490.36 L 1989.2730971026251 490.36 L 1995.7492261220457 492.752 L 2002.6929456843845 490.36 L 2008.818381796616 492.752 L 2015.0295428417162 492.752 L 2021.310842468254 490.36 L 2027.576555743361 492.752 L 2033.709785031308 492.752 L 2039.9910846578457 485.576 L 2046.1866593515151 490.36 L 2054.065559999691 490.36 L 2060.307893747652 490.36 L 2066.511261617037 490.36 L 2072.7380090135675 490.36 L 2079.050481342966 490.36 L 2085.1915038066286 492.752 L 2091.4572170817355 495.144 L 2097.7151371811274 492.752 L 2103.9262982262276 487.968 L 2110.1530456227583 495.144 L 2116.41096572215 483.18399999999997 L 2122.6377131186805 492.752 L 2128.96577179951 490.36 L 2136.6888089333797 490.36 L 2142.954522208487 490.36 L 2149.189062780733 490.36 L 2161.7049029795166 485.576 L 2168.2433774046594 483.18399999999997 L 2173.480391485346 487.968" stroke="#f15c80" stroke-width="2"  stroke-linejoin="round" stroke-linecap="round"></path></g><g class="highcharts-markers highcharts-series-5"  transform="translate(75,72) scale(1 1)" clip-path="none"></g></g><text x="1140" text-anchor="middle" class="highcharts-title"  style="color:#333333;font-size:18px;fill:#333333;width:2216px;" y="24"><tspan>Environmental Sensor Feed</tspan></text><text x="1140" text-anchor="middle" class="highcharts-subtitle"  style="color:#555555;fill:#555555;width:2216px;" y="52"><tspan>2019-11-30 16:37:45</tspan></text><g class="highcharts-legend"  transform="translate(847,730)"><rect x="0.5" y="0.5" width="585" height="53" strokeWidth="1" stroke="#C98657" stroke-width="1" fill="#FCFFC5" visibility="visible"></rect><g  transform="translate(0,24.6875)"><g><g class="highcharts-legend-item"  transform="translate(8,3)"><path fill="none" d="M 0 11 L 16 11" stroke="#7cb5ec" stroke-width="2"></path><path fill="#7cb5ec" d="M 8 7 C 13.328 7 13.328 15 8 15 C 2.6719999999999997 15 2.6719999999999997 7 8 7 Z"></path><text x="21" style="color:#333333;font-size:12px;font-weight:bold;cursor:pointer;fill:#333333;" text-anchor="start"  y="15">Humidity</text></g><g class="highcharts-legend-item"  transform="translate(104.46875,3)"><path fill="none" d="M 0 11 L 16 11" stroke="#434348" stroke-width="2"></path><path fill="#434348" d="M 8 7 L 12 11 8 15 4 11 Z"></path><text x="21" y="15" style="color:#333333;font-size:12px;font-weight:bold;cursor:pointer;fill:#333333;" text-anchor="start" >Temperature</text></g><g class="highcharts-legend-item"  transform="translate(223.984375,3)"><path fill="none" d="M 0 11 L 16 11" stroke="#CCC" stroke-width="2"></path><path fill="#CCC" d="M 4 7 L 12 7 12 15 4 15 Z"></path><text x="21" y="15" style="color:#ccc;font-size:12px;font-weight:bold;cursor:pointer;fill:#ccc;" text-anchor="start" >Pressure</text></g><g class="highcharts-legend-item"  transform="translate(316.828125,3)"><path fill="none" d="M 0 11 L 16 11" stroke="#f7a35c" stroke-width="2"></path><path fill="#f7a35c" d="M 8 7 L 12 15 4 15 Z"></path><text x="21" y="15" style="color:#333333;font-size:12px;font-weight:bold;cursor:pointer;fill:#333333;" text-anchor="start" >Light</text></g><g class="highcharts-legend-item"  transform="translate(388.921875,3)"><path fill="none" d="M 0 11 L 16 11" stroke="#8085e9" stroke-width="2"></path><path fill="#8085e9" d="M 4 7 L 12 7 8 15 Z"></path><text x="21" y="15" style="color:#333333;font-size:12px;font-weight:bold;cursor:pointer;fill:#333333;" text-anchor="start" ><tspan>IR Temperature</tspan></text></g><g class="highcharts-legend-item"  transform="translate(523.078125,3)"><path fill="none" d="M 0 11 L 16 11" stroke="#f15c80" stroke-width="2"></path><path fill="#f15c80" d="M 8 7 C 13.328 7 13.328 15 8 15 C 2.6719999999999997 15 2.6719999999999997 7 8 7 Z"></path><text x="21" y="15" style="color:#333333;font-size:12px;font-weight:bold;cursor:pointer;fill:#333333;" text-anchor="start" >Noise</text></g></g></g><g class="highcharts-legend-title"  style="" transform="translate(5,4)"><text x="3"  style="font-weight:bold;" y="15"><tspan>Select/Deselect Series to Display:</tspan></text></g></g><g class="highcharts-axis-labels highcharts-xaxis-labels" ><text x="130.84075436486776" style="color:#606060;cursor:default;font-size:11px;fill:#606060;width:74px;text-overflow:clip;" text-anchor="middle" transform="translate(0,0)" y="689" opacity="1">16:37:50</text><text x="208.77251151794172" style="color:#606060;cursor:default;font-size:11px;fill:#606060;width:74px;text-overflow:clip;" text-anchor="middle" transform="translate(0,0)" y="689" opacity="1">16:38:00</text><text x="286.70426867101565" style="color:#606060;cursor:default;font-size:11px;fill:#606060;width:74px;text-overflow:clip;" text-anchor="middle" transform="translate(0,0)" y="689" opacity="1">16:38:10</text><text x="364.6360258240896" style="color:#606060;cursor:default;font-size:11px;fill:#606060;width:74px;text-overflow:clip;" text-anchor="middle" transform="translate(0,0)" y="689" opacity="1">16:38:20</text><text x="442.5677829771635" style="color:#606060;cursor:default;font-size:11px;fill:#606060;width:74px;text-overflow:clip;" text-anchor="middle" transform="translate(0,0)" y="689" opacity="1">16:38:30</text><text x="520.4995401302375" style="color:#606060;cursor:default;font-size:11px;fill:#606060;width:74px;text-overflow:clip;" text-anchor="middle" transform="translate(0,0)" y="689" opacity="1">16:38:40</text><text x="598.4312972833114" style="color:#606060;cursor:default;font-size:11px;fill:#606060;width:74px;text-overflow:clip;" text-anchor="middle" transform="translate(0,0)" y="689" opacity="1">16:38:50</text><text x="676.3630544363854" style="color:#606060;cursor:default;font-size:11px;fill:#606060;width:74px;text-overflow:clip;" text-anchor="middle" transform="translate(0,0)" y="689" opacity="1">16:39:00</text><text x="754.2948115894593" style="color:#606060;cursor:default;font-size:11px;fill:#606060;width:74px;text-overflow:clip;" text-anchor="middle" transform="translate(0,0)" y="689" opacity="1">16:39:10</text><text x="832.2265687425332" style="color:#606060;cursor:default;font-size:11px;fill:#606060;width:74px;text-overflow:clip;" text-anchor="middle" transform="translate(0,0)" y="689" opacity="1">16:39:20</text><text x="910.1583258956072" style="color:#606060;cursor:default;font-size:11px;fill:#606060;width:74px;text-overflow:clip;" text-anchor="middle" transform="translate(0,0)" y="689" opacity="1">16:39:30</text><text x="988.0900830486811" style="color:#606060;cursor:default;font-size:11px;fill:#606060;width:74px;text-overflow:clip;" text-anchor="middle" transform="translate(0,0)" y="689" opacity="1">16:39:40</text><text x="1066.0218402017551" style="color:#606060;cursor:default;font-size:11px;fill:#606060;width:74px;text-overflow:clip;" text-anchor="middle" transform="translate(0,0)" y="689" opacity="1">16:39:50</text><text x="1143.953597354829" style="color:#606060;cursor:default;font-size:11px;fill:#606060;width:74px;text-overflow:clip;" text-anchor="middle" transform="translate(0,0)" y="689" opacity="1">16:40:00</text><text x="1221.885354507903" style="color:#606060;cursor:default;font-size:11px;fill:#606060;width:74px;text-overflow:clip;" text-anchor="middle" transform="translate(0,0)" y="689" opacity="1">16:40:10</text><text x="1299.817111660977" style="color:#606060;cursor:default;font-size:11px;fill:#606060;width:74px;text-overflow:clip;" text-anchor="middle" transform="translate(0,0)" y="689" opacity="1">16:40:20</text><text x="1377.7488688140509" style="color:#606060;cursor:default;font-size:11px;fill:#606060;width:74px;text-overflow:clip;" text-anchor="middle" transform="translate(0,0)" y="689" opacity="1">16:40:30</text><text x="1455.6806259671248" style="color:#606060;cursor:default;font-size:11px;fill:#606060;width:74px;text-overflow:clip;" text-anchor="middle" transform="translate(0,0)" y="689" opacity="1">16:40:40</text><text x="1533.6123831201987" style="color:#606060;cursor:default;font-size:11px;fill:#606060;width:74px;text-overflow:clip;" text-anchor="middle" transform="translate(0,0)" y="689" opacity="1">16:40:50</text><text x="1611.5441402732727" style="color:#606060;cursor:default;font-size:11px;fill:#606060;width:74px;text-overflow:clip;" text-anchor="middle" transform="translate(0,0)" y="689" opacity="1">16:41:00</text><text x="1689.4758974263466" style="color:#606060;cursor:default;font-size:11px;fill:#606060;width:74px;text-overflow:clip;" text-anchor="middle" transform="translate(0,0)" y="689" opacity="1">16:41:10</text><text x="1767.4076545794205" style="color:#606060;cursor:default;font-size:11px;fill:#606060;width:74px;text-overflow:clip;" text-anchor="middle" transform="translate(0,0)" y="689" opacity="1">16:41:20</text><text x="1845.3394117324945" style="color:#606060;cursor:default;font-size:11px;fill:#606060;width:74px;text-overflow:clip;" text-anchor="middle" transform="translate(0,0)" y="689" opacity="1">16:41:30</text><text x="1923.2711688855684" style="color:#606060;cursor:default;font-size:11px;fill:#606060;width:74px;text-overflow:clip;" text-anchor="middle" transform="translate(0,0)" y="689" opacity="1">16:41:40</text><text x="2001.2029260386423" style="color:#606060;cursor:default;font-size:11px;fill:#606060;width:74px;text-overflow:clip;" text-anchor="middle" transform="translate(0,0)" y="689" opacity="1">16:41:50</text><text x="2079.1346831917162" style="color:#606060;cursor:default;font-size:11px;fill:#606060;width:74px;text-overflow:clip;" text-anchor="middle" transform="translate(0,0)" y="689" opacity="1">16:42:00</text><text x="2157.0664403447904" style="color:#606060;cursor:default;font-size:11px;fill:#606060;width:74px;text-overflow:clip;" text-anchor="middle" transform="translate(0,0)" y="689" opacity="1">16:42:10</text><text x="2234.998197497864" style="color:#606060;cursor:default;font-size:11px;fill:#606060;width:74px;text-overflow:clip;" text-anchor="middle" transform="translate(0,0)" y="689" opacity="1">16:42:20</text></g><g class="highcharts-axis-labels highcharts-yaxis-labels" ><text x="60" style="color:#606060;cursor:default;font-size:11px;fill:#606060;width:742px;text-overflow:clip;" text-anchor="end" transform="translate(0,0)" y="673" opacity="1">0</text><text x="60" style="color:#606060;cursor:default;font-size:11px;fill:#606060;width:742px;text-overflow:clip;" text-anchor="end" transform="translate(0,0)" y="613" opacity="1">25</text><text x="60" style="color:#606060;cursor:default;font-size:11px;fill:#606060;width:742px;text-overflow:clip;" text-anchor="end" transform="translate(0,0)" y="553" opacity="1">50</text><text x="60" style="color:#606060;cursor:default;font-size:11px;fill:#606060;width:742px;text-overflow:clip;" text-anchor="end" transform="translate(0,0)" y="493" opacity="1">75</text><text x="60" style="color:#606060;cursor:default;font-size:11px;fill:#606060;width:742px;text-overflow:clip;" text-anchor="end" transform="translate(0,0)" y="433" opacity="1">100</text><text x="60" style="color:#606060;cursor:default;font-size:11px;fill:#606060;width:742px;text-overflow:clip;" text-anchor="end" transform="translate(0,0)" y="374" opacity="1">125</text><text x="60" style="color:#606060;cursor:default;font-size:11px;fill:#606060;width:742px;text-overflow:clip;" text-anchor="end" transform="translate(0,0)" y="314" opacity="1">150</text><text x="60" style="color:#606060;cursor:default;font-size:11px;fill:#606060;width:742px;text-overflow:clip;" text-anchor="end" transform="translate(0,0)" y="254" opacity="1">175</text><text x="60" style="color:#606060;cursor:default;font-size:11px;fill:#606060;width:742px;text-overflow:clip;" text-anchor="end" transform="translate(0,0)" y="194" opacity="1">200</text><text x="60" style="color:#606060;cursor:default;font-size:11px;fill:#606060;width:742px;text-overflow:clip;" text-anchor="end" transform="translate(0,0)" y="134" opacity="1">225</text><text x="60" style="color:#606060;cursor:default;font-size:11px;fill:#606060;width:742px;text-overflow:clip;" text-anchor="end" transform="translate(0,0)" y="75" opacity="1">250</text></g><g class="highcharts-tooltip"  style="cursor:default;padding:0;pointer-events:none;white-space:nowrap;" transform="translate(0,-9999)"><path fill="none" d="M 3.5 0.5 L 13.5 0.5 C 16.5 0.5 16.5 0.5 16.5 3.5 L 16.5 13.5 C 16.5 16.5 16.5 16.5 13.5 16.5 L 3.5 16.5 C 0.5 16.5 0.5 16.5 0.5 13.5 L 0.5 3.5 C 0.5 0.5 0.5 0.5 3.5 0.5"  stroke="black" stroke-opacity="0.049999999999999996" stroke-width="5" transform="translate(1, 1)"></path><path fill="none" d="M 3.5 0.5 L 13.5 0.5 C 16.5 0.5 16.5 0.5 16.5 3.5 L 16.5 13.5 C 16.5 16.5 16.5 16.5 13.5 16.5 L 3.5 16.5 C 0.5 16.5 0.5 16.5 0.5 13.5 L 0.5 3.5 C 0.5 0.5 0.5 0.5 3.5 0.5"  stroke="black" stroke-opacity="0.09999999999999999" stroke-width="3" transform="translate(1, 1)"></path><path fill="none" d="M 3.5 0.5 L 13.5 0.5 C 16.5 0.5 16.5 0.5 16.5 3.5 L 16.5 13.5 C 16.5 16.5 16.5 16.5 13.5 16.5 L 3.5 16.5 C 0.5 16.5 0.5 16.5 0.5 13.5 L 0.5 3.5 C 0.5 0.5 0.5 0.5 3.5 0.5"  stroke="black" stroke-opacity="0.15" stroke-width="1" transform="translate(1, 1)"></path><path fill="rgb(249, 249, 249)" fill-opacity=" .85" d="M 3.5 0.5 L 13.5 0.5 C 16.5 0.5 16.5 0.5 16.5 3.5 L 16.5 13.5 C 16.5 16.5 16.5 16.5 13.5 16.5 L 3.5 16.5 C 0.5 16.5 0.5 16.5 0.5 13.5 L 0.5 3.5 C 0.5 0.5 0.5 0.5 3.5 0.5"></path><text x="8"  style="font-size:12px;color:#333333;fill:#333333;" y="20"></text></g><text x="2270" text-anchor="end"  style="cursor:pointer;color:#909090;font-size:9px;fill:#909090;" y="795"></text></svg>