<svg xmlns:xlink="http://www.w3.org/1999/xlink" version="1.1" style="font-family:'lucida grande', 'lucida sans unicode', arial, helvetica, sans-serif;font-size:12px;" xmlns="http://www.w3.org/2000/svg" width="2280" height="800"><desc>Created with Highcharts 4.2.1 /Highstock 4.2.1</desc><defs><clipPath id="highcharts-34"><rect x="0" y="0" width="2207" height="627"></rect></clipPath></defs><rect x="0" y="0" width="2280" height="800" strokeWidth="0" fill="#FFFFFF" class=" highcharts-background"></rect><g class="highcharts-grid" ></g><g class="highcharts-grid" ><path fill="none" d="M 63 688.5 L 2270 688.5" stroke="#D8D8D8" stroke-width="1"  opacity="1"></path><path fill="none" d="M 63 598.5 L 2270 598.5" stroke="#D8D8D8" stroke-width="1"  opacity="1"></path><path fill="none" d="M 63 509.5 L 2270 509.5" stroke="#D8D8D8" stroke-width="1"  opacity="1"></path><path fill="none" d="M 63 419.5 L 2270 419.5" stroke="#D8D8D8" stroke-width="1"  opacity="1"></path><path fill="none" d="M 63 330.5 L 2270 330.5" stroke="#D8D8D8" stroke-width="1"  opacity="1"></path><path fill="none" d="M 63 240.5 L 2270 240.5" stroke="#D8D8D8" stroke-width="1"  opacity="1"></path><path fill="none" d="M 63 151.5 L 2270 151.5" stroke="#D8D8D8" stroke-width="1"  opacity="1"></path><path fill="none" d="M 63 60.5 L 2270 60.5" stroke="#D8D8D8" stroke-width="1"  opacity="1"></path></g><g class="highcharts-axis" ><path fill="none" d="M 166.5 688 L 166.5 698" stroke="#C0D0E0" stroke-width="1" opacity="1"></path><path fill="none" d="M 286.5 688 L 286.5 698" stroke="#C0D0E0" stroke-width="1" opacity="1"></path><path fill="none" d="M 405.5 688 L 405.5 698" stroke="#C0D0E0" stroke-width="1" opacity="1"></path><path fill="none" d="M 524.5 688 L 524.5 698" stroke="#C0D0E0" stroke-width="1" opacity="1"></path><path fill="none" d="M 643.5 688 L 643.5 698" stroke="#C0D0E0" stroke-width="1" opacity="1"></path><path fill="none" d="M 763.5 688 L 763.5 698" stroke="#C0D0E0" stroke-width="1" opacity="1"></path><path fill="none" d="M 882.5 688 L 882.5 698" stroke="#C0D0E0" stroke-width="1" opacity="1"></path><path fill="none" d="M 1001.5 688 L 1001.5 698" stroke="#C0D0E0" stroke-width="1" opacity="1"></path><path fill="none" d="M 1121.5 688 L 1121.5 698" stroke="#C0D0E0" stroke-width="1" opacity="1"></path><path fill="none" d="M 1240.5 688 L 1240.5 698" stroke="#C0D0E0" stroke-width="1" opacity="1"></path><path fill="none" d="M 1359.5 688 L 1359.5 698" stroke="#C0D0E0" stroke-width="1" opacity="1"></path><path fill="none" d="M 1478.5 688 L 1478.5 698" stroke="#C0D0E0" stroke-width="1" opacity="1"></path><path fill="none" d="M 1598.5 688 L 1598.5 698" stroke="#C0D0E0" stroke-width="1" opacity="1"></path><path fill="none" d="M 1717.5 688 L 1717.5 698" stroke="#C0D0E0" stroke-width="1" opacity="1"></path><path fill="none" d="M 1836.5 688 L 1836.5 698" stroke="#C0D0E0" stroke-width="1" opacity="1"></path><path fill="none" d="M 1956.5 688 L 1956.5 698" stroke="#C0D0E0" stroke-width="1" opacity="1"></path><path fill="none" d="M 2075.5 688 L 2075.5 698" stroke="#C0D0E0" stroke-width="1" opacity="1"></path><path fill="none" d="M 2194.5 688 L 2194.5 698" stroke="#C0D0E0" stroke-width="1" opacity="1"></path><text x="1166.5"  text-anchor="middle" transform="translate(0,0)" class=" highcharts-xaxis-title" style="color:#707070;fill:#707070;" y="725.96875">Time</text><path fill="none" d="M 63 688.5 L 2270 688.5" stroke="#C0D0E0" stroke-width="1" ></path></g><g class="highcharts-axis" ><text x="24.078125"  text-anchor="middle" transform="translate(0,0) rotate(270 24.078125 374.5)" class=" highcharts-yaxis-title" style="color:#707070;fill:#707070;" y="374.5">Values</text></g><g class="highcharts-series-group" ><g class="highcharts-series highcharts-series-0"  transform="translate(63,61) scale(1 1)" clip-path="url(#highcharts-34)"><path fill="none" d="M 21.63725483343888 304.54285714285714 L 23.552938634854467 304.54285714285714 L 27.167211311248753 304.54285714285714 L 29.56002681911903 304.54285714285714 L 32.3488616433467 304.54285714285714 L 33.369923495159746 304.54285714285714 L 61.17477368880689 300.0642857142857 L 72.69034742409086 300.0642857142857 L 120.89734938574061 295.5857142857143 L 139.50787159600586 300.0642857142857 L 143.92849685630858 300.0642857142857 L 190.15063091910682 309.02142857142854 L 245.19731589278456 313.5 L 285.5698152344483 317.9785714285714 L 357.14911383678105 322.45714285714286 L 384.07127037348704 322.45714285714286 L 452.5659124935903 322.45714285714286 L 476.5966508891808 322.45714285714286 L 524.1857672909717 322.45714285714286 L 595.6863391617395 322.45714285714286 L 620.0033565812029 322.45714285714286 L 674.6134660434745 322.45714285714286 L 738.8306224152115 322.45714285714286 L 765.757550268982 322.45714285714286 L 817.752977979882 322.45714285714286 L 881.9629773760221 322.45714285714286 L 906.0056440642741 322.45714285714286 L 960.8734046480313 322.45714285714286 L 1025.1191889221554 322.45714285714286 L 1049.1904835127946 322.45714285714286 L 1103.9986026332451 322.45714285714286 L 1152.119720887733 322.45714285714286 L 1215.9384722845803 322.45714285714286 L 1239.9334258021865 322.45714285714286 L 1315.2963788367051 322.45714285714286 L 1363.207559140353 322.45714285714286 L 1411.0710262733553 322.45714285714286 L 1458.917793796632 322.45714285714286 L 1504.1164803490847 322.45714285714286 L 1551.9489339211675 322.45714285714286 L 1599.7861588103149 322.45714285714286 L 1647.7283526748822 322.45714285714286 L 1696.0283953192907 322.45714285714286 L 1743.9515039156 322.45714285714286 L 1791.8221280241992 322.45714285714286 L 1839.7356939863791 322.45714285714286 L 1887.6325603388334 322.45714285714286 L 1935.7894634713055 322.45714285714286 L 1984.0942774327784 322.45714285714286 L 2032.0006864193617 322.45714285714286 L 2079.9548085765905 322.45714285714286 L 2127.8325896607867 322.45714285714286 L 2175.73899864737 322.45714285714286 L 2183.9122647789386 322.45714285714286 L 2185.362745166561 322.45714285714286" stroke="#7cb5ec" stroke-width="2"  stroke-linejoin="round" stroke-linecap="round"></path></g><g class="highcharts-markers highcharts-series-0"  transform="translate(63,61) scale(1 1)" clip-path="none"></g><g class="highcharts-series highcharts-series-1"  transform="translate(63,61) scale(1 1)" clip-path="url(#highcharts-34)"><path fill="none" d="M 21.63725483343888 289.49485714285714 L 23.552938634854467 289.40528571428575 L 27.167211311248753 289.40528571428575 L 29.56002681911903 289.22614285714286 L 32.3488616433467 289.22614285714286 L 33.369923495159746 289.22614285714286 L 61.17477368880689 289.1365714285714 L 72.69034742409086 288.9574285714285 L 120.89734938574061 288.59914285714285 L 139.50787159600586 288.5095714285714 L 143.92849685630858 288.42 L 190.15063091910682 288.2408571428571 L 245.19731589278456 288.2408571428571 L 285.5698152344483 288.68871428571424 L 357.14911383678105 289.31571428571425 L 384.07127037348704 289.49485714285714 L 452.5659124935903 290.0322857142857 L 476.5966508891808 290.39057142857143 L 524.1857672909717 290.6592857142857 L 595.6863391617395 291.10714285714283 L 620.0033565812029 291.55499999999995 L 674.6134660434745 291.73414285714284 L 738.8306224152115 292.09242857142857 L 765.757550268982 292.27157142857146 L 817.752977979882 292.62985714285713 L 881.9629773760221 292.8985714285715 L 906.0056440642741 293.1672857142857 L 960.8734046480313 293.3464285714286 L 1025.1191889221554 293.7942857142857 L 1049.1904835127946 293.97342857142854 L 1103.9986026332451 294.33171428571427 L 1152.119720887733 294.60042857142855 L 1215.9384722845803 294.9587142857143 L 1239.9334258021865 294.8691428571429 L 1315.2963788367051 295.1378571428572 L 1363.207559140353 295.317 L 1411.0710262733553 295.85442857142857 L 1458.917793796632 296.12314285714285 L 1504.1164803490847 296.4814285714286 L 1551.9489339211675 296.4814285714286 L 1599.7861588103149 296.9292857142857 L 1647.7283526748822 297.1084285714286 L 1696.0283953192907 297.46671428571426 L 1743.9515039156 297.37714285714287 L 1791.8221280241992 297.46671428571426 L 1839.7356939863791 297.825 L 1887.6325603388334 297.9145714285714 L 1935.7894634713055 297.9145714285714 L 1984.0942774327784 298.3624285714286 L 2032.0006864193617 298.5415714285714 L 2079.9548085765905 298.6311428571429 L 2127.8325896607867 298.6311428571429 L 2175.73899864737 298.6311428571429 L 2183.9122647789386 298.8998571428571 L 2185.362745166561 298.8102857142857" stroke="#434348" stroke-width="2"  stroke-linejoin="round" stroke-linecap="round"></path></g><g class="highcharts-markers highcharts-series-1"  transform="translate(63,61) scale(1 1)" clip-path="none"></g><g class="highcharts-series highcharts-series-2"  visibility="hidden" transform="translate(63,61) scale(1 1)" clip-path="url(#highcharts-34)"></g><g class="highcharts-markers highcharts-series-2"  visibility="hidden" transform="translate(63,61) scale(1 1)" clip-path="none"></g><g class="highcharts-series highcharts-series-3"  transform="translate(63,61) scale(1 1)" clip-path="url(#highcharts-34)"><path fill="none" d="M 21.63725483343888 627 L 23.552938634854467 627 L 27.167211311248753 627 L 29.56002681911903 627 L 32.3488616433467 627 L 33.369923495159746 627 L 61.17477368880689 510.5571428571428 L 72.69034742409086 582.2142857142857 L 120.89734938574061 519.5142857142857 L 139.50787159600586 492.6428571428571 L 143.92849685630858 492.6428571428571 L 190.15063091910682 510.5571428571428 L 245.19731589278456 510.5571428571428 L 285.5698152344483 510.5571428571428 L 357.14911383678105 510.5571428571428 L 384.07127037348704 510.5571428571428 L 452.5659124935903 510.5571428571428 L 476.5966508891808 510.5571428571428 L 524.1857672909717 627 L 595.6863391617395 528.4714285714285 L 620.0033565812029 537.4285714285714 L 674.6134660434745 537.4285714285714 L 738.8306224152115 528.4714285714285 L 765.757550268982 537.4285714285714 L 817.752977979882 537.4285714285714 L 881.9629773760221 537.4285714285714 L 906.0056440642741 537.4285714285714 L 960.8734046480313 537.4285714285714 L 1025.1191889221554 537.4285714285714 L 1049.1904835127946 537.4285714285714 L 1103.9986026332451 537.4285714285714 L 1152.119720887733 537.4285714285714 L 1215.9384722845803 537.4285714285714 L 1239.9334258021865 528.4714285714285 L 1315.2963788367051 537.4285714285714 L 1363.207559140353 537.4285714285714 L 1411.0710262733553 537.4285714285714 L 1458.917793796632 528.4714285714285 L 1504.1164803490847 537.4285714285714 L 1551.9489339211675 537.4285714285714 L 1599.7861588103149 528.4714285714285 L 1647.7283526748822 537.4285714285714 L 1696.0283953192907 537.4285714285714 L 1743.9515039156 537.4285714285714 L 1791.8221280241992 537.4285714285714 L 1839.7356939863791 528.4714285714285 L 1887.6325603388334 537.4285714285714 L 1935.7894634713055 537.4285714285714 L 1984.0942774327784 537.4285714285714 L 2032.0006864193617 537.4285714285714 L 2079.9548085765905 537.4285714285714 L 2127.8325896607867 537.4285714285714 L 2175.73899864737 537.4285714285714 L 2183.9122647789386 537.4285714285714 L 2185.362745166561 537.4285714285714" stroke="#f7a35c" stroke-width="2"  stroke-linejoin="round" stroke-linecap="round"></path></g><g class="highcharts-markers highcharts-series-3"  transform="translate(63,61) scale(1 1)" clip-path="none"></g><g class="highcharts-series highcharts-series-4"  transform="translate(63,61) scale(1 1)" clip-path="url(#highcharts-34)"><path fill="none" d="M 21.63725483343888 35.29114285714286 L 23.552938634854467 35.29114285714286 L 27.167211311248753 35.918142857142925 L 29.56002681911903 37.978285714285676 L 32.3488616433467 40.5758571428571 L 33.369923495159746 32.60400000000004 L 61.17477368880689 94.9457142857143 L 72.69034742409086 94.9457142857143 L 120.89734938574061 114.11400000000003 L 139.50787159600586 126.654 L 143.92849685630858 121.3692857142857 L 190.15063091910682 138.6565714285714 L 245.19731589278456 155.8542857142857 L 285.5698152344483 163.82614285714283 L 357.14911383678105 179.68028571428573 L 384.07127037348704 177.7097142857143 L 452.5659124935903 187.65214285714285 L 476.5966508891808 188.27914285714286 L 524.1857672909717 193.5638571428571 L 595.6863391617395 196.878 L 620.0033565812029 200.19214285714287 L 674.6134660434745 202.1627142857143 L 738.8306224152115 208.164 L 765.757550268982 202.1627142857143 L 817.752977979882 213.4487142857143 L 881.9629773760221 212.10514285714282 L 906.0056440642741 210.85114285714286 L 960.8734046480313 213.4487142857143 L 1025.1191889221554 212.82171428571428 L 1049.1904835127946 216.13585714285716 L 1103.9986026332451 213.4487142857143 L 1152.119720887733 212.10514285714282 L 1215.9384722845803 215.4192857142857 L 1239.9334258021865 213.4487142857143 L 1315.2963788367051 216.13585714285716 L 1363.207559140353 215.4192857142857 L 1411.0710262733553 218.7334285714286 L 1458.917793796632 216.13585714285716 L 1504.1164803490847 220.7935714285714 L 1551.9489339211675 214.1652857142857 L 1599.7861588103149 218.10642857142858 L 1647.7283526748822 215.4192857142857 L 1696.0283953192907 220.077 L 1743.9515039156 216.13585714285716 L 1791.8221280241992 216.13585714285716 L 1839.7356939863791 218.7334285714286 L 1887.6325603388334 218.10642857142858 L 1935.7894634713055 217.47942857142857 L 1984.0942774327784 216.76285714285717 L 2032.0006864193617 221.4205714285714 L 2079.9548085765905 216.76285714285717 L 2127.8325896607867 216.76285714285717 L 2175.73899864737 219.45 L 2183.9122647789386 220.7935714285714 L 2185.362745166561 219.45" stroke="#8085e9" stroke-width="2"  stroke-linejoin="round" stroke-linecap="round"></path></g><g class="highcharts-markers highcharts-series-4"  transform="translate(63,61) scale(1 1)" clip-path="none"></g><g class="highcharts-series highcharts-series-5"  transform="translate(63,61) scale(1 1)" clip-path="url(#highcharts-34)"><path fill="none" d="M 21.63725483343888 241.84285714285716 L 23.552938634854467 250.8 L 27.167211311248753 259.75714285714287 L 29.56002681911903 241.84285714285716 L 32.3488616433467 250.8 L 33.369923495159746 143.3142857142857 L 61.17477368880689 250.8 L 72.69034742409086 232.8857142857143 L 120.89734938574061 250.8 L 139.50787159600586 259.75714285714287 L 143.92849685630858 250.8 L 190.15063091910682 250.8 L 245.19731589278456 259.75714285714287 L 285.5698152344483 250.8 L 357.14911383678105 250.8 L 384.07127037348704 241.84285714285716 L 452.5659124935903 250.8 L 476.5966508891808 259.75714285714287 L 524.1857672909717 259.75714285714287 L 595.6863391617395 250.8 L 620.0033565812029 250.8 L 674.6134660434745 259.75714285714287 L 738.8306224152115 250.8 L 765.757550268982 250.8 L 817.752977979882 250.8 L 881.9629773760221 241.84285714285716 L 906.0056440642741 250.8 L 960.8734046480313 250.8 L 1025.1191889221554 259.75714285714287 L 1049.1904835127946 259.75714285714287 L 1103.9986026332451 250.8 L 1152.119720887733 250.8 L 1215.9384722845803 250.8 L 1239.9334258021865 250.8 L 1315.2963788367051 259.75714285714287 L 1363.207559140353 250.8 L 1411.0710262733553 250.8 L 1458.917793796632 250.8 L 1504.1164803490847 259.75714285714287 L 1551.9489339211675 250.8 L 1599.7861588103149 241.84285714285716 L 1647.7283526748822 250.8 L 1696.0283953192907 259.75714285714287 L 1743.9515039156 250.8 L 1791.8221280241992 250.8 L 1839.7356939863791 223.92857142857144 L 1887.6325603388334 232.8857142857143 L 1935.7894634713055 250.8 L 1984.0942774327784 241.84285714285716 L 2032.0006864193617 250.8 L 2079.9548085765905 250.8 L 2127.8325896607867 250.8 L 2175.73899864737 214.9714285714286 L 2183.9122647789386 259.75714285714287 L 2185.362745166561 250.8" stroke="#f15c80" stroke-width="2"  stroke-linejoin="round" stroke-linecap="round"></path></g><g class="highcharts-markers highcharts-series-5"  transform="translate(63,61) scale(1 1)" clip-path="none"></g></g><text x="1140" text-anchor="middle" class="highcharts-title"  style="color:#333333;font-size:18px;fill:#333333;width:2216px;" y="24"><tspan>Environmental Sensor Feed</tspan></text><text x="1140" text-anchor="middle" class="highcharts-subtitle"  style="color:#555555;fill:#555555;width:2216px;" y="45"><tspan>2019-11-30 18:52:45</tspan></text><g class="highcharts-legend"  transform="translate(843,740)"><rect x="0.5" y="0.5" width="593" height="44" strokeWidth="1" stroke="#C98657" stroke-width="1" fill="#FCFFC5" visibility="visible"></rect><g  transform="translate(0,20.140625)"><g><g class="highcharts-legend-item"  transform="translate(8,3)"><path fill="none" d="M 0 11 L 16 11" stroke="#7cb5ec" stroke-width="2"></path><path fill="#7cb5ec" d="M 8 7 C 13.328 7 13.328 15 8 15 C 2.6719999999999997 15 2.6719999999999997 7 8 7 Z"></path><text x="21" style="color:#333333;font-size:12px;font-weight:bold;cursor:pointer;fill:#333333;" text-anchor="start"  y="15">Humidity</text></g><g class="highcharts-legend-item"  transform="translate(105.5,3)"><path fill="none" d="M 0 11 L 16 11" stroke="#434348" stroke-width="2"></path><path fill="#434348" d="M 8 7 L 12 11 8 15 4 11 Z"></path><text x="21" y="15" style="color:#333333;font-size:12px;font-weight:bold;cursor:pointer;fill:#333333;" text-anchor="start" >Temperature</text></g><g class="highcharts-legend-item"  transform="translate(226.171875,3)"><path fill="none" d="M 0 11 L 16 11" stroke="#CCC" stroke-width="2"></path><path fill="#CCC" d="M 4 7 L 12 7 12 15 4 15 Z"></path><text x="21" y="15" style="color:#ccc;font-size:12px;font-weight:bold;cursor:pointer;fill:#ccc;" text-anchor="start" >Pressure</text></g><g class="highcharts-legend-item"  transform="translate(320.96875,3)"><path fill="none" d="M 0 11 L 16 11" stroke="#f7a35c" stroke-width="2"></path><path fill="#f7a35c" d="M 8 7 L 12 15 4 15 Z"></path><text x="21" y="15" style="color:#333333;font-size:12px;font-weight:bold;cursor:pointer;fill:#333333;" text-anchor="start" >Light</text></g><g class="highcharts-legend-item"  transform="translate(393.515625,3)"><path fill="none" d="M 0 11 L 16 11" stroke="#8085e9" stroke-width="2"></path><path fill="#8085e9" d="M 4 7 L 12 7 8 15 Z"></path><text x="21" y="15" style="color:#333333;font-size:12px;font-weight:bold;cursor:pointer;fill:#333333;" text-anchor="start" ><tspan>IR Temperature</tspan></text></g><g class="highcharts-legend-item"  transform="translate(530.40625,3)"><path fill="none" d="M 0 11 L 16 11" stroke="#f15c80" stroke-width="2"></path><path fill="#f15c80" d="M 8 7 C 13.328 7 13.328 15 8 15 C 2.6719999999999997 15 2.6719999999999997 7 8 7 Z"></path><text x="21" y="15" style="color:#333333;font-size:12px;font-weight:bold;cursor:pointer;fill:#333333;" text-anchor="start" >Noise</text></g></g></g><g class="highcharts-legend-title"  style="" transform="translate(5,4)"><text x="3"  style="font-weight:bold;" y="15"><tspan>Select/Deselect Series to Display:</tspan></text></g></g><g class="highcharts-axis-labels highcharts-xaxis-labels" ><text x="167.30032297671417" style="color:#606060;cursor:default;font-size:11px;fill:#606060;width:123px;text-overflow:clip;" text-anchor="middle" transform="translate(0,0)" y="707" opacity="1">18:53:20</text><text x="286.583249590387" style="color:#606060;cursor:default;font-size:11px;fill:#606060;width:123px;text-overflow:clip;" text-anchor="middle" transform="translate(0,0)" y="707" opacity="1">18:54:10</text><text x="405.8661762040599" style="color:#606060;cursor:default;font-size:11px;fill:#606060;width:123px;text-overflow:clip;" text-anchor="middle" transform="translate(0,0)" y="707" opacity="1">18:55:00</text><text x="525.1491028177327" style="color:#606060;cursor:default;font-size:11px;fill:#606060;width:123px;text-overflow:clip;" text-anchor="middle" transform="translate(0,0)" y="707" opacity="1">18:55:50</text><text x="644.4320294314056" style="color:#606060;cursor:default;font-size:11px;fill:#606060;width:123px;text-overflow:clip;" text-anchor="middle" transform="translate(0,0)" y="707" opacity="1">18:56:40</text><text x="763.7149560450785" style="color:#606060;cursor:default;font-size:11px;fill:#606060;width:123px;text-overflow:clip;" text-anchor="middle" transform="translate(0,0)" y="707" opacity="1">18:57:30</text><text x="882.9978826587513" style="color:#606060;cursor:default;font-size:11px;fill:#606060;width:123px;text-overflow:clip;" text-anchor="middle" transform="translate(0,0)" y="707" opacity="1">18:58:20</text><text x="1002.2808092724242" style="color:#606060;cursor:default;font-size:11px;fill:#606060;width:123px;text-overflow:clip;" text-anchor="middle" transform="translate(0,0)" y="707" opacity="1">18:59:10</text><text x="1121.563735886097" style="color:#606060;cursor:default;font-size:11px;fill:#606060;width:123px;text-overflow:clip;" text-anchor="middle" transform="translate(0,0)" y="707" opacity="1">19:00:00</text><text x="1240.84666249977" style="color:#606060;cursor:default;font-size:11px;fill:#606060;width:123px;text-overflow:clip;" text-anchor="middle" transform="translate(0,0)" y="707" opacity="1">19:00:50</text><text x="1360.1295891134428" style="color:#606060;cursor:default;font-size:11px;fill:#606060;width:123px;text-overflow:clip;" text-anchor="middle" transform="translate(0,0)" y="707" opacity="1">19:01:40</text><text x="1479.4125157271155" style="color:#606060;cursor:default;font-size:11px;fill:#606060;width:123px;text-overflow:clip;" text-anchor="middle" transform="translate(0,0)" y="707" opacity="1">19:02:30</text><text x="1598.6954423407885" style="color:#606060;cursor:default;font-size:11px;fill:#606060;width:123px;text-overflow:clip;" text-anchor="middle" transform="translate(0,0)" y="707" opacity="1">19:03:20</text><text x="1717.9783689544613" style="color:#606060;cursor:default;font-size:11px;fill:#606060;width:123px;text-overflow:clip;" text-anchor="middle" transform="translate(0,0)" y="707" opacity="1">19:04:10</text><text x="1837.2612955681343" style="color:#606060;cursor:default;font-size:11px;fill:#606060;width:123px;text-overflow:clip;" text-anchor="middle" transform="translate(0,0)" y="707" opacity="1">19:05:00</text><text x="1956.544222181807" style="color:#606060;cursor:default;font-size:11px;fill:#606060;width:123px;text-overflow:clip;" text-anchor="middle" transform="translate(0,0)" y="707" opacity="1">19:05:50</text><text x="2075.82714879548" style="color:#606060;cursor:default;font-size:11px;fill:#606060;width:123px;text-overflow:clip;" text-anchor="middle" transform="translate(0,0)" y="707" opacity="1">19:06:40</text><text x="2195.1100754091526" style="color:#606060;cursor:default;font-size:11px;fill:#606060;width:123px;text-overflow:clip;" text-anchor="middle" transform="translate(0,0)" y="707" opacity="1">19:07:30</text></g><g class="highcharts-axis-labels highcharts-yaxis-labels" ><text x="48" style="color:#606060;cursor:default;font-size:11px;fill:#606060;width:742px;text-overflow:clip;" text-anchor="end" transform="translate(0,0)" y="693" opacity="1">0</text><text x="48" style="color:#606060;cursor:default;font-size:11px;fill:#606060;width:742px;text-overflow:clip;" text-anchor="end" transform="translate(0,0)" y="603" opacity="1">10</text><text x="48" style="color:#606060;cursor:default;font-size:11px;fill:#606060;width:742px;text-overflow:clip;" text-anchor="end" transform="translate(0,0)" y="513" opacity="1">20</text><text x="48" style="color:#606060;cursor:default;font-size:11px;fill:#606060;width:742px;text-overflow:clip;" text-anchor="end" transform="translate(0,0)" y="424" opacity="1">30</text><text x="48" style="color:#606060;cursor:default;font-size:11px;fill:#606060;width:742px;text-overflow:clip;" text-anchor="end" transform="translate(0,0)" y="334" opacity="1">40</text><text x="48" style="color:#606060;cursor:default;font-size:11px;fill:#606060;width:742px;text-overflow:clip;" text-anchor="end" transform="translate(0,0)" y="245" opacity="1">50</text><text x="48" style="color:#606060;cursor:default;font-size:11px;fill:#606060;width:742px;text-overflow:clip;" text-anchor="end" transform="translate(0,0)" y="155" opacity="1">60</text><text x="48" style="color:#606060;cursor:default;font-size:11px;fill:#606060;width:742px;text-overflow:clip;" text-anchor="end" transform="translate(0,0)" y="66" opacity="1">70</text></g><g class="highcharts-tooltip"  style="cursor:default;padding:0;pointer-events:none;white-space:nowrap;" transform="translate(0,-9999)"><path fill="none" d="M 3.5 0.5 L 13.5 0.5 C 16.5 0.5 16.5 0.5 16.5 3.5 L 16.5 13.5 C 16.5 16.5 16.5 16.5 13.5 16.5 L 3.5 16.5 C 0.5 16.5 0.5 16.5 0.5 13.5 L 0.5 3.5 C 0.5 0.5 0.5 0.5 3.5 0.5"  stroke="black" stroke-opacity="0.049999999999999996" stroke-width="5" transform="translate(1, 1)"></path><path fill="none" d="M 3.5 0.5 L 13.5 0.5 C 16.5 0.5 16.5 0.5 16.5 3.5 L 16.5 13.5 C 16.5 16.5 16.5 16.5 13.5 16.5 L 3.5 16.5 C 0.5 16.5 0.5 16.5 0.5 13.5 L 0.5 3.5 C 0.5 0.5 0.5 0.5 3.5 0.5"  stroke="black" stroke-opacity="0.09999999999999999" stroke-width="3" transform="translate(1, 1)"></path><path fill="none" d="M 3.5 0.5 L 13.5 0.5 C 16.5 0.5 16.5 0.5 16.5 3.5 L 16.5 13.5 C 16.5 16.5 16.5 16.5 13.5 16.5 L 3.5 16.5 C 0.5 16.5 0.5 16.5 0.5 13.5 L 0.5 3.5 C 0.5 0.5 0.5 0.5 3.5 0.5"  stroke="black" stroke-opacity="0.15" stroke-width="1" transform="translate(1, 1)"></path><path fill="rgb(249, 249, 249)" fill-opacity=" .85" d="M 3.5 0.5 L 13.5 0.5 C 16.5 0.5 16.5 0.5 16.5 3.5 L 16.5 13.5 C 16.5 16.5 16.5 16.5 13.5 16.5 L 3.5 16.5 C 0.5 16.5 0.5 16.5 0.5 13.5 L 0.5 3.5 C 0.5 0.5 0.5 0.5 3.5 0.5"></path><text x="8"  style="font-size:12px;color:#333333;fill:#333333;" y="20"></text></g><text x="2270" text-anchor="end"  style="cursor:pointer;color:#909090;font-size:9px;fill:#909090;" y="795"></text></svg>