<svg xmlns:xlink="http://www.w3.org/1999/xlink" version="1.1" style="font-family:'lucida grande', 'lucida sans unicode', arial, helvetica, sans-serif;font-size:12px;" xmlns="http://www.w3.org/2000/svg" width="2280" height="800"><desc>Created with Highcharts 4.2.1 /Highstock 4.2.1</desc><defs><clipPath id="highcharts-34"><rect x="0" y="0" width="2207" height="627"></rect></clipPath></defs><rect x="0" y="0" width="2280" height="800" strokeWidth="0" fill="#FFFFFF" class=" highcharts-background"></rect><g class="highcharts-grid" ></g><g class="highcharts-grid" ><path fill="none" d="M 63 688.5 L 2270 688.5" stroke="#D8D8D8" stroke-width="1"  opacity="1"></path><path fill="none" d="M 63 631.5 L 2270 631.5" stroke="#D8D8D8" stroke-width="1"  opacity="1"></path><path fill="none" d="M 63 574.5 L 2270 574.5" stroke="#D8D8D8" stroke-width="1"  opacity="1"></path><path fill="none" d="M 63 517.5 L 2270 517.5" stroke="#D8D8D8" stroke-width="1"  opacity="1"></path><path fill="none" d="M 63 460.5 L 2270 460.5" stroke="#D8D8D8" stroke-width="1"  opacity="1"></path><path fill="none" d="M 63 403.5 L 2270 403.5" stroke="#D8D8D8" stroke-width="1"  opacity="1"></path><path fill="none" d="M 63 346.5 L 2270 346.5" stroke="#D8D8D8" stroke-width="1"  opacity="1"></path><path fill="none" d="M 63 289.5 L 2270 289.5" stroke="#D8D8D8" stroke-width="1"  opacity="1"></path><path fill="none" d="M 63 232.5 L 2270 232.5" stroke="#D8D8D8" stroke-width="1"  opacity="1"></path><path fill="none" d="M 63 175.5 L 2270 175.5" stroke="#D8D8D8" stroke-width="1"  opacity="1"></path><path fill="none" d="M 63 118.5 L 2270 118.5" stroke="#D8D8D8" stroke-width="1"  opacity="1"></path><path fill="none" d="M 63 60.5 L 2270 60.5" stroke="#D8D8D8" stroke-width="1"  opacity="1"></path></g><g class="highcharts-axis" ><path fill="none" d="M 90.5 688 L 90.5 698" stroke="#C0D0E0" stroke-width="1" opacity="1"></path><path fill="none" d="M 210.5 688 L 210.5 698" stroke="#C0D0E0" stroke-width="1" opacity="1"></path><path fill="none" d="M 329.5 688 L 329.5 698" stroke="#C0D0E0" stroke-width="1" opacity="1"></path><path fill="none" d="M 449.5 688 L 449.5 698" stroke="#C0D0E0" stroke-width="1" opacity="1"></path><path fill="none" d="M 568.5 688 L 568.5 698" stroke="#C0D0E0" stroke-width="1" opacity="1"></path><path fill="none" d="M 688.5 688 L 688.5 698" stroke="#C0D0E0" stroke-width="1" opacity="1"></path><path fill="none" d="M 808.5 688 L 808.5 698" stroke="#C0D0E0" stroke-width="1" opacity="1"></path><path fill="none" d="M 927.5 688 L 927.5 698" stroke="#C0D0E0" stroke-width="1" opacity="1"></path><path fill="none" d="M 1047.5 688 L 1047.5 698" stroke="#C0D0E0" stroke-width="1" opacity="1"></path><path fill="none" d="M 1166.5 688 L 1166.5 698" stroke="#C0D0E0" stroke-width="1" opacity="1"></path><path fill="none" d="M 1286.5 688 L 1286.5 698" stroke="#C0D0E0" stroke-width="1" opacity="1"></path><path fill="none" d="M 1406.5 688 L 1406.5 698" stroke="#C0D0E0" stroke-width="1" opacity="1"></path><path fill="none" d="M 1525.5 688 L 1525.5 698" stroke="#C0D0E0" stroke-width="1" opacity="1"></path><path fill="none" d="M 1645.5 688 L 1645.5 698" stroke="#C0D0E0" stroke-width="1" opacity="1"></path><path fill="none" d="M 1764.5 688 L 1764.5 698" stroke="#C0D0E0" stroke-width="1" opacity="1"></path><path fill="none" d="M 1884.5 688 L 1884.5 698" stroke="#C0D0E0" stroke-width="1" opacity="1"></path><path fill="none" d="M 2003.5 688 L 2003.5 698" stroke="#C0D0E0" stroke-width="1" opacity="1"></path><path fill="none" d="M 2123.5 688 L 2123.5 698" stroke="#C0D0E0" stroke-width="1" opacity="1"></path><path fill="none" d="M 2243.5 688 L 2243.5 698" stroke="#C0D0E0" stroke-width="1" opacity="1"></path><text x="1166.5"  text-anchor="middle" transform="translate(0,0)" class=" highcharts-xaxis-title" style="color:#707070;fill:#707070;" y="725.96875">Time</text><path fill="none" d="M 63 688.5 L 2270 688.5" stroke="#C0D0E0" stroke-width="1" ></path></g><g class="highcharts-axis" ><text x="24.078125"  text-anchor="middle" transform="translate(0,0) rotate(270 24.078125 374.5)" class=" highcharts-yaxis-title" style="color:#707070;fill:#707070;" y="374.5">Values</text></g><g class="highcharts-series-group" ><g class="highcharts-series highcharts-series-0"  transform="translate(63,61) scale(1 1)" clip-path="url(#highcharts-34)"><path fill="none" d="M 21.63725469587109 210.89999999999998 L 22.11799435405683 210.89999999999998 L 24.04334472639275 210.89999999999998 L 26.769927862371567 210.89999999999998 L 29.56587144654634 210.89999999999998 L 30.558443377626347 210.89999999999998 L 35.318005167624456 210.89999999999998 L 60.65609441548376 210.89999999999998 L 71.90683746078584 210.89999999999998 L 96.05144865175616 210.89999999999998 L 120.56677947963588 210.89999999999998 L 145.1490790161186 210.89999999999998 L 192.96712869824538 210.89999999999998 L 242.5550656791654 210.89999999999998 L 304.9627268783718 205.2 L 347.6768042691137 205.2 L 384.22019351000876 205.2 L 448.46231897701847 205.2 L 473.8697686730737 205.2 L 544.3064996858599 199.5 L 569.8670207158648 199.5 L 623.3032667018637 199.5 L 687.6243195754412 199.5 L 711.7808894643764 199.5 L 777.4341412912347 199.5 L 831.1621795075753 193.8 L 855.6440259811535 193.8 L 910.1996060966595 193.8 L 998.5624253587099 193.8 L 1047.2582434714543 193.8 L 1094.2248338584861 193.8 L 1165.9626712098445 188.09999999999997 L 1190.226869380463 188.09999999999997 L 1242.8451404256682 188.09999999999997 L 1309.4598715688983 188.09999999999997 L 1333.9871610947428 188.09999999999997 L 1405.5193088411063 188.09999999999997 L 1429.570642187951 188.09999999999997 L 1483.0331973094726 188.09999999999997 L 1531.1621731386847 188.09999999999997 L 1579.4872716145198 182.39999999999998 L 1627.7023500690786 182.39999999999998 L 1692.157340359862 182.39999999999998 L 1716.6415785730333 182.39999999999998 L 1765.186717091421 182.39999999999998 L 1835.6425820209508 182.39999999999998 L 1884.7736967396147 182.39999999999998 L 1932.9768164962088 182.39999999999998 L 1982.1414155691741 182.39999999999998 L 2030.4330296907078 182.39999999999998 L 2078.810746437588 182.39999999999998 L 2127.188463184468 176.7 L 2175.492036003967 176.7 L 2183.4541371089435 176.7 L 2185.362745304129 176.7" stroke="#7cb5ec" stroke-width="2"  stroke-linejoin="round" stroke-linecap="round"></path></g><g class="highcharts-markers highcharts-series-0"  transform="translate(63,61) scale(1 1)" clip-path="none"></g><g class="highcharts-series highcharts-series-1"  transform="translate(63,61) scale(1 1)" clip-path="url(#highcharts-34)"><path fill="none" d="M 21.63725469587109 208.50599999999997 L 22.11799435405683 208.164 L 24.04334472639275 208.50599999999997 L 26.769927862371567 208.27800000000002 L 29.56587144654634 208.73400000000004 L 30.558443377626347 208.50599999999997 L 35.318005167624456 208.61999999999995 L 60.65609441548376 209.19 L 71.90683746078584 209.30399999999997 L 96.05144865175616 209.53200000000004 L 120.56677947963588 209.87399999999997 L 145.1490790161186 210.33000000000004 L 192.96712869824538 211.01399999999995 L 242.5550656791654 212.154 L 304.9627268783718 213.18 L 347.6768042691137 213.86399999999998 L 384.22019351000876 214.43400000000003 L 448.46231897701847 215.346 L 473.8697686730737 215.688 L 544.3064996858599 216.37199999999996 L 569.8670207158648 217.16999999999996 L 623.3032667018637 217.62600000000003 L 687.6243195754412 218.76599999999996 L 711.7808894643764 218.76599999999996 L 777.4341412912347 219.678 L 831.1621795075753 220.36199999999997 L 855.6440259811535 220.704 L 910.1996060966595 221.27399999999994 L 998.5624253587099 222.3 L 1047.2582434714543 222.75599999999997 L 1094.2248338584861 223.098 L 1165.9626712098445 223.55399999999997 L 1190.226869380463 223.78200000000004 L 1242.8451404256682 224.12399999999997 L 1309.4598715688983 224.92199999999997 L 1333.9871610947428 225.14999999999998 L 1405.5193088411063 225.834 L 1429.570642187951 225.834 L 1483.0331973094726 226.404 L 1531.1621731386847 226.74599999999998 L 1579.4872716145198 226.85999999999996 L 1627.7023500690786 227.202 L 1692.157340359862 227.54399999999998 L 1716.6415785730333 227.54399999999998 L 1765.186717091421 227.77199999999993 L 1835.6425820209508 228.228 L 1884.7736967396147 228.45599999999996 L 1932.9768164962088 228.56999999999994 L 1982.1414155691741 228.91199999999998 L 2030.4330296907078 229.026 L 2078.810746437588 229.48200000000003 L 2127.188463184468 229.82399999999996 L 2175.492036003967 229.82399999999996 L 2183.4541371089435 229.938 L 2185.362745304129 229.70999999999998" stroke="#434348" stroke-width="2"  stroke-linejoin="round" stroke-linecap="round"></path></g><g class="highcharts-markers highcharts-series-1"  transform="translate(63,61) scale(1 1)" clip-path="none"></g><g class="highcharts-series highcharts-series-2"  visibility="hidden" transform="translate(63,61) scale(1 1)" clip-path="url(#highcharts-34)"></g><g class="highcharts-markers highcharts-series-2"  visibility="hidden" transform="translate(63,61) scale(1 1)" clip-path="none"></g><g class="highcharts-series highcharts-series-3"  transform="translate(63,61) scale(1 1)" clip-path="url(#highcharts-34)"><path fill="none" d="M 21.63725469587109 433.2 L 22.11799435405683 433.2 L 24.04334472639275 433.2 L 26.769927862371567 444.6 L 29.56587144654634 627 L 30.558443377626347 615.6 L 35.318005167624456 615.6 L 60.65609441548376 615.6 L 71.90683746078584 615.6 L 96.05144865175616 615.6 L 120.56677947963588 615.6 L 145.1490790161186 615.6 L 192.96712869824538 615.6 L 242.5550656791654 627 L 304.9627268783718 627 L 347.6768042691137 627 L 384.22019351000876 627 L 448.46231897701847 627 L 473.8697686730737 627 L 544.3064996858599 627 L 569.8670207158648 627 L 623.3032667018637 627 L 687.6243195754412 627 L 711.7808894643764 627 L 777.4341412912347 627 L 831.1621795075753 627 L 855.6440259811535 627 L 910.1996060966595 627 L 998.5624253587099 627 L 1047.2582434714543 627 L 1094.2248338584861 627 L 1165.9626712098445 615.6 L 1190.226869380463 615.6 L 1242.8451404256682 615.6 L 1309.4598715688983 615.6 L 1333.9871610947428 615.6 L 1405.5193088411063 615.6 L 1429.570642187951 615.6 L 1483.0331973094726 615.6 L 1531.1621731386847 615.6 L 1579.4872716145198 627 L 1627.7023500690786 615.6 L 1692.157340359862 627 L 1716.6415785730333 615.6 L 1765.186717091421 627 L 1835.6425820209508 615.6 L 1884.7736967396147 615.6 L 1932.9768164962088 615.6 L 1982.1414155691741 627 L 2030.4330296907078 627 L 2078.810746437588 627 L 2127.188463184468 627 L 2175.492036003967 627 L 2183.4541371089435 627 L 2185.362745304129 627" stroke="#f7a35c" stroke-width="2"  stroke-linejoin="round" stroke-linecap="round"></path></g><g class="highcharts-markers highcharts-series-3"  transform="translate(63,61) scale(1 1)" clip-path="none"></g><g class="highcharts-series highcharts-series-4"  transform="translate(63,61) scale(1 1)" clip-path="url(#highcharts-34)"><path fill="none" d="M 21.63725469587109 158.80199999999996 L 22.11799435405683 159.71399999999994 L 24.04334472639275 158.00399999999996 L 26.769927862371567 156.29399999999998 L 29.56587144654634 159.71399999999994 L 30.558443377626347 157.20599999999996 L 35.318005167624456 159.71399999999994 L 60.65609441548376 161.42399999999992 L 71.90683746078584 151.27800000000002 L 96.05144865175616 158.80199999999996 L 120.56677947963588 154.584 L 145.1490790161186 159.71399999999994 L 192.96712869824538 158.80199999999996 L 242.5550656791654 156.29399999999998 L 304.9627268783718 153.786 L 347.6768042691137 151.27800000000002 L 384.22019351000876 152.988 L 448.46231897701847 152.07600000000002 L 473.8697686730737 154.584 L 544.3064996858599 158.00399999999996 L 569.8670207158648 153.786 L 623.3032667018637 157.20599999999996 L 687.6243195754412 152.988 L 711.7808894643764 147.85799999999995 L 777.4341412912347 149.56799999999998 L 831.1621795075753 154.584 L 855.6440259811535 147.85799999999995 L 910.1996060966595 152.988 L 998.5624253587099 148.76999999999992 L 1047.2582434714543 151.27800000000002 L 1094.2248338584861 149.56799999999998 L 1165.9626712098445 149.56799999999998 L 1190.226869380463 148.76999999999992 L 1242.8451404256682 150.48000000000002 L 1309.4598715688983 147.85799999999995 L 1333.9871610947428 145.34999999999997 L 1405.5193088411063 155.49599999999998 L 1429.570642187951 151.27800000000002 L 1483.0331973094726 145.34999999999997 L 1531.1621731386847 151.27800000000002 L 1579.4872716145198 147.85799999999995 L 1627.7023500690786 152.07600000000002 L 1692.157340359862 151.27800000000002 L 1716.6415785730333 146.26199999999994 L 1765.186717091421 146.26199999999994 L 1835.6425820209508 153.786 L 1884.7736967396147 147.85799999999995 L 1932.9768164962088 149.56799999999998 L 1982.1414155691741 151.27800000000002 L 2030.4330296907078 148.76999999999992 L 2078.810746437588 144.55199999999996 L 2127.188463184468 151.27800000000002 L 2175.492036003967 148.76999999999992 L 2183.4541371089435 147.85799999999995 L 2185.362745304129 148.76999999999992" stroke="#8085e9" stroke-width="2"  stroke-linejoin="round" stroke-linecap="round"></path></g><g class="highcharts-markers highcharts-series-4"  transform="translate(63,61) scale(1 1)" clip-path="none"></g><g class="highcharts-series highcharts-series-5"  transform="translate(63,61) scale(1 1)" clip-path="url(#highcharts-34)"><path fill="none" d="M 21.63725469587109 136.8 L 22.11799435405683 125.39999999999998 L 24.04334472639275 125.39999999999998 L 26.769927862371567 125.39999999999998 L 29.56587144654634 114 L 30.558443377626347 125.39999999999998 L 35.318005167624456 114 L 60.65609441548376 114 L 71.90683746078584 114 L 96.05144865175616 79.79999999999995 L 120.56677947963588 79.79999999999995 L 145.1490790161186 68.39999999999998 L 192.96712869824538 68.39999999999998 L 242.5550656791654 79.79999999999995 L 304.9627268783718 79.79999999999995 L 347.6768042691137 68.39999999999998 L 384.22019351000876 79.79999999999995 L 448.46231897701847 79.79999999999995 L 473.8697686730737 79.79999999999995 L 544.3064996858599 79.79999999999995 L 569.8670207158648 79.79999999999995 L 623.3032667018637 68.39999999999998 L 687.6243195754412 79.79999999999995 L 711.7808894643764 68.39999999999998 L 777.4341412912347 79.79999999999995 L 831.1621795075753 79.79999999999995 L 855.6440259811535 68.39999999999998 L 910.1996060966595 79.79999999999995 L 998.5624253587099 68.39999999999998 L 1047.2582434714543 68.39999999999998 L 1094.2248338584861 79.79999999999995 L 1165.9626712098445 79.79999999999995 L 1190.226869380463 68.39999999999998 L 1242.8451404256682 68.39999999999998 L 1309.4598715688983 79.79999999999995 L 1333.9871610947428 79.79999999999995 L 1405.5193088411063 79.79999999999995 L 1429.570642187951 68.39999999999998 L 1483.0331973094726 68.39999999999998 L 1531.1621731386847 79.79999999999995 L 1579.4872716145198 68.39999999999998 L 1627.7023500690786 79.79999999999995 L 1692.157340359862 68.39999999999998 L 1716.6415785730333 79.79999999999995 L 1765.186717091421 79.79999999999995 L 1835.6425820209508 79.79999999999995 L 1884.7736967396147 79.79999999999995 L 1932.9768164962088 68.39999999999998 L 1982.1414155691741 79.79999999999995 L 2030.4330296907078 79.79999999999995 L 2078.810746437588 79.79999999999995 L 2127.188463184468 68.39999999999998 L 2175.492036003967 79.79999999999995 L 2183.4541371089435 68.39999999999998 L 2185.362745304129 57" stroke="#f15c80" stroke-width="2"  stroke-linejoin="round" stroke-linecap="round"></path></g><g class="highcharts-markers highcharts-series-5"  transform="translate(63,61) scale(1 1)" clip-path="none"></g></g><text x="1140" text-anchor="middle" class="highcharts-title"  style="color:#333333;font-size:18px;fill:#333333;width:2216px;" y="24"><tspan>Environmental Sensor Feed</tspan></text><text x="1140" text-anchor="middle" class="highcharts-subtitle"  style="color:#555555;fill:#555555;width:2216px;" y="45"><tspan>2019-11-30 20:49:07</tspan></text><g class="highcharts-legend"  transform="translate(843,740)"><rect x="0.5" y="0.5" width="593" height="44" strokeWidth="1" stroke="#C98657" stroke-width="1" fill="#FCFFC5" visibility="visible"></rect><g  transform="translate(0,20.140625)"><g><g class="highcharts-legend-item"  transform="translate(8,3)"><path fill="none" d="M 0 11 L 16 11" stroke="#7cb5ec" stroke-width="2"></path><path fill="#7cb5ec" d="M 8 7 C 13.328 7 13.328 15 8 15 C 2.6719999999999997 15 2.6719999999999997 7 8 7 Z"></path><text x="21" style="color:#333333;font-size:12px;font-weight:bold;cursor:pointer;fill:#333333;" text-anchor="start"  y="15">Humidity</text></g><g class="highcharts-legend-item"  transform="translate(105.5,3)"><path fill="none" d="M 0 11 L 16 11" stroke="#434348" stroke-width="2"></path><path fill="#434348" d="M 8 7 L 12 11 8 15 4 11 Z"></path><text x="21" y="15" style="color:#333333;font-size:12px;font-weight:bold;cursor:pointer;fill:#333333;" text-anchor="start" >Temperature</text></g><g class="highcharts-legend-item"  transform="translate(226.171875,3)"><path fill="none" d="M 0 11 L 16 11" stroke="#CCC" stroke-width="2"></path><path fill="#CCC" d="M 4 7 L 12 7 12 15 4 15 Z"></path><text x="21" y="15" style="color:#ccc;font-size:12px;font-weight:bold;cursor:pointer;fill:#ccc;" text-anchor="start" >Pressure</text></g><g class="highcharts-legend-item"  transform="translate(320.96875,3)"><path fill="none" d="M 0 11 L 16 11" stroke="#f7a35c" stroke-width="2"></path><path fill="#f7a35c" d="M 8 7 L 12 15 4 15 Z"></path><text x="21" y="15" style="color:#333333;font-size:12px;font-weight:bold;cursor:pointer;fill:#333333;" text-anchor="start" >Light</text></g><g class="highcharts-legend-item"  transform="translate(393.515625,3)"><path fill="none" d="M 0 11 L 16 11" stroke="#8085e9" stroke-width="2"></path><path fill="#8085e9" d="M 4 7 L 12 7 8 15 Z"></path><text x="21" y="15" style="color:#333333;font-size:12px;font-weight:bold;cursor:pointer;fill:#333333;" text-anchor="start" ><tspan>IR Temperature</tspan></text></g><g class="highcharts-legend-item"  transform="translate(530.40625,3)"><path fill="none" d="M 0 11 L 16 11" stroke="#f15c80" stroke-width="2"></path><path fill="#f15c80" d="M 8 7 C 13.328 7 13.328 15 8 15 C 2.6719999999999997 15 2.6719999999999997 7 8 7 Z"></path><text x="21" y="15" style="color:#333333;font-size:12px;font-weight:bold;cursor:pointer;fill:#333333;" text-anchor="start" >Noise</text></g></g></g><g class="highcharts-legend-title"  style="" transform="translate(5,4)"><text x="3"  style="font-weight:bold;" y="15"><tspan>Select/Deselect Series to Display:</tspan></text></g></g><g class="highcharts-axis-labels highcharts-xaxis-labels" ><text x="91.09255985728059" style="color:#606060;cursor:default;font-size:11px;fill:#606060;width:116px;text-overflow:clip;" text-anchor="middle" transform="translate(0,0)" y="707" opacity="1">20:49:10</text><text x="210.6795395054744" style="color:#606060;cursor:default;font-size:11px;fill:#606060;width:116px;text-overflow:clip;" text-anchor="middle" transform="translate(0,0)" y="707" opacity="1">20:50:00</text><text x="330.2665191536682" style="color:#606060;cursor:default;font-size:11px;fill:#606060;width:116px;text-overflow:clip;" text-anchor="middle" transform="translate(0,0)" y="707" opacity="1">20:50:50</text><text x="449.853498801862" style="color:#606060;cursor:default;font-size:11px;fill:#606060;width:116px;text-overflow:clip;" text-anchor="middle" transform="translate(0,0)" y="707" opacity="1">20:51:40</text><text x="569.4404784500557" style="color:#606060;cursor:default;font-size:11px;fill:#606060;width:116px;text-overflow:clip;" text-anchor="middle" transform="translate(0,0)" y="707" opacity="1">20:52:30</text><text x="689.0274580982496" style="color:#606060;cursor:default;font-size:11px;fill:#606060;width:116px;text-overflow:clip;" text-anchor="middle" transform="translate(0,0)" y="707" opacity="1">20:53:20</text><text x="808.6144377464434" style="color:#606060;cursor:default;font-size:11px;fill:#606060;width:116px;text-overflow:clip;" text-anchor="middle" transform="translate(0,0)" y="707" opacity="1">20:54:10</text><text x="928.2014173946371" style="color:#606060;cursor:default;font-size:11px;fill:#606060;width:116px;text-overflow:clip;" text-anchor="middle" transform="translate(0,0)" y="707" opacity="1">20:55:00</text><text x="1047.788397042831" style="color:#606060;cursor:default;font-size:11px;fill:#606060;width:116px;text-overflow:clip;" text-anchor="middle" transform="translate(0,0)" y="707" opacity="1">20:55:50</text><text x="1167.3753766910247" style="color:#606060;cursor:default;font-size:11px;fill:#606060;width:116px;text-overflow:clip;" text-anchor="middle" transform="translate(0,0)" y="707" opacity="1">20:56:40</text><text x="1286.9623563392186" style="color:#606060;cursor:default;font-size:11px;fill:#606060;width:116px;text-overflow:clip;" text-anchor="middle" transform="translate(0,0)" y="707" opacity="1">20:57:30</text><text x="1406.5493359874124" style="color:#606060;cursor:default;font-size:11px;fill:#606060;width:116px;text-overflow:clip;" text-anchor="middle" transform="translate(0,0)" y="707" opacity="1">20:58:20</text><text x="1526.136315635606" style="color:#606060;cursor:default;font-size:11px;fill:#606060;width:116px;text-overflow:clip;" text-anchor="middle" transform="translate(0,0)" y="707" opacity="1">20:59:10</text><text x="1645.7232952837999" style="color:#606060;cursor:default;font-size:11px;fill:#606060;width:116px;text-overflow:clip;" text-anchor="middle" transform="translate(0,0)" y="707" opacity="1">21:00:00</text><text x="1765.3102749319937" style="color:#606060;cursor:default;font-size:11px;fill:#606060;width:116px;text-overflow:clip;" text-anchor="middle" transform="translate(0,0)" y="707" opacity="1">21:00:50</text><text x="1884.8972545801876" style="color:#606060;cursor:default;font-size:11px;fill:#606060;width:116px;text-overflow:clip;" text-anchor="middle" transform="translate(0,0)" y="707" opacity="1">21:01:40</text><text x="2004.4842342283812" style="color:#606060;cursor:default;font-size:11px;fill:#606060;width:116px;text-overflow:clip;" text-anchor="middle" transform="translate(0,0)" y="707" opacity="1">21:02:30</text><text x="2124.0712138765753" style="color:#606060;cursor:default;font-size:11px;fill:#606060;width:116px;text-overflow:clip;" text-anchor="middle" transform="translate(0,0)" y="707" opacity="1">21:03:20</text><text x="2243.6581935247686" style="color:#606060;cursor:default;font-size:11px;fill:#606060;width:116px;text-overflow:clip;" text-anchor="middle" transform="translate(0,0)" y="707" opacity="1">21:04:10</text></g><g class="highcharts-axis-labels highcharts-yaxis-labels" ><text x="48" style="color:#606060;cursor:default;font-size:11px;fill:#606060;width:742px;text-overflow:clip;" text-anchor="end" transform="translate(0,0)" y="693" opacity="1">0</text><text x="48" style="color:#606060;cursor:default;font-size:11px;fill:#606060;width:742px;text-overflow:clip;" text-anchor="end" transform="translate(0,0)" y="636" opacity="1">5</text><text x="48" style="color:#606060;cursor:default;font-size:11px;fill:#606060;width:742px;text-overflow:clip;" text-anchor="end" transform="translate(0,0)" y="579" opacity="1">10</text><text x="48" style="color:#606060;cursor:default;font-size:11px;fill:#606060;width:742px;text-overflow:clip;" text-anchor="end" transform="translate(0,0)" y="522" opacity="1">15</text><text x="48" style="color:#606060;cursor:default;font-size:11px;fill:#606060;width:742px;text-overflow:clip;" text-anchor="end" transform="translate(0,0)" y="465" opacity="1">20</text><text x="48" style="color:#606060;cursor:default;font-size:11px;fill:#606060;width:742px;text-overflow:clip;" text-anchor="end" transform="translate(0,0)" y="408" opacity="1">25</text><text x="48" style="color:#606060;cursor:default;font-size:11px;fill:#606060;width:742px;text-overflow:clip;" text-anchor="end" transform="translate(0,0)" y="351" opacity="1">30</text><text x="48" style="color:#606060;cursor:default;font-size:11px;fill:#606060;width:742px;text-overflow:clip;" text-anchor="end" transform="translate(0,0)" y="294" opacity="1">35</text><text x="48" style="color:#606060;cursor:default;font-size:11px;fill:#606060;width:742px;text-overflow:clip;" text-anchor="end" transform="translate(0,0)" y="237" opacity="1">40</text><text x="48" style="color:#606060;cursor:default;font-size:11px;fill:#606060;width:742px;text-overflow:clip;" text-anchor="end" transform="translate(0,0)" y="180" opacity="1">45</text><text x="48" style="color:#606060;cursor:default;font-size:11px;fill:#606060;width:742px;text-overflow:clip;" text-anchor="end" transform="translate(0,0)" y="123" opacity="1">50</text><text x="48" style="color:#606060;cursor:default;font-size:11px;fill:#606060;width:742px;text-overflow:clip;" text-anchor="end" transform="translate(0,0)" y="66" opacity="1">55</text></g><g class="highcharts-tooltip"  style="cursor:default;padding:0;pointer-events:none;white-space:nowrap;" transform="translate(0,-9999)"><path fill="none" d="M 3.5 0.5 L 13.5 0.5 C 16.5 0.5 16.5 0.5 16.5 3.5 L 16.5 13.5 C 16.5 16.5 16.5 16.5 13.5 16.5 L 3.5 16.5 C 0.5 16.5 0.5 16.5 0.5 13.5 L 0.5 3.5 C 0.5 0.5 0.5 0.5 3.5 0.5"  stroke="black" stroke-opacity="0.049999999999999996" stroke-width="5" transform="translate(1, 1)"></path><path fill="none" d="M 3.5 0.5 L 13.5 0.5 C 16.5 0.5 16.5 0.5 16.5 3.5 L 16.5 13.5 C 16.5 16.5 16.5 16.5 13.5 16.5 L 3.5 16.5 C 0.5 16.5 0.5 16.5 0.5 13.5 L 0.5 3.5 C 0.5 0.5 0.5 0.5 3.5 0.5"  stroke="black" stroke-opacity="0.09999999999999999" stroke-width="3" transform="translate(1, 1)"></path><path fill="none" d="M 3.5 0.5 L 13.5 0.5 C 16.5 0.5 16.5 0.5 16.5 3.5 L 16.5 13.5 C 16.5 16.5 16.5 16.5 13.5 16.5 L 3.5 16.5 C 0.5 16.5 0.5 16.5 0.5 13.5 L 0.5 3.5 C 0.5 0.5 0.5 0.5 3.5 0.5"  stroke="black" stroke-opacity="0.15" stroke-width="1" transform="translate(1, 1)"></path><path fill="rgb(249, 249, 249)" fill-opacity=" .85" d="M 3.5 0.5 L 13.5 0.5 C 16.5 0.5 16.5 0.5 16.5 3.5 L 16.5 13.5 C 16.5 16.5 16.5 16.5 13.5 16.5 L 3.5 16.5 C 0.5 16.5 0.5 16.5 0.5 13.5 L 0.5 3.5 C 0.5 0.5 0.5 0.5 3.5 0.5"></path><text x="8"  style="font-size:12px;color:#333333;fill:#333333;" y="20"></text></g><text x="2270" text-anchor="end"  style="cursor:pointer;color:#909090;font-size:9px;fill:#909090;" y="795"></text></svg>