<svg xmlns:xlink="http://www.w3.org/1999/xlink" version="1.1" style="font-family:'lucida grande', 'lucida sans unicode', arial, helvetica, sans-serif;font-size:12px;" xmlns="http://www.w3.org/2000/svg" width="2280" height="800"><desc>Created with Highcharts 4.2.1 /Highstock 4.2.1</desc><defs><clipPath id="highcharts-34"><rect x="0" y="0" width="2207" height="627"></rect></clipPath></defs><rect x="0" y="0" width="2280" height="800" strokeWidth="0" fill="#FFFFFF" class=" highcharts-background"></rect><g class="highcharts-grid" ></g><g class="highcharts-grid" ><path fill="none" d="M 63 688.5 L 2270 688.5" stroke="#D8D8D8" stroke-width="1"  opacity="1"></path><path fill="none" d="M 63 636.5 L 2270 636.5" stroke="#D8D8D8" stroke-width="1"  opacity="1"></path><path fill="none" d="M 63 584.5 L 2270 584.5" stroke="#D8D8D8" stroke-width="1"  opacity="1"></path><path fill="none" d="M 63 531.5 L 2270 531.5" stroke="#D8D8D8" stroke-width="1"  opacity="1"></path><path fill="none" d="M 63 479.5 L 2270 479.5" stroke="#D8D8D8" stroke-width="1"  opacity="1"></path><path fill="none" d="M 63 427.5 L 2270 427.5" stroke="#D8D8D8" stroke-width="1"  opacity="1"></path><path fill="none" d="M 63 375.5 L 2270 375.5" stroke="#D8D8D8" stroke-width="1"  opacity="1"></path><path fill="none" d="M 63 322.5 L 2270 322.5" stroke="#D8D8D8" stroke-width="1"  opacity="1"></path><path fill="none" d="M 63 270.5 L 2270 270.5" stroke="#D8D8D8" stroke-width="1"  opacity="1"></path><path fill="none" d="M 63 218.5 L 2270 218.5" stroke="#D8D8D8" stroke-width="1"  opacity="1"></path><path fill="none" d="M 63 166.5 L 2270 166.5" stroke="#D8D8D8" stroke-width="1"  opacity="1"></path><path fill="none" d="M 63 113.5 L 2270 113.5" stroke="#D8D8D8" stroke-width="1"  opacity="1"></path><path fill="none" d="M 63 60.5 L 2270 60.5" stroke="#D8D8D8" stroke-width="1"  opacity="1"></path></g><g class="highcharts-axis" ><path fill="none" d="M 111.5 688 L 111.5 698" stroke="#C0D0E0" stroke-width="1" opacity="1"></path><path fill="none" d="M 231.5 688 L 231.5 698" stroke="#C0D0E0" stroke-width="1" opacity="1"></path><path fill="none" d="M 350.5 688 L 350.5 698" stroke="#C0D0E0" stroke-width="1" opacity="1"></path><path fill="none" d="M 470.5 688 L 470.5 698" stroke="#C0D0E0" stroke-width="1" opacity="1"></path><path fill="none" d="M 589.5 688 L 589.5 698" stroke="#C0D0E0" stroke-width="1" opacity="1"></path><path fill="none" d="M 709.5 688 L 709.5 698" stroke="#C0D0E0" stroke-width="1" opacity="1"></path><path fill="none" d="M 828.5 688 L 828.5 698" stroke="#C0D0E0" stroke-width="1" opacity="1"></path><path fill="none" d="M 948.5 688 L 948.5 698" stroke="#C0D0E0" stroke-width="1" opacity="1"></path><path fill="none" d="M 1068.5 688 L 1068.5 698" stroke="#C0D0E0" stroke-width="1" opacity="1"></path><path fill="none" d="M 1187.5 688 L 1187.5 698" stroke="#C0D0E0" stroke-width="1" opacity="1"></path><path fill="none" d="M 1307.5 688 L 1307.5 698" stroke="#C0D0E0" stroke-width="1" opacity="1"></path><path fill="none" d="M 1426.5 688 L 1426.5 698" stroke="#C0D0E0" stroke-width="1" opacity="1"></path><path fill="none" d="M 1546.5 688 L 1546.5 698" stroke="#C0D0E0" stroke-width="1" opacity="1"></path><path fill="none" d="M 1665.5 688 L 1665.5 698" stroke="#C0D0E0" stroke-width="1" opacity="1"></path><path fill="none" d="M 1785.5 688 L 1785.5 698" stroke="#C0D0E0" stroke-width="1" opacity="1"></path><path fill="none" d="M 1904.5 688 L 1904.5 698" stroke="#C0D0E0" stroke-width="1" opacity="1"></path><path fill="none" d="M 2024.5 688 L 2024.5 698" stroke="#C0D0E0" stroke-width="1" opacity="1"></path><path fill="none" d="M 2143.5 688 L 2143.5 698" stroke="#C0D0E0" stroke-width="1" opacity="1"></path><path fill="none" d="M 2263.5 688 L 2263.5 698" stroke="#C0D0E0" stroke-width="1" opacity="1"></path><text x="1166.5"  text-anchor="middle" transform="translate(0,0)" class=" highcharts-xaxis-title" style="color:#707070;fill:#707070;" y="725.96875">Time</text><path fill="none" d="M 63 688.5 L 2270 688.5" stroke="#C0D0E0" stroke-width="1" ></path></g><g class="highcharts-axis" ><text x="24.078125"  text-anchor="middle" transform="translate(0,0) rotate(270 24.078125 374.5)" class=" highcharts-yaxis-title" style="color:#707070;fill:#707070;" y="374.5">Values</text></g><g class="highcharts-series-group" ><g class="highcharts-series highcharts-series-0"  transform="translate(63,61) scale(1 1)" clip-path="url(#highcharts-34)"><path fill="none" d="M 21.637255130868617 240.35000000000002 L 23.08135663067459 240.35000000000002 L 24.98690115939208 240.35000000000002 L 27.131535340395324 240.35000000000002 L 28.83624456119278 240.35000000000002 L 31.241486463187496 240.35000000000002 L 33.149421888427845 240.35000000000002 L 34.78957690310814 240.35000000000002 L 38.734556165823136 240.35000000000002 L 42.435663983206666 240.35000000000002 L 43.80803858732691 240.35000000000002 L 48.53484101301634 245.57500000000005 L 72.97458526966648 245.57500000000005 L 84.02769989483704 245.57500000000005 L 108.09924608696711 245.57500000000005 L 166.1765135237005 245.57500000000005 L 204.7966650574189 245.57500000000005 L 254.67554831727364 245.57500000000005 L 278.7040583719923 245.57500000000005 L 326.9093140658467 245.57500000000005 L 374.18929280535525 245.57500000000005 L 422.40650298182396 245.57500000000005 L 487.35281612872717 245.57500000000005 L 535.4098362381644 245.57500000000005 L 589.3580253799228 245.57500000000005 L 613.4056626068242 245.57500000000005 L 684.9867136046572 245.57500000000005 L 709.0200054524215 245.57500000000005 L 756.7255637729987 245.57500000000005 L 804.6510845736789 245.57500000000005 L 852.5981234430647 245.57500000000005 L 900.5427714159276 245.57500000000005 L 948.530455526202 245.57500000000005 L 996.5468303947507 245.57500000000005 L 1044.489087471091 245.57500000000005 L 1092.4743806848423 245.57500000000005 L 1140.423810450751 245.57500000000005 L 1188.354113044477 245.57500000000005 L 1236.3059337069083 245.57500000000005 L 1284.4633714703057 245.57500000000005 L 1332.4008467536 245.57500000000005 L 1380.3407129334173 245.57500000000005 L 1428.2973153888945 250.8 L 1476.2347906721889 250.8 L 1569.5969089932544 245.57500000000005 L 1617.5319933800258 245.57500000000005 L 1665.5053321111632 245.57500000000005 L 1713.4380256014117 245.57500000000005 L 1761.3826735742748 245.57500000000005 L 1809.860491471735 245.57500000000005 L 1857.8242666167807 245.57500000000005 L 1905.780869072258 245.57500000000005 L 1953.7470351138268 245.57500000000005 L 2001.6821195005982 245.57500000000005 L 2049.6172038873697 245.57500000000005 L 2092.6676866779435 240.35000000000002 L 2093.6216543905634 240.35000000000002 L 2095.543935194941 245.57500000000005 L 2097.4638251027955 240.35000000000002 L 2099.3813241141274 240.35000000000002 L 2101.9802286344734 240.35000000000002 L 2104.3639524677624 240.35000000000002 L 2105.6024368666026 240.35000000000002 L 2109.796069367695 240.35000000000002 L 2136.8155909725083 240.35000000000002 L 2148.6337924849936 240.35000000000002 L 2172.7196840562606 240.35000000000002 L 2178.1661463353303 240.35000000000002 L 2179.6006842490447 240.35000000000002 L 2181.522965053422 240.35000000000002 L 2183.4380731682313 240.35000000000002 L 2185.3627448691313 240.35000000000002" stroke="#7cb5ec" stroke-width="2"  stroke-linejoin="round" stroke-linecap="round"></path></g><g class="highcharts-markers highcharts-series-0"  transform="translate(63,61) scale(1 1)" clip-path="none"></g><g class="highcharts-series highcharts-series-1"  transform="translate(63,61) scale(1 1)" clip-path="url(#highcharts-34)"><path fill="none" d="M 21.637255130868617 253.41250000000002 L 23.08135663067459 253.41250000000002 L 24.98690115939208 253.517 L 27.131535340395324 253.517 L 28.83624456119278 253.517 L 31.241486463187496 253.517 L 33.149421888427845 253.517 L 34.78957690310814 253.517 L 38.734556165823136 253.41250000000002 L 42.435663983206666 253.41250000000002 L 43.80803858732691 253.517 L 48.53484101301634 253.62150000000008 L 72.97458526966648 253.62150000000008 L 84.02769989483704 253.30800000000005 L 108.09924608696711 253.72600000000006 L 166.1765135237005 253.41250000000002 L 204.7966650574189 253.517 L 254.67554831727364 253.20350000000002 L 278.7040583719923 253.41250000000002 L 326.9093140658467 252.99450000000002 L 374.18929280535525 253.099 L 422.40650298182396 252.99450000000002 L 487.35281612872717 252.99450000000002 L 535.4098362381644 252.99450000000002 L 589.3580253799228 252.7855 L 613.4056626068242 252.47199999999998 L 684.9867136046572 252.7855 L 709.0200054524215 252.68100000000004 L 756.7255637729987 252.47199999999998 L 804.6510845736789 252.47199999999998 L 852.5981234430647 252.47199999999998 L 900.5427714159276 252.3675 L 948.530455526202 252.26300000000003 L 996.5468303947507 252.68100000000004 L 1044.489087471091 252.68100000000004 L 1092.4743806848423 252.3675 L 1140.423810450751 252.3675 L 1188.354113044477 252.26300000000003 L 1236.3059337069083 252.26300000000003 L 1284.4633714703057 252.26300000000003 L 1332.4008467536 252.47199999999998 L 1380.3407129334173 252.3675 L 1428.2973153888945 252.3675 L 1476.2347906721889 252.89000000000004 L 1569.5969089932544 252.99450000000002 L 1617.5319933800258 253.099 L 1665.5053321111632 252.68100000000004 L 1713.4380256014117 252.7855 L 1761.3826735742748 252.7855 L 1809.860491471735 252.47199999999998 L 1857.8242666167807 252.47199999999998 L 1905.780869072258 252.47199999999998 L 1953.7470351138268 252.47199999999998 L 2001.6821195005982 252.26300000000003 L 2049.6172038873697 252.26300000000003 L 2092.6676866779435 252.26300000000003 L 2093.6216543905634 252.15850000000006 L 2095.543935194941 252.05399999999997 L 2097.4638251027955 252.05399999999997 L 2099.3813241141274 252.15850000000006 L 2101.9802286344734 252.15850000000006 L 2104.3639524677624 252.26300000000003 L 2105.6024368666026 252.05399999999997 L 2109.796069367695 251.9495 L 2136.8155909725083 251.9495 L 2148.6337924849936 251.9495 L 2172.7196840562606 251.9495 L 2178.1661463353303 251.9495 L 2179.6006842490447 251.9495 L 2181.522965053422 252.15850000000006 L 2183.4380731682313 251.9495 L 2185.3627448691313 252.15850000000006" stroke="#434348" stroke-width="2"  stroke-linejoin="round" stroke-linecap="round"></path></g><g class="highcharts-markers highcharts-series-1"  transform="translate(63,61) scale(1 1)" clip-path="none"></g><g class="highcharts-series highcharts-series-2"  visibility="hidden" transform="translate(63,61) scale(1 1)" clip-path="url(#highcharts-34)"></g><g class="highcharts-markers highcharts-series-2"  visibility="hidden" transform="translate(63,61) scale(1 1)" clip-path="none"></g><g class="highcharts-series highcharts-series-3"  transform="translate(63,61) scale(1 1)" clip-path="url(#highcharts-34)"><path fill="none" d="M 21.637255130868617 616.55 L 23.08135663067459 616.55 L 24.98690115939208 616.55 L 27.131535340395324 616.55 L 28.83624456119278 616.55 L 31.241486463187496 616.55 L 33.149421888427845 616.55 L 34.78957690310814 616.55 L 38.734556165823136 616.55 L 42.435663983206666 627 L 43.80803858732691 627 L 48.53484101301634 627 L 72.97458526966648 627 L 84.02769989483704 627 L 108.09924608696711 627 L 166.1765135237005 627 L 204.7966650574189 627 L 254.67554831727364 627 L 278.7040583719923 627 L 326.9093140658467 627 L 374.18929280535525 627 L 422.40650298182396 627 L 487.35281612872717 627 L 535.4098362381644 627 L 589.3580253799228 627 L 613.4056626068242 627 L 684.9867136046572 627 L 709.0200054524215 627 L 756.7255637729987 627 L 804.6510845736789 627 L 852.5981234430647 627 L 900.5427714159276 627 L 948.530455526202 627 L 996.5468303947507 627 L 1044.489087471091 627 L 1092.4743806848423 627 L 1140.423810450751 627 L 1188.354113044477 627 L 1236.3059337069083 627 L 1284.4633714703057 627 L 1332.4008467536 627 L 1380.3407129334173 627 L 1428.2973153888945 627 L 1476.2347906721889 627 L 1569.5969089932544 627 L 1617.5319933800258 627 L 1665.5053321111632 627 L 1713.4380256014117 627 L 1761.3826735742748 627 L 1809.860491471735 627 L 1857.8242666167807 627 L 1905.780869072258 627 L 1953.7470351138268 627 L 2001.6821195005982 627 L 2049.6172038873697 627 L 2092.6676866779435 627 L 2093.6216543905634 627 L 2095.543935194941 627 L 2097.4638251027955 627 L 2099.3813241141274 627 L 2101.9802286344734 616.55 L 2104.3639524677624 616.55 L 2105.6024368666026 627 L 2109.796069367695 627 L 2136.8155909725083 627 L 2148.6337924849936 627 L 2172.7196840562606 627 L 2178.1661463353303 627 L 2179.6006842490447 627 L 2181.522965053422 627 L 2183.4380731682313 616.55 L 2185.3627448691313 616.55" stroke="#f7a35c" stroke-width="2"  stroke-linejoin="round" stroke-linecap="round"></path></g><g class="highcharts-markers highcharts-series-3"  transform="translate(63,61) scale(1 1)" clip-path="none"></g><g class="highcharts-series highcharts-series-4"  transform="translate(63,61) scale(1 1)" clip-path="url(#highcharts-34)"><path fill="none" d="M 21.637255130868617 162.28850000000006 L 23.08135663067459 160.82550000000003 L 24.98690115939208 160.82550000000003 L 27.131535340395324 162.28850000000006 L 28.83624456119278 160.82550000000003 L 31.241486463187496 162.28850000000006 L 33.149421888427845 159.25800000000004 L 34.78957690310814 163.85600000000005 L 38.734556165823136 163.1245 L 42.435663983206666 168.454 L 43.80803858732691 164.58750000000003 L 48.53484101301634 159.98950000000008 L 72.97458526966648 161.55700000000002 L 84.02769989483704 163.1245 L 108.09924608696711 160.82550000000003 L 166.1765135237005 159.25800000000004 L 204.7966650574189 161.55700000000002 L 254.67554831727364 159.25800000000004 L 278.7040583719923 155.3915 L 326.9093140658467 159.25800000000004 L 374.18929280535525 156.95900000000006 L 422.40650298182396 160.82550000000003 L 487.35281612872717 159.98950000000008 L 535.4098362381644 164.58750000000003 L 589.3580253799228 163.85600000000005 L 613.4056626068242 161.55700000000002 L 684.9867136046572 162.28850000000006 L 709.0200054524215 164.58750000000003 L 756.7255637729987 156.123 L 804.6510845736789 158.42199999999997 L 852.5981234430647 159.98950000000008 L 900.5427714159276 162.28850000000006 L 948.530455526202 159.25800000000004 L 996.5468303947507 156.95900000000006 L 1044.489087471091 161.55700000000002 L 1092.4743806848423 166.99099999999999 L 1140.423810450751 159.98950000000008 L 1188.354113044477 164.58750000000003 L 1236.3059337069083 163.85600000000005 L 1284.4633714703057 164.58750000000003 L 1332.4008467536 163.85600000000005 L 1380.3407129334173 161.55700000000002 L 1428.2973153888945 159.98950000000008 L 1476.2347906721889 159.98950000000008 L 1569.5969089932544 163.85600000000005 L 1617.5319933800258 163.85600000000005 L 1665.5053321111632 162.28850000000006 L 1713.4380256014117 163.85600000000005 L 1761.3826735742748 164.58750000000003 L 1809.860491471735 163.85600000000005 L 1857.8242666167807 162.28850000000006 L 1905.780869072258 156.95900000000006 L 1953.7470351138268 159.25800000000004 L 2001.6821195005982 160.82550000000003 L 2049.6172038873697 158.42199999999997 L 2092.6676866779435 165.4235 L 2093.6216543905634 165.4235 L 2095.543935194941 162.28850000000006 L 2097.4638251027955 156.95900000000006 L 2099.3813241141274 159.98950000000008 L 2101.9802286344734 156.123 L 2104.3639524677624 158.42199999999997 L 2105.6024368666026 156.95900000000006 L 2109.796069367695 157.69050000000004 L 2136.8155909725083 159.25800000000004 L 2148.6337924849936 156.95900000000006 L 2172.7196840562606 163.1245 L 2178.1661463353303 162.28850000000006 L 2179.6006842490447 154.5555 L 2181.522965053422 156.95900000000006 L 2183.4380731682313 157.69050000000004 L 2185.3627448691313 158.42199999999997" stroke="#8085e9" stroke-width="2"  stroke-linejoin="round" stroke-linecap="round"></path></g><g class="highcharts-markers highcharts-series-4"  transform="translate(63,61) scale(1 1)" clip-path="none"></g><g class="highcharts-series highcharts-series-5"  transform="translate(63,61) scale(1 1)" clip-path="url(#highcharts-34)"><path fill="none" d="M 21.637255130868617 167.20000000000005 L 23.08135663067459 219.45000000000005 L 24.98690115939208 209 L 27.131535340395324 188.10000000000002 L 28.83624456119278 209 L 31.241486463187496 209 L 33.149421888427845 198.55 L 34.78957690310814 198.55 L 38.734556165823136 198.55 L 42.435663983206666 198.55 L 43.80803858732691 31.350000000000023 L 48.53484101301634 198.55 L 72.97458526966648 209 L 84.02769989483704 188.10000000000002 L 108.09924608696711 198.55 L 166.1765135237005 198.55 L 204.7966650574189 177.65000000000003 L 254.67554831727364 177.65000000000003 L 278.7040583719923 198.55 L 326.9093140658467 198.55 L 374.18929280535525 198.55 L 422.40650298182396 188.10000000000002 L 487.35281612872717 198.55 L 535.4098362381644 198.55 L 589.3580253799228 198.55 L 613.4056626068242 198.55 L 684.9867136046572 188.10000000000002 L 709.0200054524215 198.55 L 756.7255637729987 177.65000000000003 L 804.6510845736789 177.65000000000003 L 852.5981234430647 198.55 L 900.5427714159276 198.55 L 948.530455526202 198.55 L 996.5468303947507 188.10000000000002 L 1044.489087471091 188.10000000000002 L 1092.4743806848423 198.55 L 1140.423810450751 188.10000000000002 L 1188.354113044477 188.10000000000002 L 1236.3059337069083 198.55 L 1284.4633714703057 198.55 L 1332.4008467536 188.10000000000002 L 1380.3407129334173 198.55 L 1428.2973153888945 198.55 L 1476.2347906721889 188.10000000000002 L 1569.5969089932544 188.10000000000002 L 1617.5319933800258 198.55 L 1665.5053321111632 188.10000000000002 L 1713.4380256014117 177.65000000000003 L 1761.3826735742748 198.55 L 1809.860491471735 188.10000000000002 L 1857.8242666167807 156.75000000000006 L 1905.780869072258 198.55 L 1953.7470351138268 188.10000000000002 L 2001.6821195005982 198.55 L 2049.6172038873697 198.55 L 2092.6676866779435 188.10000000000002 L 2093.6216543905634 188.10000000000002 L 2095.543935194941 188.10000000000002 L 2097.4638251027955 188.10000000000002 L 2099.3813241141274 188.10000000000002 L 2101.9802286344734 188.10000000000002 L 2104.3639524677624 209 L 2105.6024368666026 198.55 L 2109.796069367695 209 L 2136.8155909725083 209 L 2148.6337924849936 198.55 L 2172.7196840562606 198.55 L 2178.1661463353303 198.55 L 2179.6006842490447 198.55 L 2181.522965053422 198.55 L 2183.4380731682313 198.55 L 2185.3627448691313 198.55" stroke="#f15c80" stroke-width="2"  stroke-linejoin="round" stroke-linecap="round"></path></g><g class="highcharts-markers highcharts-series-5"  transform="translate(63,61) scale(1 1)" clip-path="none"></g></g><text x="1140" text-anchor="middle" class="highcharts-title"  style="color:#333333;font-size:18px;fill:#333333;width:2216px;" y="24"><tspan>Environmental Sensor Feed</tspan></text><text x="1140" text-anchor="middle" class="highcharts-subtitle"  style="color:#555555;fill:#555555;width:2216px;" y="45"><tspan>2019-11-30 19:28:08</tspan></text><g class="highcharts-legend"  transform="translate(843,740)"><rect x="0.5" y="0.5" width="593" height="44" strokeWidth="1" stroke="#C98657" stroke-width="1" fill="#FCFFC5" visibility="visible"></rect><g  transform="translate(0,20.140625)"><g><g class="highcharts-legend-item"  transform="translate(8,3)"><path fill="none" d="M 0 11 L 16 11" stroke="#7cb5ec" stroke-width="2"></path><path fill="#7cb5ec" d="M 8 7 C 13.328 7 13.328 15 8 15 C 2.6719999999999997 15 2.6719999999999997 7 8 7 Z"></path><text x="21" style="color:#333333;font-size:12px;font-weight:bold;cursor:pointer;fill:#333333;" text-anchor="start"  y="15">Humidity</text></g><g class="highcharts-legend-item"  transform="translate(105.5,3)"><path fill="none" d="M 0 11 L 16 11" stroke="#434348" stroke-width="2"></path><path fill="#434348" d="M 8 7 L 12 11 8 15 4 11 Z"></path><text x="21" y="15" style="color:#333333;font-size:12px;font-weight:bold;cursor:pointer;fill:#333333;" text-anchor="start" >Temperature</text></g><g class="highcharts-legend-item"  transform="translate(226.171875,3)"><path fill="none" d="M 0 11 L 16 11" stroke="#CCC" stroke-width="2"></path><path fill="#CCC" d="M 4 7 L 12 7 12 15 4 15 Z"></path><text x="21" y="15" style="color:#ccc;font-size:12px;font-weight:bold;cursor:pointer;fill:#ccc;" text-anchor="start" >Pressure</text></g><g class="highcharts-legend-item"  transform="translate(320.96875,3)"><path fill="none" d="M 0 11 L 16 11" stroke="#f7a35c" stroke-width="2"></path><path fill="#f7a35c" d="M 8 7 L 12 15 4 15 Z"></path><text x="21" y="15" style="color:#333333;font-size:12px;font-weight:bold;cursor:pointer;fill:#333333;" text-anchor="start" >Light</text></g><g class="highcharts-legend-item"  transform="translate(393.515625,3)"><path fill="none" d="M 0 11 L 16 11" stroke="#8085e9" stroke-width="2"></path><path fill="#8085e9" d="M 4 7 L 12 7 8 15 Z"></path><text x="21" y="15" style="color:#333333;font-size:12px;font-weight:bold;cursor:pointer;fill:#333333;" text-anchor="start" ><tspan>IR Temperature</tspan></text></g><g class="highcharts-legend-item"  transform="translate(530.40625,3)"><path fill="none" d="M 0 11 L 16 11" stroke="#f15c80" stroke-width="2"></path><path fill="#f15c80" d="M 8 7 C 13.328 7 13.328 15 8 15 C 2.6719999999999997 15 2.6719999999999997 7 8 7 Z"></path><text x="21" y="15" style="color:#333333;font-size:12px;font-weight:bold;cursor:pointer;fill:#333333;" text-anchor="start" >Noise</text></g></g></g><g class="highcharts-legend-title"  style="" transform="translate(5,4)"><text x="3"  style="font-weight:bold;" y="15"><tspan>Select/Deselect Series to Display:</tspan></text></g></g><g class="highcharts-axis-labels highcharts-xaxis-labels" ><text x="112.22341921159932" style="color:#606060;cursor:default;font-size:11px;fill:#606060;width:116px;text-overflow:clip;" text-anchor="middle" transform="translate(0,0)" y="707" opacity="1">19:28:20</text><text x="231.7682453544781" style="color:#606060;cursor:default;font-size:11px;fill:#606060;width:116px;text-overflow:clip;" text-anchor="middle" transform="translate(0,0)" y="707" opacity="1">19:29:10</text><text x="351.3130714973569" style="color:#606060;cursor:default;font-size:11px;fill:#606060;width:116px;text-overflow:clip;" text-anchor="middle" transform="translate(0,0)" y="707" opacity="1">19:30:00</text><text x="470.85789764023565" style="color:#606060;cursor:default;font-size:11px;fill:#606060;width:116px;text-overflow:clip;" text-anchor="middle" transform="translate(0,0)" y="707" opacity="1">19:30:50</text><text x="590.4027237831144" style="color:#606060;cursor:default;font-size:11px;fill:#606060;width:116px;text-overflow:clip;" text-anchor="middle" transform="translate(0,0)" y="707" opacity="1">19:31:40</text><text x="709.9475499259931" style="color:#606060;cursor:default;font-size:11px;fill:#606060;width:116px;text-overflow:clip;" text-anchor="middle" transform="translate(0,0)" y="707" opacity="1">19:32:30</text><text x="829.492376068872" style="color:#606060;cursor:default;font-size:11px;fill:#606060;width:116px;text-overflow:clip;" text-anchor="middle" transform="translate(0,0)" y="707" opacity="1">19:33:20</text><text x="949.0372022117507" style="color:#606060;cursor:default;font-size:11px;fill:#606060;width:116px;text-overflow:clip;" text-anchor="middle" transform="translate(0,0)" y="707" opacity="1">19:34:10</text><text x="1068.5820283546295" style="color:#606060;cursor:default;font-size:11px;fill:#606060;width:116px;text-overflow:clip;" text-anchor="middle" transform="translate(0,0)" y="707" opacity="1">19:35:00</text><text x="1188.1268544975082" style="color:#606060;cursor:default;font-size:11px;fill:#606060;width:116px;text-overflow:clip;" text-anchor="middle" transform="translate(0,0)" y="707" opacity="1">19:35:50</text><text x="1307.671680640387" style="color:#606060;cursor:default;font-size:11px;fill:#606060;width:116px;text-overflow:clip;" text-anchor="middle" transform="translate(0,0)" y="707" opacity="1">19:36:40</text><text x="1427.2165067832657" style="color:#606060;cursor:default;font-size:11px;fill:#606060;width:116px;text-overflow:clip;" text-anchor="middle" transform="translate(0,0)" y="707" opacity="1">19:37:30</text><text x="1546.7613329261446" style="color:#606060;cursor:default;font-size:11px;fill:#606060;width:116px;text-overflow:clip;" text-anchor="middle" transform="translate(0,0)" y="707" opacity="1">19:38:20</text><text x="1666.3061590690234" style="color:#606060;cursor:default;font-size:11px;fill:#606060;width:116px;text-overflow:clip;" text-anchor="middle" transform="translate(0,0)" y="707" opacity="1">19:39:10</text><text x="1785.850985211902" style="color:#606060;cursor:default;font-size:11px;fill:#606060;width:116px;text-overflow:clip;" text-anchor="middle" transform="translate(0,0)" y="707" opacity="1">19:40:00</text><text x="1905.3958113547808" style="color:#606060;cursor:default;font-size:11px;fill:#606060;width:116px;text-overflow:clip;" text-anchor="middle" transform="translate(0,0)" y="707" opacity="1">19:40:50</text><text x="2024.9406374976595" style="color:#606060;cursor:default;font-size:11px;fill:#606060;width:116px;text-overflow:clip;" text-anchor="middle" transform="translate(0,0)" y="707" opacity="1">19:41:40</text><text x="2144.4854636405385" style="color:#606060;cursor:default;font-size:11px;fill:#606060;width:116px;text-overflow:clip;" text-anchor="middle" transform="translate(0,0)" y="707" opacity="1">19:42:30</text><text x="2245.640625" style="color:#606060;cursor:default;font-size:11px;fill:#606060;width:116px;text-overflow:clip;" text-anchor="middle" transform="translate(0,0)" y="707" opacity="1">19:43:20</text></g><g class="highcharts-axis-labels highcharts-yaxis-labels" ><text x="48" style="color:#606060;cursor:default;font-size:11px;fill:#606060;width:742px;text-overflow:clip;" text-anchor="end" transform="translate(0,0)" y="693" opacity="1">0</text><text x="48" style="color:#606060;cursor:default;font-size:11px;fill:#606060;width:742px;text-overflow:clip;" text-anchor="end" transform="translate(0,0)" y="640" opacity="1">5</text><text x="48" style="color:#606060;cursor:default;font-size:11px;fill:#606060;width:742px;text-overflow:clip;" text-anchor="end" transform="translate(0,0)" y="588" opacity="1">10</text><text x="48" style="color:#606060;cursor:default;font-size:11px;fill:#606060;width:742px;text-overflow:clip;" text-anchor="end" transform="translate(0,0)" y="536" opacity="1">15</text><text x="48" style="color:#606060;cursor:default;font-size:11px;fill:#606060;width:742px;text-overflow:clip;" text-anchor="end" transform="translate(0,0)" y="484" opacity="1">20</text><text x="48" style="color:#606060;cursor:default;font-size:11px;fill:#606060;width:742px;text-overflow:clip;" text-anchor="end" transform="translate(0,0)" y="431" opacity="1">25</text><text x="48" style="color:#606060;cursor:default;font-size:11px;fill:#606060;width:742px;text-overflow:clip;" text-anchor="end" transform="translate(0,0)" y="379" opacity="1">30</text><text x="48" style="color:#606060;cursor:default;font-size:11px;fill:#606060;width:742px;text-overflow:clip;" text-anchor="end" transform="translate(0,0)" y="327" opacity="1">35</text><text x="48" style="color:#606060;cursor:default;font-size:11px;fill:#606060;width:742px;text-overflow:clip;" text-anchor="end" transform="translate(0,0)" y="275" opacity="1">40</text><text x="48" style="color:#606060;cursor:default;font-size:11px;fill:#606060;width:742px;text-overflow:clip;" text-anchor="end" transform="translate(0,0)" y="222" opacity="1">45</text><text x="48" style="color:#606060;cursor:default;font-size:11px;fill:#606060;width:742px;text-overflow:clip;" text-anchor="end" transform="translate(0,0)" y="170" opacity="1">50</text><text x="48" style="color:#606060;cursor:default;font-size:11px;fill:#606060;width:742px;text-overflow:clip;" text-anchor="end" transform="translate(0,0)" y="118" opacity="1">55</text><text x="48" style="color:#606060;cursor:default;font-size:11px;fill:#606060;width:742px;text-overflow:clip;" text-anchor="end" transform="translate(0,0)" y="66" opacity="1">60</text></g><g class="highcharts-tooltip"  style="cursor:default;padding:0;pointer-events:none;white-space:nowrap;" transform="translate(0,-9999)"><path fill="none" d="M 3.5 0.5 L 13.5 0.5 C 16.5 0.5 16.5 0.5 16.5 3.5 L 16.5 13.5 C 16.5 16.5 16.5 16.5 13.5 16.5 L 3.5 16.5 C 0.5 16.5 0.5 16.5 0.5 13.5 L 0.5 3.5 C 0.5 0.5 0.5 0.5 3.5 0.5"  stroke="black" stroke-opacity="0.049999999999999996" stroke-width="5" transform="translate(1, 1)"></path><path fill="none" d="M 3.5 0.5 L 13.5 0.5 C 16.5 0.5 16.5 0.5 16.5 3.5 L 16.5 13.5 C 16.5 16.5 16.5 16.5 13.5 16.5 L 3.5 16.5 C 0.5 16.5 0.5 16.5 0.5 13.5 L 0.5 3.5 C 0.5 0.5 0.5 0.5 3.5 0.5"  stroke="black" stroke-opacity="0.09999999999999999" stroke-width="3" transform="translate(1, 1)"></path><path fill="none" d="M 3.5 0.5 L 13.5 0.5 C 16.5 0.5 16.5 0.5 16.5 3.5 L 16.5 13.5 C 16.5 16.5 16.5 16.5 13.5 16.5 L 3.5 16.5 C 0.5 16.5 0.5 16.5 0.5 13.5 L 0.5 3.5 C 0.5 0.5 0.5 0.5 3.5 0.5"  stroke="black" stroke-opacity="0.15" stroke-width="1" transform="translate(1, 1)"></path><path fill="rgb(249, 249, 249)" fill-opacity=" .85" d="M 3.5 0.5 L 13.5 0.5 C 16.5 0.5 16.5 0.5 16.5 3.5 L 16.5 13.5 C 16.5 16.5 16.5 16.5 13.5 16.5 L 3.5 16.5 C 0.5 16.5 0.5 16.5 0.5 13.5 L 0.5 3.5 C 0.5 0.5 0.5 0.5 3.5 0.5"></path><text x="8"  style="font-size:12px;color:#333333;fill:#333333;" y="20"></text></g><text x="2270" text-anchor="end"  style="cursor:pointer;color:#909090;font-size:9px;fill:#909090;" y="795"></text></svg>